M48
;DRILL file {KiCad 4.0.7} date 11/26/17 14:08:43
;FORMAT={-:-/ absolute / inch / decimal}
FMAT,2
INCH,TZ
T1C0.012
T2C0.031
T3C0.035
T4C0.039
T5C0.043
%
G90
G05
M72
T1
X4.3Y-3.1
X4.3Y-3.5
X4.3Y-3.95
X4.7Y-3.1
X4.8Y-3.9
X5.15Y-3.5
X5.285Y-3.9
X5.285Y-4.
X5.285Y-4.1
X5.35Y-3.1268
X5.4Y-3.1482
X5.475Y-3.175
X5.475Y-3.3945
X5.475Y-3.575
X5.525Y-3.2
X5.575Y-3.7
X5.65Y-3.35
X5.65Y-3.475
X5.65Y-4.25
X5.65Y-4.65
X5.65Y-4.65
X5.65Y-5.05
X5.6788Y-3.6103
X5.725Y-3.525
X5.75Y-3.55
X5.85Y-3.375
X5.85Y-3.6
X5.925Y-4.075
X5.95Y-3.425
X6.05Y-3.8
X6.05Y-5.05
X6.125Y-3.3
X6.125Y-4.075
X6.15Y-4.25
X6.15Y-4.65
X6.175Y-3.325
X6.225Y-3.375
X6.225Y-3.575
X6.225Y-4.1018
X6.25Y-2.9
X6.3Y-4.125
X6.35Y-3.35
X6.45Y-5.05
X6.5Y-3.65
X6.65Y-2.9
X6.65Y-4.25
X6.65Y-4.65
X6.7Y-3.875
X6.85Y-3.75
X6.85Y-5.05
X6.95Y-4.15
X7.05Y-2.9
X7.25Y-3.1
X7.25Y-3.5
X7.25Y-3.95
X7.25Y-5.05
T2
X4.4Y-3.5
X4.5Y-3.4
X4.6Y-3.5
X5.25Y-3.4079
X5.25Y-3.6
T3
X6.85Y-4.6
X6.85Y-4.7
X7.0169Y-4.9
X7.0169Y-5.
X7.1831Y-4.6
X7.1831Y-4.7
T4
X4.515Y-2.8984
X4.615Y-2.8984
X4.715Y-2.8984
X4.815Y-2.8984
X4.915Y-2.8984
X5.015Y-2.8984
X5.115Y-2.8984
X5.215Y-2.8984
X5.315Y-2.8984
X5.415Y-2.8984
X5.515Y-2.8984
X5.615Y-2.8984
X5.715Y-2.8984
X5.815Y-2.8984
X5.915Y-2.8984
X6.015Y-2.8984
X6.5Y-3.3071
X6.6Y-3.3071
X6.7Y-3.3071
X6.8Y-3.3071
X6.9Y-3.3071
T5
X4.35Y-4.4
X4.35Y-4.5772
X4.35Y-4.8
X4.35Y-4.9772
X4.6059Y-4.4
X4.6059Y-4.5772
X4.6059Y-4.8
X4.6059Y-4.9772
X4.75Y-4.4
X4.75Y-4.5772
X4.75Y-4.8
X4.75Y-4.9772
X5.0059Y-4.4
X5.0059Y-4.5772
X5.0059Y-4.8
X5.0059Y-4.9772
X5.15Y-4.4
X5.15Y-4.5772
X5.15Y-4.8
X5.15Y-4.9772
X5.4059Y-4.4
X5.4059Y-4.5772
X5.4059Y-4.8
X5.4059Y-4.9772
T0
M30
