G04 #@! TF.FileFunction,Soldermask,Bot*
%FSLAX46Y46*%
G04 Gerber Fmt 4.6, Leading zero omitted, Abs format (unit mm)*
G04 Created by KiCad (PCBNEW 4.0.7) date 11/26/17 13:54:13*
%MOMM*%
%LPD*%
G01*
G04 APERTURE LIST*
%ADD10C,0.100000*%
%ADD11C,1.900000*%
%ADD12C,2.400000*%
%ADD13R,1.800000X3.400000*%
%ADD14O,1.800000X3.400000*%
%ADD15C,5.400000*%
%ADD16R,2.200000X2.200000*%
%ADD17C,2.200000*%
%ADD18R,2.100000X2.100000*%
%ADD19C,2.100000*%
%ADD20C,1.840000*%
G04 APERTURE END LIST*
D10*
D11*
X142680000Y-125720000D03*
X166880000Y-125720000D03*
D12*
X110490000Y-126420000D03*
X110490000Y-121920000D03*
X116990000Y-126420000D03*
X116990000Y-121920000D03*
D11*
X133350000Y-91440000D03*
X133350000Y-86560000D03*
D13*
X114680000Y-73620000D03*
D14*
X117220000Y-73620000D03*
X119760000Y-73620000D03*
X122300000Y-73620000D03*
X124840000Y-73620000D03*
X127380000Y-73620000D03*
X129920000Y-73620000D03*
X132460000Y-73620000D03*
X135000000Y-73620000D03*
X137540000Y-73620000D03*
X140080000Y-73620000D03*
X142620000Y-73620000D03*
X145160000Y-73620000D03*
X147700000Y-73620000D03*
X150240000Y-73620000D03*
X152780000Y-73620000D03*
D15*
X109180000Y-73620000D03*
X109180000Y-104620000D03*
X184180000Y-73620000D03*
X184180000Y-104620000D03*
D16*
X178230000Y-124460000D03*
D17*
X178230000Y-127000000D03*
D16*
X173990000Y-116840000D03*
D17*
X173990000Y-119380000D03*
D16*
X182450000Y-116840000D03*
D17*
X182450000Y-119380000D03*
D12*
X110490000Y-116260000D03*
X110490000Y-111760000D03*
X116990000Y-116260000D03*
X116990000Y-111760000D03*
X120650000Y-116260000D03*
X120650000Y-111760000D03*
X127150000Y-116260000D03*
X127150000Y-111760000D03*
X120650000Y-126420000D03*
X120650000Y-121920000D03*
X127150000Y-126420000D03*
X127150000Y-121920000D03*
X130810000Y-126420000D03*
X130810000Y-121920000D03*
X137310000Y-126420000D03*
X137310000Y-121920000D03*
X130810000Y-116260000D03*
X130810000Y-111760000D03*
X137310000Y-116260000D03*
X137310000Y-111760000D03*
D18*
X165100000Y-84000000D03*
D19*
X167640000Y-84000000D03*
X170180000Y-84000000D03*
X172720000Y-84000000D03*
X175260000Y-84000000D03*
D20*
X111760000Y-88900000D03*
X114300000Y-86360000D03*
X116840000Y-88900000D03*
M02*
