G04 #@! TF.FileFunction,Legend,Top*
%FSLAX46Y46*%
G04 Gerber Fmt 4.6, Leading zero omitted, Abs format (unit mm)*
G04 Created by KiCad (PCBNEW 4.0.7) date 11/26/17 13:54:13*
%MOMM*%
%LPD*%
G01*
G04 APERTURE LIST*
%ADD10C,0.100000*%
%ADD11C,0.120000*%
%ADD12C,0.150000*%
%ADD13C,0.300000*%
G04 APERTURE END LIST*
D10*
D11*
X142440000Y-102160000D02*
X144340000Y-102160000D01*
X164910000Y-102160000D02*
X169840000Y-102160000D01*
X169840000Y-123710000D02*
X169840000Y-131180000D01*
X140920000Y-124820000D02*
X140920000Y-131180000D01*
X147450000Y-102160000D02*
X148460000Y-102160000D01*
X149880000Y-102160000D02*
X150940000Y-102160000D01*
X152410000Y-102160000D02*
X153470000Y-102160000D01*
X159910000Y-102160000D02*
X160950000Y-102160000D01*
X162370000Y-102160000D02*
X163480000Y-102160000D01*
X169840000Y-131180000D02*
X140920000Y-131180000D01*
X169840000Y-102160000D02*
X169840000Y-121200000D01*
X140920000Y-102160000D02*
X140920000Y-122410000D01*
D12*
X142145000Y-82645000D02*
X142145000Y-83220000D01*
X152495000Y-82645000D02*
X152495000Y-83320000D01*
X152495000Y-92995000D02*
X152495000Y-92320000D01*
X142145000Y-92995000D02*
X142145000Y-92320000D01*
X142145000Y-82645000D02*
X142820000Y-82645000D01*
X142145000Y-92995000D02*
X142820000Y-92995000D01*
X152495000Y-92995000D02*
X151820000Y-92995000D01*
X152495000Y-82645000D02*
X151820000Y-82645000D01*
X142145000Y-83220000D02*
X140870000Y-83220000D01*
D11*
X111490000Y-127420000D02*
X115990000Y-127420000D01*
X110240000Y-123420000D02*
X110240000Y-124920000D01*
X115990000Y-120920000D02*
X111490000Y-120920000D01*
X117240000Y-124920000D02*
X117240000Y-123420000D01*
X136340000Y-100530000D02*
X138340000Y-100530000D01*
X138340000Y-102670000D02*
X136340000Y-102670000D01*
X130825000Y-92125000D02*
X130825000Y-85875000D01*
X135875000Y-92125000D02*
X135875000Y-85875000D01*
X135875000Y-92125000D02*
G75*
G02X130825000Y-92125000I-2525000J0D01*
G01*
X135875000Y-85875000D02*
G75*
G03X130825000Y-85875000I-2525000J0D01*
G01*
X113270000Y-75680000D02*
X154190000Y-75680000D01*
X113270000Y-71560000D02*
X113270000Y-75680000D01*
X154190000Y-71560000D02*
X113270000Y-71560000D01*
X154190000Y-75680000D02*
X154190000Y-71560000D01*
X125690000Y-85340000D02*
X123690000Y-85340000D01*
X123690000Y-87380000D02*
X125690000Y-87380000D01*
X125690000Y-90420000D02*
X123690000Y-90420000D01*
X123690000Y-92460000D02*
X125690000Y-92460000D01*
X162290000Y-91690000D02*
X160290000Y-91690000D01*
X160290000Y-93730000D02*
X162290000Y-93730000D01*
X125980000Y-103370000D02*
X125980000Y-105370000D01*
X128020000Y-105370000D02*
X128020000Y-103370000D01*
X120900000Y-103370000D02*
X120900000Y-105370000D01*
X122940000Y-105370000D02*
X122940000Y-103370000D01*
X118360000Y-103370000D02*
X118360000Y-105370000D01*
X120400000Y-105370000D02*
X120400000Y-103370000D01*
X115820000Y-103370000D02*
X115820000Y-105370000D01*
X117860000Y-105370000D02*
X117860000Y-103370000D01*
X113280000Y-103370000D02*
X113280000Y-105370000D01*
X115320000Y-105370000D02*
X115320000Y-103370000D01*
X123440000Y-103370000D02*
X123440000Y-105370000D01*
X125480000Y-105370000D02*
X125480000Y-103370000D01*
X114260000Y-95500000D02*
X112260000Y-95500000D01*
X112260000Y-97540000D02*
X114260000Y-97540000D01*
X158640000Y-94200000D02*
X162890000Y-94200000D01*
X158640000Y-96300000D02*
X162890000Y-96300000D01*
X158640000Y-94200000D02*
X158640000Y-96300000D01*
X171560000Y-96300000D02*
X167310000Y-96300000D01*
X171560000Y-94200000D02*
X167310000Y-94200000D01*
X171560000Y-96300000D02*
X171560000Y-94200000D01*
X171560000Y-93760000D02*
X167310000Y-93760000D01*
X171560000Y-91660000D02*
X167310000Y-91660000D01*
X171560000Y-93760000D02*
X171560000Y-91660000D01*
X167910000Y-91190000D02*
X169910000Y-91190000D01*
X169910000Y-89150000D02*
X167910000Y-89150000D01*
X178229538Y-128720000D02*
G75*
G03X179774830Y-123170000I462J2990000D01*
G01*
X178230462Y-128720000D02*
G75*
G02X176685170Y-123170000I-462J2990000D01*
G01*
X180730000Y-125730000D02*
G75*
G03X180730000Y-125730000I-2500000J0D01*
G01*
X179775000Y-123170000D02*
X176685000Y-123170000D01*
X173989538Y-121100000D02*
G75*
G03X175534830Y-115550000I462J2990000D01*
G01*
X173990462Y-121100000D02*
G75*
G02X172445170Y-115550000I-462J2990000D01*
G01*
X176490000Y-118110000D02*
G75*
G03X176490000Y-118110000I-2500000J0D01*
G01*
X175535000Y-115550000D02*
X172445000Y-115550000D01*
X182449538Y-121100000D02*
G75*
G03X183994830Y-115550000I462J2990000D01*
G01*
X182450462Y-121100000D02*
G75*
G02X180905170Y-115550000I-462J2990000D01*
G01*
X184950000Y-118110000D02*
G75*
G03X184950000Y-118110000I-2500000J0D01*
G01*
X183995000Y-115550000D02*
X180905000Y-115550000D01*
X172990000Y-89690000D02*
X172990000Y-93990000D01*
X172990000Y-93990000D02*
X174990000Y-93990000D01*
X174990000Y-93990000D02*
X174990000Y-89690000D01*
X111490000Y-117260000D02*
X115990000Y-117260000D01*
X110240000Y-113260000D02*
X110240000Y-114760000D01*
X115990000Y-110760000D02*
X111490000Y-110760000D01*
X117240000Y-114760000D02*
X117240000Y-113260000D01*
X121650000Y-117260000D02*
X126150000Y-117260000D01*
X120400000Y-113260000D02*
X120400000Y-114760000D01*
X126150000Y-110760000D02*
X121650000Y-110760000D01*
X127400000Y-114760000D02*
X127400000Y-113260000D01*
X121650000Y-127420000D02*
X126150000Y-127420000D01*
X120400000Y-123420000D02*
X120400000Y-124920000D01*
X126150000Y-120920000D02*
X121650000Y-120920000D01*
X127400000Y-124920000D02*
X127400000Y-123420000D01*
X131810000Y-127420000D02*
X136310000Y-127420000D01*
X130560000Y-123420000D02*
X130560000Y-124920000D01*
X136310000Y-120920000D02*
X131810000Y-120920000D01*
X137560000Y-124920000D02*
X137560000Y-123420000D01*
X131810000Y-117260000D02*
X136310000Y-117260000D01*
X130560000Y-113260000D02*
X130560000Y-114760000D01*
X136310000Y-110760000D02*
X131810000Y-110760000D01*
X137560000Y-114760000D02*
X137560000Y-113260000D01*
X165040000Y-79160000D02*
X167700000Y-79160000D01*
X165040000Y-71060000D02*
X167700000Y-71060000D01*
X167700000Y-79160000D02*
X168970000Y-79160000D01*
X165040000Y-79160000D02*
X165040000Y-71060000D01*
X163770000Y-79160000D02*
X165040000Y-79160000D01*
X163770000Y-79160000D02*
X163770000Y-82580000D01*
X163770000Y-82580000D02*
X164525000Y-82580000D01*
X165675000Y-82580000D02*
X167065000Y-82580000D01*
X168215000Y-82580000D02*
X168970000Y-82580000D01*
X164525000Y-81945000D02*
X165675000Y-81945000D01*
X167065000Y-81945000D02*
X168215000Y-81945000D01*
X164525000Y-82580000D02*
X164525000Y-81945000D01*
X165675000Y-81945000D02*
X165675000Y-82580000D01*
X167065000Y-82580000D02*
X167065000Y-81945000D01*
X168215000Y-81945000D02*
X168215000Y-82580000D01*
X170755000Y-81945000D02*
X170755000Y-82580000D01*
X170755000Y-82580000D02*
X171510000Y-82580000D01*
X169605000Y-82580000D02*
X169605000Y-81945000D01*
X169605000Y-81945000D02*
X170755000Y-81945000D01*
X168215000Y-82580000D02*
X169605000Y-82580000D01*
X170240000Y-79160000D02*
X171510000Y-79160000D01*
X167580000Y-71060000D02*
X170240000Y-71060000D01*
X167580000Y-79160000D02*
X170240000Y-79160000D01*
X173295000Y-82580000D02*
X174050000Y-82580000D01*
X172145000Y-81945000D02*
X173295000Y-81945000D01*
X172780000Y-79160000D02*
X174050000Y-79160000D01*
X173295000Y-81945000D02*
X173295000Y-82580000D01*
X170755000Y-82580000D02*
X172145000Y-82580000D01*
X172145000Y-82580000D02*
X172145000Y-81945000D01*
X170755000Y-82580000D02*
X171510000Y-82580000D01*
X170120000Y-79160000D02*
X172780000Y-79160000D01*
X170120000Y-71060000D02*
X172780000Y-71060000D01*
X175320000Y-79160000D02*
X176590000Y-79160000D01*
X175835000Y-81945000D02*
X175835000Y-82580000D01*
X175835000Y-82580000D02*
X176590000Y-82580000D01*
X174685000Y-81945000D02*
X175835000Y-81945000D01*
X176590000Y-79160000D02*
X176590000Y-82580000D01*
X175320000Y-71060000D02*
X175320000Y-79160000D01*
X174685000Y-82580000D02*
X174685000Y-81945000D01*
X173295000Y-82580000D02*
X174685000Y-82580000D01*
X173295000Y-82580000D02*
X174050000Y-82580000D01*
X173295000Y-82580000D02*
X174050000Y-82580000D01*
X172660000Y-79160000D02*
X175320000Y-79160000D01*
X172660000Y-71060000D02*
X175320000Y-71060000D01*
X110940000Y-85380000D02*
X110940000Y-88370000D01*
X117660000Y-85380000D02*
X110940000Y-85380000D01*
X117660000Y-92490000D02*
X117660000Y-89430000D01*
X110940000Y-92490000D02*
X117660000Y-92490000D01*
X117660000Y-88370000D02*
X117660000Y-85380000D01*
X110940000Y-89430000D02*
X110940000Y-92490000D01*
X162290000Y-91240000D02*
X160290000Y-91240000D01*
X160290000Y-89100000D02*
X162290000Y-89100000D01*
X158660000Y-81080000D02*
X156660000Y-81080000D01*
X156660000Y-78940000D02*
X158660000Y-78940000D01*
X114210000Y-82350000D02*
X112210000Y-82350000D01*
X112210000Y-80210000D02*
X114210000Y-80210000D01*
X179300000Y-109670000D02*
X179300000Y-111670000D01*
X177160000Y-111670000D02*
X177160000Y-109670000D01*
X175060000Y-109670000D02*
X175060000Y-111670000D01*
X172920000Y-111670000D02*
X172920000Y-109670000D01*
X183520000Y-109670000D02*
X183520000Y-111670000D01*
X181380000Y-111670000D02*
X181380000Y-109670000D01*
X136340000Y-103070000D02*
X138340000Y-103070000D01*
X138340000Y-105210000D02*
X136340000Y-105210000D01*
X136340000Y-97990000D02*
X138340000Y-97990000D01*
X138340000Y-100130000D02*
X136340000Y-100130000D01*
X130265000Y-103070000D02*
X132265000Y-103070000D01*
X132265000Y-105210000D02*
X130265000Y-105210000D01*
X130265000Y-100530000D02*
X132265000Y-100530000D01*
X132265000Y-102670000D02*
X130265000Y-102670000D01*
X130265000Y-97990000D02*
X132265000Y-97990000D01*
X132265000Y-100130000D02*
X130265000Y-100130000D01*
X175460000Y-92440000D02*
X175460000Y-90440000D01*
X177600000Y-90440000D02*
X177600000Y-92440000D01*
X173543500Y-97860000D02*
X173543500Y-96660000D01*
X173543500Y-96660000D02*
X176243500Y-96660000D01*
X177543500Y-101460000D02*
X173543500Y-101460000D01*
X173543500Y-101460000D02*
X173543500Y-100260000D01*
D12*
X166218095Y-101072381D02*
X166218095Y-100072381D01*
X166789524Y-101072381D02*
X166360952Y-100500952D01*
X166789524Y-100072381D02*
X166218095Y-100643810D01*
X167360952Y-100500952D02*
X167265714Y-100453333D01*
X167218095Y-100405714D01*
X167170476Y-100310476D01*
X167170476Y-100262857D01*
X167218095Y-100167619D01*
X167265714Y-100120000D01*
X167360952Y-100072381D01*
X167551429Y-100072381D01*
X167646667Y-100120000D01*
X167694286Y-100167619D01*
X167741905Y-100262857D01*
X167741905Y-100310476D01*
X167694286Y-100405714D01*
X167646667Y-100453333D01*
X167551429Y-100500952D01*
X167360952Y-100500952D01*
X167265714Y-100548571D01*
X167218095Y-100596190D01*
X167170476Y-100691429D01*
X167170476Y-100881905D01*
X167218095Y-100977143D01*
X167265714Y-101024762D01*
X167360952Y-101072381D01*
X167551429Y-101072381D01*
X167646667Y-101024762D01*
X167694286Y-100977143D01*
X167741905Y-100881905D01*
X167741905Y-100691429D01*
X167694286Y-100596190D01*
X167646667Y-100548571D01*
X167551429Y-100500952D01*
X146558095Y-79822381D02*
X146558095Y-80631905D01*
X146605714Y-80727143D01*
X146653333Y-80774762D01*
X146748571Y-80822381D01*
X146939048Y-80822381D01*
X147034286Y-80774762D01*
X147081905Y-80727143D01*
X147129524Y-80631905D01*
X147129524Y-79822381D01*
X148129524Y-80822381D02*
X147558095Y-80822381D01*
X147843809Y-80822381D02*
X147843809Y-79822381D01*
X147748571Y-79965238D01*
X147653333Y-80060476D01*
X147558095Y-80108095D01*
D13*
X110549523Y-129824762D02*
X110549523Y-127824762D01*
X111692381Y-129824762D01*
X111692381Y-127824762D01*
X112644761Y-128777143D02*
X113311428Y-128777143D01*
X113597142Y-129824762D02*
X112644761Y-129824762D01*
X112644761Y-127824762D01*
X113597142Y-127824762D01*
X114263809Y-127824762D02*
X115597143Y-129824762D01*
X115597143Y-127824762D02*
X114263809Y-129824762D01*
X116073333Y-127824762D02*
X117216190Y-127824762D01*
X116644762Y-129824762D02*
X116644762Y-127824762D01*
D12*
X135072381Y-101766666D02*
X134596190Y-102100000D01*
X135072381Y-102338095D02*
X134072381Y-102338095D01*
X134072381Y-101957142D01*
X134120000Y-101861904D01*
X134167619Y-101814285D01*
X134262857Y-101766666D01*
X134405714Y-101766666D01*
X134500952Y-101814285D01*
X134548571Y-101861904D01*
X134596190Y-101957142D01*
X134596190Y-102338095D01*
X134500952Y-101195238D02*
X134453333Y-101290476D01*
X134405714Y-101338095D01*
X134310476Y-101385714D01*
X134262857Y-101385714D01*
X134167619Y-101338095D01*
X134120000Y-101290476D01*
X134072381Y-101195238D01*
X134072381Y-101004761D01*
X134120000Y-100909523D01*
X134167619Y-100861904D01*
X134262857Y-100814285D01*
X134310476Y-100814285D01*
X134405714Y-100861904D01*
X134453333Y-100909523D01*
X134500952Y-101004761D01*
X134500952Y-101195238D01*
X134548571Y-101290476D01*
X134596190Y-101338095D01*
X134691429Y-101385714D01*
X134881905Y-101385714D01*
X134977143Y-101338095D01*
X135024762Y-101290476D01*
X135072381Y-101195238D01*
X135072381Y-101004761D01*
X135024762Y-100909523D01*
X134977143Y-100861904D01*
X134881905Y-100814285D01*
X134691429Y-100814285D01*
X134596190Y-100861904D01*
X134548571Y-100909523D01*
X134500952Y-101004761D01*
X129801190Y-89476191D02*
X130277381Y-89476191D01*
X129277381Y-89809524D02*
X129801190Y-89476191D01*
X129277381Y-89142857D01*
X130277381Y-88285714D02*
X130277381Y-88857143D01*
X130277381Y-88571429D02*
X129277381Y-88571429D01*
X129420238Y-88666667D01*
X129515476Y-88761905D01*
X129563095Y-88857143D01*
X131293334Y-77572381D02*
X130817143Y-77572381D01*
X130817143Y-76572381D01*
X132198096Y-77477143D02*
X132150477Y-77524762D01*
X132007620Y-77572381D01*
X131912382Y-77572381D01*
X131769524Y-77524762D01*
X131674286Y-77429524D01*
X131626667Y-77334286D01*
X131579048Y-77143810D01*
X131579048Y-77000952D01*
X131626667Y-76810476D01*
X131674286Y-76715238D01*
X131769524Y-76620000D01*
X131912382Y-76572381D01*
X132007620Y-76572381D01*
X132150477Y-76620000D01*
X132198096Y-76667619D01*
X132626667Y-77572381D02*
X132626667Y-76572381D01*
X132864762Y-76572381D01*
X133007620Y-76620000D01*
X133102858Y-76715238D01*
X133150477Y-76810476D01*
X133198096Y-77000952D01*
X133198096Y-77143810D01*
X133150477Y-77334286D01*
X133102858Y-77429524D01*
X133007620Y-77524762D01*
X132864762Y-77572381D01*
X132626667Y-77572381D01*
X134150477Y-77572381D02*
X133579048Y-77572381D01*
X133864762Y-77572381D02*
X133864762Y-76572381D01*
X133769524Y-76715238D01*
X133674286Y-76810476D01*
X133579048Y-76858095D01*
X124523334Y-84967143D02*
X124475715Y-85014762D01*
X124332858Y-85062381D01*
X124237620Y-85062381D01*
X124094762Y-85014762D01*
X123999524Y-84919524D01*
X123951905Y-84824286D01*
X123904286Y-84633810D01*
X123904286Y-84490952D01*
X123951905Y-84300476D01*
X123999524Y-84205238D01*
X124094762Y-84110000D01*
X124237620Y-84062381D01*
X124332858Y-84062381D01*
X124475715Y-84110000D01*
X124523334Y-84157619D01*
X125475715Y-85062381D02*
X124904286Y-85062381D01*
X125190000Y-85062381D02*
X125190000Y-84062381D01*
X125094762Y-84205238D01*
X124999524Y-84300476D01*
X124904286Y-84348095D01*
X124523334Y-90047143D02*
X124475715Y-90094762D01*
X124332858Y-90142381D01*
X124237620Y-90142381D01*
X124094762Y-90094762D01*
X123999524Y-89999524D01*
X123951905Y-89904286D01*
X123904286Y-89713810D01*
X123904286Y-89570952D01*
X123951905Y-89380476D01*
X123999524Y-89285238D01*
X124094762Y-89190000D01*
X124237620Y-89142381D01*
X124332858Y-89142381D01*
X124475715Y-89190000D01*
X124523334Y-89237619D01*
X124904286Y-89237619D02*
X124951905Y-89190000D01*
X125047143Y-89142381D01*
X125285239Y-89142381D01*
X125380477Y-89190000D01*
X125428096Y-89237619D01*
X125475715Y-89332857D01*
X125475715Y-89428095D01*
X125428096Y-89570952D01*
X124856667Y-90142381D01*
X125475715Y-90142381D01*
X157313334Y-93067143D02*
X157265715Y-93114762D01*
X157122858Y-93162381D01*
X157027620Y-93162381D01*
X156884762Y-93114762D01*
X156789524Y-93019524D01*
X156741905Y-92924286D01*
X156694286Y-92733810D01*
X156694286Y-92590952D01*
X156741905Y-92400476D01*
X156789524Y-92305238D01*
X156884762Y-92210000D01*
X157027620Y-92162381D01*
X157122858Y-92162381D01*
X157265715Y-92210000D01*
X157313334Y-92257619D01*
X157646667Y-92162381D02*
X158265715Y-92162381D01*
X157932381Y-92543333D01*
X158075239Y-92543333D01*
X158170477Y-92590952D01*
X158218096Y-92638571D01*
X158265715Y-92733810D01*
X158265715Y-92971905D01*
X158218096Y-93067143D01*
X158170477Y-93114762D01*
X158075239Y-93162381D01*
X157789524Y-93162381D01*
X157694286Y-93114762D01*
X157646667Y-93067143D01*
X127357143Y-101131666D02*
X127404762Y-101179285D01*
X127452381Y-101322142D01*
X127452381Y-101417380D01*
X127404762Y-101560238D01*
X127309524Y-101655476D01*
X127214286Y-101703095D01*
X127023810Y-101750714D01*
X126880952Y-101750714D01*
X126690476Y-101703095D01*
X126595238Y-101655476D01*
X126500000Y-101560238D01*
X126452381Y-101417380D01*
X126452381Y-101322142D01*
X126500000Y-101179285D01*
X126547619Y-101131666D01*
X126785714Y-100274523D02*
X127452381Y-100274523D01*
X126404762Y-100512619D02*
X127119048Y-100750714D01*
X127119048Y-100131666D01*
X122277143Y-101131666D02*
X122324762Y-101179285D01*
X122372381Y-101322142D01*
X122372381Y-101417380D01*
X122324762Y-101560238D01*
X122229524Y-101655476D01*
X122134286Y-101703095D01*
X121943810Y-101750714D01*
X121800952Y-101750714D01*
X121610476Y-101703095D01*
X121515238Y-101655476D01*
X121420000Y-101560238D01*
X121372381Y-101417380D01*
X121372381Y-101322142D01*
X121420000Y-101179285D01*
X121467619Y-101131666D01*
X121372381Y-100226904D02*
X121372381Y-100703095D01*
X121848571Y-100750714D01*
X121800952Y-100703095D01*
X121753333Y-100607857D01*
X121753333Y-100369761D01*
X121800952Y-100274523D01*
X121848571Y-100226904D01*
X121943810Y-100179285D01*
X122181905Y-100179285D01*
X122277143Y-100226904D01*
X122324762Y-100274523D01*
X122372381Y-100369761D01*
X122372381Y-100607857D01*
X122324762Y-100703095D01*
X122277143Y-100750714D01*
X119737143Y-101131666D02*
X119784762Y-101179285D01*
X119832381Y-101322142D01*
X119832381Y-101417380D01*
X119784762Y-101560238D01*
X119689524Y-101655476D01*
X119594286Y-101703095D01*
X119403810Y-101750714D01*
X119260952Y-101750714D01*
X119070476Y-101703095D01*
X118975238Y-101655476D01*
X118880000Y-101560238D01*
X118832381Y-101417380D01*
X118832381Y-101322142D01*
X118880000Y-101179285D01*
X118927619Y-101131666D01*
X118832381Y-100274523D02*
X118832381Y-100465000D01*
X118880000Y-100560238D01*
X118927619Y-100607857D01*
X119070476Y-100703095D01*
X119260952Y-100750714D01*
X119641905Y-100750714D01*
X119737143Y-100703095D01*
X119784762Y-100655476D01*
X119832381Y-100560238D01*
X119832381Y-100369761D01*
X119784762Y-100274523D01*
X119737143Y-100226904D01*
X119641905Y-100179285D01*
X119403810Y-100179285D01*
X119308571Y-100226904D01*
X119260952Y-100274523D01*
X119213333Y-100369761D01*
X119213333Y-100560238D01*
X119260952Y-100655476D01*
X119308571Y-100703095D01*
X119403810Y-100750714D01*
X117197143Y-101131666D02*
X117244762Y-101179285D01*
X117292381Y-101322142D01*
X117292381Y-101417380D01*
X117244762Y-101560238D01*
X117149524Y-101655476D01*
X117054286Y-101703095D01*
X116863810Y-101750714D01*
X116720952Y-101750714D01*
X116530476Y-101703095D01*
X116435238Y-101655476D01*
X116340000Y-101560238D01*
X116292381Y-101417380D01*
X116292381Y-101322142D01*
X116340000Y-101179285D01*
X116387619Y-101131666D01*
X116292381Y-100798333D02*
X116292381Y-100131666D01*
X117292381Y-100560238D01*
X114657143Y-101131666D02*
X114704762Y-101179285D01*
X114752381Y-101322142D01*
X114752381Y-101417380D01*
X114704762Y-101560238D01*
X114609524Y-101655476D01*
X114514286Y-101703095D01*
X114323810Y-101750714D01*
X114180952Y-101750714D01*
X113990476Y-101703095D01*
X113895238Y-101655476D01*
X113800000Y-101560238D01*
X113752381Y-101417380D01*
X113752381Y-101322142D01*
X113800000Y-101179285D01*
X113847619Y-101131666D01*
X114180952Y-100560238D02*
X114133333Y-100655476D01*
X114085714Y-100703095D01*
X113990476Y-100750714D01*
X113942857Y-100750714D01*
X113847619Y-100703095D01*
X113800000Y-100655476D01*
X113752381Y-100560238D01*
X113752381Y-100369761D01*
X113800000Y-100274523D01*
X113847619Y-100226904D01*
X113942857Y-100179285D01*
X113990476Y-100179285D01*
X114085714Y-100226904D01*
X114133333Y-100274523D01*
X114180952Y-100369761D01*
X114180952Y-100560238D01*
X114228571Y-100655476D01*
X114276190Y-100703095D01*
X114371429Y-100750714D01*
X114561905Y-100750714D01*
X114657143Y-100703095D01*
X114704762Y-100655476D01*
X114752381Y-100560238D01*
X114752381Y-100369761D01*
X114704762Y-100274523D01*
X114657143Y-100226904D01*
X114561905Y-100179285D01*
X114371429Y-100179285D01*
X114276190Y-100226904D01*
X114228571Y-100274523D01*
X114180952Y-100369761D01*
X124817143Y-101131666D02*
X124864762Y-101179285D01*
X124912381Y-101322142D01*
X124912381Y-101417380D01*
X124864762Y-101560238D01*
X124769524Y-101655476D01*
X124674286Y-101703095D01*
X124483810Y-101750714D01*
X124340952Y-101750714D01*
X124150476Y-101703095D01*
X124055238Y-101655476D01*
X123960000Y-101560238D01*
X123912381Y-101417380D01*
X123912381Y-101322142D01*
X123960000Y-101179285D01*
X124007619Y-101131666D01*
X124912381Y-100655476D02*
X124912381Y-100465000D01*
X124864762Y-100369761D01*
X124817143Y-100322142D01*
X124674286Y-100226904D01*
X124483810Y-100179285D01*
X124102857Y-100179285D01*
X124007619Y-100226904D01*
X123960000Y-100274523D01*
X123912381Y-100369761D01*
X123912381Y-100560238D01*
X123960000Y-100655476D01*
X124007619Y-100703095D01*
X124102857Y-100750714D01*
X124340952Y-100750714D01*
X124436190Y-100703095D01*
X124483810Y-100655476D01*
X124531429Y-100560238D01*
X124531429Y-100369761D01*
X124483810Y-100274523D01*
X124436190Y-100226904D01*
X124340952Y-100179285D01*
X112617143Y-95127143D02*
X112569524Y-95174762D01*
X112426667Y-95222381D01*
X112331429Y-95222381D01*
X112188571Y-95174762D01*
X112093333Y-95079524D01*
X112045714Y-94984286D01*
X111998095Y-94793810D01*
X111998095Y-94650952D01*
X112045714Y-94460476D01*
X112093333Y-94365238D01*
X112188571Y-94270000D01*
X112331429Y-94222381D01*
X112426667Y-94222381D01*
X112569524Y-94270000D01*
X112617143Y-94317619D01*
X113569524Y-95222381D02*
X112998095Y-95222381D01*
X113283809Y-95222381D02*
X113283809Y-94222381D01*
X113188571Y-94365238D01*
X113093333Y-94460476D01*
X112998095Y-94508095D01*
X114188571Y-94222381D02*
X114283810Y-94222381D01*
X114379048Y-94270000D01*
X114426667Y-94317619D01*
X114474286Y-94412857D01*
X114521905Y-94603333D01*
X114521905Y-94841429D01*
X114474286Y-95031905D01*
X114426667Y-95127143D01*
X114379048Y-95174762D01*
X114283810Y-95222381D01*
X114188571Y-95222381D01*
X114093333Y-95174762D01*
X114045714Y-95127143D01*
X113998095Y-95031905D01*
X113950476Y-94841429D01*
X113950476Y-94603333D01*
X113998095Y-94412857D01*
X114045714Y-94317619D01*
X114093333Y-94270000D01*
X114188571Y-94222381D01*
X156202143Y-95607143D02*
X156154524Y-95654762D01*
X156011667Y-95702381D01*
X155916429Y-95702381D01*
X155773571Y-95654762D01*
X155678333Y-95559524D01*
X155630714Y-95464286D01*
X155583095Y-95273810D01*
X155583095Y-95130952D01*
X155630714Y-94940476D01*
X155678333Y-94845238D01*
X155773571Y-94750000D01*
X155916429Y-94702381D01*
X156011667Y-94702381D01*
X156154524Y-94750000D01*
X156202143Y-94797619D01*
X157154524Y-95702381D02*
X156583095Y-95702381D01*
X156868809Y-95702381D02*
X156868809Y-94702381D01*
X156773571Y-94845238D01*
X156678333Y-94940476D01*
X156583095Y-94988095D01*
X158106905Y-95702381D02*
X157535476Y-95702381D01*
X157821190Y-95702381D02*
X157821190Y-94702381D01*
X157725952Y-94845238D01*
X157630714Y-94940476D01*
X157535476Y-94988095D01*
X168267143Y-98147143D02*
X168219524Y-98194762D01*
X168076667Y-98242381D01*
X167981429Y-98242381D01*
X167838571Y-98194762D01*
X167743333Y-98099524D01*
X167695714Y-98004286D01*
X167648095Y-97813810D01*
X167648095Y-97670952D01*
X167695714Y-97480476D01*
X167743333Y-97385238D01*
X167838571Y-97290000D01*
X167981429Y-97242381D01*
X168076667Y-97242381D01*
X168219524Y-97290000D01*
X168267143Y-97337619D01*
X169219524Y-98242381D02*
X168648095Y-98242381D01*
X168933809Y-98242381D02*
X168933809Y-97242381D01*
X168838571Y-97385238D01*
X168743333Y-97480476D01*
X168648095Y-97528095D01*
X169600476Y-97337619D02*
X169648095Y-97290000D01*
X169743333Y-97242381D01*
X169981429Y-97242381D01*
X170076667Y-97290000D01*
X170124286Y-97337619D01*
X170171905Y-97432857D01*
X170171905Y-97528095D01*
X170124286Y-97670952D01*
X169552857Y-98242381D01*
X170171905Y-98242381D01*
X165457143Y-93352857D02*
X165504762Y-93400476D01*
X165552381Y-93543333D01*
X165552381Y-93638571D01*
X165504762Y-93781429D01*
X165409524Y-93876667D01*
X165314286Y-93924286D01*
X165123810Y-93971905D01*
X164980952Y-93971905D01*
X164790476Y-93924286D01*
X164695238Y-93876667D01*
X164600000Y-93781429D01*
X164552381Y-93638571D01*
X164552381Y-93543333D01*
X164600000Y-93400476D01*
X164647619Y-93352857D01*
X165552381Y-92400476D02*
X165552381Y-92971905D01*
X165552381Y-92686191D02*
X164552381Y-92686191D01*
X164695238Y-92781429D01*
X164790476Y-92876667D01*
X164838095Y-92971905D01*
X164552381Y-92067143D02*
X164552381Y-91448095D01*
X164933333Y-91781429D01*
X164933333Y-91638571D01*
X164980952Y-91543333D01*
X165028571Y-91495714D01*
X165123810Y-91448095D01*
X165361905Y-91448095D01*
X165457143Y-91495714D01*
X165504762Y-91543333D01*
X165552381Y-91638571D01*
X165552381Y-91924286D01*
X165504762Y-92019524D01*
X165457143Y-92067143D01*
X164457143Y-90527143D02*
X164409524Y-90574762D01*
X164266667Y-90622381D01*
X164171429Y-90622381D01*
X164028571Y-90574762D01*
X163933333Y-90479524D01*
X163885714Y-90384286D01*
X163838095Y-90193810D01*
X163838095Y-90050952D01*
X163885714Y-89860476D01*
X163933333Y-89765238D01*
X164028571Y-89670000D01*
X164171429Y-89622381D01*
X164266667Y-89622381D01*
X164409524Y-89670000D01*
X164457143Y-89717619D01*
X165409524Y-90622381D02*
X164838095Y-90622381D01*
X165123809Y-90622381D02*
X165123809Y-89622381D01*
X165028571Y-89765238D01*
X164933333Y-89860476D01*
X164838095Y-89908095D01*
X166266667Y-89955714D02*
X166266667Y-90622381D01*
X166028571Y-89574762D02*
X165790476Y-90289048D01*
X166409524Y-90289048D01*
X180157381Y-122658095D02*
X179157381Y-122658095D01*
X179157381Y-122420000D01*
X179205000Y-122277142D01*
X179300238Y-122181904D01*
X179395476Y-122134285D01*
X179585952Y-122086666D01*
X179728810Y-122086666D01*
X179919286Y-122134285D01*
X180014524Y-122181904D01*
X180109762Y-122277142D01*
X180157381Y-122420000D01*
X180157381Y-122658095D01*
X180157381Y-121134285D02*
X180157381Y-121705714D01*
X180157381Y-121420000D02*
X179157381Y-121420000D01*
X179300238Y-121515238D01*
X179395476Y-121610476D01*
X179443095Y-121705714D01*
X176347381Y-115038095D02*
X175347381Y-115038095D01*
X175347381Y-114800000D01*
X175395000Y-114657142D01*
X175490238Y-114561904D01*
X175585476Y-114514285D01*
X175775952Y-114466666D01*
X175918810Y-114466666D01*
X176109286Y-114514285D01*
X176204524Y-114561904D01*
X176299762Y-114657142D01*
X176347381Y-114800000D01*
X176347381Y-115038095D01*
X175442619Y-114085714D02*
X175395000Y-114038095D01*
X175347381Y-113942857D01*
X175347381Y-113704761D01*
X175395000Y-113609523D01*
X175442619Y-113561904D01*
X175537857Y-113514285D01*
X175633095Y-113514285D01*
X175775952Y-113561904D01*
X176347381Y-114133333D01*
X176347381Y-113514285D01*
X184602381Y-115038095D02*
X183602381Y-115038095D01*
X183602381Y-114800000D01*
X183650000Y-114657142D01*
X183745238Y-114561904D01*
X183840476Y-114514285D01*
X184030952Y-114466666D01*
X184173810Y-114466666D01*
X184364286Y-114514285D01*
X184459524Y-114561904D01*
X184554762Y-114657142D01*
X184602381Y-114800000D01*
X184602381Y-115038095D01*
X183602381Y-114133333D02*
X183602381Y-113514285D01*
X183983333Y-113847619D01*
X183983333Y-113704761D01*
X184030952Y-113609523D01*
X184078571Y-113561904D01*
X184173810Y-113514285D01*
X184411905Y-113514285D01*
X184507143Y-113561904D01*
X184554762Y-113609523D01*
X184602381Y-113704761D01*
X184602381Y-113990476D01*
X184554762Y-114085714D01*
X184507143Y-114133333D01*
X174442381Y-95988095D02*
X173442381Y-95988095D01*
X173442381Y-95750000D01*
X173490000Y-95607142D01*
X173585238Y-95511904D01*
X173680476Y-95464285D01*
X173870952Y-95416666D01*
X174013810Y-95416666D01*
X174204286Y-95464285D01*
X174299524Y-95511904D01*
X174394762Y-95607142D01*
X174442381Y-95750000D01*
X174442381Y-95988095D01*
X173775714Y-94559523D02*
X174442381Y-94559523D01*
X173394762Y-94797619D02*
X174109048Y-95035714D01*
X174109048Y-94416666D01*
D13*
X109978095Y-119664762D02*
X109978095Y-117664762D01*
X110454286Y-117664762D01*
X110740000Y-117760000D01*
X110930476Y-117950476D01*
X111025715Y-118140952D01*
X111120953Y-118521905D01*
X111120953Y-118807619D01*
X111025715Y-119188571D01*
X110930476Y-119379048D01*
X110740000Y-119569524D01*
X110454286Y-119664762D01*
X109978095Y-119664762D01*
X113120953Y-119664762D02*
X112454286Y-118712381D01*
X111978095Y-119664762D02*
X111978095Y-117664762D01*
X112740000Y-117664762D01*
X112930476Y-117760000D01*
X113025715Y-117855238D01*
X113120953Y-118045714D01*
X113120953Y-118331429D01*
X113025715Y-118521905D01*
X112930476Y-118617143D01*
X112740000Y-118712381D01*
X111978095Y-118712381D01*
X113978095Y-119664762D02*
X113978095Y-117664762D01*
X114644762Y-117664762D02*
X115311429Y-119664762D01*
X115978096Y-117664762D01*
X116644762Y-118617143D02*
X117311429Y-118617143D01*
X117597143Y-119664762D02*
X116644762Y-119664762D01*
X116644762Y-117664762D01*
X117597143Y-117664762D01*
X122566667Y-119474286D02*
X122471429Y-119569524D01*
X122185714Y-119664762D01*
X121995238Y-119664762D01*
X121709524Y-119569524D01*
X121519048Y-119379048D01*
X121423809Y-119188571D01*
X121328571Y-118807619D01*
X121328571Y-118521905D01*
X121423809Y-118140952D01*
X121519048Y-117950476D01*
X121709524Y-117760000D01*
X121995238Y-117664762D01*
X122185714Y-117664762D01*
X122471429Y-117760000D01*
X122566667Y-117855238D01*
X123423809Y-119664762D02*
X123423809Y-117664762D01*
X123900000Y-117664762D01*
X124185714Y-117760000D01*
X124376190Y-117950476D01*
X124471429Y-118140952D01*
X124566667Y-118521905D01*
X124566667Y-118807619D01*
X124471429Y-119188571D01*
X124376190Y-119379048D01*
X124185714Y-119569524D01*
X123900000Y-119664762D01*
X123423809Y-119664762D01*
X125423809Y-119474286D02*
X125519048Y-119569524D01*
X125423809Y-119664762D01*
X125328571Y-119569524D01*
X125423809Y-119474286D01*
X125423809Y-119664762D01*
X126376190Y-119474286D02*
X126471429Y-119569524D01*
X126376190Y-119664762D01*
X126280952Y-119569524D01*
X126376190Y-119474286D01*
X126376190Y-119664762D01*
X119757142Y-128777143D02*
X120423809Y-128777143D01*
X120709523Y-129824762D02*
X119757142Y-129824762D01*
X119757142Y-127824762D01*
X120709523Y-127824762D01*
X121566666Y-129824762D02*
X121566666Y-127824762D01*
X122709524Y-129824762D01*
X122709524Y-127824762D01*
X123376190Y-127824762D02*
X124519047Y-127824762D01*
X123947619Y-129824762D02*
X123947619Y-127824762D01*
X125185714Y-128777143D02*
X125852381Y-128777143D01*
X126138095Y-129824762D02*
X125185714Y-129824762D01*
X125185714Y-127824762D01*
X126138095Y-127824762D01*
X128138096Y-129824762D02*
X127471429Y-128872381D01*
X126995238Y-129824762D02*
X126995238Y-127824762D01*
X127757143Y-127824762D01*
X127947619Y-127920000D01*
X128042858Y-128015238D01*
X128138096Y-128205714D01*
X128138096Y-128491429D01*
X128042858Y-128681905D01*
X127947619Y-128777143D01*
X127757143Y-128872381D01*
X126995238Y-128872381D01*
X130345714Y-129729524D02*
X130631429Y-129824762D01*
X131107619Y-129824762D01*
X131298095Y-129729524D01*
X131393333Y-129634286D01*
X131488572Y-129443810D01*
X131488572Y-129253333D01*
X131393333Y-129062857D01*
X131298095Y-128967619D01*
X131107619Y-128872381D01*
X130726667Y-128777143D01*
X130536191Y-128681905D01*
X130440952Y-128586667D01*
X130345714Y-128396190D01*
X130345714Y-128205714D01*
X130440952Y-128015238D01*
X130536191Y-127920000D01*
X130726667Y-127824762D01*
X131202857Y-127824762D01*
X131488572Y-127920000D01*
X132345714Y-129824762D02*
X132345714Y-127824762D01*
X132345714Y-128777143D02*
X133488572Y-128777143D01*
X133488572Y-129824762D02*
X133488572Y-127824762D01*
X134440952Y-129824762D02*
X134440952Y-127824762D01*
X136060000Y-128777143D02*
X135393333Y-128777143D01*
X135393333Y-129824762D02*
X135393333Y-127824762D01*
X136345714Y-127824762D01*
X136821905Y-127824762D02*
X137964762Y-127824762D01*
X137393334Y-129824762D02*
X137393334Y-127824762D01*
X131155238Y-119664762D02*
X130488571Y-118712381D01*
X130012380Y-119664762D02*
X130012380Y-117664762D01*
X130774285Y-117664762D01*
X130964761Y-117760000D01*
X131060000Y-117855238D01*
X131155238Y-118045714D01*
X131155238Y-118331429D01*
X131060000Y-118521905D01*
X130964761Y-118617143D01*
X130774285Y-118712381D01*
X130012380Y-118712381D01*
X132012380Y-118617143D02*
X132679047Y-118617143D01*
X132964761Y-119664762D02*
X132012380Y-119664762D01*
X132012380Y-117664762D01*
X132964761Y-117664762D01*
X133726666Y-119569524D02*
X134012381Y-119664762D01*
X134488571Y-119664762D01*
X134679047Y-119569524D01*
X134774285Y-119474286D01*
X134869524Y-119283810D01*
X134869524Y-119093333D01*
X134774285Y-118902857D01*
X134679047Y-118807619D01*
X134488571Y-118712381D01*
X134107619Y-118617143D01*
X133917143Y-118521905D01*
X133821904Y-118426667D01*
X133726666Y-118236190D01*
X133726666Y-118045714D01*
X133821904Y-117855238D01*
X133917143Y-117760000D01*
X134107619Y-117664762D01*
X134583809Y-117664762D01*
X134869524Y-117760000D01*
X135726666Y-118617143D02*
X136393333Y-118617143D01*
X136679047Y-119664762D02*
X135726666Y-119664762D01*
X135726666Y-117664762D01*
X136679047Y-117664762D01*
X137250476Y-117664762D02*
X138393333Y-117664762D01*
X137821905Y-119664762D02*
X137821905Y-117664762D01*
D12*
X164552381Y-76738095D02*
X163552381Y-76738095D01*
X164552381Y-76166666D02*
X163980952Y-76595238D01*
X163552381Y-76166666D02*
X164123810Y-76738095D01*
X163552381Y-75833333D02*
X163552381Y-75166666D01*
X164552381Y-75595238D01*
X110392381Y-89673095D02*
X109392381Y-89673095D01*
X109392381Y-89292142D01*
X109440000Y-89196904D01*
X109487619Y-89149285D01*
X109582857Y-89101666D01*
X109725714Y-89101666D01*
X109820952Y-89149285D01*
X109868571Y-89196904D01*
X109916190Y-89292142D01*
X109916190Y-89673095D01*
X110392381Y-88149285D02*
X110392381Y-88720714D01*
X110392381Y-88435000D02*
X109392381Y-88435000D01*
X109535238Y-88530238D01*
X109630476Y-88625476D01*
X109678095Y-88720714D01*
X157313334Y-90622381D02*
X156980000Y-90146190D01*
X156741905Y-90622381D02*
X156741905Y-89622381D01*
X157122858Y-89622381D01*
X157218096Y-89670000D01*
X157265715Y-89717619D01*
X157313334Y-89812857D01*
X157313334Y-89955714D01*
X157265715Y-90050952D01*
X157218096Y-90098571D01*
X157122858Y-90146190D01*
X156741905Y-90146190D01*
X158265715Y-90622381D02*
X157694286Y-90622381D01*
X157980000Y-90622381D02*
X157980000Y-89622381D01*
X157884762Y-89765238D01*
X157789524Y-89860476D01*
X157694286Y-89908095D01*
X157493334Y-78612381D02*
X157160000Y-78136190D01*
X156921905Y-78612381D02*
X156921905Y-77612381D01*
X157302858Y-77612381D01*
X157398096Y-77660000D01*
X157445715Y-77707619D01*
X157493334Y-77802857D01*
X157493334Y-77945714D01*
X157445715Y-78040952D01*
X157398096Y-78088571D01*
X157302858Y-78136190D01*
X156921905Y-78136190D01*
X157874286Y-77707619D02*
X157921905Y-77660000D01*
X158017143Y-77612381D01*
X158255239Y-77612381D01*
X158350477Y-77660000D01*
X158398096Y-77707619D01*
X158445715Y-77802857D01*
X158445715Y-77898095D01*
X158398096Y-78040952D01*
X157826667Y-78612381D01*
X158445715Y-78612381D01*
X113043334Y-79882381D02*
X112710000Y-79406190D01*
X112471905Y-79882381D02*
X112471905Y-78882381D01*
X112852858Y-78882381D01*
X112948096Y-78930000D01*
X112995715Y-78977619D01*
X113043334Y-79072857D01*
X113043334Y-79215714D01*
X112995715Y-79310952D01*
X112948096Y-79358571D01*
X112852858Y-79406190D01*
X112471905Y-79406190D01*
X113376667Y-78882381D02*
X113995715Y-78882381D01*
X113662381Y-79263333D01*
X113805239Y-79263333D01*
X113900477Y-79310952D01*
X113948096Y-79358571D01*
X113995715Y-79453810D01*
X113995715Y-79691905D01*
X113948096Y-79787143D01*
X113900477Y-79834762D01*
X113805239Y-79882381D01*
X113519524Y-79882381D01*
X113424286Y-79834762D01*
X113376667Y-79787143D01*
X176832381Y-110836666D02*
X176356190Y-111170000D01*
X176832381Y-111408095D02*
X175832381Y-111408095D01*
X175832381Y-111027142D01*
X175880000Y-110931904D01*
X175927619Y-110884285D01*
X176022857Y-110836666D01*
X176165714Y-110836666D01*
X176260952Y-110884285D01*
X176308571Y-110931904D01*
X176356190Y-111027142D01*
X176356190Y-111408095D01*
X176165714Y-109979523D02*
X176832381Y-109979523D01*
X175784762Y-110217619D02*
X176499048Y-110455714D01*
X176499048Y-109836666D01*
X172592381Y-110836666D02*
X172116190Y-111170000D01*
X172592381Y-111408095D02*
X171592381Y-111408095D01*
X171592381Y-111027142D01*
X171640000Y-110931904D01*
X171687619Y-110884285D01*
X171782857Y-110836666D01*
X171925714Y-110836666D01*
X172020952Y-110884285D01*
X172068571Y-110931904D01*
X172116190Y-111027142D01*
X172116190Y-111408095D01*
X171592381Y-109931904D02*
X171592381Y-110408095D01*
X172068571Y-110455714D01*
X172020952Y-110408095D01*
X171973333Y-110312857D01*
X171973333Y-110074761D01*
X172020952Y-109979523D01*
X172068571Y-109931904D01*
X172163810Y-109884285D01*
X172401905Y-109884285D01*
X172497143Y-109931904D01*
X172544762Y-109979523D01*
X172592381Y-110074761D01*
X172592381Y-110312857D01*
X172544762Y-110408095D01*
X172497143Y-110455714D01*
X181052381Y-110836666D02*
X180576190Y-111170000D01*
X181052381Y-111408095D02*
X180052381Y-111408095D01*
X180052381Y-111027142D01*
X180100000Y-110931904D01*
X180147619Y-110884285D01*
X180242857Y-110836666D01*
X180385714Y-110836666D01*
X180480952Y-110884285D01*
X180528571Y-110931904D01*
X180576190Y-111027142D01*
X180576190Y-111408095D01*
X180052381Y-109979523D02*
X180052381Y-110170000D01*
X180100000Y-110265238D01*
X180147619Y-110312857D01*
X180290476Y-110408095D01*
X180480952Y-110455714D01*
X180861905Y-110455714D01*
X180957143Y-110408095D01*
X181004762Y-110360476D01*
X181052381Y-110265238D01*
X181052381Y-110074761D01*
X181004762Y-109979523D01*
X180957143Y-109931904D01*
X180861905Y-109884285D01*
X180623810Y-109884285D01*
X180528571Y-109931904D01*
X180480952Y-109979523D01*
X180433333Y-110074761D01*
X180433333Y-110265238D01*
X180480952Y-110360476D01*
X180528571Y-110408095D01*
X180623810Y-110455714D01*
X137173334Y-106442381D02*
X136840000Y-105966190D01*
X136601905Y-106442381D02*
X136601905Y-105442381D01*
X136982858Y-105442381D01*
X137078096Y-105490000D01*
X137125715Y-105537619D01*
X137173334Y-105632857D01*
X137173334Y-105775714D01*
X137125715Y-105870952D01*
X137078096Y-105918571D01*
X136982858Y-105966190D01*
X136601905Y-105966190D01*
X137506667Y-105442381D02*
X138173334Y-105442381D01*
X137744762Y-106442381D01*
X137173334Y-97607381D02*
X136840000Y-97131190D01*
X136601905Y-97607381D02*
X136601905Y-96607381D01*
X136982858Y-96607381D01*
X137078096Y-96655000D01*
X137125715Y-96702619D01*
X137173334Y-96797857D01*
X137173334Y-96940714D01*
X137125715Y-97035952D01*
X137078096Y-97083571D01*
X136982858Y-97131190D01*
X136601905Y-97131190D01*
X137649524Y-97607381D02*
X137840000Y-97607381D01*
X137935239Y-97559762D01*
X137982858Y-97512143D01*
X138078096Y-97369286D01*
X138125715Y-97178810D01*
X138125715Y-96797857D01*
X138078096Y-96702619D01*
X138030477Y-96655000D01*
X137935239Y-96607381D01*
X137744762Y-96607381D01*
X137649524Y-96655000D01*
X137601905Y-96702619D01*
X137554286Y-96797857D01*
X137554286Y-97035952D01*
X137601905Y-97131190D01*
X137649524Y-97178810D01*
X137744762Y-97226429D01*
X137935239Y-97226429D01*
X138030477Y-97178810D01*
X138078096Y-97131190D01*
X138125715Y-97035952D01*
X130622143Y-106442381D02*
X130288809Y-105966190D01*
X130050714Y-106442381D02*
X130050714Y-105442381D01*
X130431667Y-105442381D01*
X130526905Y-105490000D01*
X130574524Y-105537619D01*
X130622143Y-105632857D01*
X130622143Y-105775714D01*
X130574524Y-105870952D01*
X130526905Y-105918571D01*
X130431667Y-105966190D01*
X130050714Y-105966190D01*
X131574524Y-106442381D02*
X131003095Y-106442381D01*
X131288809Y-106442381D02*
X131288809Y-105442381D01*
X131193571Y-105585238D01*
X131098333Y-105680476D01*
X131003095Y-105728095D01*
X132193571Y-105442381D02*
X132288810Y-105442381D01*
X132384048Y-105490000D01*
X132431667Y-105537619D01*
X132479286Y-105632857D01*
X132526905Y-105823333D01*
X132526905Y-106061429D01*
X132479286Y-106251905D01*
X132431667Y-106347143D01*
X132384048Y-106394762D01*
X132288810Y-106442381D01*
X132193571Y-106442381D01*
X132098333Y-106394762D01*
X132050714Y-106347143D01*
X132003095Y-106251905D01*
X131955476Y-106061429D01*
X131955476Y-105823333D01*
X132003095Y-105632857D01*
X132050714Y-105537619D01*
X132098333Y-105490000D01*
X132193571Y-105442381D01*
X128722381Y-100972857D02*
X128246190Y-101306191D01*
X128722381Y-101544286D02*
X127722381Y-101544286D01*
X127722381Y-101163333D01*
X127770000Y-101068095D01*
X127817619Y-101020476D01*
X127912857Y-100972857D01*
X128055714Y-100972857D01*
X128150952Y-101020476D01*
X128198571Y-101068095D01*
X128246190Y-101163333D01*
X128246190Y-101544286D01*
X128722381Y-100020476D02*
X128722381Y-100591905D01*
X128722381Y-100306191D02*
X127722381Y-100306191D01*
X127865238Y-100401429D01*
X127960476Y-100496667D01*
X128008095Y-100591905D01*
X128722381Y-99068095D02*
X128722381Y-99639524D01*
X128722381Y-99353810D02*
X127722381Y-99353810D01*
X127865238Y-99449048D01*
X127960476Y-99544286D01*
X128008095Y-99639524D01*
X130622143Y-97607381D02*
X130288809Y-97131190D01*
X130050714Y-97607381D02*
X130050714Y-96607381D01*
X130431667Y-96607381D01*
X130526905Y-96655000D01*
X130574524Y-96702619D01*
X130622143Y-96797857D01*
X130622143Y-96940714D01*
X130574524Y-97035952D01*
X130526905Y-97083571D01*
X130431667Y-97131190D01*
X130050714Y-97131190D01*
X131574524Y-97607381D02*
X131003095Y-97607381D01*
X131288809Y-97607381D02*
X131288809Y-96607381D01*
X131193571Y-96750238D01*
X131098333Y-96845476D01*
X131003095Y-96893095D01*
X131955476Y-96702619D02*
X132003095Y-96655000D01*
X132098333Y-96607381D01*
X132336429Y-96607381D01*
X132431667Y-96655000D01*
X132479286Y-96702619D01*
X132526905Y-96797857D01*
X132526905Y-96893095D01*
X132479286Y-97035952D01*
X131907857Y-97607381D01*
X132526905Y-97607381D01*
X176982381Y-95892857D02*
X176506190Y-96226191D01*
X176982381Y-96464286D02*
X175982381Y-96464286D01*
X175982381Y-96083333D01*
X176030000Y-95988095D01*
X176077619Y-95940476D01*
X176172857Y-95892857D01*
X176315714Y-95892857D01*
X176410952Y-95940476D01*
X176458571Y-95988095D01*
X176506190Y-96083333D01*
X176506190Y-96464286D01*
X176982381Y-94940476D02*
X176982381Y-95511905D01*
X176982381Y-95226191D02*
X175982381Y-95226191D01*
X176125238Y-95321429D01*
X176220476Y-95416667D01*
X176268095Y-95511905D01*
X175982381Y-94607143D02*
X175982381Y-93988095D01*
X176363333Y-94321429D01*
X176363333Y-94178571D01*
X176410952Y-94083333D01*
X176458571Y-94035714D01*
X176553810Y-93988095D01*
X176791905Y-93988095D01*
X176887143Y-94035714D01*
X176934762Y-94083333D01*
X176982381Y-94178571D01*
X176982381Y-94464286D01*
X176934762Y-94559524D01*
X176887143Y-94607143D01*
X174111595Y-101712381D02*
X174111595Y-102521905D01*
X174159214Y-102617143D01*
X174206833Y-102664762D01*
X174302071Y-102712381D01*
X174492548Y-102712381D01*
X174587786Y-102664762D01*
X174635405Y-102617143D01*
X174683024Y-102521905D01*
X174683024Y-101712381D01*
X175111595Y-101807619D02*
X175159214Y-101760000D01*
X175254452Y-101712381D01*
X175492548Y-101712381D01*
X175587786Y-101760000D01*
X175635405Y-101807619D01*
X175683024Y-101902857D01*
X175683024Y-101998095D01*
X175635405Y-102140952D01*
X175063976Y-102712381D01*
X175683024Y-102712381D01*
X129992381Y-83486428D02*
X128992381Y-83486428D01*
X129706667Y-83153094D01*
X128992381Y-82819761D01*
X129992381Y-82819761D01*
X128992381Y-82153095D02*
X128992381Y-81962618D01*
X129040000Y-81867380D01*
X129135238Y-81772142D01*
X129325714Y-81724523D01*
X129659048Y-81724523D01*
X129849524Y-81772142D01*
X129944762Y-81867380D01*
X129992381Y-81962618D01*
X129992381Y-82153095D01*
X129944762Y-82248333D01*
X129849524Y-82343571D01*
X129659048Y-82391190D01*
X129325714Y-82391190D01*
X129135238Y-82343571D01*
X129040000Y-82248333D01*
X128992381Y-82153095D01*
X129944762Y-81343571D02*
X129992381Y-81200714D01*
X129992381Y-80962618D01*
X129944762Y-80867380D01*
X129897143Y-80819761D01*
X129801905Y-80772142D01*
X129706667Y-80772142D01*
X129611429Y-80819761D01*
X129563810Y-80867380D01*
X129516190Y-80962618D01*
X129468571Y-81153095D01*
X129420952Y-81248333D01*
X129373333Y-81295952D01*
X129278095Y-81343571D01*
X129182857Y-81343571D01*
X129087619Y-81295952D01*
X129040000Y-81248333D01*
X128992381Y-81153095D01*
X128992381Y-80914999D01*
X129040000Y-80772142D01*
X129992381Y-80343571D02*
X128992381Y-80343571D01*
X127452381Y-83486428D02*
X126452381Y-83486428D01*
X127166667Y-83153094D01*
X126452381Y-82819761D01*
X127452381Y-82819761D01*
X127452381Y-82343571D02*
X126452381Y-82343571D01*
X127404762Y-81915000D02*
X127452381Y-81772143D01*
X127452381Y-81534047D01*
X127404762Y-81438809D01*
X127357143Y-81391190D01*
X127261905Y-81343571D01*
X127166667Y-81343571D01*
X127071429Y-81391190D01*
X127023810Y-81438809D01*
X126976190Y-81534047D01*
X126928571Y-81724524D01*
X126880952Y-81819762D01*
X126833333Y-81867381D01*
X126738095Y-81915000D01*
X126642857Y-81915000D01*
X126547619Y-81867381D01*
X126500000Y-81819762D01*
X126452381Y-81724524D01*
X126452381Y-81486428D01*
X126500000Y-81343571D01*
X126452381Y-80724524D02*
X126452381Y-80534047D01*
X126500000Y-80438809D01*
X126595238Y-80343571D01*
X126785714Y-80295952D01*
X127119048Y-80295952D01*
X127309524Y-80343571D01*
X127404762Y-80438809D01*
X127452381Y-80534047D01*
X127452381Y-80724524D01*
X127404762Y-80819762D01*
X127309524Y-80915000D01*
X127119048Y-80962619D01*
X126785714Y-80962619D01*
X126595238Y-80915000D01*
X126500000Y-80819762D01*
X126452381Y-80724524D01*
X124864762Y-83200714D02*
X124912381Y-83057857D01*
X124912381Y-82819761D01*
X124864762Y-82724523D01*
X124817143Y-82676904D01*
X124721905Y-82629285D01*
X124626667Y-82629285D01*
X124531429Y-82676904D01*
X124483810Y-82724523D01*
X124436190Y-82819761D01*
X124388571Y-83010238D01*
X124340952Y-83105476D01*
X124293333Y-83153095D01*
X124198095Y-83200714D01*
X124102857Y-83200714D01*
X124007619Y-83153095D01*
X123960000Y-83105476D01*
X123912381Y-83010238D01*
X123912381Y-82772142D01*
X123960000Y-82629285D01*
X124817143Y-81629285D02*
X124864762Y-81676904D01*
X124912381Y-81819761D01*
X124912381Y-81914999D01*
X124864762Y-82057857D01*
X124769524Y-82153095D01*
X124674286Y-82200714D01*
X124483810Y-82248333D01*
X124340952Y-82248333D01*
X124150476Y-82200714D01*
X124055238Y-82153095D01*
X123960000Y-82057857D01*
X123912381Y-81914999D01*
X123912381Y-81819761D01*
X123960000Y-81676904D01*
X124007619Y-81629285D01*
X124912381Y-81200714D02*
X123912381Y-81200714D01*
X124912381Y-80629285D02*
X124340952Y-81057857D01*
X123912381Y-80629285D02*
X124483810Y-81200714D01*
X122372381Y-82462619D02*
X121896190Y-82795953D01*
X122372381Y-83034048D02*
X121372381Y-83034048D01*
X121372381Y-82653095D01*
X121420000Y-82557857D01*
X121467619Y-82510238D01*
X121562857Y-82462619D01*
X121705714Y-82462619D01*
X121800952Y-82510238D01*
X121848571Y-82557857D01*
X121896190Y-82653095D01*
X121896190Y-83034048D01*
X122324762Y-82081667D02*
X122372381Y-81938810D01*
X122372381Y-81700714D01*
X122324762Y-81605476D01*
X122277143Y-81557857D01*
X122181905Y-81510238D01*
X122086667Y-81510238D01*
X121991429Y-81557857D01*
X121943810Y-81605476D01*
X121896190Y-81700714D01*
X121848571Y-81891191D01*
X121800952Y-81986429D01*
X121753333Y-82034048D01*
X121658095Y-82081667D01*
X121562857Y-82081667D01*
X121467619Y-82034048D01*
X121420000Y-81986429D01*
X121372381Y-81891191D01*
X121372381Y-81653095D01*
X121420000Y-81510238D01*
X121372381Y-81224524D02*
X121372381Y-80653095D01*
X122372381Y-80938810D02*
X121372381Y-80938810D01*
M02*
