G04 #@! TF.FileFunction,Copper,L2,Bot,Signal*
%FSLAX46Y46*%
G04 Gerber Fmt 4.6, Leading zero omitted, Abs format (unit mm)*
G04 Created by KiCad (PCBNEW 4.0.7) date 11/26/17 13:54:13*
%MOMM*%
%LPD*%
G01*
G04 APERTURE LIST*
%ADD10C,0.100000*%
%ADD11C,0.300000*%
%ADD12C,0.600000*%
%ADD13C,2.000000*%
%ADD14C,1.500000*%
%ADD15R,1.400000X3.000000*%
%ADD16O,1.400000X3.000000*%
%ADD17C,5.000000*%
%ADD18R,1.800000X1.800000*%
%ADD19C,1.800000*%
%ADD20R,1.700000X1.700000*%
%ADD21C,1.700000*%
%ADD22C,1.440000*%
%ADD23C,0.254000*%
G04 APERTURE END LIST*
D10*
D11*
X162225714Y-124710000D02*
X161511428Y-124710000D01*
X162368571Y-125138571D02*
X161868571Y-123638571D01*
X161368571Y-125138571D01*
X161082857Y-123638571D02*
X160225714Y-123638571D01*
X160654285Y-125138571D02*
X160654285Y-123638571D01*
X159797143Y-124710000D02*
X159082857Y-124710000D01*
X159940000Y-125138571D02*
X159440000Y-123638571D01*
X158940000Y-125138571D01*
X157582857Y-125138571D02*
X158082857Y-124424286D01*
X158440000Y-125138571D02*
X158440000Y-123638571D01*
X157868572Y-123638571D01*
X157725714Y-123710000D01*
X157654286Y-123781429D01*
X157582857Y-123924286D01*
X157582857Y-124138571D01*
X157654286Y-124281429D01*
X157725714Y-124352857D01*
X157868572Y-124424286D01*
X158440000Y-124424286D01*
X156940000Y-125138571D02*
X156940000Y-123638571D01*
X155154286Y-125067143D02*
X154940000Y-125138571D01*
X154582857Y-125138571D01*
X154440000Y-125067143D01*
X154368571Y-124995714D01*
X154297143Y-124852857D01*
X154297143Y-124710000D01*
X154368571Y-124567143D01*
X154440000Y-124495714D01*
X154582857Y-124424286D01*
X154868571Y-124352857D01*
X155011429Y-124281429D01*
X155082857Y-124210000D01*
X155154286Y-124067143D01*
X155154286Y-123924286D01*
X155082857Y-123781429D01*
X155011429Y-123710000D01*
X154868571Y-123638571D01*
X154511429Y-123638571D01*
X154297143Y-123710000D01*
X153654286Y-125138571D02*
X153654286Y-123638571D01*
X152654286Y-123638571D02*
X152368572Y-123638571D01*
X152225714Y-123710000D01*
X152082857Y-123852857D01*
X152011429Y-124138571D01*
X152011429Y-124638571D01*
X152082857Y-124924286D01*
X152225714Y-125067143D01*
X152368572Y-125138571D01*
X152654286Y-125138571D01*
X152797143Y-125067143D01*
X152940000Y-124924286D01*
X153011429Y-124638571D01*
X153011429Y-124138571D01*
X152940000Y-123852857D01*
X152797143Y-123710000D01*
X152654286Y-123638571D01*
X151440000Y-123781429D02*
X151368571Y-123710000D01*
X151225714Y-123638571D01*
X150868571Y-123638571D01*
X150725714Y-123710000D01*
X150654285Y-123781429D01*
X150582857Y-123924286D01*
X150582857Y-124067143D01*
X150654285Y-124281429D01*
X151511428Y-125138571D01*
X150582857Y-125138571D01*
X150011429Y-125067143D02*
X149797143Y-125138571D01*
X149440000Y-125138571D01*
X149297143Y-125067143D01*
X149225714Y-124995714D01*
X149154286Y-124852857D01*
X149154286Y-124710000D01*
X149225714Y-124567143D01*
X149297143Y-124495714D01*
X149440000Y-124424286D01*
X149725714Y-124352857D01*
X149868572Y-124281429D01*
X149940000Y-124210000D01*
X150011429Y-124067143D01*
X150011429Y-123924286D01*
X149940000Y-123781429D01*
X149868572Y-123710000D01*
X149725714Y-123638571D01*
X149368572Y-123638571D01*
X149154286Y-123710000D01*
X148511429Y-125138571D02*
X148511429Y-123638571D01*
X148154286Y-123638571D01*
X147940001Y-123710000D01*
X147797143Y-123852857D01*
X147725715Y-123995714D01*
X147654286Y-124281429D01*
X147654286Y-124495714D01*
X147725715Y-124781429D01*
X147797143Y-124924286D01*
X147940001Y-125067143D01*
X148154286Y-125138571D01*
X148511429Y-125138571D01*
D12*
X176530000Y-105410000D03*
X161290000Y-85090000D03*
X143510000Y-118110000D03*
X153670000Y-96520000D03*
X141605000Y-93980000D03*
X139065000Y-90805000D03*
X130810000Y-88900000D03*
X119380000Y-78740000D03*
X121920000Y-99060000D03*
X109220000Y-78740000D03*
X109220000Y-88900000D03*
X109220000Y-100330000D03*
X143510000Y-107950000D03*
X156210000Y-107950000D03*
X168910000Y-107950000D03*
X168910000Y-118110000D03*
X156210000Y-118110000D03*
X143510000Y-118110000D03*
X143510000Y-128270000D03*
X153670000Y-128270000D03*
X163830000Y-128270000D03*
X173990000Y-128270000D03*
X184150000Y-128270000D03*
X184150000Y-100330000D03*
X184150000Y-88900000D03*
X184150000Y-78740000D03*
X179070000Y-73660000D03*
X168910000Y-73660000D03*
D13*
X110490000Y-126420000D03*
X110490000Y-121920000D03*
X116990000Y-126420000D03*
X116990000Y-121920000D03*
D14*
X133350000Y-91440000D03*
X133350000Y-86560000D03*
D15*
X114680000Y-73620000D03*
D16*
X117220000Y-73620000D03*
X119760000Y-73620000D03*
X122300000Y-73620000D03*
X124840000Y-73620000D03*
X127380000Y-73620000D03*
X129920000Y-73620000D03*
X132460000Y-73620000D03*
X135000000Y-73620000D03*
X137540000Y-73620000D03*
X140080000Y-73620000D03*
X142620000Y-73620000D03*
X145160000Y-73620000D03*
X147700000Y-73620000D03*
X150240000Y-73620000D03*
X152780000Y-73620000D03*
D17*
X109180000Y-73620000D03*
X109180000Y-104620000D03*
X184180000Y-73620000D03*
X184180000Y-104620000D03*
D18*
X178230000Y-124460000D03*
D19*
X178230000Y-127000000D03*
D18*
X173990000Y-116840000D03*
D19*
X173990000Y-119380000D03*
D18*
X182450000Y-116840000D03*
D19*
X182450000Y-119380000D03*
D13*
X110490000Y-116260000D03*
X110490000Y-111760000D03*
X116990000Y-116260000D03*
X116990000Y-111760000D03*
X120650000Y-116260000D03*
X120650000Y-111760000D03*
X127150000Y-116260000D03*
X127150000Y-111760000D03*
X120650000Y-126420000D03*
X120650000Y-121920000D03*
X127150000Y-126420000D03*
X127150000Y-121920000D03*
X130810000Y-126420000D03*
X130810000Y-121920000D03*
X137310000Y-126420000D03*
X137310000Y-121920000D03*
X130810000Y-116260000D03*
X130810000Y-111760000D03*
X137310000Y-116260000D03*
X137310000Y-111760000D03*
D20*
X165100000Y-84000000D03*
D21*
X167640000Y-84000000D03*
X170180000Y-84000000D03*
X172720000Y-84000000D03*
X175260000Y-84000000D03*
D22*
X111760000Y-88900000D03*
X114300000Y-86360000D03*
X116840000Y-88900000D03*
D12*
X158750000Y-73660000D03*
X165100000Y-92710000D03*
X148590000Y-91440000D03*
X151130000Y-86995000D03*
X143510000Y-88265000D03*
X148590000Y-85725000D03*
X143510000Y-85090000D03*
X140335000Y-81280000D03*
X139065000Y-80645000D03*
X137160000Y-79963990D03*
X135890000Y-79421010D03*
X158115000Y-90805000D03*
X139065000Y-86220000D03*
X155575000Y-103505000D03*
X170180000Y-98425000D03*
X146050000Y-90170000D03*
X173990000Y-95250000D03*
X144240317Y-91701010D03*
X145415000Y-89535000D03*
X150495000Y-103505000D03*
X134239000Y-104140000D03*
X158115000Y-104186010D03*
X134239000Y-101600000D03*
X160020000Y-104775000D03*
X134239000Y-99060000D03*
X155575000Y-83820000D03*
X156845000Y-84455000D03*
X158115000Y-85725000D03*
D23*
X136525000Y-92710000D02*
X136525000Y-86995000D01*
X131445000Y-97790000D02*
X136525000Y-92710000D01*
X131445000Y-108585000D02*
X131445000Y-97790000D01*
X132715000Y-109855000D02*
X131445000Y-108585000D01*
X133350000Y-109855000D02*
X132715000Y-109855000D01*
X133985000Y-110490000D02*
X133350000Y-109855000D01*
X137310000Y-121920000D02*
X133985000Y-118595000D01*
X133985000Y-118595000D02*
X133985000Y-110490000D01*
X136525000Y-86995000D02*
X138430000Y-85090000D01*
X138430000Y-85090000D02*
X143510000Y-85090000D01*
X133350000Y-80645000D02*
X137795000Y-80645000D01*
X126365000Y-87630000D02*
X133350000Y-80645000D01*
X126365000Y-107315000D02*
X126365000Y-87630000D01*
X127150000Y-121920000D02*
X123825000Y-118595000D01*
X123825000Y-118595000D02*
X123825000Y-109855000D01*
X123825000Y-109855000D02*
X126365000Y-107315000D01*
X139065000Y-79375000D02*
X139700000Y-79375000D01*
X137795000Y-80645000D02*
X139065000Y-79375000D01*
X139700000Y-79375000D02*
X140335000Y-80010000D01*
X140335000Y-80010000D02*
X140335000Y-81280000D01*
X127150000Y-111760000D02*
X127150000Y-88115000D01*
X127150000Y-88115000D02*
X133985000Y-81280000D01*
X133985000Y-81280000D02*
X138430000Y-81280000D01*
X138430000Y-81280000D02*
X139065000Y-80645000D01*
X135255000Y-78740000D02*
X136525000Y-78740000D01*
X134620000Y-79375000D02*
X135255000Y-78740000D01*
X132080000Y-79375000D02*
X134620000Y-79375000D01*
X125095000Y-86360000D02*
X132080000Y-79375000D01*
X125095000Y-106045000D02*
X125095000Y-86360000D01*
X122555000Y-108585000D02*
X125095000Y-106045000D01*
X114935000Y-108585000D02*
X122555000Y-108585000D01*
X113665000Y-109855000D02*
X114935000Y-108585000D01*
X113665000Y-118595000D02*
X113665000Y-109855000D01*
X116990000Y-121920000D02*
X113665000Y-118595000D01*
X136525000Y-78740000D02*
X137160000Y-79375000D01*
X137160000Y-79375000D02*
X137160000Y-79963990D01*
X132715000Y-80010000D02*
X135301010Y-80010000D01*
X135301010Y-80010000D02*
X135890000Y-79421010D01*
X125730000Y-86995000D02*
X132715000Y-80010000D01*
X125730000Y-106680000D02*
X125730000Y-86995000D01*
X123190000Y-109220000D02*
X125730000Y-106680000D01*
X117475000Y-109220000D02*
X123190000Y-109220000D01*
X116990000Y-109705000D02*
X117475000Y-109220000D01*
X116990000Y-111760000D02*
X116990000Y-109705000D01*
X137160000Y-93345000D02*
X137160000Y-92710000D01*
X137160000Y-92710000D02*
X137160000Y-88125000D01*
X144780000Y-92710000D02*
X137160000Y-92710000D01*
X147320000Y-90170000D02*
X144780000Y-92710000D01*
X157480000Y-90170000D02*
X147320000Y-90170000D01*
X158115000Y-90805000D02*
X157480000Y-90170000D01*
X137310000Y-111760000D02*
X137310000Y-108735000D01*
X137310000Y-108735000D02*
X137160000Y-108585000D01*
X137160000Y-108585000D02*
X132715000Y-108585000D01*
X132715000Y-108585000D02*
X132080000Y-107950000D01*
X132080000Y-107950000D02*
X132080000Y-98425000D01*
X132080000Y-98425000D02*
X137160000Y-93345000D01*
X137310000Y-87975000D02*
X139065000Y-86220000D01*
X137160000Y-88125000D02*
X137310000Y-87975000D01*
X170180000Y-98425000D02*
X165100000Y-103505000D01*
X165100000Y-103505000D02*
X155575000Y-103505000D01*
X146050000Y-90170000D02*
X146685000Y-89535000D01*
X146685000Y-89535000D02*
X168275000Y-89535000D01*
X172720000Y-94615000D02*
X173355000Y-95250000D01*
X168275000Y-89535000D02*
X172720000Y-93980000D01*
X172720000Y-93980000D02*
X172720000Y-94615000D01*
X173355000Y-95250000D02*
X173990000Y-95250000D01*
X144240317Y-91701010D02*
X144240317Y-89439683D01*
X144240317Y-89439683D02*
X145415000Y-88265000D01*
X145415000Y-88265000D02*
X167640000Y-88265000D01*
X167640000Y-88265000D02*
X170180000Y-85725000D01*
X170180000Y-85725000D02*
X170180000Y-84000000D01*
X171450000Y-85725000D02*
X172720000Y-85725000D01*
X168275000Y-88900000D02*
X171450000Y-85725000D01*
X146050000Y-88900000D02*
X168275000Y-88900000D01*
X145415000Y-89535000D02*
X146050000Y-88900000D01*
X172720000Y-85725000D02*
X174625000Y-85725000D01*
X174625000Y-85725000D02*
X175260000Y-85090000D01*
X175260000Y-85090000D02*
X175260000Y-84000000D01*
X149860000Y-104140000D02*
X150495000Y-103505000D01*
X134239000Y-104140000D02*
X149860000Y-104140000D01*
X157815001Y-104486009D02*
X158115000Y-104186010D01*
X135255000Y-104775000D02*
X157526010Y-104775000D01*
X134620000Y-105410000D02*
X135255000Y-104775000D01*
X133350000Y-104775000D02*
X133985000Y-105410000D01*
X133985000Y-105410000D02*
X134620000Y-105410000D01*
X133350000Y-102489000D02*
X133350000Y-104775000D01*
X157526010Y-104775000D02*
X157815001Y-104486009D01*
X134239000Y-101600000D02*
X133350000Y-102489000D01*
X149860000Y-105410000D02*
X159385000Y-105410000D01*
X159385000Y-105410000D02*
X160020000Y-104775000D01*
X135890000Y-105410000D02*
X149860000Y-105410000D01*
X135255000Y-106045000D02*
X135890000Y-105410000D01*
X133350000Y-106045000D02*
X135255000Y-106045000D01*
X132715000Y-105410000D02*
X133350000Y-106045000D01*
X132715000Y-100965000D02*
X132715000Y-105410000D01*
X132715000Y-100584000D02*
X132715000Y-100965000D01*
X134239000Y-99060000D02*
X132715000Y-100584000D01*
X155575000Y-83820000D02*
X155575000Y-83185000D01*
X155575000Y-83185000D02*
X150495000Y-78105000D01*
X150495000Y-78105000D02*
X124460000Y-78105000D01*
X124460000Y-78105000D02*
X122300000Y-75945000D01*
X122300000Y-75945000D02*
X122300000Y-73620000D01*
X126365000Y-77470000D02*
X124840000Y-75945000D01*
X124840000Y-75945000D02*
X124840000Y-73620000D01*
X151130000Y-77470000D02*
X126365000Y-77470000D01*
X156845000Y-83185000D02*
X151130000Y-77470000D01*
X156845000Y-84455000D02*
X156845000Y-83185000D01*
X158115000Y-85725000D02*
X158115000Y-83185000D01*
X158115000Y-83185000D02*
X151765000Y-76835000D01*
X151765000Y-76835000D02*
X128270000Y-76835000D01*
X128270000Y-76835000D02*
X127380000Y-75945000D01*
X127380000Y-75945000D02*
X127380000Y-73620000D01*
G36*
X113345000Y-71993691D02*
X113345000Y-73334250D01*
X113503750Y-73493000D01*
X114553000Y-73493000D01*
X114553000Y-73473000D01*
X114807000Y-73473000D01*
X114807000Y-73493000D01*
X114827000Y-73493000D01*
X114827000Y-73747000D01*
X114807000Y-73747000D01*
X114807000Y-75596250D01*
X114965750Y-75755000D01*
X115506310Y-75755000D01*
X115739699Y-75658327D01*
X115918327Y-75479698D01*
X116015000Y-75246309D01*
X116015000Y-75015181D01*
X116276012Y-75405815D01*
X116709118Y-75695206D01*
X117220000Y-75796827D01*
X117730882Y-75695206D01*
X118163988Y-75405815D01*
X118453379Y-74972709D01*
X118490000Y-74788603D01*
X118526621Y-74972709D01*
X118816012Y-75405815D01*
X119249118Y-75695206D01*
X119760000Y-75796827D01*
X120270882Y-75695206D01*
X120703988Y-75405815D01*
X120993379Y-74972709D01*
X121030000Y-74788603D01*
X121066621Y-74972709D01*
X121356012Y-75405815D01*
X121538000Y-75527415D01*
X121538000Y-75945000D01*
X121596004Y-76236605D01*
X121761185Y-76483815D01*
X123921184Y-78643815D01*
X124168395Y-78808996D01*
X124460000Y-78867000D01*
X131510369Y-78867000D01*
X124556185Y-85821185D01*
X124391004Y-86068395D01*
X124333000Y-86360000D01*
X124333000Y-105729369D01*
X122239370Y-107823000D01*
X114935000Y-107823000D01*
X114643395Y-107881004D01*
X114396184Y-108046185D01*
X113126186Y-109316184D01*
X113126185Y-109316185D01*
X112961004Y-109563395D01*
X112903000Y-109855000D01*
X112903000Y-118595000D01*
X112961004Y-118886605D01*
X113085770Y-119073330D01*
X113126185Y-119133815D01*
X115422895Y-121430525D01*
X115355284Y-121593352D01*
X115354716Y-122243795D01*
X115603106Y-122844943D01*
X116062637Y-123305278D01*
X116663352Y-123554716D01*
X117313795Y-123555284D01*
X117914943Y-123306894D01*
X118375278Y-122847363D01*
X118624716Y-122246648D01*
X118624718Y-122243795D01*
X119014716Y-122243795D01*
X119263106Y-122844943D01*
X119722637Y-123305278D01*
X120323352Y-123554716D01*
X120973795Y-123555284D01*
X121574943Y-123306894D01*
X122035278Y-122847363D01*
X122284716Y-122246648D01*
X122285284Y-121596205D01*
X122036894Y-120995057D01*
X121577363Y-120534722D01*
X120976648Y-120285284D01*
X120326205Y-120284716D01*
X119725057Y-120533106D01*
X119264722Y-120992637D01*
X119015284Y-121593352D01*
X119014716Y-122243795D01*
X118624718Y-122243795D01*
X118625284Y-121596205D01*
X118376894Y-120995057D01*
X117917363Y-120534722D01*
X117316648Y-120285284D01*
X116666205Y-120284716D01*
X116500722Y-120353092D01*
X114427000Y-118279370D01*
X114427000Y-117412532D01*
X116017073Y-117412532D01*
X116115736Y-117679387D01*
X116725461Y-117905908D01*
X117375460Y-117881856D01*
X117864264Y-117679387D01*
X117962927Y-117412532D01*
X119677073Y-117412532D01*
X119775736Y-117679387D01*
X120385461Y-117905908D01*
X121035460Y-117881856D01*
X121524264Y-117679387D01*
X121622927Y-117412532D01*
X120650000Y-116439605D01*
X119677073Y-117412532D01*
X117962927Y-117412532D01*
X116990000Y-116439605D01*
X116017073Y-117412532D01*
X114427000Y-117412532D01*
X114427000Y-115995461D01*
X115344092Y-115995461D01*
X115368144Y-116645460D01*
X115570613Y-117134264D01*
X115837468Y-117232927D01*
X116810395Y-116260000D01*
X117169605Y-116260000D01*
X118142532Y-117232927D01*
X118409387Y-117134264D01*
X118635908Y-116524539D01*
X118616331Y-115995461D01*
X119004092Y-115995461D01*
X119028144Y-116645460D01*
X119230613Y-117134264D01*
X119497468Y-117232927D01*
X120470395Y-116260000D01*
X120829605Y-116260000D01*
X121802532Y-117232927D01*
X122069387Y-117134264D01*
X122295908Y-116524539D01*
X122271856Y-115874540D01*
X122069387Y-115385736D01*
X121802532Y-115287073D01*
X120829605Y-116260000D01*
X120470395Y-116260000D01*
X119497468Y-115287073D01*
X119230613Y-115385736D01*
X119004092Y-115995461D01*
X118616331Y-115995461D01*
X118611856Y-115874540D01*
X118409387Y-115385736D01*
X118142532Y-115287073D01*
X117169605Y-116260000D01*
X116810395Y-116260000D01*
X115837468Y-115287073D01*
X115570613Y-115385736D01*
X115344092Y-115995461D01*
X114427000Y-115995461D01*
X114427000Y-115107468D01*
X116017073Y-115107468D01*
X116990000Y-116080395D01*
X117962927Y-115107468D01*
X119677073Y-115107468D01*
X120650000Y-116080395D01*
X121622927Y-115107468D01*
X121524264Y-114840613D01*
X120914539Y-114614092D01*
X120264540Y-114638144D01*
X119775736Y-114840613D01*
X119677073Y-115107468D01*
X117962927Y-115107468D01*
X117864264Y-114840613D01*
X117254539Y-114614092D01*
X116604540Y-114638144D01*
X116115736Y-114840613D01*
X116017073Y-115107468D01*
X114427000Y-115107468D01*
X114427000Y-110170630D01*
X115250631Y-109347000D01*
X116330368Y-109347000D01*
X116286004Y-109413395D01*
X116228000Y-109705000D01*
X116228000Y-110305779D01*
X116065057Y-110373106D01*
X115604722Y-110832637D01*
X115355284Y-111433352D01*
X115354716Y-112083795D01*
X115603106Y-112684943D01*
X116062637Y-113145278D01*
X116663352Y-113394716D01*
X117313795Y-113395284D01*
X117914943Y-113146894D01*
X118375278Y-112687363D01*
X118624716Y-112086648D01*
X118624718Y-112083795D01*
X119014716Y-112083795D01*
X119263106Y-112684943D01*
X119722637Y-113145278D01*
X120323352Y-113394716D01*
X120973795Y-113395284D01*
X121574943Y-113146894D01*
X122035278Y-112687363D01*
X122284716Y-112086648D01*
X122285284Y-111436205D01*
X122036894Y-110835057D01*
X121577363Y-110374722D01*
X120976648Y-110125284D01*
X120326205Y-110124716D01*
X119725057Y-110373106D01*
X119264722Y-110832637D01*
X119015284Y-111433352D01*
X119014716Y-112083795D01*
X118624718Y-112083795D01*
X118625284Y-111436205D01*
X118376894Y-110835057D01*
X117917363Y-110374722D01*
X117752000Y-110306057D01*
X117752000Y-110020630D01*
X117790631Y-109982000D01*
X123063000Y-109982000D01*
X123063000Y-118595000D01*
X123121004Y-118886605D01*
X123245770Y-119073330D01*
X123286185Y-119133815D01*
X125582895Y-121430525D01*
X125515284Y-121593352D01*
X125514716Y-122243795D01*
X125763106Y-122844943D01*
X126222637Y-123305278D01*
X126823352Y-123554716D01*
X127473795Y-123555284D01*
X128074943Y-123306894D01*
X128535278Y-122847363D01*
X128784716Y-122246648D01*
X128784718Y-122243795D01*
X129174716Y-122243795D01*
X129423106Y-122844943D01*
X129882637Y-123305278D01*
X130483352Y-123554716D01*
X131133795Y-123555284D01*
X131734943Y-123306894D01*
X132195278Y-122847363D01*
X132444716Y-122246648D01*
X132445284Y-121596205D01*
X132196894Y-120995057D01*
X131737363Y-120534722D01*
X131136648Y-120285284D01*
X130486205Y-120284716D01*
X129885057Y-120533106D01*
X129424722Y-120992637D01*
X129175284Y-121593352D01*
X129174716Y-122243795D01*
X128784718Y-122243795D01*
X128785284Y-121596205D01*
X128536894Y-120995057D01*
X128077363Y-120534722D01*
X127476648Y-120285284D01*
X126826205Y-120284716D01*
X126660722Y-120353092D01*
X124587000Y-118279370D01*
X124587000Y-117412532D01*
X126177073Y-117412532D01*
X126275736Y-117679387D01*
X126885461Y-117905908D01*
X127535460Y-117881856D01*
X128024264Y-117679387D01*
X128122927Y-117412532D01*
X129837073Y-117412532D01*
X129935736Y-117679387D01*
X130545461Y-117905908D01*
X131195460Y-117881856D01*
X131684264Y-117679387D01*
X131782927Y-117412532D01*
X130810000Y-116439605D01*
X129837073Y-117412532D01*
X128122927Y-117412532D01*
X127150000Y-116439605D01*
X126177073Y-117412532D01*
X124587000Y-117412532D01*
X124587000Y-115995461D01*
X125504092Y-115995461D01*
X125528144Y-116645460D01*
X125730613Y-117134264D01*
X125997468Y-117232927D01*
X126970395Y-116260000D01*
X127329605Y-116260000D01*
X128302532Y-117232927D01*
X128569387Y-117134264D01*
X128795908Y-116524539D01*
X128776331Y-115995461D01*
X129164092Y-115995461D01*
X129188144Y-116645460D01*
X129390613Y-117134264D01*
X129657468Y-117232927D01*
X130630395Y-116260000D01*
X130989605Y-116260000D01*
X131962532Y-117232927D01*
X132229387Y-117134264D01*
X132455908Y-116524539D01*
X132431856Y-115874540D01*
X132229387Y-115385736D01*
X131962532Y-115287073D01*
X130989605Y-116260000D01*
X130630395Y-116260000D01*
X129657468Y-115287073D01*
X129390613Y-115385736D01*
X129164092Y-115995461D01*
X128776331Y-115995461D01*
X128771856Y-115874540D01*
X128569387Y-115385736D01*
X128302532Y-115287073D01*
X127329605Y-116260000D01*
X126970395Y-116260000D01*
X125997468Y-115287073D01*
X125730613Y-115385736D01*
X125504092Y-115995461D01*
X124587000Y-115995461D01*
X124587000Y-115107468D01*
X126177073Y-115107468D01*
X127150000Y-116080395D01*
X128122927Y-115107468D01*
X129837073Y-115107468D01*
X130810000Y-116080395D01*
X131782927Y-115107468D01*
X131684264Y-114840613D01*
X131074539Y-114614092D01*
X130424540Y-114638144D01*
X129935736Y-114840613D01*
X129837073Y-115107468D01*
X128122927Y-115107468D01*
X128024264Y-114840613D01*
X127414539Y-114614092D01*
X126764540Y-114638144D01*
X126275736Y-114840613D01*
X126177073Y-115107468D01*
X124587000Y-115107468D01*
X124587000Y-110170630D01*
X126388000Y-108369631D01*
X126388000Y-110305779D01*
X126225057Y-110373106D01*
X125764722Y-110832637D01*
X125515284Y-111433352D01*
X125514716Y-112083795D01*
X125763106Y-112684943D01*
X126222637Y-113145278D01*
X126823352Y-113394716D01*
X127473795Y-113395284D01*
X128074943Y-113146894D01*
X128535278Y-112687363D01*
X128784716Y-112086648D01*
X128784718Y-112083795D01*
X129174716Y-112083795D01*
X129423106Y-112684943D01*
X129882637Y-113145278D01*
X130483352Y-113394716D01*
X131133795Y-113395284D01*
X131734943Y-113146894D01*
X132195278Y-112687363D01*
X132444716Y-112086648D01*
X132445284Y-111436205D01*
X132196894Y-110835057D01*
X131737363Y-110374722D01*
X131136648Y-110125284D01*
X130486205Y-110124716D01*
X129885057Y-110373106D01*
X129424722Y-110832637D01*
X129175284Y-111433352D01*
X129174716Y-112083795D01*
X128784718Y-112083795D01*
X128785284Y-111436205D01*
X128536894Y-110835057D01*
X128077363Y-110374722D01*
X127912000Y-110306057D01*
X127912000Y-97790000D01*
X130683000Y-97790000D01*
X130683000Y-108585000D01*
X130741004Y-108876605D01*
X130885595Y-109093000D01*
X130906185Y-109123815D01*
X132176184Y-110393815D01*
X132423395Y-110558996D01*
X132715000Y-110617000D01*
X133034370Y-110617000D01*
X133223000Y-110805631D01*
X133223000Y-118595000D01*
X133281004Y-118886605D01*
X133405770Y-119073330D01*
X133446185Y-119133815D01*
X135742895Y-121430525D01*
X135675284Y-121593352D01*
X135674716Y-122243795D01*
X135923106Y-122844943D01*
X136382637Y-123305278D01*
X136983352Y-123554716D01*
X137633795Y-123555284D01*
X138234943Y-123306894D01*
X138695278Y-122847363D01*
X138787610Y-122625000D01*
X146733572Y-122625000D01*
X146733572Y-126445000D01*
X163146428Y-126445000D01*
X163146428Y-125994285D01*
X165494760Y-125994285D01*
X165705169Y-126503515D01*
X166094436Y-126893461D01*
X166603298Y-127104759D01*
X167154285Y-127105240D01*
X167663515Y-126894831D01*
X168053461Y-126505564D01*
X168264759Y-125996702D01*
X168265240Y-125445715D01*
X168054831Y-124936485D01*
X167665564Y-124546539D01*
X167156702Y-124335241D01*
X166605715Y-124334760D01*
X166096485Y-124545169D01*
X165706539Y-124934436D01*
X165495241Y-125443298D01*
X165494760Y-125994285D01*
X163146428Y-125994285D01*
X163146428Y-123560000D01*
X176682560Y-123560000D01*
X176682560Y-125360000D01*
X176726838Y-125595317D01*
X176865910Y-125811441D01*
X177078110Y-125956431D01*
X177098534Y-125960567D01*
X176929449Y-126129357D01*
X176695267Y-126693330D01*
X176694735Y-127303991D01*
X176927932Y-127868371D01*
X177359357Y-128300551D01*
X177923330Y-128534733D01*
X178533991Y-128535265D01*
X179098371Y-128302068D01*
X179530551Y-127870643D01*
X179764733Y-127306670D01*
X179765265Y-126696009D01*
X179532068Y-126131629D01*
X179364120Y-125963387D01*
X179365317Y-125963162D01*
X179581441Y-125824090D01*
X179726431Y-125611890D01*
X179777440Y-125360000D01*
X179777440Y-123560000D01*
X179733162Y-123324683D01*
X179594090Y-123108559D01*
X179381890Y-122963569D01*
X179130000Y-122912560D01*
X177330000Y-122912560D01*
X177094683Y-122956838D01*
X176878559Y-123095910D01*
X176733569Y-123308110D01*
X176682560Y-123560000D01*
X163146428Y-123560000D01*
X163146428Y-122625000D01*
X146733572Y-122625000D01*
X138787610Y-122625000D01*
X138944716Y-122246648D01*
X138945284Y-121596205D01*
X138696894Y-120995057D01*
X138237363Y-120534722D01*
X137636648Y-120285284D01*
X136986205Y-120284716D01*
X136820722Y-120353092D01*
X134747000Y-118279370D01*
X134747000Y-117412532D01*
X136337073Y-117412532D01*
X136435736Y-117679387D01*
X137045461Y-117905908D01*
X137695460Y-117881856D01*
X138184264Y-117679387D01*
X138282927Y-117412532D01*
X137310000Y-116439605D01*
X136337073Y-117412532D01*
X134747000Y-117412532D01*
X134747000Y-115995461D01*
X135664092Y-115995461D01*
X135688144Y-116645460D01*
X135890613Y-117134264D01*
X136157468Y-117232927D01*
X137130395Y-116260000D01*
X137489605Y-116260000D01*
X138462532Y-117232927D01*
X138729387Y-117134264D01*
X138955908Y-116524539D01*
X138934279Y-115940000D01*
X172442560Y-115940000D01*
X172442560Y-117740000D01*
X172486838Y-117975317D01*
X172625910Y-118191441D01*
X172838110Y-118336431D01*
X172858534Y-118340567D01*
X172689449Y-118509357D01*
X172455267Y-119073330D01*
X172454735Y-119683991D01*
X172687932Y-120248371D01*
X173119357Y-120680551D01*
X173683330Y-120914733D01*
X174293991Y-120915265D01*
X174858371Y-120682068D01*
X175290551Y-120250643D01*
X175524733Y-119686670D01*
X175525265Y-119076009D01*
X175292068Y-118511629D01*
X175124120Y-118343387D01*
X175125317Y-118343162D01*
X175341441Y-118204090D01*
X175486431Y-117991890D01*
X175537440Y-117740000D01*
X175537440Y-115940000D01*
X180902560Y-115940000D01*
X180902560Y-117740000D01*
X180946838Y-117975317D01*
X181085910Y-118191441D01*
X181298110Y-118336431D01*
X181318534Y-118340567D01*
X181149449Y-118509357D01*
X180915267Y-119073330D01*
X180914735Y-119683991D01*
X181147932Y-120248371D01*
X181579357Y-120680551D01*
X182143330Y-120914733D01*
X182753991Y-120915265D01*
X183318371Y-120682068D01*
X183750551Y-120250643D01*
X183984733Y-119686670D01*
X183985265Y-119076009D01*
X183752068Y-118511629D01*
X183584120Y-118343387D01*
X183585317Y-118343162D01*
X183801441Y-118204090D01*
X183946431Y-117991890D01*
X183997440Y-117740000D01*
X183997440Y-115940000D01*
X183953162Y-115704683D01*
X183814090Y-115488559D01*
X183601890Y-115343569D01*
X183350000Y-115292560D01*
X181550000Y-115292560D01*
X181314683Y-115336838D01*
X181098559Y-115475910D01*
X180953569Y-115688110D01*
X180902560Y-115940000D01*
X175537440Y-115940000D01*
X175493162Y-115704683D01*
X175354090Y-115488559D01*
X175141890Y-115343569D01*
X174890000Y-115292560D01*
X173090000Y-115292560D01*
X172854683Y-115336838D01*
X172638559Y-115475910D01*
X172493569Y-115688110D01*
X172442560Y-115940000D01*
X138934279Y-115940000D01*
X138931856Y-115874540D01*
X138729387Y-115385736D01*
X138462532Y-115287073D01*
X137489605Y-116260000D01*
X137130395Y-116260000D01*
X136157468Y-115287073D01*
X135890613Y-115385736D01*
X135664092Y-115995461D01*
X134747000Y-115995461D01*
X134747000Y-115107468D01*
X136337073Y-115107468D01*
X137310000Y-116080395D01*
X138282927Y-115107468D01*
X138184264Y-114840613D01*
X137574539Y-114614092D01*
X136924540Y-114638144D01*
X136435736Y-114840613D01*
X136337073Y-115107468D01*
X134747000Y-115107468D01*
X134747000Y-110490000D01*
X134688996Y-110198395D01*
X134622834Y-110099377D01*
X134523816Y-109951185D01*
X133919630Y-109347000D01*
X136548000Y-109347000D01*
X136548000Y-110305779D01*
X136385057Y-110373106D01*
X135924722Y-110832637D01*
X135675284Y-111433352D01*
X135674716Y-112083795D01*
X135923106Y-112684943D01*
X136382637Y-113145278D01*
X136983352Y-113394716D01*
X137633795Y-113395284D01*
X138234943Y-113146894D01*
X138695278Y-112687363D01*
X138944716Y-112086648D01*
X138945284Y-111436205D01*
X138696894Y-110835057D01*
X138237363Y-110374722D01*
X138072000Y-110306057D01*
X138072000Y-108735000D01*
X138013996Y-108443395D01*
X137848815Y-108196185D01*
X137698815Y-108046185D01*
X137554864Y-107950000D01*
X137451605Y-107881004D01*
X137160000Y-107823000D01*
X133030631Y-107823000D01*
X132842000Y-107634370D01*
X132842000Y-106604406D01*
X132959377Y-106682834D01*
X133058395Y-106748996D01*
X133350000Y-106807000D01*
X135255000Y-106807000D01*
X135546605Y-106748996D01*
X135793815Y-106583815D01*
X136205631Y-106172000D01*
X159385000Y-106172000D01*
X159676605Y-106113996D01*
X159923815Y-105948815D01*
X160162506Y-105710125D01*
X160205167Y-105710162D01*
X160548943Y-105568117D01*
X160812192Y-105305327D01*
X160954838Y-104961799D01*
X160955162Y-104589833D01*
X160821770Y-104267000D01*
X165100000Y-104267000D01*
X165391605Y-104208996D01*
X165638815Y-104043815D01*
X170322505Y-99360125D01*
X170365167Y-99360162D01*
X170708943Y-99218117D01*
X170972192Y-98955327D01*
X171114838Y-98611799D01*
X171115162Y-98239833D01*
X170973117Y-97896057D01*
X170710327Y-97632808D01*
X170366799Y-97490162D01*
X169994833Y-97489838D01*
X169651057Y-97631883D01*
X169387808Y-97894673D01*
X169245162Y-98238201D01*
X169245124Y-98282246D01*
X164784370Y-102743000D01*
X156135466Y-102743000D01*
X156105327Y-102712808D01*
X155761799Y-102570162D01*
X155389833Y-102569838D01*
X155046057Y-102711883D01*
X154782808Y-102974673D01*
X154640162Y-103318201D01*
X154639838Y-103690167D01*
X154773230Y-104013000D01*
X151296463Y-104013000D01*
X151429838Y-103691799D01*
X151430162Y-103319833D01*
X151288117Y-102976057D01*
X151025327Y-102712808D01*
X150681799Y-102570162D01*
X150309833Y-102569838D01*
X149966057Y-102711883D01*
X149702808Y-102974673D01*
X149560162Y-103318201D01*
X149560124Y-103362246D01*
X149544370Y-103378000D01*
X134799466Y-103378000D01*
X134769327Y-103347808D01*
X134425799Y-103205162D01*
X134112000Y-103204889D01*
X134112000Y-102804630D01*
X134381505Y-102535125D01*
X134424167Y-102535162D01*
X134767943Y-102393117D01*
X135031192Y-102130327D01*
X135173838Y-101786799D01*
X135174162Y-101414833D01*
X135032117Y-101071057D01*
X134769327Y-100807808D01*
X134425799Y-100665162D01*
X134053833Y-100664838D01*
X133710057Y-100806883D01*
X133477000Y-101039534D01*
X133477000Y-100899630D01*
X134381506Y-99995125D01*
X134424167Y-99995162D01*
X134767943Y-99853117D01*
X135031192Y-99590327D01*
X135173838Y-99246799D01*
X135174162Y-98874833D01*
X135032117Y-98531057D01*
X134769327Y-98267808D01*
X134425799Y-98125162D01*
X134053833Y-98124838D01*
X133710057Y-98266883D01*
X133446808Y-98529673D01*
X133304162Y-98873201D01*
X133304124Y-98917246D01*
X132842000Y-99379370D01*
X132842000Y-98740630D01*
X137698815Y-93883815D01*
X137719404Y-93853001D01*
X137863996Y-93636605D01*
X137896738Y-93472000D01*
X144780000Y-93472000D01*
X145071605Y-93413996D01*
X145318815Y-93248815D01*
X147635631Y-90932000D01*
X157164370Y-90932000D01*
X157179875Y-90947506D01*
X157179838Y-90990167D01*
X157321883Y-91333943D01*
X157584673Y-91597192D01*
X157928201Y-91739838D01*
X158300167Y-91740162D01*
X158643943Y-91598117D01*
X158907192Y-91335327D01*
X159049838Y-90991799D01*
X159050162Y-90619833D01*
X158916770Y-90297000D01*
X167959370Y-90297000D01*
X171958000Y-94295631D01*
X171958000Y-94615000D01*
X172016004Y-94906605D01*
X172121729Y-95064833D01*
X172181185Y-95153815D01*
X172816185Y-95788816D01*
X172964377Y-95887834D01*
X173063395Y-95953996D01*
X173355000Y-96012000D01*
X173429534Y-96012000D01*
X173459673Y-96042192D01*
X173803201Y-96184838D01*
X174175167Y-96185162D01*
X174518943Y-96043117D01*
X174782192Y-95780327D01*
X174924838Y-95436799D01*
X174925162Y-95064833D01*
X174783117Y-94721057D01*
X174520327Y-94457808D01*
X174176799Y-94315162D01*
X173804833Y-94314838D01*
X173587336Y-94404706D01*
X173482000Y-94299370D01*
X173482000Y-93980000D01*
X173423996Y-93688395D01*
X173389390Y-93636604D01*
X173258815Y-93441184D01*
X169035130Y-89217500D01*
X171765630Y-86487000D01*
X174625000Y-86487000D01*
X174916605Y-86428996D01*
X175163815Y-86263815D01*
X175798816Y-85628815D01*
X175916183Y-85453162D01*
X175963996Y-85381605D01*
X175978239Y-85310002D01*
X176100086Y-85259656D01*
X176518188Y-84842283D01*
X176744742Y-84296681D01*
X176745257Y-83705911D01*
X176519656Y-83159914D01*
X176102283Y-82741812D01*
X175556681Y-82515258D01*
X174965911Y-82514743D01*
X174419914Y-82740344D01*
X174001812Y-83157717D01*
X173990252Y-83185557D01*
X173979656Y-83159914D01*
X173562283Y-82741812D01*
X173016681Y-82515258D01*
X172425911Y-82514743D01*
X171879914Y-82740344D01*
X171461812Y-83157717D01*
X171450252Y-83185557D01*
X171439656Y-83159914D01*
X171022283Y-82741812D01*
X170476681Y-82515258D01*
X169885911Y-82514743D01*
X169339914Y-82740344D01*
X168921812Y-83157717D01*
X168902049Y-83205312D01*
X168683958Y-83135647D01*
X167819605Y-84000000D01*
X168683958Y-84864353D01*
X168901640Y-84794819D01*
X168920344Y-84840086D01*
X169337717Y-85258188D01*
X169418000Y-85291524D01*
X169418000Y-85409369D01*
X167324370Y-87503000D01*
X145415000Y-87503000D01*
X145123395Y-87561004D01*
X145024377Y-87627166D01*
X144876185Y-87726184D01*
X143701502Y-88900868D01*
X143536321Y-89148078D01*
X143478317Y-89439683D01*
X143478317Y-91140544D01*
X143448125Y-91170683D01*
X143305479Y-91514211D01*
X143305155Y-91886177D01*
X143330700Y-91948000D01*
X137922000Y-91948000D01*
X137922000Y-88440630D01*
X139207506Y-87155125D01*
X139250167Y-87155162D01*
X139593943Y-87013117D01*
X139857192Y-86750327D01*
X139999838Y-86406799D01*
X140000162Y-86034833D01*
X139924617Y-85852000D01*
X142949534Y-85852000D01*
X142979673Y-85882192D01*
X143323201Y-86024838D01*
X143695167Y-86025162D01*
X144038943Y-85883117D01*
X144302192Y-85620327D01*
X144444838Y-85276799D01*
X144445162Y-84904833D01*
X144303117Y-84561057D01*
X144040327Y-84297808D01*
X143696799Y-84155162D01*
X143324833Y-84154838D01*
X142981057Y-84296883D01*
X142949886Y-84328000D01*
X138430000Y-84328000D01*
X138138395Y-84386004D01*
X138035136Y-84455000D01*
X137891185Y-84551185D01*
X135986185Y-86456185D01*
X135821004Y-86703395D01*
X135763000Y-86995000D01*
X135763000Y-92394370D01*
X130906185Y-97251185D01*
X130741004Y-97498395D01*
X130683000Y-97790000D01*
X127912000Y-97790000D01*
X127912000Y-91714285D01*
X131964760Y-91714285D01*
X132175169Y-92223515D01*
X132564436Y-92613461D01*
X133073298Y-92824759D01*
X133624285Y-92825240D01*
X134133515Y-92614831D01*
X134523461Y-92225564D01*
X134734759Y-91716702D01*
X134735240Y-91165715D01*
X134524831Y-90656485D01*
X134135564Y-90266539D01*
X133626702Y-90055241D01*
X133075715Y-90054760D01*
X132566485Y-90265169D01*
X132176539Y-90654436D01*
X131965241Y-91163298D01*
X131964760Y-91714285D01*
X127912000Y-91714285D01*
X127912000Y-88430630D01*
X129508345Y-86834285D01*
X131964760Y-86834285D01*
X132175169Y-87343515D01*
X132564436Y-87733461D01*
X133073298Y-87944759D01*
X133624285Y-87945240D01*
X134133515Y-87734831D01*
X134523461Y-87345564D01*
X134734759Y-86836702D01*
X134735240Y-86285715D01*
X134524831Y-85776485D01*
X134135564Y-85386539D01*
X133626702Y-85175241D01*
X133075715Y-85174760D01*
X132566485Y-85385169D01*
X132176539Y-85774436D01*
X131965241Y-86283298D01*
X131964760Y-86834285D01*
X129508345Y-86834285D01*
X134300631Y-82042000D01*
X138430000Y-82042000D01*
X138721605Y-81983996D01*
X138968815Y-81818815D01*
X139207506Y-81580125D01*
X139250167Y-81580162D01*
X139418597Y-81510568D01*
X139541883Y-81808943D01*
X139804673Y-82072192D01*
X140148201Y-82214838D01*
X140520167Y-82215162D01*
X140863943Y-82073117D01*
X141127192Y-81810327D01*
X141269838Y-81466799D01*
X141270162Y-81094833D01*
X141128117Y-80751057D01*
X141097000Y-80719886D01*
X141097000Y-80010000D01*
X141038996Y-79718395D01*
X140964014Y-79606177D01*
X140873816Y-79471185D01*
X140269630Y-78867000D01*
X150179370Y-78867000D01*
X154729771Y-83417401D01*
X154640162Y-83633201D01*
X154639838Y-84005167D01*
X154781883Y-84348943D01*
X155044673Y-84612192D01*
X155388201Y-84754838D01*
X155760167Y-84755162D01*
X155928597Y-84685568D01*
X156051883Y-84983943D01*
X156314673Y-85247192D01*
X156658201Y-85389838D01*
X157030167Y-85390162D01*
X157285430Y-85284690D01*
X157180162Y-85538201D01*
X157179838Y-85910167D01*
X157321883Y-86253943D01*
X157584673Y-86517192D01*
X157928201Y-86659838D01*
X158300167Y-86660162D01*
X158643943Y-86518117D01*
X158907192Y-86255327D01*
X159049838Y-85911799D01*
X159050162Y-85539833D01*
X158908117Y-85196057D01*
X158877000Y-85164886D01*
X158877000Y-83185000D01*
X158870039Y-83150000D01*
X163602560Y-83150000D01*
X163602560Y-84850000D01*
X163646838Y-85085317D01*
X163785910Y-85301441D01*
X163998110Y-85446431D01*
X164250000Y-85497440D01*
X165950000Y-85497440D01*
X166185317Y-85453162D01*
X166401441Y-85314090D01*
X166546431Y-85101890D01*
X166558162Y-85043958D01*
X166775647Y-85043958D01*
X166855920Y-85295259D01*
X167411279Y-85496718D01*
X168001458Y-85470315D01*
X168424080Y-85295259D01*
X168504353Y-85043958D01*
X167640000Y-84179605D01*
X166775647Y-85043958D01*
X166558162Y-85043958D01*
X166594625Y-84863900D01*
X166596042Y-84864353D01*
X167460395Y-84000000D01*
X166596042Y-83135647D01*
X166594813Y-83136040D01*
X166560945Y-82956042D01*
X166775647Y-82956042D01*
X167640000Y-83820395D01*
X168504353Y-82956042D01*
X168424080Y-82704741D01*
X167868721Y-82503282D01*
X167278542Y-82529685D01*
X166855920Y-82704741D01*
X166775647Y-82956042D01*
X166560945Y-82956042D01*
X166553162Y-82914683D01*
X166414090Y-82698559D01*
X166201890Y-82553569D01*
X165950000Y-82502560D01*
X164250000Y-82502560D01*
X164014683Y-82546838D01*
X163798559Y-82685910D01*
X163653569Y-82898110D01*
X163602560Y-83150000D01*
X158870039Y-83150000D01*
X158818996Y-82893395D01*
X158653815Y-82646185D01*
X152303815Y-76296185D01*
X152278504Y-76279273D01*
X152056605Y-76131004D01*
X151765000Y-76073000D01*
X128585630Y-76073000D01*
X128142000Y-75629370D01*
X128142000Y-75527415D01*
X128323988Y-75405815D01*
X128613379Y-74972709D01*
X128650000Y-74788603D01*
X128686621Y-74972709D01*
X128976012Y-75405815D01*
X129409118Y-75695206D01*
X129920000Y-75796827D01*
X130430882Y-75695206D01*
X130863988Y-75405815D01*
X131153379Y-74972709D01*
X131190000Y-74788603D01*
X131226621Y-74972709D01*
X131516012Y-75405815D01*
X131949118Y-75695206D01*
X132460000Y-75796827D01*
X132970882Y-75695206D01*
X133403988Y-75405815D01*
X133693379Y-74972709D01*
X133730000Y-74788603D01*
X133766621Y-74972709D01*
X134056012Y-75405815D01*
X134489118Y-75695206D01*
X135000000Y-75796827D01*
X135510882Y-75695206D01*
X135943988Y-75405815D01*
X136233379Y-74972709D01*
X136270000Y-74788603D01*
X136306621Y-74972709D01*
X136596012Y-75405815D01*
X137029118Y-75695206D01*
X137540000Y-75796827D01*
X138050882Y-75695206D01*
X138483988Y-75405815D01*
X138773379Y-74972709D01*
X138810000Y-74788603D01*
X138846621Y-74972709D01*
X139136012Y-75405815D01*
X139569118Y-75695206D01*
X140080000Y-75796827D01*
X140590882Y-75695206D01*
X141023988Y-75405815D01*
X141313379Y-74972709D01*
X141350000Y-74788603D01*
X141386621Y-74972709D01*
X141676012Y-75405815D01*
X142109118Y-75695206D01*
X142620000Y-75796827D01*
X143130882Y-75695206D01*
X143563988Y-75405815D01*
X143853379Y-74972709D01*
X143890000Y-74788603D01*
X143926621Y-74972709D01*
X144216012Y-75405815D01*
X144649118Y-75695206D01*
X145160000Y-75796827D01*
X145670882Y-75695206D01*
X146103988Y-75405815D01*
X146393379Y-74972709D01*
X146430000Y-74788603D01*
X146466621Y-74972709D01*
X146756012Y-75405815D01*
X147189118Y-75695206D01*
X147700000Y-75796827D01*
X148210882Y-75695206D01*
X148643988Y-75405815D01*
X148933379Y-74972709D01*
X148970000Y-74788603D01*
X149006621Y-74972709D01*
X149296012Y-75405815D01*
X149729118Y-75695206D01*
X150240000Y-75796827D01*
X150750882Y-75695206D01*
X151183988Y-75405815D01*
X151473379Y-74972709D01*
X151512957Y-74773738D01*
X151595222Y-75048215D01*
X151925815Y-75453790D01*
X152386450Y-75701980D01*
X152446671Y-75712716D01*
X152653000Y-75589374D01*
X152653000Y-73747000D01*
X152907000Y-73747000D01*
X152907000Y-75589374D01*
X153113329Y-75712716D01*
X153173550Y-75701980D01*
X153634185Y-75453790D01*
X153964778Y-75048215D01*
X154115000Y-74547000D01*
X154115000Y-73747000D01*
X152907000Y-73747000D01*
X152653000Y-73747000D01*
X152633000Y-73747000D01*
X152633000Y-73493000D01*
X152653000Y-73493000D01*
X152653000Y-73473000D01*
X152907000Y-73473000D01*
X152907000Y-73493000D01*
X154115000Y-73493000D01*
X154115000Y-72693000D01*
X153964778Y-72191785D01*
X153669879Y-71830000D01*
X181535694Y-71830000D01*
X181523826Y-71841847D01*
X181045546Y-72993674D01*
X181044457Y-74240854D01*
X181520727Y-75393515D01*
X182401847Y-76276174D01*
X183553674Y-76754454D01*
X184800854Y-76755543D01*
X185953515Y-76279273D01*
X185970000Y-76262817D01*
X185970000Y-101975694D01*
X185958153Y-101963826D01*
X184806326Y-101485546D01*
X183559146Y-101484457D01*
X182406485Y-101960727D01*
X181523826Y-102841847D01*
X181045546Y-103993674D01*
X181044457Y-105240854D01*
X181520727Y-106393515D01*
X182401847Y-107276174D01*
X183553674Y-107754454D01*
X184800854Y-107755543D01*
X185953515Y-107279273D01*
X185970000Y-107262817D01*
X185970000Y-130410000D01*
X107390000Y-130410000D01*
X107390000Y-127572532D01*
X109517073Y-127572532D01*
X109615736Y-127839387D01*
X110225461Y-128065908D01*
X110875460Y-128041856D01*
X111364264Y-127839387D01*
X111462927Y-127572532D01*
X116017073Y-127572532D01*
X116115736Y-127839387D01*
X116725461Y-128065908D01*
X117375460Y-128041856D01*
X117864264Y-127839387D01*
X117962927Y-127572532D01*
X119677073Y-127572532D01*
X119775736Y-127839387D01*
X120385461Y-128065908D01*
X121035460Y-128041856D01*
X121524264Y-127839387D01*
X121622927Y-127572532D01*
X126177073Y-127572532D01*
X126275736Y-127839387D01*
X126885461Y-128065908D01*
X127535460Y-128041856D01*
X128024264Y-127839387D01*
X128122927Y-127572532D01*
X129837073Y-127572532D01*
X129935736Y-127839387D01*
X130545461Y-128065908D01*
X131195460Y-128041856D01*
X131684264Y-127839387D01*
X131782927Y-127572532D01*
X136337073Y-127572532D01*
X136435736Y-127839387D01*
X137045461Y-128065908D01*
X137695460Y-128041856D01*
X138184264Y-127839387D01*
X138282927Y-127572532D01*
X137310000Y-126599605D01*
X136337073Y-127572532D01*
X131782927Y-127572532D01*
X130810000Y-126599605D01*
X129837073Y-127572532D01*
X128122927Y-127572532D01*
X127150000Y-126599605D01*
X126177073Y-127572532D01*
X121622927Y-127572532D01*
X120650000Y-126599605D01*
X119677073Y-127572532D01*
X117962927Y-127572532D01*
X116990000Y-126599605D01*
X116017073Y-127572532D01*
X111462927Y-127572532D01*
X110490000Y-126599605D01*
X109517073Y-127572532D01*
X107390000Y-127572532D01*
X107390000Y-126155461D01*
X108844092Y-126155461D01*
X108868144Y-126805460D01*
X109070613Y-127294264D01*
X109337468Y-127392927D01*
X110310395Y-126420000D01*
X110669605Y-126420000D01*
X111642532Y-127392927D01*
X111909387Y-127294264D01*
X112135908Y-126684539D01*
X112116331Y-126155461D01*
X115344092Y-126155461D01*
X115368144Y-126805460D01*
X115570613Y-127294264D01*
X115837468Y-127392927D01*
X116810395Y-126420000D01*
X117169605Y-126420000D01*
X118142532Y-127392927D01*
X118409387Y-127294264D01*
X118635908Y-126684539D01*
X118616331Y-126155461D01*
X119004092Y-126155461D01*
X119028144Y-126805460D01*
X119230613Y-127294264D01*
X119497468Y-127392927D01*
X120470395Y-126420000D01*
X120829605Y-126420000D01*
X121802532Y-127392927D01*
X122069387Y-127294264D01*
X122295908Y-126684539D01*
X122276331Y-126155461D01*
X125504092Y-126155461D01*
X125528144Y-126805460D01*
X125730613Y-127294264D01*
X125997468Y-127392927D01*
X126970395Y-126420000D01*
X127329605Y-126420000D01*
X128302532Y-127392927D01*
X128569387Y-127294264D01*
X128795908Y-126684539D01*
X128776331Y-126155461D01*
X129164092Y-126155461D01*
X129188144Y-126805460D01*
X129390613Y-127294264D01*
X129657468Y-127392927D01*
X130630395Y-126420000D01*
X130989605Y-126420000D01*
X131962532Y-127392927D01*
X132229387Y-127294264D01*
X132455908Y-126684539D01*
X132436331Y-126155461D01*
X135664092Y-126155461D01*
X135688144Y-126805460D01*
X135890613Y-127294264D01*
X136157468Y-127392927D01*
X137130395Y-126420000D01*
X137489605Y-126420000D01*
X138462532Y-127392927D01*
X138729387Y-127294264D01*
X138955908Y-126684539D01*
X138931856Y-126034540D01*
X138915182Y-125994285D01*
X141294760Y-125994285D01*
X141505169Y-126503515D01*
X141894436Y-126893461D01*
X142403298Y-127104759D01*
X142954285Y-127105240D01*
X143463515Y-126894831D01*
X143853461Y-126505564D01*
X144064759Y-125996702D01*
X144065240Y-125445715D01*
X143854831Y-124936485D01*
X143465564Y-124546539D01*
X142956702Y-124335241D01*
X142405715Y-124334760D01*
X141896485Y-124545169D01*
X141506539Y-124934436D01*
X141295241Y-125443298D01*
X141294760Y-125994285D01*
X138915182Y-125994285D01*
X138729387Y-125545736D01*
X138462532Y-125447073D01*
X137489605Y-126420000D01*
X137130395Y-126420000D01*
X136157468Y-125447073D01*
X135890613Y-125545736D01*
X135664092Y-126155461D01*
X132436331Y-126155461D01*
X132431856Y-126034540D01*
X132229387Y-125545736D01*
X131962532Y-125447073D01*
X130989605Y-126420000D01*
X130630395Y-126420000D01*
X129657468Y-125447073D01*
X129390613Y-125545736D01*
X129164092Y-126155461D01*
X128776331Y-126155461D01*
X128771856Y-126034540D01*
X128569387Y-125545736D01*
X128302532Y-125447073D01*
X127329605Y-126420000D01*
X126970395Y-126420000D01*
X125997468Y-125447073D01*
X125730613Y-125545736D01*
X125504092Y-126155461D01*
X122276331Y-126155461D01*
X122271856Y-126034540D01*
X122069387Y-125545736D01*
X121802532Y-125447073D01*
X120829605Y-126420000D01*
X120470395Y-126420000D01*
X119497468Y-125447073D01*
X119230613Y-125545736D01*
X119004092Y-126155461D01*
X118616331Y-126155461D01*
X118611856Y-126034540D01*
X118409387Y-125545736D01*
X118142532Y-125447073D01*
X117169605Y-126420000D01*
X116810395Y-126420000D01*
X115837468Y-125447073D01*
X115570613Y-125545736D01*
X115344092Y-126155461D01*
X112116331Y-126155461D01*
X112111856Y-126034540D01*
X111909387Y-125545736D01*
X111642532Y-125447073D01*
X110669605Y-126420000D01*
X110310395Y-126420000D01*
X109337468Y-125447073D01*
X109070613Y-125545736D01*
X108844092Y-126155461D01*
X107390000Y-126155461D01*
X107390000Y-125267468D01*
X109517073Y-125267468D01*
X110490000Y-126240395D01*
X111462927Y-125267468D01*
X116017073Y-125267468D01*
X116990000Y-126240395D01*
X117962927Y-125267468D01*
X119677073Y-125267468D01*
X120650000Y-126240395D01*
X121622927Y-125267468D01*
X126177073Y-125267468D01*
X127150000Y-126240395D01*
X128122927Y-125267468D01*
X129837073Y-125267468D01*
X130810000Y-126240395D01*
X131782927Y-125267468D01*
X136337073Y-125267468D01*
X137310000Y-126240395D01*
X138282927Y-125267468D01*
X138184264Y-125000613D01*
X137574539Y-124774092D01*
X136924540Y-124798144D01*
X136435736Y-125000613D01*
X136337073Y-125267468D01*
X131782927Y-125267468D01*
X131684264Y-125000613D01*
X131074539Y-124774092D01*
X130424540Y-124798144D01*
X129935736Y-125000613D01*
X129837073Y-125267468D01*
X128122927Y-125267468D01*
X128024264Y-125000613D01*
X127414539Y-124774092D01*
X126764540Y-124798144D01*
X126275736Y-125000613D01*
X126177073Y-125267468D01*
X121622927Y-125267468D01*
X121524264Y-125000613D01*
X120914539Y-124774092D01*
X120264540Y-124798144D01*
X119775736Y-125000613D01*
X119677073Y-125267468D01*
X117962927Y-125267468D01*
X117864264Y-125000613D01*
X117254539Y-124774092D01*
X116604540Y-124798144D01*
X116115736Y-125000613D01*
X116017073Y-125267468D01*
X111462927Y-125267468D01*
X111364264Y-125000613D01*
X110754539Y-124774092D01*
X110104540Y-124798144D01*
X109615736Y-125000613D01*
X109517073Y-125267468D01*
X107390000Y-125267468D01*
X107390000Y-122243795D01*
X108854716Y-122243795D01*
X109103106Y-122844943D01*
X109562637Y-123305278D01*
X110163352Y-123554716D01*
X110813795Y-123555284D01*
X111414943Y-123306894D01*
X111875278Y-122847363D01*
X112124716Y-122246648D01*
X112125284Y-121596205D01*
X111876894Y-120995057D01*
X111417363Y-120534722D01*
X110816648Y-120285284D01*
X110166205Y-120284716D01*
X109565057Y-120533106D01*
X109104722Y-120992637D01*
X108855284Y-121593352D01*
X108854716Y-122243795D01*
X107390000Y-122243795D01*
X107390000Y-117412532D01*
X109517073Y-117412532D01*
X109615736Y-117679387D01*
X110225461Y-117905908D01*
X110875460Y-117881856D01*
X111364264Y-117679387D01*
X111462927Y-117412532D01*
X110490000Y-116439605D01*
X109517073Y-117412532D01*
X107390000Y-117412532D01*
X107390000Y-115995461D01*
X108844092Y-115995461D01*
X108868144Y-116645460D01*
X109070613Y-117134264D01*
X109337468Y-117232927D01*
X110310395Y-116260000D01*
X110669605Y-116260000D01*
X111642532Y-117232927D01*
X111909387Y-117134264D01*
X112135908Y-116524539D01*
X112111856Y-115874540D01*
X111909387Y-115385736D01*
X111642532Y-115287073D01*
X110669605Y-116260000D01*
X110310395Y-116260000D01*
X109337468Y-115287073D01*
X109070613Y-115385736D01*
X108844092Y-115995461D01*
X107390000Y-115995461D01*
X107390000Y-115107468D01*
X109517073Y-115107468D01*
X110490000Y-116080395D01*
X111462927Y-115107468D01*
X111364264Y-114840613D01*
X110754539Y-114614092D01*
X110104540Y-114638144D01*
X109615736Y-114840613D01*
X109517073Y-115107468D01*
X107390000Y-115107468D01*
X107390000Y-112083795D01*
X108854716Y-112083795D01*
X109103106Y-112684943D01*
X109562637Y-113145278D01*
X110163352Y-113394716D01*
X110813795Y-113395284D01*
X111414943Y-113146894D01*
X111875278Y-112687363D01*
X112124716Y-112086648D01*
X112125284Y-111436205D01*
X111876894Y-110835057D01*
X111417363Y-110374722D01*
X110816648Y-110125284D01*
X110166205Y-110124716D01*
X109565057Y-110373106D01*
X109104722Y-110832637D01*
X108855284Y-111433352D01*
X108854716Y-112083795D01*
X107390000Y-112083795D01*
X107390000Y-107264306D01*
X107401847Y-107276174D01*
X108553674Y-107754454D01*
X109800854Y-107755543D01*
X110953515Y-107279273D01*
X111836174Y-106398153D01*
X112314454Y-105246326D01*
X112315543Y-103999146D01*
X111839273Y-102846485D01*
X110958153Y-101963826D01*
X109806326Y-101485546D01*
X108559146Y-101484457D01*
X107406485Y-101960727D01*
X107390000Y-101977183D01*
X107390000Y-89168344D01*
X110404765Y-89168344D01*
X110610617Y-89666543D01*
X110991452Y-90048043D01*
X111489291Y-90254764D01*
X112028344Y-90255235D01*
X112526543Y-90049383D01*
X112726500Y-89849774D01*
X116069831Y-89849774D01*
X116134131Y-90087611D01*
X116642342Y-90267333D01*
X117180644Y-90238892D01*
X117545869Y-90087611D01*
X117610169Y-89849774D01*
X116840000Y-89079605D01*
X116069831Y-89849774D01*
X112726500Y-89849774D01*
X112908043Y-89668548D01*
X113114764Y-89170709D01*
X113115173Y-88702342D01*
X115472667Y-88702342D01*
X115501108Y-89240644D01*
X115652389Y-89605869D01*
X115890226Y-89670169D01*
X116660395Y-88900000D01*
X117019605Y-88900000D01*
X117789774Y-89670169D01*
X118027611Y-89605869D01*
X118207333Y-89097658D01*
X118178892Y-88559356D01*
X118027611Y-88194131D01*
X117789774Y-88129831D01*
X117019605Y-88900000D01*
X116660395Y-88900000D01*
X115890226Y-88129831D01*
X115652389Y-88194131D01*
X115472667Y-88702342D01*
X113115173Y-88702342D01*
X113115235Y-88631656D01*
X112909383Y-88133457D01*
X112726472Y-87950226D01*
X116069831Y-87950226D01*
X116840000Y-88720395D01*
X117610169Y-87950226D01*
X117545869Y-87712389D01*
X117037658Y-87532667D01*
X116499356Y-87561108D01*
X116134131Y-87712389D01*
X116069831Y-87950226D01*
X112726472Y-87950226D01*
X112528548Y-87751957D01*
X112030709Y-87545236D01*
X111491656Y-87544765D01*
X110993457Y-87750617D01*
X110611957Y-88131452D01*
X110405236Y-88629291D01*
X110404765Y-89168344D01*
X107390000Y-89168344D01*
X107390000Y-86628344D01*
X112944765Y-86628344D01*
X113150617Y-87126543D01*
X113531452Y-87508043D01*
X114029291Y-87714764D01*
X114568344Y-87715235D01*
X115066543Y-87509383D01*
X115448043Y-87128548D01*
X115654764Y-86630709D01*
X115655235Y-86091656D01*
X115449383Y-85593457D01*
X115068548Y-85211957D01*
X114570709Y-85005236D01*
X114031656Y-85004765D01*
X113533457Y-85210617D01*
X113151957Y-85591452D01*
X112945236Y-86089291D01*
X112944765Y-86628344D01*
X107390000Y-86628344D01*
X107390000Y-76264306D01*
X107401847Y-76276174D01*
X108553674Y-76754454D01*
X109800854Y-76755543D01*
X110953515Y-76279273D01*
X111836174Y-75398153D01*
X112314454Y-74246326D01*
X112314751Y-73905750D01*
X113345000Y-73905750D01*
X113345000Y-75246309D01*
X113441673Y-75479698D01*
X113620301Y-75658327D01*
X113853690Y-75755000D01*
X114394250Y-75755000D01*
X114553000Y-75596250D01*
X114553000Y-73747000D01*
X113503750Y-73747000D01*
X113345000Y-73905750D01*
X112314751Y-73905750D01*
X112315543Y-72999146D01*
X111839273Y-71846485D01*
X111822817Y-71830000D01*
X113412803Y-71830000D01*
X113345000Y-71993691D01*
X113345000Y-71993691D01*
G37*
X113345000Y-71993691D02*
X113345000Y-73334250D01*
X113503750Y-73493000D01*
X114553000Y-73493000D01*
X114553000Y-73473000D01*
X114807000Y-73473000D01*
X114807000Y-73493000D01*
X114827000Y-73493000D01*
X114827000Y-73747000D01*
X114807000Y-73747000D01*
X114807000Y-75596250D01*
X114965750Y-75755000D01*
X115506310Y-75755000D01*
X115739699Y-75658327D01*
X115918327Y-75479698D01*
X116015000Y-75246309D01*
X116015000Y-75015181D01*
X116276012Y-75405815D01*
X116709118Y-75695206D01*
X117220000Y-75796827D01*
X117730882Y-75695206D01*
X118163988Y-75405815D01*
X118453379Y-74972709D01*
X118490000Y-74788603D01*
X118526621Y-74972709D01*
X118816012Y-75405815D01*
X119249118Y-75695206D01*
X119760000Y-75796827D01*
X120270882Y-75695206D01*
X120703988Y-75405815D01*
X120993379Y-74972709D01*
X121030000Y-74788603D01*
X121066621Y-74972709D01*
X121356012Y-75405815D01*
X121538000Y-75527415D01*
X121538000Y-75945000D01*
X121596004Y-76236605D01*
X121761185Y-76483815D01*
X123921184Y-78643815D01*
X124168395Y-78808996D01*
X124460000Y-78867000D01*
X131510369Y-78867000D01*
X124556185Y-85821185D01*
X124391004Y-86068395D01*
X124333000Y-86360000D01*
X124333000Y-105729369D01*
X122239370Y-107823000D01*
X114935000Y-107823000D01*
X114643395Y-107881004D01*
X114396184Y-108046185D01*
X113126186Y-109316184D01*
X113126185Y-109316185D01*
X112961004Y-109563395D01*
X112903000Y-109855000D01*
X112903000Y-118595000D01*
X112961004Y-118886605D01*
X113085770Y-119073330D01*
X113126185Y-119133815D01*
X115422895Y-121430525D01*
X115355284Y-121593352D01*
X115354716Y-122243795D01*
X115603106Y-122844943D01*
X116062637Y-123305278D01*
X116663352Y-123554716D01*
X117313795Y-123555284D01*
X117914943Y-123306894D01*
X118375278Y-122847363D01*
X118624716Y-122246648D01*
X118624718Y-122243795D01*
X119014716Y-122243795D01*
X119263106Y-122844943D01*
X119722637Y-123305278D01*
X120323352Y-123554716D01*
X120973795Y-123555284D01*
X121574943Y-123306894D01*
X122035278Y-122847363D01*
X122284716Y-122246648D01*
X122285284Y-121596205D01*
X122036894Y-120995057D01*
X121577363Y-120534722D01*
X120976648Y-120285284D01*
X120326205Y-120284716D01*
X119725057Y-120533106D01*
X119264722Y-120992637D01*
X119015284Y-121593352D01*
X119014716Y-122243795D01*
X118624718Y-122243795D01*
X118625284Y-121596205D01*
X118376894Y-120995057D01*
X117917363Y-120534722D01*
X117316648Y-120285284D01*
X116666205Y-120284716D01*
X116500722Y-120353092D01*
X114427000Y-118279370D01*
X114427000Y-117412532D01*
X116017073Y-117412532D01*
X116115736Y-117679387D01*
X116725461Y-117905908D01*
X117375460Y-117881856D01*
X117864264Y-117679387D01*
X117962927Y-117412532D01*
X119677073Y-117412532D01*
X119775736Y-117679387D01*
X120385461Y-117905908D01*
X121035460Y-117881856D01*
X121524264Y-117679387D01*
X121622927Y-117412532D01*
X120650000Y-116439605D01*
X119677073Y-117412532D01*
X117962927Y-117412532D01*
X116990000Y-116439605D01*
X116017073Y-117412532D01*
X114427000Y-117412532D01*
X114427000Y-115995461D01*
X115344092Y-115995461D01*
X115368144Y-116645460D01*
X115570613Y-117134264D01*
X115837468Y-117232927D01*
X116810395Y-116260000D01*
X117169605Y-116260000D01*
X118142532Y-117232927D01*
X118409387Y-117134264D01*
X118635908Y-116524539D01*
X118616331Y-115995461D01*
X119004092Y-115995461D01*
X119028144Y-116645460D01*
X119230613Y-117134264D01*
X119497468Y-117232927D01*
X120470395Y-116260000D01*
X120829605Y-116260000D01*
X121802532Y-117232927D01*
X122069387Y-117134264D01*
X122295908Y-116524539D01*
X122271856Y-115874540D01*
X122069387Y-115385736D01*
X121802532Y-115287073D01*
X120829605Y-116260000D01*
X120470395Y-116260000D01*
X119497468Y-115287073D01*
X119230613Y-115385736D01*
X119004092Y-115995461D01*
X118616331Y-115995461D01*
X118611856Y-115874540D01*
X118409387Y-115385736D01*
X118142532Y-115287073D01*
X117169605Y-116260000D01*
X116810395Y-116260000D01*
X115837468Y-115287073D01*
X115570613Y-115385736D01*
X115344092Y-115995461D01*
X114427000Y-115995461D01*
X114427000Y-115107468D01*
X116017073Y-115107468D01*
X116990000Y-116080395D01*
X117962927Y-115107468D01*
X119677073Y-115107468D01*
X120650000Y-116080395D01*
X121622927Y-115107468D01*
X121524264Y-114840613D01*
X120914539Y-114614092D01*
X120264540Y-114638144D01*
X119775736Y-114840613D01*
X119677073Y-115107468D01*
X117962927Y-115107468D01*
X117864264Y-114840613D01*
X117254539Y-114614092D01*
X116604540Y-114638144D01*
X116115736Y-114840613D01*
X116017073Y-115107468D01*
X114427000Y-115107468D01*
X114427000Y-110170630D01*
X115250631Y-109347000D01*
X116330368Y-109347000D01*
X116286004Y-109413395D01*
X116228000Y-109705000D01*
X116228000Y-110305779D01*
X116065057Y-110373106D01*
X115604722Y-110832637D01*
X115355284Y-111433352D01*
X115354716Y-112083795D01*
X115603106Y-112684943D01*
X116062637Y-113145278D01*
X116663352Y-113394716D01*
X117313795Y-113395284D01*
X117914943Y-113146894D01*
X118375278Y-112687363D01*
X118624716Y-112086648D01*
X118624718Y-112083795D01*
X119014716Y-112083795D01*
X119263106Y-112684943D01*
X119722637Y-113145278D01*
X120323352Y-113394716D01*
X120973795Y-113395284D01*
X121574943Y-113146894D01*
X122035278Y-112687363D01*
X122284716Y-112086648D01*
X122285284Y-111436205D01*
X122036894Y-110835057D01*
X121577363Y-110374722D01*
X120976648Y-110125284D01*
X120326205Y-110124716D01*
X119725057Y-110373106D01*
X119264722Y-110832637D01*
X119015284Y-111433352D01*
X119014716Y-112083795D01*
X118624718Y-112083795D01*
X118625284Y-111436205D01*
X118376894Y-110835057D01*
X117917363Y-110374722D01*
X117752000Y-110306057D01*
X117752000Y-110020630D01*
X117790631Y-109982000D01*
X123063000Y-109982000D01*
X123063000Y-118595000D01*
X123121004Y-118886605D01*
X123245770Y-119073330D01*
X123286185Y-119133815D01*
X125582895Y-121430525D01*
X125515284Y-121593352D01*
X125514716Y-122243795D01*
X125763106Y-122844943D01*
X126222637Y-123305278D01*
X126823352Y-123554716D01*
X127473795Y-123555284D01*
X128074943Y-123306894D01*
X128535278Y-122847363D01*
X128784716Y-122246648D01*
X128784718Y-122243795D01*
X129174716Y-122243795D01*
X129423106Y-122844943D01*
X129882637Y-123305278D01*
X130483352Y-123554716D01*
X131133795Y-123555284D01*
X131734943Y-123306894D01*
X132195278Y-122847363D01*
X132444716Y-122246648D01*
X132445284Y-121596205D01*
X132196894Y-120995057D01*
X131737363Y-120534722D01*
X131136648Y-120285284D01*
X130486205Y-120284716D01*
X129885057Y-120533106D01*
X129424722Y-120992637D01*
X129175284Y-121593352D01*
X129174716Y-122243795D01*
X128784718Y-122243795D01*
X128785284Y-121596205D01*
X128536894Y-120995057D01*
X128077363Y-120534722D01*
X127476648Y-120285284D01*
X126826205Y-120284716D01*
X126660722Y-120353092D01*
X124587000Y-118279370D01*
X124587000Y-117412532D01*
X126177073Y-117412532D01*
X126275736Y-117679387D01*
X126885461Y-117905908D01*
X127535460Y-117881856D01*
X128024264Y-117679387D01*
X128122927Y-117412532D01*
X129837073Y-117412532D01*
X129935736Y-117679387D01*
X130545461Y-117905908D01*
X131195460Y-117881856D01*
X131684264Y-117679387D01*
X131782927Y-117412532D01*
X130810000Y-116439605D01*
X129837073Y-117412532D01*
X128122927Y-117412532D01*
X127150000Y-116439605D01*
X126177073Y-117412532D01*
X124587000Y-117412532D01*
X124587000Y-115995461D01*
X125504092Y-115995461D01*
X125528144Y-116645460D01*
X125730613Y-117134264D01*
X125997468Y-117232927D01*
X126970395Y-116260000D01*
X127329605Y-116260000D01*
X128302532Y-117232927D01*
X128569387Y-117134264D01*
X128795908Y-116524539D01*
X128776331Y-115995461D01*
X129164092Y-115995461D01*
X129188144Y-116645460D01*
X129390613Y-117134264D01*
X129657468Y-117232927D01*
X130630395Y-116260000D01*
X130989605Y-116260000D01*
X131962532Y-117232927D01*
X132229387Y-117134264D01*
X132455908Y-116524539D01*
X132431856Y-115874540D01*
X132229387Y-115385736D01*
X131962532Y-115287073D01*
X130989605Y-116260000D01*
X130630395Y-116260000D01*
X129657468Y-115287073D01*
X129390613Y-115385736D01*
X129164092Y-115995461D01*
X128776331Y-115995461D01*
X128771856Y-115874540D01*
X128569387Y-115385736D01*
X128302532Y-115287073D01*
X127329605Y-116260000D01*
X126970395Y-116260000D01*
X125997468Y-115287073D01*
X125730613Y-115385736D01*
X125504092Y-115995461D01*
X124587000Y-115995461D01*
X124587000Y-115107468D01*
X126177073Y-115107468D01*
X127150000Y-116080395D01*
X128122927Y-115107468D01*
X129837073Y-115107468D01*
X130810000Y-116080395D01*
X131782927Y-115107468D01*
X131684264Y-114840613D01*
X131074539Y-114614092D01*
X130424540Y-114638144D01*
X129935736Y-114840613D01*
X129837073Y-115107468D01*
X128122927Y-115107468D01*
X128024264Y-114840613D01*
X127414539Y-114614092D01*
X126764540Y-114638144D01*
X126275736Y-114840613D01*
X126177073Y-115107468D01*
X124587000Y-115107468D01*
X124587000Y-110170630D01*
X126388000Y-108369631D01*
X126388000Y-110305779D01*
X126225057Y-110373106D01*
X125764722Y-110832637D01*
X125515284Y-111433352D01*
X125514716Y-112083795D01*
X125763106Y-112684943D01*
X126222637Y-113145278D01*
X126823352Y-113394716D01*
X127473795Y-113395284D01*
X128074943Y-113146894D01*
X128535278Y-112687363D01*
X128784716Y-112086648D01*
X128784718Y-112083795D01*
X129174716Y-112083795D01*
X129423106Y-112684943D01*
X129882637Y-113145278D01*
X130483352Y-113394716D01*
X131133795Y-113395284D01*
X131734943Y-113146894D01*
X132195278Y-112687363D01*
X132444716Y-112086648D01*
X132445284Y-111436205D01*
X132196894Y-110835057D01*
X131737363Y-110374722D01*
X131136648Y-110125284D01*
X130486205Y-110124716D01*
X129885057Y-110373106D01*
X129424722Y-110832637D01*
X129175284Y-111433352D01*
X129174716Y-112083795D01*
X128784718Y-112083795D01*
X128785284Y-111436205D01*
X128536894Y-110835057D01*
X128077363Y-110374722D01*
X127912000Y-110306057D01*
X127912000Y-97790000D01*
X130683000Y-97790000D01*
X130683000Y-108585000D01*
X130741004Y-108876605D01*
X130885595Y-109093000D01*
X130906185Y-109123815D01*
X132176184Y-110393815D01*
X132423395Y-110558996D01*
X132715000Y-110617000D01*
X133034370Y-110617000D01*
X133223000Y-110805631D01*
X133223000Y-118595000D01*
X133281004Y-118886605D01*
X133405770Y-119073330D01*
X133446185Y-119133815D01*
X135742895Y-121430525D01*
X135675284Y-121593352D01*
X135674716Y-122243795D01*
X135923106Y-122844943D01*
X136382637Y-123305278D01*
X136983352Y-123554716D01*
X137633795Y-123555284D01*
X138234943Y-123306894D01*
X138695278Y-122847363D01*
X138787610Y-122625000D01*
X146733572Y-122625000D01*
X146733572Y-126445000D01*
X163146428Y-126445000D01*
X163146428Y-125994285D01*
X165494760Y-125994285D01*
X165705169Y-126503515D01*
X166094436Y-126893461D01*
X166603298Y-127104759D01*
X167154285Y-127105240D01*
X167663515Y-126894831D01*
X168053461Y-126505564D01*
X168264759Y-125996702D01*
X168265240Y-125445715D01*
X168054831Y-124936485D01*
X167665564Y-124546539D01*
X167156702Y-124335241D01*
X166605715Y-124334760D01*
X166096485Y-124545169D01*
X165706539Y-124934436D01*
X165495241Y-125443298D01*
X165494760Y-125994285D01*
X163146428Y-125994285D01*
X163146428Y-123560000D01*
X176682560Y-123560000D01*
X176682560Y-125360000D01*
X176726838Y-125595317D01*
X176865910Y-125811441D01*
X177078110Y-125956431D01*
X177098534Y-125960567D01*
X176929449Y-126129357D01*
X176695267Y-126693330D01*
X176694735Y-127303991D01*
X176927932Y-127868371D01*
X177359357Y-128300551D01*
X177923330Y-128534733D01*
X178533991Y-128535265D01*
X179098371Y-128302068D01*
X179530551Y-127870643D01*
X179764733Y-127306670D01*
X179765265Y-126696009D01*
X179532068Y-126131629D01*
X179364120Y-125963387D01*
X179365317Y-125963162D01*
X179581441Y-125824090D01*
X179726431Y-125611890D01*
X179777440Y-125360000D01*
X179777440Y-123560000D01*
X179733162Y-123324683D01*
X179594090Y-123108559D01*
X179381890Y-122963569D01*
X179130000Y-122912560D01*
X177330000Y-122912560D01*
X177094683Y-122956838D01*
X176878559Y-123095910D01*
X176733569Y-123308110D01*
X176682560Y-123560000D01*
X163146428Y-123560000D01*
X163146428Y-122625000D01*
X146733572Y-122625000D01*
X138787610Y-122625000D01*
X138944716Y-122246648D01*
X138945284Y-121596205D01*
X138696894Y-120995057D01*
X138237363Y-120534722D01*
X137636648Y-120285284D01*
X136986205Y-120284716D01*
X136820722Y-120353092D01*
X134747000Y-118279370D01*
X134747000Y-117412532D01*
X136337073Y-117412532D01*
X136435736Y-117679387D01*
X137045461Y-117905908D01*
X137695460Y-117881856D01*
X138184264Y-117679387D01*
X138282927Y-117412532D01*
X137310000Y-116439605D01*
X136337073Y-117412532D01*
X134747000Y-117412532D01*
X134747000Y-115995461D01*
X135664092Y-115995461D01*
X135688144Y-116645460D01*
X135890613Y-117134264D01*
X136157468Y-117232927D01*
X137130395Y-116260000D01*
X137489605Y-116260000D01*
X138462532Y-117232927D01*
X138729387Y-117134264D01*
X138955908Y-116524539D01*
X138934279Y-115940000D01*
X172442560Y-115940000D01*
X172442560Y-117740000D01*
X172486838Y-117975317D01*
X172625910Y-118191441D01*
X172838110Y-118336431D01*
X172858534Y-118340567D01*
X172689449Y-118509357D01*
X172455267Y-119073330D01*
X172454735Y-119683991D01*
X172687932Y-120248371D01*
X173119357Y-120680551D01*
X173683330Y-120914733D01*
X174293991Y-120915265D01*
X174858371Y-120682068D01*
X175290551Y-120250643D01*
X175524733Y-119686670D01*
X175525265Y-119076009D01*
X175292068Y-118511629D01*
X175124120Y-118343387D01*
X175125317Y-118343162D01*
X175341441Y-118204090D01*
X175486431Y-117991890D01*
X175537440Y-117740000D01*
X175537440Y-115940000D01*
X180902560Y-115940000D01*
X180902560Y-117740000D01*
X180946838Y-117975317D01*
X181085910Y-118191441D01*
X181298110Y-118336431D01*
X181318534Y-118340567D01*
X181149449Y-118509357D01*
X180915267Y-119073330D01*
X180914735Y-119683991D01*
X181147932Y-120248371D01*
X181579357Y-120680551D01*
X182143330Y-120914733D01*
X182753991Y-120915265D01*
X183318371Y-120682068D01*
X183750551Y-120250643D01*
X183984733Y-119686670D01*
X183985265Y-119076009D01*
X183752068Y-118511629D01*
X183584120Y-118343387D01*
X183585317Y-118343162D01*
X183801441Y-118204090D01*
X183946431Y-117991890D01*
X183997440Y-117740000D01*
X183997440Y-115940000D01*
X183953162Y-115704683D01*
X183814090Y-115488559D01*
X183601890Y-115343569D01*
X183350000Y-115292560D01*
X181550000Y-115292560D01*
X181314683Y-115336838D01*
X181098559Y-115475910D01*
X180953569Y-115688110D01*
X180902560Y-115940000D01*
X175537440Y-115940000D01*
X175493162Y-115704683D01*
X175354090Y-115488559D01*
X175141890Y-115343569D01*
X174890000Y-115292560D01*
X173090000Y-115292560D01*
X172854683Y-115336838D01*
X172638559Y-115475910D01*
X172493569Y-115688110D01*
X172442560Y-115940000D01*
X138934279Y-115940000D01*
X138931856Y-115874540D01*
X138729387Y-115385736D01*
X138462532Y-115287073D01*
X137489605Y-116260000D01*
X137130395Y-116260000D01*
X136157468Y-115287073D01*
X135890613Y-115385736D01*
X135664092Y-115995461D01*
X134747000Y-115995461D01*
X134747000Y-115107468D01*
X136337073Y-115107468D01*
X137310000Y-116080395D01*
X138282927Y-115107468D01*
X138184264Y-114840613D01*
X137574539Y-114614092D01*
X136924540Y-114638144D01*
X136435736Y-114840613D01*
X136337073Y-115107468D01*
X134747000Y-115107468D01*
X134747000Y-110490000D01*
X134688996Y-110198395D01*
X134622834Y-110099377D01*
X134523816Y-109951185D01*
X133919630Y-109347000D01*
X136548000Y-109347000D01*
X136548000Y-110305779D01*
X136385057Y-110373106D01*
X135924722Y-110832637D01*
X135675284Y-111433352D01*
X135674716Y-112083795D01*
X135923106Y-112684943D01*
X136382637Y-113145278D01*
X136983352Y-113394716D01*
X137633795Y-113395284D01*
X138234943Y-113146894D01*
X138695278Y-112687363D01*
X138944716Y-112086648D01*
X138945284Y-111436205D01*
X138696894Y-110835057D01*
X138237363Y-110374722D01*
X138072000Y-110306057D01*
X138072000Y-108735000D01*
X138013996Y-108443395D01*
X137848815Y-108196185D01*
X137698815Y-108046185D01*
X137554864Y-107950000D01*
X137451605Y-107881004D01*
X137160000Y-107823000D01*
X133030631Y-107823000D01*
X132842000Y-107634370D01*
X132842000Y-106604406D01*
X132959377Y-106682834D01*
X133058395Y-106748996D01*
X133350000Y-106807000D01*
X135255000Y-106807000D01*
X135546605Y-106748996D01*
X135793815Y-106583815D01*
X136205631Y-106172000D01*
X159385000Y-106172000D01*
X159676605Y-106113996D01*
X159923815Y-105948815D01*
X160162506Y-105710125D01*
X160205167Y-105710162D01*
X160548943Y-105568117D01*
X160812192Y-105305327D01*
X160954838Y-104961799D01*
X160955162Y-104589833D01*
X160821770Y-104267000D01*
X165100000Y-104267000D01*
X165391605Y-104208996D01*
X165638815Y-104043815D01*
X170322505Y-99360125D01*
X170365167Y-99360162D01*
X170708943Y-99218117D01*
X170972192Y-98955327D01*
X171114838Y-98611799D01*
X171115162Y-98239833D01*
X170973117Y-97896057D01*
X170710327Y-97632808D01*
X170366799Y-97490162D01*
X169994833Y-97489838D01*
X169651057Y-97631883D01*
X169387808Y-97894673D01*
X169245162Y-98238201D01*
X169245124Y-98282246D01*
X164784370Y-102743000D01*
X156135466Y-102743000D01*
X156105327Y-102712808D01*
X155761799Y-102570162D01*
X155389833Y-102569838D01*
X155046057Y-102711883D01*
X154782808Y-102974673D01*
X154640162Y-103318201D01*
X154639838Y-103690167D01*
X154773230Y-104013000D01*
X151296463Y-104013000D01*
X151429838Y-103691799D01*
X151430162Y-103319833D01*
X151288117Y-102976057D01*
X151025327Y-102712808D01*
X150681799Y-102570162D01*
X150309833Y-102569838D01*
X149966057Y-102711883D01*
X149702808Y-102974673D01*
X149560162Y-103318201D01*
X149560124Y-103362246D01*
X149544370Y-103378000D01*
X134799466Y-103378000D01*
X134769327Y-103347808D01*
X134425799Y-103205162D01*
X134112000Y-103204889D01*
X134112000Y-102804630D01*
X134381505Y-102535125D01*
X134424167Y-102535162D01*
X134767943Y-102393117D01*
X135031192Y-102130327D01*
X135173838Y-101786799D01*
X135174162Y-101414833D01*
X135032117Y-101071057D01*
X134769327Y-100807808D01*
X134425799Y-100665162D01*
X134053833Y-100664838D01*
X133710057Y-100806883D01*
X133477000Y-101039534D01*
X133477000Y-100899630D01*
X134381506Y-99995125D01*
X134424167Y-99995162D01*
X134767943Y-99853117D01*
X135031192Y-99590327D01*
X135173838Y-99246799D01*
X135174162Y-98874833D01*
X135032117Y-98531057D01*
X134769327Y-98267808D01*
X134425799Y-98125162D01*
X134053833Y-98124838D01*
X133710057Y-98266883D01*
X133446808Y-98529673D01*
X133304162Y-98873201D01*
X133304124Y-98917246D01*
X132842000Y-99379370D01*
X132842000Y-98740630D01*
X137698815Y-93883815D01*
X137719404Y-93853001D01*
X137863996Y-93636605D01*
X137896738Y-93472000D01*
X144780000Y-93472000D01*
X145071605Y-93413996D01*
X145318815Y-93248815D01*
X147635631Y-90932000D01*
X157164370Y-90932000D01*
X157179875Y-90947506D01*
X157179838Y-90990167D01*
X157321883Y-91333943D01*
X157584673Y-91597192D01*
X157928201Y-91739838D01*
X158300167Y-91740162D01*
X158643943Y-91598117D01*
X158907192Y-91335327D01*
X159049838Y-90991799D01*
X159050162Y-90619833D01*
X158916770Y-90297000D01*
X167959370Y-90297000D01*
X171958000Y-94295631D01*
X171958000Y-94615000D01*
X172016004Y-94906605D01*
X172121729Y-95064833D01*
X172181185Y-95153815D01*
X172816185Y-95788816D01*
X172964377Y-95887834D01*
X173063395Y-95953996D01*
X173355000Y-96012000D01*
X173429534Y-96012000D01*
X173459673Y-96042192D01*
X173803201Y-96184838D01*
X174175167Y-96185162D01*
X174518943Y-96043117D01*
X174782192Y-95780327D01*
X174924838Y-95436799D01*
X174925162Y-95064833D01*
X174783117Y-94721057D01*
X174520327Y-94457808D01*
X174176799Y-94315162D01*
X173804833Y-94314838D01*
X173587336Y-94404706D01*
X173482000Y-94299370D01*
X173482000Y-93980000D01*
X173423996Y-93688395D01*
X173389390Y-93636604D01*
X173258815Y-93441184D01*
X169035130Y-89217500D01*
X171765630Y-86487000D01*
X174625000Y-86487000D01*
X174916605Y-86428996D01*
X175163815Y-86263815D01*
X175798816Y-85628815D01*
X175916183Y-85453162D01*
X175963996Y-85381605D01*
X175978239Y-85310002D01*
X176100086Y-85259656D01*
X176518188Y-84842283D01*
X176744742Y-84296681D01*
X176745257Y-83705911D01*
X176519656Y-83159914D01*
X176102283Y-82741812D01*
X175556681Y-82515258D01*
X174965911Y-82514743D01*
X174419914Y-82740344D01*
X174001812Y-83157717D01*
X173990252Y-83185557D01*
X173979656Y-83159914D01*
X173562283Y-82741812D01*
X173016681Y-82515258D01*
X172425911Y-82514743D01*
X171879914Y-82740344D01*
X171461812Y-83157717D01*
X171450252Y-83185557D01*
X171439656Y-83159914D01*
X171022283Y-82741812D01*
X170476681Y-82515258D01*
X169885911Y-82514743D01*
X169339914Y-82740344D01*
X168921812Y-83157717D01*
X168902049Y-83205312D01*
X168683958Y-83135647D01*
X167819605Y-84000000D01*
X168683958Y-84864353D01*
X168901640Y-84794819D01*
X168920344Y-84840086D01*
X169337717Y-85258188D01*
X169418000Y-85291524D01*
X169418000Y-85409369D01*
X167324370Y-87503000D01*
X145415000Y-87503000D01*
X145123395Y-87561004D01*
X145024377Y-87627166D01*
X144876185Y-87726184D01*
X143701502Y-88900868D01*
X143536321Y-89148078D01*
X143478317Y-89439683D01*
X143478317Y-91140544D01*
X143448125Y-91170683D01*
X143305479Y-91514211D01*
X143305155Y-91886177D01*
X143330700Y-91948000D01*
X137922000Y-91948000D01*
X137922000Y-88440630D01*
X139207506Y-87155125D01*
X139250167Y-87155162D01*
X139593943Y-87013117D01*
X139857192Y-86750327D01*
X139999838Y-86406799D01*
X140000162Y-86034833D01*
X139924617Y-85852000D01*
X142949534Y-85852000D01*
X142979673Y-85882192D01*
X143323201Y-86024838D01*
X143695167Y-86025162D01*
X144038943Y-85883117D01*
X144302192Y-85620327D01*
X144444838Y-85276799D01*
X144445162Y-84904833D01*
X144303117Y-84561057D01*
X144040327Y-84297808D01*
X143696799Y-84155162D01*
X143324833Y-84154838D01*
X142981057Y-84296883D01*
X142949886Y-84328000D01*
X138430000Y-84328000D01*
X138138395Y-84386004D01*
X138035136Y-84455000D01*
X137891185Y-84551185D01*
X135986185Y-86456185D01*
X135821004Y-86703395D01*
X135763000Y-86995000D01*
X135763000Y-92394370D01*
X130906185Y-97251185D01*
X130741004Y-97498395D01*
X130683000Y-97790000D01*
X127912000Y-97790000D01*
X127912000Y-91714285D01*
X131964760Y-91714285D01*
X132175169Y-92223515D01*
X132564436Y-92613461D01*
X133073298Y-92824759D01*
X133624285Y-92825240D01*
X134133515Y-92614831D01*
X134523461Y-92225564D01*
X134734759Y-91716702D01*
X134735240Y-91165715D01*
X134524831Y-90656485D01*
X134135564Y-90266539D01*
X133626702Y-90055241D01*
X133075715Y-90054760D01*
X132566485Y-90265169D01*
X132176539Y-90654436D01*
X131965241Y-91163298D01*
X131964760Y-91714285D01*
X127912000Y-91714285D01*
X127912000Y-88430630D01*
X129508345Y-86834285D01*
X131964760Y-86834285D01*
X132175169Y-87343515D01*
X132564436Y-87733461D01*
X133073298Y-87944759D01*
X133624285Y-87945240D01*
X134133515Y-87734831D01*
X134523461Y-87345564D01*
X134734759Y-86836702D01*
X134735240Y-86285715D01*
X134524831Y-85776485D01*
X134135564Y-85386539D01*
X133626702Y-85175241D01*
X133075715Y-85174760D01*
X132566485Y-85385169D01*
X132176539Y-85774436D01*
X131965241Y-86283298D01*
X131964760Y-86834285D01*
X129508345Y-86834285D01*
X134300631Y-82042000D01*
X138430000Y-82042000D01*
X138721605Y-81983996D01*
X138968815Y-81818815D01*
X139207506Y-81580125D01*
X139250167Y-81580162D01*
X139418597Y-81510568D01*
X139541883Y-81808943D01*
X139804673Y-82072192D01*
X140148201Y-82214838D01*
X140520167Y-82215162D01*
X140863943Y-82073117D01*
X141127192Y-81810327D01*
X141269838Y-81466799D01*
X141270162Y-81094833D01*
X141128117Y-80751057D01*
X141097000Y-80719886D01*
X141097000Y-80010000D01*
X141038996Y-79718395D01*
X140964014Y-79606177D01*
X140873816Y-79471185D01*
X140269630Y-78867000D01*
X150179370Y-78867000D01*
X154729771Y-83417401D01*
X154640162Y-83633201D01*
X154639838Y-84005167D01*
X154781883Y-84348943D01*
X155044673Y-84612192D01*
X155388201Y-84754838D01*
X155760167Y-84755162D01*
X155928597Y-84685568D01*
X156051883Y-84983943D01*
X156314673Y-85247192D01*
X156658201Y-85389838D01*
X157030167Y-85390162D01*
X157285430Y-85284690D01*
X157180162Y-85538201D01*
X157179838Y-85910167D01*
X157321883Y-86253943D01*
X157584673Y-86517192D01*
X157928201Y-86659838D01*
X158300167Y-86660162D01*
X158643943Y-86518117D01*
X158907192Y-86255327D01*
X159049838Y-85911799D01*
X159050162Y-85539833D01*
X158908117Y-85196057D01*
X158877000Y-85164886D01*
X158877000Y-83185000D01*
X158870039Y-83150000D01*
X163602560Y-83150000D01*
X163602560Y-84850000D01*
X163646838Y-85085317D01*
X163785910Y-85301441D01*
X163998110Y-85446431D01*
X164250000Y-85497440D01*
X165950000Y-85497440D01*
X166185317Y-85453162D01*
X166401441Y-85314090D01*
X166546431Y-85101890D01*
X166558162Y-85043958D01*
X166775647Y-85043958D01*
X166855920Y-85295259D01*
X167411279Y-85496718D01*
X168001458Y-85470315D01*
X168424080Y-85295259D01*
X168504353Y-85043958D01*
X167640000Y-84179605D01*
X166775647Y-85043958D01*
X166558162Y-85043958D01*
X166594625Y-84863900D01*
X166596042Y-84864353D01*
X167460395Y-84000000D01*
X166596042Y-83135647D01*
X166594813Y-83136040D01*
X166560945Y-82956042D01*
X166775647Y-82956042D01*
X167640000Y-83820395D01*
X168504353Y-82956042D01*
X168424080Y-82704741D01*
X167868721Y-82503282D01*
X167278542Y-82529685D01*
X166855920Y-82704741D01*
X166775647Y-82956042D01*
X166560945Y-82956042D01*
X166553162Y-82914683D01*
X166414090Y-82698559D01*
X166201890Y-82553569D01*
X165950000Y-82502560D01*
X164250000Y-82502560D01*
X164014683Y-82546838D01*
X163798559Y-82685910D01*
X163653569Y-82898110D01*
X163602560Y-83150000D01*
X158870039Y-83150000D01*
X158818996Y-82893395D01*
X158653815Y-82646185D01*
X152303815Y-76296185D01*
X152278504Y-76279273D01*
X152056605Y-76131004D01*
X151765000Y-76073000D01*
X128585630Y-76073000D01*
X128142000Y-75629370D01*
X128142000Y-75527415D01*
X128323988Y-75405815D01*
X128613379Y-74972709D01*
X128650000Y-74788603D01*
X128686621Y-74972709D01*
X128976012Y-75405815D01*
X129409118Y-75695206D01*
X129920000Y-75796827D01*
X130430882Y-75695206D01*
X130863988Y-75405815D01*
X131153379Y-74972709D01*
X131190000Y-74788603D01*
X131226621Y-74972709D01*
X131516012Y-75405815D01*
X131949118Y-75695206D01*
X132460000Y-75796827D01*
X132970882Y-75695206D01*
X133403988Y-75405815D01*
X133693379Y-74972709D01*
X133730000Y-74788603D01*
X133766621Y-74972709D01*
X134056012Y-75405815D01*
X134489118Y-75695206D01*
X135000000Y-75796827D01*
X135510882Y-75695206D01*
X135943988Y-75405815D01*
X136233379Y-74972709D01*
X136270000Y-74788603D01*
X136306621Y-74972709D01*
X136596012Y-75405815D01*
X137029118Y-75695206D01*
X137540000Y-75796827D01*
X138050882Y-75695206D01*
X138483988Y-75405815D01*
X138773379Y-74972709D01*
X138810000Y-74788603D01*
X138846621Y-74972709D01*
X139136012Y-75405815D01*
X139569118Y-75695206D01*
X140080000Y-75796827D01*
X140590882Y-75695206D01*
X141023988Y-75405815D01*
X141313379Y-74972709D01*
X141350000Y-74788603D01*
X141386621Y-74972709D01*
X141676012Y-75405815D01*
X142109118Y-75695206D01*
X142620000Y-75796827D01*
X143130882Y-75695206D01*
X143563988Y-75405815D01*
X143853379Y-74972709D01*
X143890000Y-74788603D01*
X143926621Y-74972709D01*
X144216012Y-75405815D01*
X144649118Y-75695206D01*
X145160000Y-75796827D01*
X145670882Y-75695206D01*
X146103988Y-75405815D01*
X146393379Y-74972709D01*
X146430000Y-74788603D01*
X146466621Y-74972709D01*
X146756012Y-75405815D01*
X147189118Y-75695206D01*
X147700000Y-75796827D01*
X148210882Y-75695206D01*
X148643988Y-75405815D01*
X148933379Y-74972709D01*
X148970000Y-74788603D01*
X149006621Y-74972709D01*
X149296012Y-75405815D01*
X149729118Y-75695206D01*
X150240000Y-75796827D01*
X150750882Y-75695206D01*
X151183988Y-75405815D01*
X151473379Y-74972709D01*
X151512957Y-74773738D01*
X151595222Y-75048215D01*
X151925815Y-75453790D01*
X152386450Y-75701980D01*
X152446671Y-75712716D01*
X152653000Y-75589374D01*
X152653000Y-73747000D01*
X152907000Y-73747000D01*
X152907000Y-75589374D01*
X153113329Y-75712716D01*
X153173550Y-75701980D01*
X153634185Y-75453790D01*
X153964778Y-75048215D01*
X154115000Y-74547000D01*
X154115000Y-73747000D01*
X152907000Y-73747000D01*
X152653000Y-73747000D01*
X152633000Y-73747000D01*
X152633000Y-73493000D01*
X152653000Y-73493000D01*
X152653000Y-73473000D01*
X152907000Y-73473000D01*
X152907000Y-73493000D01*
X154115000Y-73493000D01*
X154115000Y-72693000D01*
X153964778Y-72191785D01*
X153669879Y-71830000D01*
X181535694Y-71830000D01*
X181523826Y-71841847D01*
X181045546Y-72993674D01*
X181044457Y-74240854D01*
X181520727Y-75393515D01*
X182401847Y-76276174D01*
X183553674Y-76754454D01*
X184800854Y-76755543D01*
X185953515Y-76279273D01*
X185970000Y-76262817D01*
X185970000Y-101975694D01*
X185958153Y-101963826D01*
X184806326Y-101485546D01*
X183559146Y-101484457D01*
X182406485Y-101960727D01*
X181523826Y-102841847D01*
X181045546Y-103993674D01*
X181044457Y-105240854D01*
X181520727Y-106393515D01*
X182401847Y-107276174D01*
X183553674Y-107754454D01*
X184800854Y-107755543D01*
X185953515Y-107279273D01*
X185970000Y-107262817D01*
X185970000Y-130410000D01*
X107390000Y-130410000D01*
X107390000Y-127572532D01*
X109517073Y-127572532D01*
X109615736Y-127839387D01*
X110225461Y-128065908D01*
X110875460Y-128041856D01*
X111364264Y-127839387D01*
X111462927Y-127572532D01*
X116017073Y-127572532D01*
X116115736Y-127839387D01*
X116725461Y-128065908D01*
X117375460Y-128041856D01*
X117864264Y-127839387D01*
X117962927Y-127572532D01*
X119677073Y-127572532D01*
X119775736Y-127839387D01*
X120385461Y-128065908D01*
X121035460Y-128041856D01*
X121524264Y-127839387D01*
X121622927Y-127572532D01*
X126177073Y-127572532D01*
X126275736Y-127839387D01*
X126885461Y-128065908D01*
X127535460Y-128041856D01*
X128024264Y-127839387D01*
X128122927Y-127572532D01*
X129837073Y-127572532D01*
X129935736Y-127839387D01*
X130545461Y-128065908D01*
X131195460Y-128041856D01*
X131684264Y-127839387D01*
X131782927Y-127572532D01*
X136337073Y-127572532D01*
X136435736Y-127839387D01*
X137045461Y-128065908D01*
X137695460Y-128041856D01*
X138184264Y-127839387D01*
X138282927Y-127572532D01*
X137310000Y-126599605D01*
X136337073Y-127572532D01*
X131782927Y-127572532D01*
X130810000Y-126599605D01*
X129837073Y-127572532D01*
X128122927Y-127572532D01*
X127150000Y-126599605D01*
X126177073Y-127572532D01*
X121622927Y-127572532D01*
X120650000Y-126599605D01*
X119677073Y-127572532D01*
X117962927Y-127572532D01*
X116990000Y-126599605D01*
X116017073Y-127572532D01*
X111462927Y-127572532D01*
X110490000Y-126599605D01*
X109517073Y-127572532D01*
X107390000Y-127572532D01*
X107390000Y-126155461D01*
X108844092Y-126155461D01*
X108868144Y-126805460D01*
X109070613Y-127294264D01*
X109337468Y-127392927D01*
X110310395Y-126420000D01*
X110669605Y-126420000D01*
X111642532Y-127392927D01*
X111909387Y-127294264D01*
X112135908Y-126684539D01*
X112116331Y-126155461D01*
X115344092Y-126155461D01*
X115368144Y-126805460D01*
X115570613Y-127294264D01*
X115837468Y-127392927D01*
X116810395Y-126420000D01*
X117169605Y-126420000D01*
X118142532Y-127392927D01*
X118409387Y-127294264D01*
X118635908Y-126684539D01*
X118616331Y-126155461D01*
X119004092Y-126155461D01*
X119028144Y-126805460D01*
X119230613Y-127294264D01*
X119497468Y-127392927D01*
X120470395Y-126420000D01*
X120829605Y-126420000D01*
X121802532Y-127392927D01*
X122069387Y-127294264D01*
X122295908Y-126684539D01*
X122276331Y-126155461D01*
X125504092Y-126155461D01*
X125528144Y-126805460D01*
X125730613Y-127294264D01*
X125997468Y-127392927D01*
X126970395Y-126420000D01*
X127329605Y-126420000D01*
X128302532Y-127392927D01*
X128569387Y-127294264D01*
X128795908Y-126684539D01*
X128776331Y-126155461D01*
X129164092Y-126155461D01*
X129188144Y-126805460D01*
X129390613Y-127294264D01*
X129657468Y-127392927D01*
X130630395Y-126420000D01*
X130989605Y-126420000D01*
X131962532Y-127392927D01*
X132229387Y-127294264D01*
X132455908Y-126684539D01*
X132436331Y-126155461D01*
X135664092Y-126155461D01*
X135688144Y-126805460D01*
X135890613Y-127294264D01*
X136157468Y-127392927D01*
X137130395Y-126420000D01*
X137489605Y-126420000D01*
X138462532Y-127392927D01*
X138729387Y-127294264D01*
X138955908Y-126684539D01*
X138931856Y-126034540D01*
X138915182Y-125994285D01*
X141294760Y-125994285D01*
X141505169Y-126503515D01*
X141894436Y-126893461D01*
X142403298Y-127104759D01*
X142954285Y-127105240D01*
X143463515Y-126894831D01*
X143853461Y-126505564D01*
X144064759Y-125996702D01*
X144065240Y-125445715D01*
X143854831Y-124936485D01*
X143465564Y-124546539D01*
X142956702Y-124335241D01*
X142405715Y-124334760D01*
X141896485Y-124545169D01*
X141506539Y-124934436D01*
X141295241Y-125443298D01*
X141294760Y-125994285D01*
X138915182Y-125994285D01*
X138729387Y-125545736D01*
X138462532Y-125447073D01*
X137489605Y-126420000D01*
X137130395Y-126420000D01*
X136157468Y-125447073D01*
X135890613Y-125545736D01*
X135664092Y-126155461D01*
X132436331Y-126155461D01*
X132431856Y-126034540D01*
X132229387Y-125545736D01*
X131962532Y-125447073D01*
X130989605Y-126420000D01*
X130630395Y-126420000D01*
X129657468Y-125447073D01*
X129390613Y-125545736D01*
X129164092Y-126155461D01*
X128776331Y-126155461D01*
X128771856Y-126034540D01*
X128569387Y-125545736D01*
X128302532Y-125447073D01*
X127329605Y-126420000D01*
X126970395Y-126420000D01*
X125997468Y-125447073D01*
X125730613Y-125545736D01*
X125504092Y-126155461D01*
X122276331Y-126155461D01*
X122271856Y-126034540D01*
X122069387Y-125545736D01*
X121802532Y-125447073D01*
X120829605Y-126420000D01*
X120470395Y-126420000D01*
X119497468Y-125447073D01*
X119230613Y-125545736D01*
X119004092Y-126155461D01*
X118616331Y-126155461D01*
X118611856Y-126034540D01*
X118409387Y-125545736D01*
X118142532Y-125447073D01*
X117169605Y-126420000D01*
X116810395Y-126420000D01*
X115837468Y-125447073D01*
X115570613Y-125545736D01*
X115344092Y-126155461D01*
X112116331Y-126155461D01*
X112111856Y-126034540D01*
X111909387Y-125545736D01*
X111642532Y-125447073D01*
X110669605Y-126420000D01*
X110310395Y-126420000D01*
X109337468Y-125447073D01*
X109070613Y-125545736D01*
X108844092Y-126155461D01*
X107390000Y-126155461D01*
X107390000Y-125267468D01*
X109517073Y-125267468D01*
X110490000Y-126240395D01*
X111462927Y-125267468D01*
X116017073Y-125267468D01*
X116990000Y-126240395D01*
X117962927Y-125267468D01*
X119677073Y-125267468D01*
X120650000Y-126240395D01*
X121622927Y-125267468D01*
X126177073Y-125267468D01*
X127150000Y-126240395D01*
X128122927Y-125267468D01*
X129837073Y-125267468D01*
X130810000Y-126240395D01*
X131782927Y-125267468D01*
X136337073Y-125267468D01*
X137310000Y-126240395D01*
X138282927Y-125267468D01*
X138184264Y-125000613D01*
X137574539Y-124774092D01*
X136924540Y-124798144D01*
X136435736Y-125000613D01*
X136337073Y-125267468D01*
X131782927Y-125267468D01*
X131684264Y-125000613D01*
X131074539Y-124774092D01*
X130424540Y-124798144D01*
X129935736Y-125000613D01*
X129837073Y-125267468D01*
X128122927Y-125267468D01*
X128024264Y-125000613D01*
X127414539Y-124774092D01*
X126764540Y-124798144D01*
X126275736Y-125000613D01*
X126177073Y-125267468D01*
X121622927Y-125267468D01*
X121524264Y-125000613D01*
X120914539Y-124774092D01*
X120264540Y-124798144D01*
X119775736Y-125000613D01*
X119677073Y-125267468D01*
X117962927Y-125267468D01*
X117864264Y-125000613D01*
X117254539Y-124774092D01*
X116604540Y-124798144D01*
X116115736Y-125000613D01*
X116017073Y-125267468D01*
X111462927Y-125267468D01*
X111364264Y-125000613D01*
X110754539Y-124774092D01*
X110104540Y-124798144D01*
X109615736Y-125000613D01*
X109517073Y-125267468D01*
X107390000Y-125267468D01*
X107390000Y-122243795D01*
X108854716Y-122243795D01*
X109103106Y-122844943D01*
X109562637Y-123305278D01*
X110163352Y-123554716D01*
X110813795Y-123555284D01*
X111414943Y-123306894D01*
X111875278Y-122847363D01*
X112124716Y-122246648D01*
X112125284Y-121596205D01*
X111876894Y-120995057D01*
X111417363Y-120534722D01*
X110816648Y-120285284D01*
X110166205Y-120284716D01*
X109565057Y-120533106D01*
X109104722Y-120992637D01*
X108855284Y-121593352D01*
X108854716Y-122243795D01*
X107390000Y-122243795D01*
X107390000Y-117412532D01*
X109517073Y-117412532D01*
X109615736Y-117679387D01*
X110225461Y-117905908D01*
X110875460Y-117881856D01*
X111364264Y-117679387D01*
X111462927Y-117412532D01*
X110490000Y-116439605D01*
X109517073Y-117412532D01*
X107390000Y-117412532D01*
X107390000Y-115995461D01*
X108844092Y-115995461D01*
X108868144Y-116645460D01*
X109070613Y-117134264D01*
X109337468Y-117232927D01*
X110310395Y-116260000D01*
X110669605Y-116260000D01*
X111642532Y-117232927D01*
X111909387Y-117134264D01*
X112135908Y-116524539D01*
X112111856Y-115874540D01*
X111909387Y-115385736D01*
X111642532Y-115287073D01*
X110669605Y-116260000D01*
X110310395Y-116260000D01*
X109337468Y-115287073D01*
X109070613Y-115385736D01*
X108844092Y-115995461D01*
X107390000Y-115995461D01*
X107390000Y-115107468D01*
X109517073Y-115107468D01*
X110490000Y-116080395D01*
X111462927Y-115107468D01*
X111364264Y-114840613D01*
X110754539Y-114614092D01*
X110104540Y-114638144D01*
X109615736Y-114840613D01*
X109517073Y-115107468D01*
X107390000Y-115107468D01*
X107390000Y-112083795D01*
X108854716Y-112083795D01*
X109103106Y-112684943D01*
X109562637Y-113145278D01*
X110163352Y-113394716D01*
X110813795Y-113395284D01*
X111414943Y-113146894D01*
X111875278Y-112687363D01*
X112124716Y-112086648D01*
X112125284Y-111436205D01*
X111876894Y-110835057D01*
X111417363Y-110374722D01*
X110816648Y-110125284D01*
X110166205Y-110124716D01*
X109565057Y-110373106D01*
X109104722Y-110832637D01*
X108855284Y-111433352D01*
X108854716Y-112083795D01*
X107390000Y-112083795D01*
X107390000Y-107264306D01*
X107401847Y-107276174D01*
X108553674Y-107754454D01*
X109800854Y-107755543D01*
X110953515Y-107279273D01*
X111836174Y-106398153D01*
X112314454Y-105246326D01*
X112315543Y-103999146D01*
X111839273Y-102846485D01*
X110958153Y-101963826D01*
X109806326Y-101485546D01*
X108559146Y-101484457D01*
X107406485Y-101960727D01*
X107390000Y-101977183D01*
X107390000Y-89168344D01*
X110404765Y-89168344D01*
X110610617Y-89666543D01*
X110991452Y-90048043D01*
X111489291Y-90254764D01*
X112028344Y-90255235D01*
X112526543Y-90049383D01*
X112726500Y-89849774D01*
X116069831Y-89849774D01*
X116134131Y-90087611D01*
X116642342Y-90267333D01*
X117180644Y-90238892D01*
X117545869Y-90087611D01*
X117610169Y-89849774D01*
X116840000Y-89079605D01*
X116069831Y-89849774D01*
X112726500Y-89849774D01*
X112908043Y-89668548D01*
X113114764Y-89170709D01*
X113115173Y-88702342D01*
X115472667Y-88702342D01*
X115501108Y-89240644D01*
X115652389Y-89605869D01*
X115890226Y-89670169D01*
X116660395Y-88900000D01*
X117019605Y-88900000D01*
X117789774Y-89670169D01*
X118027611Y-89605869D01*
X118207333Y-89097658D01*
X118178892Y-88559356D01*
X118027611Y-88194131D01*
X117789774Y-88129831D01*
X117019605Y-88900000D01*
X116660395Y-88900000D01*
X115890226Y-88129831D01*
X115652389Y-88194131D01*
X115472667Y-88702342D01*
X113115173Y-88702342D01*
X113115235Y-88631656D01*
X112909383Y-88133457D01*
X112726472Y-87950226D01*
X116069831Y-87950226D01*
X116840000Y-88720395D01*
X117610169Y-87950226D01*
X117545869Y-87712389D01*
X117037658Y-87532667D01*
X116499356Y-87561108D01*
X116134131Y-87712389D01*
X116069831Y-87950226D01*
X112726472Y-87950226D01*
X112528548Y-87751957D01*
X112030709Y-87545236D01*
X111491656Y-87544765D01*
X110993457Y-87750617D01*
X110611957Y-88131452D01*
X110405236Y-88629291D01*
X110404765Y-89168344D01*
X107390000Y-89168344D01*
X107390000Y-86628344D01*
X112944765Y-86628344D01*
X113150617Y-87126543D01*
X113531452Y-87508043D01*
X114029291Y-87714764D01*
X114568344Y-87715235D01*
X115066543Y-87509383D01*
X115448043Y-87128548D01*
X115654764Y-86630709D01*
X115655235Y-86091656D01*
X115449383Y-85593457D01*
X115068548Y-85211957D01*
X114570709Y-85005236D01*
X114031656Y-85004765D01*
X113533457Y-85210617D01*
X113151957Y-85591452D01*
X112945236Y-86089291D01*
X112944765Y-86628344D01*
X107390000Y-86628344D01*
X107390000Y-76264306D01*
X107401847Y-76276174D01*
X108553674Y-76754454D01*
X109800854Y-76755543D01*
X110953515Y-76279273D01*
X111836174Y-75398153D01*
X112314454Y-74246326D01*
X112314751Y-73905750D01*
X113345000Y-73905750D01*
X113345000Y-75246309D01*
X113441673Y-75479698D01*
X113620301Y-75658327D01*
X113853690Y-75755000D01*
X114394250Y-75755000D01*
X114553000Y-75596250D01*
X114553000Y-73747000D01*
X113503750Y-73747000D01*
X113345000Y-73905750D01*
X112314751Y-73905750D01*
X112315543Y-72999146D01*
X111839273Y-71846485D01*
X111822817Y-71830000D01*
X113412803Y-71830000D01*
X113345000Y-71993691D01*
M02*
