%
M48
M72
T01C0.0240
T02C0.0315
T03C0.0320
T04C0.0400
T05C0.0591
T06C0.1181
%
T01
X17650Y12750
X17150Y13150
X17150Y14650
X17650Y14900
X17400Y15900
X17400Y16650
X17900Y17650
X19150Y17150
X21400Y16900
X21400Y17400
X21400Y17900
X18150Y19150
X17650Y19150
X15650Y18400
X15150Y18650
X14650Y18900
X14020Y16780
X10650Y15650
X19150Y14650
X19850Y13150
X21400Y13400
X25400Y13400
X25650Y15400
X19150Y10150
X19150Y8650
X18150Y8650
X20150Y8650
X21050Y9750
X21650Y8650
X19150Y4850
X24400Y1400
T02
X3536Y16650
X2552Y15650
X2552Y17650
T03
X12150Y16600
X12150Y14700
X27150Y5400
X27150Y4400
X29150Y2900
X29150Y1900
X31150Y4400
X31150Y5400
T04
X1370Y1760
X1370Y3540
X3930Y3540
X5370Y3540
X5370Y1760
X3930Y1760
X7930Y1760
X9370Y1760
X9370Y3540
X7930Y3540
X7930Y5260
X9370Y5260
X9370Y7040
X7930Y7040
X5370Y7040
X3930Y7040
X3930Y5260
X5370Y5260
X1370Y5260
X1370Y7040
X11930Y7040
X11930Y5260
X11930Y3540
X11930Y1760
X23750Y18200
X24750Y18200
X25750Y18200
X26750Y18200
X27750Y18200
X18900Y21950
X17900Y21950
X16900Y21950
X15900Y21950
X14900Y21950
X13900Y21950
X12900Y21950
X11900Y21950
X10900Y21950
X9900Y21950
X8900Y21950
X7900Y21950
X6900Y21950
X5900Y21950
X4900Y21950
X3900Y21950
T05
X14004Y2154
X23532Y2154
T06
X31300Y9750
X31300Y21950
X1700Y21950
X1700Y9750
M30
