G75*
%MOIN*%
%OFA0B0*%
%FSLAX25Y25*%
%IPPOS*%
%LPD*%
%AMOC8*
5,1,8,0,0,1.08239X$1,22.5*
%
%ADD10C,0.00000*%
%ADD11C,0.01100*%
%ADD12R,0.06299X0.07087*%
%ADD13R,0.05906X0.07677*%
%ADD14R,0.07087X0.06299*%
%ADD15OC8,0.04800*%
%ADD16R,0.05906X0.01969*%
%ADD17R,0.01969X0.05906*%
%ADD18R,0.03937X0.07874*%
%ADD19R,0.04724X0.07874*%
%ADD20C,0.06000*%
%ADD21C,0.04800*%
%ADD22R,0.05000X0.10000*%
%ADD23C,0.05315*%
%ADD24R,0.05315X0.05315*%
%ADD25C,0.01000*%
%ADD26C,0.02400*%
%ADD27C,0.03600*%
%ADD28C,0.01600*%
D10*
X0001500Y0001500D02*
X0001500Y0233783D01*
X0328272Y0233783D01*
X0328272Y0001500D01*
X0001500Y0001500D01*
X0011094Y0097500D02*
X0011096Y0097653D01*
X0011102Y0097807D01*
X0011112Y0097960D01*
X0011126Y0098112D01*
X0011144Y0098265D01*
X0011166Y0098416D01*
X0011191Y0098567D01*
X0011221Y0098718D01*
X0011255Y0098868D01*
X0011292Y0099016D01*
X0011333Y0099164D01*
X0011378Y0099310D01*
X0011427Y0099456D01*
X0011480Y0099600D01*
X0011536Y0099742D01*
X0011596Y0099883D01*
X0011660Y0100023D01*
X0011727Y0100161D01*
X0011798Y0100297D01*
X0011873Y0100431D01*
X0011950Y0100563D01*
X0012032Y0100693D01*
X0012116Y0100821D01*
X0012204Y0100947D01*
X0012295Y0101070D01*
X0012389Y0101191D01*
X0012487Y0101309D01*
X0012587Y0101425D01*
X0012691Y0101538D01*
X0012797Y0101649D01*
X0012906Y0101757D01*
X0013018Y0101862D01*
X0013132Y0101963D01*
X0013250Y0102062D01*
X0013369Y0102158D01*
X0013491Y0102251D01*
X0013616Y0102340D01*
X0013743Y0102427D01*
X0013872Y0102509D01*
X0014003Y0102589D01*
X0014136Y0102665D01*
X0014271Y0102738D01*
X0014408Y0102807D01*
X0014547Y0102872D01*
X0014687Y0102934D01*
X0014829Y0102992D01*
X0014972Y0103047D01*
X0015117Y0103098D01*
X0015263Y0103145D01*
X0015410Y0103188D01*
X0015558Y0103227D01*
X0015707Y0103263D01*
X0015857Y0103294D01*
X0016008Y0103322D01*
X0016159Y0103346D01*
X0016312Y0103366D01*
X0016464Y0103382D01*
X0016617Y0103394D01*
X0016770Y0103402D01*
X0016923Y0103406D01*
X0017077Y0103406D01*
X0017230Y0103402D01*
X0017383Y0103394D01*
X0017536Y0103382D01*
X0017688Y0103366D01*
X0017841Y0103346D01*
X0017992Y0103322D01*
X0018143Y0103294D01*
X0018293Y0103263D01*
X0018442Y0103227D01*
X0018590Y0103188D01*
X0018737Y0103145D01*
X0018883Y0103098D01*
X0019028Y0103047D01*
X0019171Y0102992D01*
X0019313Y0102934D01*
X0019453Y0102872D01*
X0019592Y0102807D01*
X0019729Y0102738D01*
X0019864Y0102665D01*
X0019997Y0102589D01*
X0020128Y0102509D01*
X0020257Y0102427D01*
X0020384Y0102340D01*
X0020509Y0102251D01*
X0020631Y0102158D01*
X0020750Y0102062D01*
X0020868Y0101963D01*
X0020982Y0101862D01*
X0021094Y0101757D01*
X0021203Y0101649D01*
X0021309Y0101538D01*
X0021413Y0101425D01*
X0021513Y0101309D01*
X0021611Y0101191D01*
X0021705Y0101070D01*
X0021796Y0100947D01*
X0021884Y0100821D01*
X0021968Y0100693D01*
X0022050Y0100563D01*
X0022127Y0100431D01*
X0022202Y0100297D01*
X0022273Y0100161D01*
X0022340Y0100023D01*
X0022404Y0099883D01*
X0022464Y0099742D01*
X0022520Y0099600D01*
X0022573Y0099456D01*
X0022622Y0099310D01*
X0022667Y0099164D01*
X0022708Y0099016D01*
X0022745Y0098868D01*
X0022779Y0098718D01*
X0022809Y0098567D01*
X0022834Y0098416D01*
X0022856Y0098265D01*
X0022874Y0098112D01*
X0022888Y0097960D01*
X0022898Y0097807D01*
X0022904Y0097653D01*
X0022906Y0097500D01*
X0022904Y0097347D01*
X0022898Y0097193D01*
X0022888Y0097040D01*
X0022874Y0096888D01*
X0022856Y0096735D01*
X0022834Y0096584D01*
X0022809Y0096433D01*
X0022779Y0096282D01*
X0022745Y0096132D01*
X0022708Y0095984D01*
X0022667Y0095836D01*
X0022622Y0095690D01*
X0022573Y0095544D01*
X0022520Y0095400D01*
X0022464Y0095258D01*
X0022404Y0095117D01*
X0022340Y0094977D01*
X0022273Y0094839D01*
X0022202Y0094703D01*
X0022127Y0094569D01*
X0022050Y0094437D01*
X0021968Y0094307D01*
X0021884Y0094179D01*
X0021796Y0094053D01*
X0021705Y0093930D01*
X0021611Y0093809D01*
X0021513Y0093691D01*
X0021413Y0093575D01*
X0021309Y0093462D01*
X0021203Y0093351D01*
X0021094Y0093243D01*
X0020982Y0093138D01*
X0020868Y0093037D01*
X0020750Y0092938D01*
X0020631Y0092842D01*
X0020509Y0092749D01*
X0020384Y0092660D01*
X0020257Y0092573D01*
X0020128Y0092491D01*
X0019997Y0092411D01*
X0019864Y0092335D01*
X0019729Y0092262D01*
X0019592Y0092193D01*
X0019453Y0092128D01*
X0019313Y0092066D01*
X0019171Y0092008D01*
X0019028Y0091953D01*
X0018883Y0091902D01*
X0018737Y0091855D01*
X0018590Y0091812D01*
X0018442Y0091773D01*
X0018293Y0091737D01*
X0018143Y0091706D01*
X0017992Y0091678D01*
X0017841Y0091654D01*
X0017688Y0091634D01*
X0017536Y0091618D01*
X0017383Y0091606D01*
X0017230Y0091598D01*
X0017077Y0091594D01*
X0016923Y0091594D01*
X0016770Y0091598D01*
X0016617Y0091606D01*
X0016464Y0091618D01*
X0016312Y0091634D01*
X0016159Y0091654D01*
X0016008Y0091678D01*
X0015857Y0091706D01*
X0015707Y0091737D01*
X0015558Y0091773D01*
X0015410Y0091812D01*
X0015263Y0091855D01*
X0015117Y0091902D01*
X0014972Y0091953D01*
X0014829Y0092008D01*
X0014687Y0092066D01*
X0014547Y0092128D01*
X0014408Y0092193D01*
X0014271Y0092262D01*
X0014136Y0092335D01*
X0014003Y0092411D01*
X0013872Y0092491D01*
X0013743Y0092573D01*
X0013616Y0092660D01*
X0013491Y0092749D01*
X0013369Y0092842D01*
X0013250Y0092938D01*
X0013132Y0093037D01*
X0013018Y0093138D01*
X0012906Y0093243D01*
X0012797Y0093351D01*
X0012691Y0093462D01*
X0012587Y0093575D01*
X0012487Y0093691D01*
X0012389Y0093809D01*
X0012295Y0093930D01*
X0012204Y0094053D01*
X0012116Y0094179D01*
X0012032Y0094307D01*
X0011950Y0094437D01*
X0011873Y0094569D01*
X0011798Y0094703D01*
X0011727Y0094839D01*
X0011660Y0094977D01*
X0011596Y0095117D01*
X0011536Y0095258D01*
X0011480Y0095400D01*
X0011427Y0095544D01*
X0011378Y0095690D01*
X0011333Y0095836D01*
X0011292Y0095984D01*
X0011255Y0096132D01*
X0011221Y0096282D01*
X0011191Y0096433D01*
X0011166Y0096584D01*
X0011144Y0096735D01*
X0011126Y0096888D01*
X0011112Y0097040D01*
X0011102Y0097193D01*
X0011096Y0097347D01*
X0011094Y0097500D01*
X0137090Y0021541D02*
X0137092Y0021649D01*
X0137098Y0021758D01*
X0137108Y0021866D01*
X0137122Y0021973D01*
X0137140Y0022080D01*
X0137161Y0022187D01*
X0137187Y0022292D01*
X0137217Y0022397D01*
X0137250Y0022500D01*
X0137287Y0022602D01*
X0137328Y0022702D01*
X0137372Y0022801D01*
X0137421Y0022899D01*
X0137472Y0022994D01*
X0137527Y0023087D01*
X0137586Y0023179D01*
X0137648Y0023268D01*
X0137713Y0023355D01*
X0137781Y0023439D01*
X0137852Y0023521D01*
X0137926Y0023600D01*
X0138003Y0023676D01*
X0138083Y0023750D01*
X0138166Y0023820D01*
X0138251Y0023888D01*
X0138338Y0023952D01*
X0138428Y0024013D01*
X0138520Y0024071D01*
X0138614Y0024125D01*
X0138710Y0024176D01*
X0138807Y0024223D01*
X0138907Y0024267D01*
X0139008Y0024307D01*
X0139110Y0024343D01*
X0139213Y0024375D01*
X0139318Y0024404D01*
X0139424Y0024428D01*
X0139530Y0024449D01*
X0139637Y0024466D01*
X0139745Y0024479D01*
X0139853Y0024488D01*
X0139962Y0024493D01*
X0140070Y0024494D01*
X0140179Y0024491D01*
X0140287Y0024484D01*
X0140395Y0024473D01*
X0140502Y0024458D01*
X0140609Y0024439D01*
X0140715Y0024416D01*
X0140820Y0024390D01*
X0140925Y0024359D01*
X0141027Y0024325D01*
X0141129Y0024287D01*
X0141229Y0024245D01*
X0141328Y0024200D01*
X0141425Y0024151D01*
X0141519Y0024098D01*
X0141612Y0024042D01*
X0141703Y0023983D01*
X0141792Y0023920D01*
X0141878Y0023855D01*
X0141962Y0023786D01*
X0142043Y0023714D01*
X0142121Y0023639D01*
X0142197Y0023561D01*
X0142270Y0023480D01*
X0142340Y0023397D01*
X0142406Y0023312D01*
X0142470Y0023224D01*
X0142530Y0023133D01*
X0142587Y0023041D01*
X0142640Y0022946D01*
X0142690Y0022850D01*
X0142736Y0022752D01*
X0142779Y0022652D01*
X0142818Y0022551D01*
X0142853Y0022448D01*
X0142885Y0022345D01*
X0142912Y0022240D01*
X0142936Y0022134D01*
X0142956Y0022027D01*
X0142972Y0021920D01*
X0142984Y0021812D01*
X0142992Y0021704D01*
X0142996Y0021595D01*
X0142996Y0021487D01*
X0142992Y0021378D01*
X0142984Y0021270D01*
X0142972Y0021162D01*
X0142956Y0021055D01*
X0142936Y0020948D01*
X0142912Y0020842D01*
X0142885Y0020737D01*
X0142853Y0020634D01*
X0142818Y0020531D01*
X0142779Y0020430D01*
X0142736Y0020330D01*
X0142690Y0020232D01*
X0142640Y0020136D01*
X0142587Y0020041D01*
X0142530Y0019949D01*
X0142470Y0019858D01*
X0142406Y0019770D01*
X0142340Y0019685D01*
X0142270Y0019602D01*
X0142197Y0019521D01*
X0142121Y0019443D01*
X0142043Y0019368D01*
X0141962Y0019296D01*
X0141878Y0019227D01*
X0141792Y0019162D01*
X0141703Y0019099D01*
X0141612Y0019040D01*
X0141520Y0018984D01*
X0141425Y0018931D01*
X0141328Y0018882D01*
X0141229Y0018837D01*
X0141129Y0018795D01*
X0141027Y0018757D01*
X0140925Y0018723D01*
X0140820Y0018692D01*
X0140715Y0018666D01*
X0140609Y0018643D01*
X0140502Y0018624D01*
X0140395Y0018609D01*
X0140287Y0018598D01*
X0140179Y0018591D01*
X0140070Y0018588D01*
X0139962Y0018589D01*
X0139853Y0018594D01*
X0139745Y0018603D01*
X0139637Y0018616D01*
X0139530Y0018633D01*
X0139424Y0018654D01*
X0139318Y0018678D01*
X0139213Y0018707D01*
X0139110Y0018739D01*
X0139008Y0018775D01*
X0138907Y0018815D01*
X0138807Y0018859D01*
X0138710Y0018906D01*
X0138614Y0018957D01*
X0138520Y0019011D01*
X0138428Y0019069D01*
X0138338Y0019130D01*
X0138251Y0019194D01*
X0138166Y0019262D01*
X0138083Y0019332D01*
X0138003Y0019406D01*
X0137926Y0019482D01*
X0137852Y0019561D01*
X0137781Y0019643D01*
X0137713Y0019727D01*
X0137648Y0019814D01*
X0137586Y0019903D01*
X0137527Y0019995D01*
X0137472Y0020088D01*
X0137421Y0020183D01*
X0137372Y0020281D01*
X0137328Y0020380D01*
X0137287Y0020480D01*
X0137250Y0020582D01*
X0137217Y0020685D01*
X0137187Y0020790D01*
X0137161Y0020895D01*
X0137140Y0021002D01*
X0137122Y0021109D01*
X0137108Y0021216D01*
X0137098Y0021324D01*
X0137092Y0021433D01*
X0137090Y0021541D01*
X0232366Y0021541D02*
X0232368Y0021649D01*
X0232374Y0021758D01*
X0232384Y0021866D01*
X0232398Y0021973D01*
X0232416Y0022080D01*
X0232437Y0022187D01*
X0232463Y0022292D01*
X0232493Y0022397D01*
X0232526Y0022500D01*
X0232563Y0022602D01*
X0232604Y0022702D01*
X0232648Y0022801D01*
X0232697Y0022899D01*
X0232748Y0022994D01*
X0232803Y0023087D01*
X0232862Y0023179D01*
X0232924Y0023268D01*
X0232989Y0023355D01*
X0233057Y0023439D01*
X0233128Y0023521D01*
X0233202Y0023600D01*
X0233279Y0023676D01*
X0233359Y0023750D01*
X0233442Y0023820D01*
X0233527Y0023888D01*
X0233614Y0023952D01*
X0233704Y0024013D01*
X0233796Y0024071D01*
X0233890Y0024125D01*
X0233986Y0024176D01*
X0234083Y0024223D01*
X0234183Y0024267D01*
X0234284Y0024307D01*
X0234386Y0024343D01*
X0234489Y0024375D01*
X0234594Y0024404D01*
X0234700Y0024428D01*
X0234806Y0024449D01*
X0234913Y0024466D01*
X0235021Y0024479D01*
X0235129Y0024488D01*
X0235238Y0024493D01*
X0235346Y0024494D01*
X0235455Y0024491D01*
X0235563Y0024484D01*
X0235671Y0024473D01*
X0235778Y0024458D01*
X0235885Y0024439D01*
X0235991Y0024416D01*
X0236096Y0024390D01*
X0236201Y0024359D01*
X0236303Y0024325D01*
X0236405Y0024287D01*
X0236505Y0024245D01*
X0236604Y0024200D01*
X0236701Y0024151D01*
X0236795Y0024098D01*
X0236888Y0024042D01*
X0236979Y0023983D01*
X0237068Y0023920D01*
X0237154Y0023855D01*
X0237238Y0023786D01*
X0237319Y0023714D01*
X0237397Y0023639D01*
X0237473Y0023561D01*
X0237546Y0023480D01*
X0237616Y0023397D01*
X0237682Y0023312D01*
X0237746Y0023224D01*
X0237806Y0023133D01*
X0237863Y0023041D01*
X0237916Y0022946D01*
X0237966Y0022850D01*
X0238012Y0022752D01*
X0238055Y0022652D01*
X0238094Y0022551D01*
X0238129Y0022448D01*
X0238161Y0022345D01*
X0238188Y0022240D01*
X0238212Y0022134D01*
X0238232Y0022027D01*
X0238248Y0021920D01*
X0238260Y0021812D01*
X0238268Y0021704D01*
X0238272Y0021595D01*
X0238272Y0021487D01*
X0238268Y0021378D01*
X0238260Y0021270D01*
X0238248Y0021162D01*
X0238232Y0021055D01*
X0238212Y0020948D01*
X0238188Y0020842D01*
X0238161Y0020737D01*
X0238129Y0020634D01*
X0238094Y0020531D01*
X0238055Y0020430D01*
X0238012Y0020330D01*
X0237966Y0020232D01*
X0237916Y0020136D01*
X0237863Y0020041D01*
X0237806Y0019949D01*
X0237746Y0019858D01*
X0237682Y0019770D01*
X0237616Y0019685D01*
X0237546Y0019602D01*
X0237473Y0019521D01*
X0237397Y0019443D01*
X0237319Y0019368D01*
X0237238Y0019296D01*
X0237154Y0019227D01*
X0237068Y0019162D01*
X0236979Y0019099D01*
X0236888Y0019040D01*
X0236796Y0018984D01*
X0236701Y0018931D01*
X0236604Y0018882D01*
X0236505Y0018837D01*
X0236405Y0018795D01*
X0236303Y0018757D01*
X0236201Y0018723D01*
X0236096Y0018692D01*
X0235991Y0018666D01*
X0235885Y0018643D01*
X0235778Y0018624D01*
X0235671Y0018609D01*
X0235563Y0018598D01*
X0235455Y0018591D01*
X0235346Y0018588D01*
X0235238Y0018589D01*
X0235129Y0018594D01*
X0235021Y0018603D01*
X0234913Y0018616D01*
X0234806Y0018633D01*
X0234700Y0018654D01*
X0234594Y0018678D01*
X0234489Y0018707D01*
X0234386Y0018739D01*
X0234284Y0018775D01*
X0234183Y0018815D01*
X0234083Y0018859D01*
X0233986Y0018906D01*
X0233890Y0018957D01*
X0233796Y0019011D01*
X0233704Y0019069D01*
X0233614Y0019130D01*
X0233527Y0019194D01*
X0233442Y0019262D01*
X0233359Y0019332D01*
X0233279Y0019406D01*
X0233202Y0019482D01*
X0233128Y0019561D01*
X0233057Y0019643D01*
X0232989Y0019727D01*
X0232924Y0019814D01*
X0232862Y0019903D01*
X0232803Y0019995D01*
X0232748Y0020088D01*
X0232697Y0020183D01*
X0232648Y0020281D01*
X0232604Y0020380D01*
X0232563Y0020480D01*
X0232526Y0020582D01*
X0232493Y0020685D01*
X0232463Y0020790D01*
X0232437Y0020895D01*
X0232416Y0021002D01*
X0232398Y0021109D01*
X0232384Y0021216D01*
X0232374Y0021324D01*
X0232368Y0021433D01*
X0232366Y0021541D01*
X0307094Y0097500D02*
X0307096Y0097653D01*
X0307102Y0097807D01*
X0307112Y0097960D01*
X0307126Y0098112D01*
X0307144Y0098265D01*
X0307166Y0098416D01*
X0307191Y0098567D01*
X0307221Y0098718D01*
X0307255Y0098868D01*
X0307292Y0099016D01*
X0307333Y0099164D01*
X0307378Y0099310D01*
X0307427Y0099456D01*
X0307480Y0099600D01*
X0307536Y0099742D01*
X0307596Y0099883D01*
X0307660Y0100023D01*
X0307727Y0100161D01*
X0307798Y0100297D01*
X0307873Y0100431D01*
X0307950Y0100563D01*
X0308032Y0100693D01*
X0308116Y0100821D01*
X0308204Y0100947D01*
X0308295Y0101070D01*
X0308389Y0101191D01*
X0308487Y0101309D01*
X0308587Y0101425D01*
X0308691Y0101538D01*
X0308797Y0101649D01*
X0308906Y0101757D01*
X0309018Y0101862D01*
X0309132Y0101963D01*
X0309250Y0102062D01*
X0309369Y0102158D01*
X0309491Y0102251D01*
X0309616Y0102340D01*
X0309743Y0102427D01*
X0309872Y0102509D01*
X0310003Y0102589D01*
X0310136Y0102665D01*
X0310271Y0102738D01*
X0310408Y0102807D01*
X0310547Y0102872D01*
X0310687Y0102934D01*
X0310829Y0102992D01*
X0310972Y0103047D01*
X0311117Y0103098D01*
X0311263Y0103145D01*
X0311410Y0103188D01*
X0311558Y0103227D01*
X0311707Y0103263D01*
X0311857Y0103294D01*
X0312008Y0103322D01*
X0312159Y0103346D01*
X0312312Y0103366D01*
X0312464Y0103382D01*
X0312617Y0103394D01*
X0312770Y0103402D01*
X0312923Y0103406D01*
X0313077Y0103406D01*
X0313230Y0103402D01*
X0313383Y0103394D01*
X0313536Y0103382D01*
X0313688Y0103366D01*
X0313841Y0103346D01*
X0313992Y0103322D01*
X0314143Y0103294D01*
X0314293Y0103263D01*
X0314442Y0103227D01*
X0314590Y0103188D01*
X0314737Y0103145D01*
X0314883Y0103098D01*
X0315028Y0103047D01*
X0315171Y0102992D01*
X0315313Y0102934D01*
X0315453Y0102872D01*
X0315592Y0102807D01*
X0315729Y0102738D01*
X0315864Y0102665D01*
X0315997Y0102589D01*
X0316128Y0102509D01*
X0316257Y0102427D01*
X0316384Y0102340D01*
X0316509Y0102251D01*
X0316631Y0102158D01*
X0316750Y0102062D01*
X0316868Y0101963D01*
X0316982Y0101862D01*
X0317094Y0101757D01*
X0317203Y0101649D01*
X0317309Y0101538D01*
X0317413Y0101425D01*
X0317513Y0101309D01*
X0317611Y0101191D01*
X0317705Y0101070D01*
X0317796Y0100947D01*
X0317884Y0100821D01*
X0317968Y0100693D01*
X0318050Y0100563D01*
X0318127Y0100431D01*
X0318202Y0100297D01*
X0318273Y0100161D01*
X0318340Y0100023D01*
X0318404Y0099883D01*
X0318464Y0099742D01*
X0318520Y0099600D01*
X0318573Y0099456D01*
X0318622Y0099310D01*
X0318667Y0099164D01*
X0318708Y0099016D01*
X0318745Y0098868D01*
X0318779Y0098718D01*
X0318809Y0098567D01*
X0318834Y0098416D01*
X0318856Y0098265D01*
X0318874Y0098112D01*
X0318888Y0097960D01*
X0318898Y0097807D01*
X0318904Y0097653D01*
X0318906Y0097500D01*
X0318904Y0097347D01*
X0318898Y0097193D01*
X0318888Y0097040D01*
X0318874Y0096888D01*
X0318856Y0096735D01*
X0318834Y0096584D01*
X0318809Y0096433D01*
X0318779Y0096282D01*
X0318745Y0096132D01*
X0318708Y0095984D01*
X0318667Y0095836D01*
X0318622Y0095690D01*
X0318573Y0095544D01*
X0318520Y0095400D01*
X0318464Y0095258D01*
X0318404Y0095117D01*
X0318340Y0094977D01*
X0318273Y0094839D01*
X0318202Y0094703D01*
X0318127Y0094569D01*
X0318050Y0094437D01*
X0317968Y0094307D01*
X0317884Y0094179D01*
X0317796Y0094053D01*
X0317705Y0093930D01*
X0317611Y0093809D01*
X0317513Y0093691D01*
X0317413Y0093575D01*
X0317309Y0093462D01*
X0317203Y0093351D01*
X0317094Y0093243D01*
X0316982Y0093138D01*
X0316868Y0093037D01*
X0316750Y0092938D01*
X0316631Y0092842D01*
X0316509Y0092749D01*
X0316384Y0092660D01*
X0316257Y0092573D01*
X0316128Y0092491D01*
X0315997Y0092411D01*
X0315864Y0092335D01*
X0315729Y0092262D01*
X0315592Y0092193D01*
X0315453Y0092128D01*
X0315313Y0092066D01*
X0315171Y0092008D01*
X0315028Y0091953D01*
X0314883Y0091902D01*
X0314737Y0091855D01*
X0314590Y0091812D01*
X0314442Y0091773D01*
X0314293Y0091737D01*
X0314143Y0091706D01*
X0313992Y0091678D01*
X0313841Y0091654D01*
X0313688Y0091634D01*
X0313536Y0091618D01*
X0313383Y0091606D01*
X0313230Y0091598D01*
X0313077Y0091594D01*
X0312923Y0091594D01*
X0312770Y0091598D01*
X0312617Y0091606D01*
X0312464Y0091618D01*
X0312312Y0091634D01*
X0312159Y0091654D01*
X0312008Y0091678D01*
X0311857Y0091706D01*
X0311707Y0091737D01*
X0311558Y0091773D01*
X0311410Y0091812D01*
X0311263Y0091855D01*
X0311117Y0091902D01*
X0310972Y0091953D01*
X0310829Y0092008D01*
X0310687Y0092066D01*
X0310547Y0092128D01*
X0310408Y0092193D01*
X0310271Y0092262D01*
X0310136Y0092335D01*
X0310003Y0092411D01*
X0309872Y0092491D01*
X0309743Y0092573D01*
X0309616Y0092660D01*
X0309491Y0092749D01*
X0309369Y0092842D01*
X0309250Y0092938D01*
X0309132Y0093037D01*
X0309018Y0093138D01*
X0308906Y0093243D01*
X0308797Y0093351D01*
X0308691Y0093462D01*
X0308587Y0093575D01*
X0308487Y0093691D01*
X0308389Y0093809D01*
X0308295Y0093930D01*
X0308204Y0094053D01*
X0308116Y0094179D01*
X0308032Y0094307D01*
X0307950Y0094437D01*
X0307873Y0094569D01*
X0307798Y0094703D01*
X0307727Y0094839D01*
X0307660Y0094977D01*
X0307596Y0095117D01*
X0307536Y0095258D01*
X0307480Y0095400D01*
X0307427Y0095544D01*
X0307378Y0095690D01*
X0307333Y0095836D01*
X0307292Y0095984D01*
X0307255Y0096132D01*
X0307221Y0096282D01*
X0307191Y0096433D01*
X0307166Y0096584D01*
X0307144Y0096735D01*
X0307126Y0096888D01*
X0307112Y0097040D01*
X0307102Y0097193D01*
X0307096Y0097347D01*
X0307094Y0097500D01*
X0307094Y0219500D02*
X0307096Y0219653D01*
X0307102Y0219807D01*
X0307112Y0219960D01*
X0307126Y0220112D01*
X0307144Y0220265D01*
X0307166Y0220416D01*
X0307191Y0220567D01*
X0307221Y0220718D01*
X0307255Y0220868D01*
X0307292Y0221016D01*
X0307333Y0221164D01*
X0307378Y0221310D01*
X0307427Y0221456D01*
X0307480Y0221600D01*
X0307536Y0221742D01*
X0307596Y0221883D01*
X0307660Y0222023D01*
X0307727Y0222161D01*
X0307798Y0222297D01*
X0307873Y0222431D01*
X0307950Y0222563D01*
X0308032Y0222693D01*
X0308116Y0222821D01*
X0308204Y0222947D01*
X0308295Y0223070D01*
X0308389Y0223191D01*
X0308487Y0223309D01*
X0308587Y0223425D01*
X0308691Y0223538D01*
X0308797Y0223649D01*
X0308906Y0223757D01*
X0309018Y0223862D01*
X0309132Y0223963D01*
X0309250Y0224062D01*
X0309369Y0224158D01*
X0309491Y0224251D01*
X0309616Y0224340D01*
X0309743Y0224427D01*
X0309872Y0224509D01*
X0310003Y0224589D01*
X0310136Y0224665D01*
X0310271Y0224738D01*
X0310408Y0224807D01*
X0310547Y0224872D01*
X0310687Y0224934D01*
X0310829Y0224992D01*
X0310972Y0225047D01*
X0311117Y0225098D01*
X0311263Y0225145D01*
X0311410Y0225188D01*
X0311558Y0225227D01*
X0311707Y0225263D01*
X0311857Y0225294D01*
X0312008Y0225322D01*
X0312159Y0225346D01*
X0312312Y0225366D01*
X0312464Y0225382D01*
X0312617Y0225394D01*
X0312770Y0225402D01*
X0312923Y0225406D01*
X0313077Y0225406D01*
X0313230Y0225402D01*
X0313383Y0225394D01*
X0313536Y0225382D01*
X0313688Y0225366D01*
X0313841Y0225346D01*
X0313992Y0225322D01*
X0314143Y0225294D01*
X0314293Y0225263D01*
X0314442Y0225227D01*
X0314590Y0225188D01*
X0314737Y0225145D01*
X0314883Y0225098D01*
X0315028Y0225047D01*
X0315171Y0224992D01*
X0315313Y0224934D01*
X0315453Y0224872D01*
X0315592Y0224807D01*
X0315729Y0224738D01*
X0315864Y0224665D01*
X0315997Y0224589D01*
X0316128Y0224509D01*
X0316257Y0224427D01*
X0316384Y0224340D01*
X0316509Y0224251D01*
X0316631Y0224158D01*
X0316750Y0224062D01*
X0316868Y0223963D01*
X0316982Y0223862D01*
X0317094Y0223757D01*
X0317203Y0223649D01*
X0317309Y0223538D01*
X0317413Y0223425D01*
X0317513Y0223309D01*
X0317611Y0223191D01*
X0317705Y0223070D01*
X0317796Y0222947D01*
X0317884Y0222821D01*
X0317968Y0222693D01*
X0318050Y0222563D01*
X0318127Y0222431D01*
X0318202Y0222297D01*
X0318273Y0222161D01*
X0318340Y0222023D01*
X0318404Y0221883D01*
X0318464Y0221742D01*
X0318520Y0221600D01*
X0318573Y0221456D01*
X0318622Y0221310D01*
X0318667Y0221164D01*
X0318708Y0221016D01*
X0318745Y0220868D01*
X0318779Y0220718D01*
X0318809Y0220567D01*
X0318834Y0220416D01*
X0318856Y0220265D01*
X0318874Y0220112D01*
X0318888Y0219960D01*
X0318898Y0219807D01*
X0318904Y0219653D01*
X0318906Y0219500D01*
X0318904Y0219347D01*
X0318898Y0219193D01*
X0318888Y0219040D01*
X0318874Y0218888D01*
X0318856Y0218735D01*
X0318834Y0218584D01*
X0318809Y0218433D01*
X0318779Y0218282D01*
X0318745Y0218132D01*
X0318708Y0217984D01*
X0318667Y0217836D01*
X0318622Y0217690D01*
X0318573Y0217544D01*
X0318520Y0217400D01*
X0318464Y0217258D01*
X0318404Y0217117D01*
X0318340Y0216977D01*
X0318273Y0216839D01*
X0318202Y0216703D01*
X0318127Y0216569D01*
X0318050Y0216437D01*
X0317968Y0216307D01*
X0317884Y0216179D01*
X0317796Y0216053D01*
X0317705Y0215930D01*
X0317611Y0215809D01*
X0317513Y0215691D01*
X0317413Y0215575D01*
X0317309Y0215462D01*
X0317203Y0215351D01*
X0317094Y0215243D01*
X0316982Y0215138D01*
X0316868Y0215037D01*
X0316750Y0214938D01*
X0316631Y0214842D01*
X0316509Y0214749D01*
X0316384Y0214660D01*
X0316257Y0214573D01*
X0316128Y0214491D01*
X0315997Y0214411D01*
X0315864Y0214335D01*
X0315729Y0214262D01*
X0315592Y0214193D01*
X0315453Y0214128D01*
X0315313Y0214066D01*
X0315171Y0214008D01*
X0315028Y0213953D01*
X0314883Y0213902D01*
X0314737Y0213855D01*
X0314590Y0213812D01*
X0314442Y0213773D01*
X0314293Y0213737D01*
X0314143Y0213706D01*
X0313992Y0213678D01*
X0313841Y0213654D01*
X0313688Y0213634D01*
X0313536Y0213618D01*
X0313383Y0213606D01*
X0313230Y0213598D01*
X0313077Y0213594D01*
X0312923Y0213594D01*
X0312770Y0213598D01*
X0312617Y0213606D01*
X0312464Y0213618D01*
X0312312Y0213634D01*
X0312159Y0213654D01*
X0312008Y0213678D01*
X0311857Y0213706D01*
X0311707Y0213737D01*
X0311558Y0213773D01*
X0311410Y0213812D01*
X0311263Y0213855D01*
X0311117Y0213902D01*
X0310972Y0213953D01*
X0310829Y0214008D01*
X0310687Y0214066D01*
X0310547Y0214128D01*
X0310408Y0214193D01*
X0310271Y0214262D01*
X0310136Y0214335D01*
X0310003Y0214411D01*
X0309872Y0214491D01*
X0309743Y0214573D01*
X0309616Y0214660D01*
X0309491Y0214749D01*
X0309369Y0214842D01*
X0309250Y0214938D01*
X0309132Y0215037D01*
X0309018Y0215138D01*
X0308906Y0215243D01*
X0308797Y0215351D01*
X0308691Y0215462D01*
X0308587Y0215575D01*
X0308487Y0215691D01*
X0308389Y0215809D01*
X0308295Y0215930D01*
X0308204Y0216053D01*
X0308116Y0216179D01*
X0308032Y0216307D01*
X0307950Y0216437D01*
X0307873Y0216569D01*
X0307798Y0216703D01*
X0307727Y0216839D01*
X0307660Y0216977D01*
X0307596Y0217117D01*
X0307536Y0217258D01*
X0307480Y0217400D01*
X0307427Y0217544D01*
X0307378Y0217690D01*
X0307333Y0217836D01*
X0307292Y0217984D01*
X0307255Y0218132D01*
X0307221Y0218282D01*
X0307191Y0218433D01*
X0307166Y0218584D01*
X0307144Y0218735D01*
X0307126Y0218888D01*
X0307112Y0219040D01*
X0307102Y0219193D01*
X0307096Y0219347D01*
X0307094Y0219500D01*
X0011094Y0219500D02*
X0011096Y0219653D01*
X0011102Y0219807D01*
X0011112Y0219960D01*
X0011126Y0220112D01*
X0011144Y0220265D01*
X0011166Y0220416D01*
X0011191Y0220567D01*
X0011221Y0220718D01*
X0011255Y0220868D01*
X0011292Y0221016D01*
X0011333Y0221164D01*
X0011378Y0221310D01*
X0011427Y0221456D01*
X0011480Y0221600D01*
X0011536Y0221742D01*
X0011596Y0221883D01*
X0011660Y0222023D01*
X0011727Y0222161D01*
X0011798Y0222297D01*
X0011873Y0222431D01*
X0011950Y0222563D01*
X0012032Y0222693D01*
X0012116Y0222821D01*
X0012204Y0222947D01*
X0012295Y0223070D01*
X0012389Y0223191D01*
X0012487Y0223309D01*
X0012587Y0223425D01*
X0012691Y0223538D01*
X0012797Y0223649D01*
X0012906Y0223757D01*
X0013018Y0223862D01*
X0013132Y0223963D01*
X0013250Y0224062D01*
X0013369Y0224158D01*
X0013491Y0224251D01*
X0013616Y0224340D01*
X0013743Y0224427D01*
X0013872Y0224509D01*
X0014003Y0224589D01*
X0014136Y0224665D01*
X0014271Y0224738D01*
X0014408Y0224807D01*
X0014547Y0224872D01*
X0014687Y0224934D01*
X0014829Y0224992D01*
X0014972Y0225047D01*
X0015117Y0225098D01*
X0015263Y0225145D01*
X0015410Y0225188D01*
X0015558Y0225227D01*
X0015707Y0225263D01*
X0015857Y0225294D01*
X0016008Y0225322D01*
X0016159Y0225346D01*
X0016312Y0225366D01*
X0016464Y0225382D01*
X0016617Y0225394D01*
X0016770Y0225402D01*
X0016923Y0225406D01*
X0017077Y0225406D01*
X0017230Y0225402D01*
X0017383Y0225394D01*
X0017536Y0225382D01*
X0017688Y0225366D01*
X0017841Y0225346D01*
X0017992Y0225322D01*
X0018143Y0225294D01*
X0018293Y0225263D01*
X0018442Y0225227D01*
X0018590Y0225188D01*
X0018737Y0225145D01*
X0018883Y0225098D01*
X0019028Y0225047D01*
X0019171Y0224992D01*
X0019313Y0224934D01*
X0019453Y0224872D01*
X0019592Y0224807D01*
X0019729Y0224738D01*
X0019864Y0224665D01*
X0019997Y0224589D01*
X0020128Y0224509D01*
X0020257Y0224427D01*
X0020384Y0224340D01*
X0020509Y0224251D01*
X0020631Y0224158D01*
X0020750Y0224062D01*
X0020868Y0223963D01*
X0020982Y0223862D01*
X0021094Y0223757D01*
X0021203Y0223649D01*
X0021309Y0223538D01*
X0021413Y0223425D01*
X0021513Y0223309D01*
X0021611Y0223191D01*
X0021705Y0223070D01*
X0021796Y0222947D01*
X0021884Y0222821D01*
X0021968Y0222693D01*
X0022050Y0222563D01*
X0022127Y0222431D01*
X0022202Y0222297D01*
X0022273Y0222161D01*
X0022340Y0222023D01*
X0022404Y0221883D01*
X0022464Y0221742D01*
X0022520Y0221600D01*
X0022573Y0221456D01*
X0022622Y0221310D01*
X0022667Y0221164D01*
X0022708Y0221016D01*
X0022745Y0220868D01*
X0022779Y0220718D01*
X0022809Y0220567D01*
X0022834Y0220416D01*
X0022856Y0220265D01*
X0022874Y0220112D01*
X0022888Y0219960D01*
X0022898Y0219807D01*
X0022904Y0219653D01*
X0022906Y0219500D01*
X0022904Y0219347D01*
X0022898Y0219193D01*
X0022888Y0219040D01*
X0022874Y0218888D01*
X0022856Y0218735D01*
X0022834Y0218584D01*
X0022809Y0218433D01*
X0022779Y0218282D01*
X0022745Y0218132D01*
X0022708Y0217984D01*
X0022667Y0217836D01*
X0022622Y0217690D01*
X0022573Y0217544D01*
X0022520Y0217400D01*
X0022464Y0217258D01*
X0022404Y0217117D01*
X0022340Y0216977D01*
X0022273Y0216839D01*
X0022202Y0216703D01*
X0022127Y0216569D01*
X0022050Y0216437D01*
X0021968Y0216307D01*
X0021884Y0216179D01*
X0021796Y0216053D01*
X0021705Y0215930D01*
X0021611Y0215809D01*
X0021513Y0215691D01*
X0021413Y0215575D01*
X0021309Y0215462D01*
X0021203Y0215351D01*
X0021094Y0215243D01*
X0020982Y0215138D01*
X0020868Y0215037D01*
X0020750Y0214938D01*
X0020631Y0214842D01*
X0020509Y0214749D01*
X0020384Y0214660D01*
X0020257Y0214573D01*
X0020128Y0214491D01*
X0019997Y0214411D01*
X0019864Y0214335D01*
X0019729Y0214262D01*
X0019592Y0214193D01*
X0019453Y0214128D01*
X0019313Y0214066D01*
X0019171Y0214008D01*
X0019028Y0213953D01*
X0018883Y0213902D01*
X0018737Y0213855D01*
X0018590Y0213812D01*
X0018442Y0213773D01*
X0018293Y0213737D01*
X0018143Y0213706D01*
X0017992Y0213678D01*
X0017841Y0213654D01*
X0017688Y0213634D01*
X0017536Y0213618D01*
X0017383Y0213606D01*
X0017230Y0213598D01*
X0017077Y0213594D01*
X0016923Y0213594D01*
X0016770Y0213598D01*
X0016617Y0213606D01*
X0016464Y0213618D01*
X0016312Y0213634D01*
X0016159Y0213654D01*
X0016008Y0213678D01*
X0015857Y0213706D01*
X0015707Y0213737D01*
X0015558Y0213773D01*
X0015410Y0213812D01*
X0015263Y0213855D01*
X0015117Y0213902D01*
X0014972Y0213953D01*
X0014829Y0214008D01*
X0014687Y0214066D01*
X0014547Y0214128D01*
X0014408Y0214193D01*
X0014271Y0214262D01*
X0014136Y0214335D01*
X0014003Y0214411D01*
X0013872Y0214491D01*
X0013743Y0214573D01*
X0013616Y0214660D01*
X0013491Y0214749D01*
X0013369Y0214842D01*
X0013250Y0214938D01*
X0013132Y0215037D01*
X0013018Y0215138D01*
X0012906Y0215243D01*
X0012797Y0215351D01*
X0012691Y0215462D01*
X0012587Y0215575D01*
X0012487Y0215691D01*
X0012389Y0215809D01*
X0012295Y0215930D01*
X0012204Y0216053D01*
X0012116Y0216179D01*
X0012032Y0216307D01*
X0011950Y0216437D01*
X0011873Y0216569D01*
X0011798Y0216703D01*
X0011727Y0216839D01*
X0011660Y0216977D01*
X0011596Y0217117D01*
X0011536Y0217258D01*
X0011480Y0217400D01*
X0011427Y0217544D01*
X0011378Y0217690D01*
X0011333Y0217836D01*
X0011292Y0217984D01*
X0011255Y0218132D01*
X0011221Y0218282D01*
X0011191Y0218433D01*
X0011166Y0218584D01*
X0011144Y0218735D01*
X0011126Y0218888D01*
X0011112Y0219040D01*
X0011102Y0219193D01*
X0011096Y0219347D01*
X0011094Y0219500D01*
D11*
X0306545Y0192081D02*
X0306545Y0189129D01*
X0312450Y0189129D01*
X0312450Y0192081D01*
X0311466Y0193066D01*
X0307529Y0193066D01*
X0306545Y0192081D01*
X0307529Y0186620D02*
X0306545Y0185636D01*
X0306545Y0183668D01*
X0307529Y0182683D01*
X0308513Y0182683D01*
X0309497Y0183668D01*
X0309497Y0185636D01*
X0310482Y0186620D01*
X0311466Y0186620D01*
X0312450Y0185636D01*
X0312450Y0183668D01*
X0311466Y0182683D01*
X0312450Y0180175D02*
X0312450Y0176238D01*
X0308513Y0180175D01*
X0307529Y0180175D01*
X0306545Y0179190D01*
X0306545Y0177222D01*
X0307529Y0176238D01*
X0307529Y0173729D02*
X0306545Y0172745D01*
X0306545Y0170777D01*
X0307529Y0169792D01*
X0311466Y0169792D01*
X0312450Y0170777D01*
X0312450Y0172745D01*
X0311466Y0173729D01*
X0307529Y0173729D01*
X0306545Y0167464D02*
X0306545Y0165495D01*
X0306545Y0166480D02*
X0312450Y0166480D01*
X0312450Y0167464D02*
X0312450Y0165495D01*
X0311466Y0162987D02*
X0312450Y0162002D01*
X0312450Y0160034D01*
X0311466Y0159050D01*
X0309497Y0160034D02*
X0309497Y0162002D01*
X0310482Y0162987D01*
X0311466Y0162987D01*
X0309497Y0160034D02*
X0308513Y0159050D01*
X0307529Y0159050D01*
X0306545Y0160034D01*
X0306545Y0162002D01*
X0307529Y0162987D01*
X0306545Y0150276D02*
X0306545Y0148307D01*
X0306545Y0149292D02*
X0312450Y0149292D01*
X0312450Y0150276D02*
X0312450Y0148307D01*
X0312450Y0145799D02*
X0310482Y0143830D01*
X0310482Y0144814D02*
X0309497Y0145799D01*
X0307529Y0145799D01*
X0306545Y0144814D01*
X0306545Y0141862D01*
X0312450Y0141862D01*
X0310482Y0141862D02*
X0310482Y0144814D01*
X0309497Y0139353D02*
X0309497Y0135416D01*
X0308513Y0135416D02*
X0306545Y0137385D01*
X0308513Y0139353D01*
X0312450Y0139353D01*
X0312450Y0135416D02*
X0308513Y0135416D01*
X0306545Y0132908D02*
X0306545Y0128971D01*
X0306545Y0130939D02*
X0312450Y0130939D01*
X0312450Y0126462D02*
X0308513Y0126462D01*
X0306545Y0124494D01*
X0308513Y0122525D01*
X0312450Y0122525D01*
X0309497Y0122525D02*
X0309497Y0126462D01*
D12*
X0217012Y0201500D03*
X0205988Y0201500D03*
X0097012Y0191500D03*
X0085988Y0191500D03*
X0072012Y0176500D03*
X0060988Y0176500D03*
X0085988Y0166500D03*
X0097012Y0166500D03*
X0072012Y0156500D03*
X0060988Y0156500D03*
X0085988Y0146500D03*
X0097012Y0146500D03*
D13*
X0056500Y0131913D03*
X0056500Y0121087D03*
X0041500Y0121087D03*
X0041500Y0131913D03*
D14*
X0071500Y0132012D03*
X0071500Y0120988D03*
X0086500Y0120988D03*
X0086500Y0132012D03*
X0086500Y0102012D03*
X0071500Y0102012D03*
X0071500Y0090988D03*
X0086500Y0090988D03*
X0101500Y0090988D03*
X0116500Y0090988D03*
X0116500Y0102012D03*
X0101500Y0102012D03*
X0056500Y0102012D03*
X0041500Y0102012D03*
X0041500Y0090988D03*
X0056500Y0090988D03*
X0261500Y0092012D03*
X0261500Y0080988D03*
X0274000Y0080988D03*
X0274000Y0092012D03*
X0286500Y0092012D03*
X0286500Y0080988D03*
X0271500Y0120988D03*
X0271500Y0132012D03*
D15*
X0271500Y0054000D03*
X0271500Y0044000D03*
X0291500Y0029000D03*
X0291500Y0019000D03*
X0311500Y0044000D03*
X0311500Y0054000D03*
D16*
X0204335Y0145752D03*
X0204335Y0148902D03*
X0204335Y0152051D03*
X0204335Y0155201D03*
X0204335Y0158350D03*
X0204335Y0161500D03*
X0204335Y0164650D03*
X0204335Y0167799D03*
X0204335Y0170949D03*
X0204335Y0174098D03*
X0204335Y0177248D03*
X0158665Y0177248D03*
X0158665Y0174098D03*
X0158665Y0170949D03*
X0158665Y0167799D03*
X0158665Y0164650D03*
X0158665Y0161500D03*
X0158665Y0158350D03*
X0158665Y0155201D03*
X0158665Y0152051D03*
X0158665Y0148902D03*
X0158665Y0145752D03*
D17*
X0165752Y0138665D03*
X0168902Y0138665D03*
X0172051Y0138665D03*
X0175201Y0138665D03*
X0178350Y0138665D03*
X0181500Y0138665D03*
X0184650Y0138665D03*
X0187799Y0138665D03*
X0190949Y0138665D03*
X0194098Y0138665D03*
X0197248Y0138665D03*
X0197248Y0184335D03*
X0194098Y0184335D03*
X0190949Y0184335D03*
X0187799Y0184335D03*
X0184650Y0184335D03*
X0181500Y0184335D03*
X0178350Y0184335D03*
X0175201Y0184335D03*
X0172051Y0184335D03*
X0168902Y0184335D03*
X0165752Y0184335D03*
D18*
X0165909Y0117250D03*
X0156382Y0117250D03*
X0149689Y0117250D03*
X0136500Y0117250D03*
X0175752Y0117250D03*
X0185594Y0117250D03*
X0192091Y0117250D03*
X0198587Y0117250D03*
X0205280Y0117250D03*
X0215122Y0117250D03*
X0224965Y0117250D03*
D19*
X0244374Y0034533D03*
X0134138Y0029809D03*
D20*
X0122300Y0035400D02*
X0116300Y0035400D01*
X0096700Y0035400D02*
X0090700Y0035400D01*
X0082300Y0035400D02*
X0076300Y0035400D01*
X0056700Y0035400D02*
X0050700Y0035400D01*
X0042300Y0035400D02*
X0036300Y0035400D01*
X0016700Y0035400D02*
X0010700Y0035400D01*
X0010700Y0017600D02*
X0016700Y0017600D01*
X0036300Y0017600D02*
X0042300Y0017600D01*
X0050700Y0017600D02*
X0056700Y0017600D01*
X0076300Y0017600D02*
X0082300Y0017600D01*
X0090700Y0017600D02*
X0096700Y0017600D01*
X0116300Y0017600D02*
X0122300Y0017600D01*
X0122300Y0052600D02*
X0116300Y0052600D01*
X0096700Y0052600D02*
X0090700Y0052600D01*
X0082300Y0052600D02*
X0076300Y0052600D01*
X0056700Y0052600D02*
X0050700Y0052600D01*
X0042300Y0052600D02*
X0036300Y0052600D01*
X0016700Y0052600D02*
X0010700Y0052600D01*
X0010700Y0070400D02*
X0016700Y0070400D01*
X0036300Y0070400D02*
X0042300Y0070400D01*
X0050700Y0070400D02*
X0056700Y0070400D01*
X0076300Y0070400D02*
X0082300Y0070400D01*
X0090700Y0070400D02*
X0096700Y0070400D01*
X0116300Y0070400D02*
X0122300Y0070400D01*
X0237500Y0179000D02*
X0237500Y0185000D01*
X0247500Y0185000D02*
X0247500Y0179000D01*
X0257500Y0179000D02*
X0257500Y0185000D01*
X0267500Y0185000D02*
X0267500Y0179000D01*
X0277500Y0179000D02*
X0277500Y0185000D01*
X0189000Y0216500D02*
X0189000Y0222500D01*
X0179000Y0222500D02*
X0179000Y0216500D01*
X0169000Y0216500D02*
X0169000Y0222500D01*
X0159000Y0222500D02*
X0159000Y0216500D01*
X0149000Y0216500D02*
X0149000Y0222500D01*
X0139000Y0222500D02*
X0139000Y0216500D01*
X0129000Y0216500D02*
X0129000Y0222500D01*
X0119000Y0222500D02*
X0119000Y0216500D01*
X0109000Y0216500D02*
X0109000Y0222500D01*
X0099000Y0222500D02*
X0099000Y0216500D01*
X0089000Y0216500D02*
X0089000Y0222500D01*
X0079000Y0222500D02*
X0079000Y0216500D01*
X0069000Y0216500D02*
X0069000Y0222500D01*
X0059000Y0222500D02*
X0059000Y0216500D01*
X0049000Y0216500D02*
X0049000Y0222500D01*
X0039000Y0222500D02*
X0039000Y0216500D01*
D21*
X0121500Y0166000D03*
X0121500Y0147000D03*
D22*
X0124000Y0201500D03*
X0131500Y0201500D03*
X0116500Y0201500D03*
X0109000Y0201500D03*
D23*
X0025516Y0176500D03*
X0025516Y0156500D03*
D24*
X0035358Y0166500D03*
D25*
X0045358Y0176500D01*
X0060988Y0176500D01*
X0060988Y0207012D01*
X0059000Y0209000D01*
X0059000Y0219500D01*
X0049000Y0219500D02*
X0049000Y0226500D01*
X0051500Y0229000D01*
X0199000Y0229000D01*
X0217012Y0210988D01*
X0217012Y0201500D01*
X0224000Y0201500D01*
X0226500Y0199000D01*
X0226500Y0186500D01*
X0231000Y0182000D01*
X0237500Y0182000D01*
X0237500Y0158000D01*
X0237150Y0158350D01*
X0204335Y0158350D01*
X0182150Y0158350D01*
X0181500Y0159000D01*
X0181500Y0171500D01*
X0184650Y0174650D01*
X0184650Y0184335D01*
X0187799Y0184335D02*
X0187799Y0195201D01*
X0186500Y0196500D01*
X0151500Y0196500D01*
X0139000Y0209000D01*
X0139000Y0219500D01*
X0149000Y0219500D02*
X0149000Y0209000D01*
X0159000Y0199000D01*
X0189000Y0199000D01*
X0190949Y0197051D01*
X0190949Y0184335D01*
X0194098Y0184335D02*
X0194098Y0198902D01*
X0191500Y0201500D01*
X0166500Y0201500D01*
X0159000Y0209000D01*
X0159000Y0219500D01*
X0169000Y0219500D02*
X0169000Y0209000D01*
X0174000Y0204000D01*
X0194000Y0204000D01*
X0197248Y0200752D01*
X0197248Y0184335D01*
X0198482Y0178482D02*
X0195687Y0178482D01*
X0195673Y0178488D01*
X0195660Y0178482D01*
X0192537Y0178482D01*
X0192524Y0178488D01*
X0192510Y0178482D01*
X0189388Y0178482D01*
X0189374Y0178488D01*
X0189360Y0178482D01*
X0188050Y0178482D01*
X0188050Y0173973D01*
X0187532Y0172724D01*
X0184900Y0170092D01*
X0184900Y0161750D01*
X0199696Y0161750D01*
X0199739Y0161793D01*
X0199882Y0161852D01*
X0199882Y0162682D01*
X0199984Y0163063D01*
X0199991Y0163075D01*
X0199984Y0163086D01*
X0199882Y0163468D01*
X0199882Y0164297D01*
X0199739Y0164356D01*
X0198923Y0165172D01*
X0198482Y0166238D01*
X0198482Y0169360D01*
X0198488Y0169374D01*
X0198482Y0169388D01*
X0198482Y0172510D01*
X0198488Y0172524D01*
X0198482Y0172537D01*
X0198482Y0175660D01*
X0198488Y0175673D01*
X0198482Y0175687D01*
X0198482Y0178482D01*
X0198482Y0178237D02*
X0188050Y0178237D01*
X0188050Y0177238D02*
X0198482Y0177238D01*
X0198482Y0176239D02*
X0188050Y0176239D01*
X0188050Y0175241D02*
X0198482Y0175241D01*
X0198482Y0174242D02*
X0188050Y0174242D01*
X0187747Y0173244D02*
X0198482Y0173244D01*
X0198482Y0172245D02*
X0187054Y0172245D01*
X0186055Y0171247D02*
X0198482Y0171247D01*
X0198482Y0170248D02*
X0185057Y0170248D01*
X0184900Y0169250D02*
X0198482Y0169250D01*
X0198482Y0168251D02*
X0184900Y0168251D01*
X0184900Y0167253D02*
X0198482Y0167253D01*
X0198482Y0166254D02*
X0184900Y0166254D01*
X0184900Y0165256D02*
X0198889Y0165256D01*
X0199882Y0164257D02*
X0184900Y0164257D01*
X0184900Y0163259D02*
X0199938Y0163259D01*
X0199882Y0162260D02*
X0184900Y0162260D01*
X0181500Y0159000D02*
X0181500Y0138665D01*
X0184900Y0143804D02*
X0184900Y0154950D01*
X0198482Y0154950D01*
X0198482Y0153640D01*
X0198488Y0153626D01*
X0198482Y0153612D01*
X0198482Y0150490D01*
X0198488Y0150476D01*
X0198482Y0150463D01*
X0198482Y0147340D01*
X0198488Y0147327D01*
X0198482Y0147313D01*
X0198482Y0144518D01*
X0195687Y0144518D01*
X0195673Y0144512D01*
X0195660Y0144518D01*
X0192537Y0144518D01*
X0192524Y0144512D01*
X0192510Y0144518D01*
X0189388Y0144518D01*
X0189374Y0144512D01*
X0189360Y0144518D01*
X0186238Y0144518D01*
X0185172Y0144077D01*
X0184900Y0143804D01*
X0184900Y0144287D02*
X0185680Y0144287D01*
X0184900Y0145286D02*
X0198482Y0145286D01*
X0198482Y0146284D02*
X0184900Y0146284D01*
X0184900Y0147283D02*
X0198482Y0147283D01*
X0198482Y0148281D02*
X0184900Y0148281D01*
X0184900Y0149280D02*
X0198482Y0149280D01*
X0198482Y0150278D02*
X0184900Y0150278D01*
X0184900Y0151277D02*
X0198482Y0151277D01*
X0198482Y0152275D02*
X0184900Y0152275D01*
X0184900Y0153274D02*
X0198482Y0153274D01*
X0198482Y0154272D02*
X0184900Y0154272D01*
X0176500Y0149000D02*
X0174000Y0151500D01*
X0169000Y0151500D01*
X0166402Y0148902D01*
X0158665Y0148902D01*
X0158665Y0145752D02*
X0170752Y0145752D01*
X0171500Y0146500D01*
X0164551Y0152051D02*
X0166500Y0154000D01*
X0169000Y0154000D01*
X0174000Y0159000D01*
X0177386Y0162260D02*
X0178100Y0162260D01*
X0177984Y0161662D02*
X0176662Y0162984D01*
X0174935Y0163700D01*
X0173065Y0163700D01*
X0171338Y0162984D01*
X0170016Y0161662D01*
X0169300Y0159935D01*
X0169300Y0159108D01*
X0167592Y0157400D01*
X0165824Y0157400D01*
X0164574Y0156882D01*
X0164518Y0156826D01*
X0164518Y0159911D01*
X0164077Y0160977D01*
X0163804Y0161250D01*
X0165326Y0161250D01*
X0166576Y0161767D01*
X0172908Y0168100D01*
X0178100Y0168100D01*
X0178100Y0161383D01*
X0177984Y0161662D01*
X0178100Y0163259D02*
X0176000Y0163259D01*
X0178100Y0164257D02*
X0169066Y0164257D01*
X0168067Y0163259D02*
X0172000Y0163259D01*
X0170614Y0162260D02*
X0167069Y0162260D01*
X0165355Y0161262D02*
X0169850Y0161262D01*
X0169436Y0160263D02*
X0164372Y0160263D01*
X0164518Y0159265D02*
X0169300Y0159265D01*
X0168458Y0158266D02*
X0164518Y0158266D01*
X0164518Y0157268D02*
X0165504Y0157268D01*
X0164551Y0152051D02*
X0158665Y0152051D01*
X0158665Y0155201D02*
X0125201Y0155201D01*
X0121500Y0151500D01*
X0121500Y0147000D01*
X0121000Y0146500D01*
X0097012Y0146500D01*
X0103061Y0143100D02*
X0117905Y0143100D01*
X0118498Y0142507D01*
X0120446Y0141700D01*
X0122554Y0141700D01*
X0124502Y0142507D01*
X0125993Y0143998D01*
X0126800Y0145946D01*
X0126800Y0148054D01*
X0125993Y0150002D01*
X0125402Y0150593D01*
X0126609Y0151801D01*
X0152813Y0151801D01*
X0152813Y0150490D01*
X0152818Y0150476D01*
X0152813Y0150463D01*
X0152813Y0147340D01*
X0152818Y0147327D01*
X0152813Y0147313D01*
X0152813Y0144191D01*
X0153254Y0143125D01*
X0154070Y0142309D01*
X0155136Y0141868D01*
X0161868Y0141868D01*
X0161868Y0135136D01*
X0161965Y0134900D01*
X0160824Y0134900D01*
X0159574Y0134382D01*
X0158618Y0133426D01*
X0153500Y0128308D01*
X0152982Y0127058D01*
X0152982Y0123777D01*
X0152234Y0124087D01*
X0147144Y0124087D01*
X0146078Y0123645D01*
X0145262Y0122830D01*
X0144820Y0121764D01*
X0144820Y0112736D01*
X0145262Y0111670D01*
X0146078Y0110854D01*
X0147144Y0110413D01*
X0152234Y0110413D01*
X0153035Y0110745D01*
X0153837Y0110413D01*
X0158927Y0110413D01*
X0159993Y0110854D01*
X0160809Y0111670D01*
X0161146Y0112483D01*
X0161482Y0111670D01*
X0162298Y0110854D01*
X0163364Y0110413D01*
X0167100Y0110413D01*
X0167100Y0056324D01*
X0167618Y0055074D01*
X0177074Y0045618D01*
X0178324Y0045100D01*
X0179676Y0045100D01*
X0188253Y0045100D01*
X0188838Y0044516D01*
X0190565Y0043800D01*
X0192435Y0043800D01*
X0194162Y0044516D01*
X0195484Y0045838D01*
X0196200Y0047565D01*
X0196200Y0049435D01*
X0195484Y0051162D01*
X0194162Y0052484D01*
X0192435Y0053200D01*
X0190565Y0053200D01*
X0188838Y0052484D01*
X0188253Y0051900D01*
X0180408Y0051900D01*
X0173900Y0058408D01*
X0173900Y0089292D01*
X0176800Y0086392D01*
X0176800Y0085565D01*
X0177516Y0083838D01*
X0178838Y0082516D01*
X0180565Y0081800D01*
X0182435Y0081800D01*
X0184162Y0082516D01*
X0185484Y0083838D01*
X0186200Y0085565D01*
X0186200Y0086992D01*
X0186800Y0086392D01*
X0186800Y0085565D01*
X0187516Y0083838D01*
X0188838Y0082516D01*
X0190565Y0081800D01*
X0192435Y0081800D01*
X0194162Y0082516D01*
X0195484Y0083838D01*
X0196200Y0085565D01*
X0196200Y0087435D01*
X0195484Y0089162D01*
X0194162Y0090484D01*
X0192435Y0091200D01*
X0191608Y0091200D01*
X0183900Y0098908D01*
X0183900Y0104292D01*
X0186800Y0101392D01*
X0186800Y0100565D01*
X0187516Y0098838D01*
X0188838Y0097516D01*
X0190565Y0096800D01*
X0192435Y0096800D01*
X0194162Y0097516D01*
X0195484Y0098838D01*
X0196200Y0100565D01*
X0196200Y0102435D01*
X0195484Y0104162D01*
X0194162Y0105484D01*
X0192435Y0106200D01*
X0191608Y0106200D01*
X0188994Y0108814D01*
X0188994Y0110767D01*
X0189206Y0110854D01*
X0190021Y0111670D01*
X0190081Y0111813D01*
X0191606Y0111813D01*
X0191606Y0116766D01*
X0192575Y0116766D01*
X0192575Y0111813D01*
X0194100Y0111813D01*
X0194160Y0111670D01*
X0194975Y0110854D01*
X0196041Y0110413D01*
X0201132Y0110413D01*
X0201880Y0110723D01*
X0201880Y0091688D01*
X0201392Y0091200D01*
X0200565Y0091200D01*
X0198838Y0090484D01*
X0197516Y0089162D01*
X0196800Y0087435D01*
X0196800Y0085565D01*
X0197516Y0083838D01*
X0198838Y0082516D01*
X0200565Y0081800D01*
X0202435Y0081800D01*
X0204162Y0082516D01*
X0205484Y0083838D01*
X0206200Y0085565D01*
X0206200Y0086392D01*
X0208162Y0088354D01*
X0208680Y0089603D01*
X0208680Y0093167D01*
X0209565Y0092800D01*
X0211435Y0092800D01*
X0211722Y0092919D01*
X0211722Y0087202D01*
X0211800Y0087013D01*
X0211800Y0085565D01*
X0212516Y0083838D01*
X0213838Y0082516D01*
X0215565Y0081800D01*
X0217435Y0081800D01*
X0219162Y0082516D01*
X0220484Y0083838D01*
X0221200Y0085565D01*
X0221200Y0087435D01*
X0220484Y0089162D01*
X0219162Y0090484D01*
X0218522Y0090750D01*
X0218522Y0110767D01*
X0218733Y0110854D01*
X0219549Y0111670D01*
X0219991Y0112736D01*
X0219991Y0121764D01*
X0219549Y0122830D01*
X0218733Y0123645D01*
X0217667Y0124087D01*
X0212721Y0124087D01*
X0212426Y0124382D01*
X0209426Y0127382D01*
X0208176Y0127900D01*
X0201547Y0127900D01*
X0202484Y0128838D01*
X0203200Y0130565D01*
X0203200Y0132435D01*
X0202484Y0134162D01*
X0201162Y0135484D01*
X0201132Y0135497D01*
X0201132Y0141868D01*
X0207864Y0141868D01*
X0208930Y0142309D01*
X0208973Y0142352D01*
X0210600Y0142352D01*
X0210600Y0137247D01*
X0210016Y0136662D01*
X0209300Y0134935D01*
X0209300Y0133065D01*
X0210016Y0131338D01*
X0211338Y0130016D01*
X0213065Y0129300D01*
X0214935Y0129300D01*
X0216662Y0130016D01*
X0217984Y0131338D01*
X0218700Y0133065D01*
X0218700Y0134935D01*
X0217984Y0136662D01*
X0217400Y0137247D01*
X0217400Y0143292D01*
X0258100Y0102592D01*
X0258100Y0098061D01*
X0257380Y0098061D01*
X0256314Y0097620D01*
X0255498Y0096804D01*
X0255057Y0095738D01*
X0255057Y0088285D01*
X0255498Y0087219D01*
X0256218Y0086500D01*
X0255498Y0085781D01*
X0255057Y0084715D01*
X0255057Y0077262D01*
X0255498Y0076196D01*
X0256314Y0075380D01*
X0257380Y0074939D01*
X0258100Y0074939D01*
X0258100Y0035824D01*
X0258618Y0034574D01*
X0266118Y0027074D01*
X0267074Y0026118D01*
X0268324Y0025600D01*
X0287405Y0025600D01*
X0289005Y0024000D01*
X0286200Y0021195D01*
X0286200Y0016805D01*
X0289305Y0013700D01*
X0293695Y0013700D01*
X0296800Y0016805D01*
X0296800Y0019492D01*
X0314382Y0037074D01*
X0314900Y0038324D01*
X0314900Y0039905D01*
X0316800Y0041805D01*
X0316800Y0044492D01*
X0321882Y0049574D01*
X0322400Y0050824D01*
X0322400Y0059676D01*
X0321882Y0060926D01*
X0320926Y0061882D01*
X0315926Y0066882D01*
X0314676Y0067400D01*
X0302908Y0067400D01*
X0297400Y0072908D01*
X0297400Y0089962D01*
X0298278Y0088039D01*
X0298278Y0088039D01*
X0301540Y0084274D01*
X0305730Y0081581D01*
X0305730Y0081581D01*
X0310509Y0080178D01*
X0315491Y0080178D01*
X0320270Y0081581D01*
X0324460Y0084274D01*
X0324460Y0084274D01*
X0324460Y0084274D01*
X0325772Y0085788D01*
X0325772Y0004000D01*
X0004000Y0004000D01*
X0004000Y0086052D01*
X0005540Y0084274D01*
X0009730Y0081581D01*
X0009730Y0081581D01*
X0014509Y0080178D01*
X0019491Y0080178D01*
X0024270Y0081581D01*
X0028460Y0084274D01*
X0028460Y0084274D01*
X0028460Y0084274D01*
X0031722Y0088039D01*
X0033791Y0092570D01*
X0034500Y0097500D01*
X0033791Y0102430D01*
X0031722Y0106961D01*
X0028460Y0110726D01*
X0024270Y0113419D01*
X0019491Y0114822D01*
X0014509Y0114822D01*
X0009730Y0113419D01*
X0005540Y0110726D01*
X0005540Y0110726D01*
X0005540Y0110726D01*
X0004000Y0108948D01*
X0004000Y0208052D01*
X0005540Y0206274D01*
X0009730Y0203581D01*
X0014509Y0202178D01*
X0019491Y0202178D01*
X0024270Y0203581D01*
X0028460Y0206274D01*
X0028460Y0206274D01*
X0028460Y0206274D01*
X0031722Y0210039D01*
X0033791Y0214570D01*
X0034500Y0219500D01*
X0033791Y0224430D01*
X0033791Y0224430D01*
X0031722Y0228961D01*
X0031722Y0228961D01*
X0029710Y0231283D01*
X0048975Y0231283D01*
X0048618Y0230926D01*
X0046118Y0228426D01*
X0045751Y0227540D01*
X0045658Y0227502D01*
X0043998Y0225842D01*
X0043240Y0224012D01*
X0043170Y0224227D01*
X0042849Y0224859D01*
X0042432Y0225432D01*
X0041932Y0225932D01*
X0041359Y0226349D01*
X0040727Y0226670D01*
X0040054Y0226889D01*
X0039500Y0226977D01*
X0039500Y0220000D01*
X0038500Y0220000D01*
X0038500Y0226977D01*
X0037946Y0226889D01*
X0037273Y0226670D01*
X0036641Y0226349D01*
X0036068Y0225932D01*
X0035568Y0225432D01*
X0035151Y0224859D01*
X0034830Y0224227D01*
X0034611Y0223554D01*
X0034500Y0222854D01*
X0034500Y0220000D01*
X0038500Y0220000D01*
X0038500Y0219000D01*
X0039500Y0219000D01*
X0039500Y0212023D01*
X0040054Y0212111D01*
X0040727Y0212330D01*
X0041359Y0212651D01*
X0041932Y0213068D01*
X0042432Y0213568D01*
X0042849Y0214141D01*
X0043170Y0214773D01*
X0043240Y0214988D01*
X0043998Y0213158D01*
X0045600Y0211556D01*
X0045600Y0192908D01*
X0029652Y0176960D01*
X0029571Y0177474D01*
X0029369Y0178096D01*
X0029072Y0178679D01*
X0028687Y0179208D01*
X0028224Y0179671D01*
X0027695Y0180056D01*
X0027112Y0180353D01*
X0026489Y0180555D01*
X0025843Y0180657D01*
X0025803Y0180657D01*
X0025803Y0176787D01*
X0025228Y0176787D01*
X0025228Y0176213D01*
X0021358Y0176213D01*
X0021358Y0176173D01*
X0021461Y0175526D01*
X0021663Y0174904D01*
X0021960Y0174321D01*
X0022345Y0173792D01*
X0022807Y0173329D01*
X0023337Y0172944D01*
X0023920Y0172647D01*
X0024542Y0172445D01*
X0025055Y0172364D01*
X0023618Y0170926D01*
X0023100Y0169676D01*
X0023100Y0163324D01*
X0023618Y0162074D01*
X0023862Y0161830D01*
X0022368Y0161211D01*
X0020804Y0159648D01*
X0019958Y0157605D01*
X0019958Y0155395D01*
X0020804Y0153352D01*
X0022368Y0151789D01*
X0024410Y0150943D01*
X0026621Y0150943D01*
X0028664Y0151789D01*
X0029975Y0153100D01*
X0054939Y0153100D01*
X0054939Y0152380D01*
X0055380Y0151314D01*
X0056196Y0150498D01*
X0057262Y0150057D01*
X0064715Y0150057D01*
X0065781Y0150498D01*
X0066500Y0151218D01*
X0067219Y0150498D01*
X0068285Y0150057D01*
X0068612Y0150057D01*
X0068612Y0138061D01*
X0067380Y0138061D01*
X0066314Y0137620D01*
X0065498Y0136804D01*
X0065057Y0135738D01*
X0065057Y0135369D01*
X0062353Y0135352D01*
X0062353Y0136329D01*
X0061911Y0137395D01*
X0061095Y0138210D01*
X0060030Y0138652D01*
X0052970Y0138652D01*
X0051905Y0138210D01*
X0051089Y0137395D01*
X0050647Y0136329D01*
X0050647Y0135313D01*
X0047353Y0135313D01*
X0047353Y0136329D01*
X0046911Y0137395D01*
X0046095Y0138210D01*
X0045030Y0138652D01*
X0037970Y0138652D01*
X0036905Y0138210D01*
X0036089Y0137395D01*
X0035647Y0136329D01*
X0035647Y0127498D01*
X0036089Y0126432D01*
X0036905Y0125616D01*
X0037154Y0125513D01*
X0037149Y0125504D01*
X0037047Y0125123D01*
X0037047Y0121587D01*
X0041000Y0121587D01*
X0041000Y0120587D01*
X0037047Y0120587D01*
X0037047Y0117051D01*
X0037149Y0116669D01*
X0037347Y0116327D01*
X0037626Y0116048D01*
X0037968Y0115850D01*
X0038350Y0115748D01*
X0041000Y0115748D01*
X0041000Y0120587D01*
X0042000Y0120587D01*
X0042000Y0121587D01*
X0045953Y0121587D01*
X0045953Y0125123D01*
X0045851Y0125504D01*
X0045846Y0125513D01*
X0046095Y0125616D01*
X0046911Y0126432D01*
X0047353Y0127498D01*
X0047353Y0128513D01*
X0050647Y0128513D01*
X0050647Y0127498D01*
X0051089Y0126432D01*
X0051905Y0125616D01*
X0052154Y0125513D01*
X0052149Y0125504D01*
X0052047Y0125123D01*
X0052047Y0121587D01*
X0056000Y0121587D01*
X0056000Y0120587D01*
X0052047Y0120587D01*
X0052047Y0117051D01*
X0052149Y0116669D01*
X0052347Y0116327D01*
X0052626Y0116048D01*
X0052968Y0115850D01*
X0053350Y0115748D01*
X0056000Y0115748D01*
X0056000Y0120587D01*
X0057000Y0120587D01*
X0057000Y0121587D01*
X0060953Y0121587D01*
X0060953Y0125123D01*
X0060851Y0125504D01*
X0060846Y0125513D01*
X0061095Y0125616D01*
X0061911Y0126432D01*
X0062353Y0127498D01*
X0062353Y0128551D01*
X0065057Y0128569D01*
X0065057Y0128285D01*
X0065498Y0127219D01*
X0066314Y0126404D01*
X0067380Y0125962D01*
X0075620Y0125962D01*
X0076686Y0126404D01*
X0077502Y0127219D01*
X0077943Y0128285D01*
X0077943Y0128612D01*
X0080057Y0128612D01*
X0080057Y0128285D01*
X0080498Y0127219D01*
X0081314Y0126404D01*
X0082380Y0125962D01*
X0090620Y0125962D01*
X0091686Y0126404D01*
X0092502Y0127219D01*
X0092943Y0128285D01*
X0092943Y0135738D01*
X0092502Y0136804D01*
X0091686Y0137620D01*
X0090620Y0138061D01*
X0082380Y0138061D01*
X0081314Y0137620D01*
X0080498Y0136804D01*
X0080057Y0135738D01*
X0080057Y0135412D01*
X0077943Y0135412D01*
X0077943Y0135738D01*
X0077502Y0136804D01*
X0076686Y0137620D01*
X0075620Y0138061D01*
X0075412Y0138061D01*
X0075412Y0150057D01*
X0075738Y0150057D01*
X0076804Y0150498D01*
X0077620Y0151314D01*
X0078061Y0152380D01*
X0078061Y0160620D01*
X0077620Y0161686D01*
X0076804Y0162502D01*
X0075738Y0162943D01*
X0075412Y0162943D01*
X0075412Y0170057D01*
X0075738Y0170057D01*
X0076804Y0170498D01*
X0077620Y0171314D01*
X0078061Y0172380D01*
X0078061Y0180620D01*
X0077620Y0181686D01*
X0076804Y0182502D01*
X0075738Y0182943D01*
X0075412Y0182943D01*
X0075412Y0185603D01*
X0077908Y0188100D01*
X0079939Y0188100D01*
X0079939Y0187380D01*
X0080380Y0186314D01*
X0081196Y0185498D01*
X0082262Y0185057D01*
X0089715Y0185057D01*
X0090781Y0185498D01*
X0091500Y0186218D01*
X0092219Y0185498D01*
X0093285Y0185057D01*
X0100738Y0185057D01*
X0101804Y0185498D01*
X0102620Y0186314D01*
X0103061Y0187380D01*
X0103061Y0188100D01*
X0115092Y0188100D01*
X0135501Y0167691D01*
X0135501Y0166864D01*
X0136216Y0165137D01*
X0137538Y0163815D01*
X0139266Y0163099D01*
X0141136Y0163099D01*
X0142863Y0163815D01*
X0143448Y0164399D01*
X0152813Y0164399D01*
X0152813Y0163088D01*
X0153254Y0162023D01*
X0153526Y0161750D01*
X0126058Y0161750D01*
X0125402Y0162406D01*
X0125993Y0162998D01*
X0126800Y0164946D01*
X0126800Y0167054D01*
X0125993Y0169002D01*
X0124502Y0170493D01*
X0122554Y0171300D01*
X0120446Y0171300D01*
X0118498Y0170493D01*
X0117905Y0169900D01*
X0103061Y0169900D01*
X0103061Y0170620D01*
X0102620Y0171686D01*
X0101804Y0172502D01*
X0100738Y0172943D01*
X0093285Y0172943D01*
X0092219Y0172502D01*
X0091404Y0171686D01*
X0090962Y0170620D01*
X0090962Y0162380D01*
X0091404Y0161314D01*
X0092219Y0160498D01*
X0093285Y0160057D01*
X0100738Y0160057D01*
X0101804Y0160498D01*
X0102620Y0161314D01*
X0103061Y0162380D01*
X0103061Y0163100D01*
X0116965Y0163100D01*
X0117007Y0162998D01*
X0118100Y0161905D01*
X0118100Y0160824D01*
X0118618Y0159574D01*
X0119574Y0158618D01*
X0121692Y0156500D01*
X0119574Y0154382D01*
X0118618Y0153426D01*
X0118100Y0152176D01*
X0118100Y0151095D01*
X0117007Y0150002D01*
X0116965Y0149900D01*
X0103061Y0149900D01*
X0103061Y0150620D01*
X0102620Y0151686D01*
X0101804Y0152502D01*
X0100738Y0152943D01*
X0093285Y0152943D01*
X0092219Y0152502D01*
X0091404Y0151686D01*
X0090962Y0150620D01*
X0090962Y0142380D01*
X0091404Y0141314D01*
X0092219Y0140498D01*
X0093285Y0140057D01*
X0100738Y0140057D01*
X0101804Y0140498D01*
X0102620Y0141314D01*
X0103061Y0142380D01*
X0103061Y0143100D01*
X0103024Y0142290D02*
X0119021Y0142290D01*
X0123979Y0142290D02*
X0154116Y0142290D01*
X0153186Y0143289D02*
X0125284Y0143289D01*
X0126113Y0144287D02*
X0152813Y0144287D01*
X0152813Y0145286D02*
X0126527Y0145286D01*
X0126800Y0146284D02*
X0152813Y0146284D01*
X0152813Y0147283D02*
X0126800Y0147283D01*
X0126706Y0148281D02*
X0152813Y0148281D01*
X0152813Y0149280D02*
X0126292Y0149280D01*
X0125717Y0150278D02*
X0152813Y0150278D01*
X0152813Y0151277D02*
X0126085Y0151277D01*
X0120462Y0155271D02*
X0078061Y0155271D01*
X0078061Y0156269D02*
X0121461Y0156269D01*
X0120924Y0157268D02*
X0078061Y0157268D01*
X0078061Y0158266D02*
X0119925Y0158266D01*
X0118927Y0159265D02*
X0078061Y0159265D01*
X0078061Y0160263D02*
X0092787Y0160263D01*
X0091456Y0161262D02*
X0077796Y0161262D01*
X0077046Y0162260D02*
X0081509Y0162260D01*
X0081441Y0162378D02*
X0081638Y0162036D01*
X0081918Y0161756D01*
X0082260Y0161559D01*
X0082641Y0161457D01*
X0085488Y0161457D01*
X0085488Y0166000D01*
X0081339Y0166000D01*
X0081339Y0162759D01*
X0081441Y0162378D01*
X0081339Y0163259D02*
X0075412Y0163259D01*
X0075412Y0164257D02*
X0081339Y0164257D01*
X0081339Y0165256D02*
X0075412Y0165256D01*
X0075412Y0166254D02*
X0085488Y0166254D01*
X0085488Y0166000D02*
X0085488Y0167000D01*
X0081339Y0167000D01*
X0081339Y0170241D01*
X0081441Y0170622D01*
X0081638Y0170964D01*
X0081918Y0171244D01*
X0082260Y0171441D01*
X0082641Y0171543D01*
X0085488Y0171543D01*
X0085488Y0167000D01*
X0086488Y0167000D01*
X0086488Y0171543D01*
X0089335Y0171543D01*
X0089717Y0171441D01*
X0090059Y0171244D01*
X0090338Y0170964D01*
X0090536Y0170622D01*
X0090638Y0170241D01*
X0090638Y0167000D01*
X0086488Y0167000D01*
X0086488Y0166000D01*
X0086488Y0161457D01*
X0089335Y0161457D01*
X0089717Y0161559D01*
X0090059Y0161756D01*
X0090338Y0162036D01*
X0090536Y0162378D01*
X0090638Y0162759D01*
X0090638Y0166000D01*
X0086488Y0166000D01*
X0085488Y0166000D01*
X0085488Y0165256D02*
X0086488Y0165256D01*
X0086488Y0166254D02*
X0090962Y0166254D01*
X0090962Y0165256D02*
X0090638Y0165256D01*
X0090638Y0164257D02*
X0090962Y0164257D01*
X0090962Y0163259D02*
X0090638Y0163259D01*
X0090468Y0162260D02*
X0091012Y0162260D01*
X0086488Y0162260D02*
X0085488Y0162260D01*
X0085488Y0163259D02*
X0086488Y0163259D01*
X0086488Y0164257D02*
X0085488Y0164257D01*
X0085488Y0167253D02*
X0086488Y0167253D01*
X0086488Y0168251D02*
X0085488Y0168251D01*
X0085488Y0169250D02*
X0086488Y0169250D01*
X0086488Y0170248D02*
X0085488Y0170248D01*
X0085488Y0171247D02*
X0086488Y0171247D01*
X0081923Y0171247D02*
X0077553Y0171247D01*
X0078006Y0172245D02*
X0091963Y0172245D01*
X0091222Y0171247D02*
X0090053Y0171247D01*
X0090636Y0170248D02*
X0090962Y0170248D01*
X0090962Y0169250D02*
X0090638Y0169250D01*
X0090638Y0168251D02*
X0090962Y0168251D01*
X0090962Y0167253D02*
X0090638Y0167253D01*
X0097012Y0166500D02*
X0121000Y0166500D01*
X0121500Y0166000D01*
X0121500Y0161500D01*
X0124650Y0158350D01*
X0158665Y0158350D01*
X0153156Y0162260D02*
X0125548Y0162260D01*
X0126101Y0163259D02*
X0138881Y0163259D01*
X0137096Y0164257D02*
X0126515Y0164257D01*
X0126800Y0165256D02*
X0136167Y0165256D01*
X0135753Y0166254D02*
X0126800Y0166254D01*
X0126718Y0167253D02*
X0135501Y0167253D01*
X0134940Y0168251D02*
X0126304Y0168251D01*
X0125745Y0169250D02*
X0133942Y0169250D01*
X0132943Y0170248D02*
X0124747Y0170248D01*
X0122682Y0171247D02*
X0131945Y0171247D01*
X0130946Y0172245D02*
X0102060Y0172245D01*
X0102802Y0171247D02*
X0120318Y0171247D01*
X0118253Y0170248D02*
X0103061Y0170248D01*
X0103012Y0162260D02*
X0117744Y0162260D01*
X0118100Y0161262D02*
X0102568Y0161262D01*
X0101237Y0160263D02*
X0118332Y0160263D01*
X0119464Y0154272D02*
X0078061Y0154272D01*
X0078061Y0153274D02*
X0118555Y0153274D01*
X0118141Y0152275D02*
X0102031Y0152275D01*
X0102789Y0151277D02*
X0118100Y0151277D01*
X0117283Y0150278D02*
X0103061Y0150278D01*
X0091993Y0152275D02*
X0078018Y0152275D01*
X0077583Y0151277D02*
X0081975Y0151277D01*
X0081918Y0151244D02*
X0081638Y0150964D01*
X0081441Y0150622D01*
X0081339Y0150241D01*
X0081339Y0147000D01*
X0085488Y0147000D01*
X0085488Y0146000D01*
X0081339Y0146000D01*
X0081339Y0142759D01*
X0081441Y0142378D01*
X0081638Y0142036D01*
X0081918Y0141756D01*
X0082260Y0141559D01*
X0082641Y0141457D01*
X0085488Y0141457D01*
X0085488Y0146000D01*
X0086488Y0146000D01*
X0086488Y0141457D01*
X0089335Y0141457D01*
X0089717Y0141559D01*
X0090059Y0141756D01*
X0090338Y0142036D01*
X0090536Y0142378D01*
X0090638Y0142759D01*
X0090638Y0146000D01*
X0086488Y0146000D01*
X0086488Y0147000D01*
X0085488Y0147000D01*
X0085488Y0151543D01*
X0082641Y0151543D01*
X0082260Y0151441D01*
X0081918Y0151244D01*
X0081349Y0150278D02*
X0076273Y0150278D01*
X0075412Y0149280D02*
X0081339Y0149280D01*
X0081339Y0148281D02*
X0075412Y0148281D01*
X0075412Y0147283D02*
X0081339Y0147283D01*
X0081339Y0145286D02*
X0075412Y0145286D01*
X0075412Y0146284D02*
X0085488Y0146284D01*
X0085488Y0145286D02*
X0086488Y0145286D01*
X0086488Y0146284D02*
X0090962Y0146284D01*
X0090638Y0147000D02*
X0090638Y0150241D01*
X0090536Y0150622D01*
X0090338Y0150964D01*
X0090059Y0151244D01*
X0089717Y0151441D01*
X0089335Y0151543D01*
X0086488Y0151543D01*
X0086488Y0147000D01*
X0090638Y0147000D01*
X0090638Y0147283D02*
X0090962Y0147283D01*
X0090962Y0148281D02*
X0090638Y0148281D01*
X0090638Y0149280D02*
X0090962Y0149280D01*
X0090962Y0150278D02*
X0090628Y0150278D01*
X0091234Y0151277D02*
X0090001Y0151277D01*
X0086488Y0151277D02*
X0085488Y0151277D01*
X0085488Y0150278D02*
X0086488Y0150278D01*
X0086488Y0149280D02*
X0085488Y0149280D01*
X0085488Y0148281D02*
X0086488Y0148281D01*
X0086488Y0147283D02*
X0085488Y0147283D01*
X0085488Y0144287D02*
X0086488Y0144287D01*
X0086488Y0143289D02*
X0085488Y0143289D01*
X0085488Y0142290D02*
X0086488Y0142290D01*
X0081491Y0142290D02*
X0075412Y0142290D01*
X0075412Y0141292D02*
X0091426Y0141292D01*
X0090999Y0142290D02*
X0090485Y0142290D01*
X0090638Y0143289D02*
X0090962Y0143289D01*
X0090962Y0144287D02*
X0090638Y0144287D01*
X0090638Y0145286D02*
X0090962Y0145286D01*
X0092715Y0140293D02*
X0075412Y0140293D01*
X0075412Y0139295D02*
X0161868Y0139295D01*
X0161868Y0140293D02*
X0101309Y0140293D01*
X0102598Y0141292D02*
X0161868Y0141292D01*
X0161868Y0138296D02*
X0075412Y0138296D01*
X0077008Y0137298D02*
X0080992Y0137298D01*
X0080289Y0136299D02*
X0077711Y0136299D01*
X0072012Y0132524D02*
X0071500Y0132012D01*
X0071598Y0132012D01*
X0056500Y0131913D01*
X0041500Y0131913D01*
X0035647Y0132305D02*
X0004000Y0132305D01*
X0004000Y0133303D02*
X0035647Y0133303D01*
X0035647Y0134302D02*
X0004000Y0134302D01*
X0004000Y0135301D02*
X0035647Y0135301D01*
X0035647Y0136299D02*
X0004000Y0136299D01*
X0004000Y0137298D02*
X0036049Y0137298D01*
X0037111Y0138296D02*
X0004000Y0138296D01*
X0004000Y0139295D02*
X0068612Y0139295D01*
X0068612Y0140293D02*
X0004000Y0140293D01*
X0004000Y0141292D02*
X0068612Y0141292D01*
X0068612Y0142290D02*
X0004000Y0142290D01*
X0004000Y0143289D02*
X0068612Y0143289D01*
X0068612Y0144287D02*
X0004000Y0144287D01*
X0004000Y0145286D02*
X0068612Y0145286D01*
X0068612Y0146284D02*
X0004000Y0146284D01*
X0004000Y0147283D02*
X0068612Y0147283D01*
X0068612Y0148281D02*
X0004000Y0148281D01*
X0004000Y0149280D02*
X0068612Y0149280D01*
X0067751Y0150278D02*
X0065249Y0150278D01*
X0056727Y0150278D02*
X0004000Y0150278D01*
X0004000Y0151277D02*
X0023604Y0151277D01*
X0021881Y0152275D02*
X0004000Y0152275D01*
X0004000Y0153274D02*
X0020883Y0153274D01*
X0020423Y0154272D02*
X0004000Y0154272D01*
X0004000Y0155271D02*
X0020010Y0155271D01*
X0019958Y0156269D02*
X0004000Y0156269D01*
X0004000Y0157268D02*
X0019958Y0157268D01*
X0020232Y0158266D02*
X0004000Y0158266D01*
X0004000Y0159265D02*
X0020646Y0159265D01*
X0021420Y0160263D02*
X0004000Y0160263D01*
X0004000Y0161262D02*
X0022489Y0161262D01*
X0023540Y0162260D02*
X0004000Y0162260D01*
X0004000Y0163259D02*
X0023127Y0163259D01*
X0023100Y0164257D02*
X0004000Y0164257D01*
X0004000Y0165256D02*
X0023100Y0165256D01*
X0023100Y0166254D02*
X0004000Y0166254D01*
X0004000Y0167253D02*
X0023100Y0167253D01*
X0023100Y0168251D02*
X0004000Y0168251D01*
X0004000Y0169250D02*
X0023100Y0169250D01*
X0023337Y0170248D02*
X0004000Y0170248D01*
X0004000Y0171247D02*
X0023939Y0171247D01*
X0024937Y0172245D02*
X0004000Y0172245D01*
X0004000Y0173244D02*
X0022924Y0173244D01*
X0022017Y0174242D02*
X0004000Y0174242D01*
X0004000Y0175241D02*
X0021553Y0175241D01*
X0021358Y0176787D02*
X0025228Y0176787D01*
X0025228Y0180657D01*
X0025189Y0180657D01*
X0024542Y0180555D01*
X0023920Y0180353D01*
X0023337Y0180056D01*
X0022807Y0179671D01*
X0022345Y0179208D01*
X0021960Y0178679D01*
X0021663Y0178096D01*
X0021461Y0177474D01*
X0021358Y0176827D01*
X0021358Y0176787D01*
X0021423Y0177238D02*
X0004000Y0177238D01*
X0004000Y0178237D02*
X0021734Y0178237D01*
X0022371Y0179235D02*
X0004000Y0179235D01*
X0004000Y0180234D02*
X0023686Y0180234D01*
X0025228Y0180234D02*
X0025803Y0180234D01*
X0025803Y0179235D02*
X0025228Y0179235D01*
X0025228Y0178237D02*
X0025803Y0178237D01*
X0025803Y0177238D02*
X0025228Y0177238D01*
X0025228Y0176239D02*
X0004000Y0176239D01*
X0004000Y0181232D02*
X0033924Y0181232D01*
X0034922Y0182231D02*
X0004000Y0182231D01*
X0004000Y0183229D02*
X0035921Y0183229D01*
X0036919Y0184228D02*
X0004000Y0184228D01*
X0004000Y0185226D02*
X0037918Y0185226D01*
X0038916Y0186225D02*
X0004000Y0186225D01*
X0004000Y0187223D02*
X0039915Y0187223D01*
X0040913Y0188222D02*
X0004000Y0188222D01*
X0004000Y0189220D02*
X0041912Y0189220D01*
X0042910Y0190219D02*
X0004000Y0190219D01*
X0004000Y0191217D02*
X0043909Y0191217D01*
X0044907Y0192216D02*
X0004000Y0192216D01*
X0004000Y0193214D02*
X0045600Y0193214D01*
X0045600Y0194213D02*
X0004000Y0194213D01*
X0004000Y0195211D02*
X0045600Y0195211D01*
X0045600Y0196210D02*
X0004000Y0196210D01*
X0004000Y0197208D02*
X0045600Y0197208D01*
X0045600Y0198207D02*
X0004000Y0198207D01*
X0004000Y0199205D02*
X0045600Y0199205D01*
X0045600Y0200204D02*
X0004000Y0200204D01*
X0004000Y0201202D02*
X0045600Y0201202D01*
X0045600Y0202201D02*
X0019568Y0202201D01*
X0022968Y0203199D02*
X0045600Y0203199D01*
X0045600Y0204198D02*
X0025229Y0204198D01*
X0024270Y0203581D02*
X0024270Y0203581D01*
X0026783Y0205196D02*
X0045600Y0205196D01*
X0045600Y0206195D02*
X0028336Y0206195D01*
X0029256Y0207193D02*
X0045600Y0207193D01*
X0045600Y0208192D02*
X0030122Y0208192D01*
X0030987Y0209190D02*
X0045600Y0209190D01*
X0045600Y0210189D02*
X0031790Y0210189D01*
X0031722Y0210039D02*
X0031722Y0210039D01*
X0032246Y0211187D02*
X0045600Y0211187D01*
X0044970Y0212186D02*
X0040285Y0212186D01*
X0039500Y0212186D02*
X0038500Y0212186D01*
X0038500Y0212023D02*
X0038500Y0219000D01*
X0034500Y0219000D01*
X0034500Y0216146D01*
X0034611Y0215446D01*
X0034830Y0214773D01*
X0035151Y0214141D01*
X0035568Y0213568D01*
X0036068Y0213068D01*
X0036641Y0212651D01*
X0037273Y0212330D01*
X0037946Y0212111D01*
X0038500Y0212023D01*
X0037715Y0212186D02*
X0032702Y0212186D01*
X0033158Y0213184D02*
X0035952Y0213184D01*
X0035130Y0214183D02*
X0033614Y0214183D01*
X0033791Y0214570D02*
X0033791Y0214570D01*
X0033879Y0215181D02*
X0034697Y0215181D01*
X0034500Y0216180D02*
X0034023Y0216180D01*
X0034166Y0217178D02*
X0034500Y0217178D01*
X0034500Y0218177D02*
X0034310Y0218177D01*
X0034453Y0219175D02*
X0038500Y0219175D01*
X0038500Y0218177D02*
X0039500Y0218177D01*
X0039500Y0217178D02*
X0038500Y0217178D01*
X0038500Y0216180D02*
X0039500Y0216180D01*
X0039500Y0215181D02*
X0038500Y0215181D01*
X0038500Y0214183D02*
X0039500Y0214183D01*
X0039500Y0213184D02*
X0038500Y0213184D01*
X0042048Y0213184D02*
X0043987Y0213184D01*
X0043574Y0214183D02*
X0042870Y0214183D01*
X0049000Y0219500D02*
X0049000Y0191500D01*
X0026500Y0169000D01*
X0026500Y0164000D01*
X0031500Y0159000D01*
X0041500Y0159000D01*
X0049000Y0166500D01*
X0072012Y0166500D01*
X0072012Y0176500D01*
X0072012Y0187012D01*
X0076500Y0191500D01*
X0085988Y0191500D01*
X0080003Y0187223D02*
X0077031Y0187223D01*
X0076033Y0186225D02*
X0080469Y0186225D01*
X0081853Y0185226D02*
X0075412Y0185226D01*
X0075412Y0184228D02*
X0118964Y0184228D01*
X0117966Y0185226D02*
X0101147Y0185226D01*
X0102531Y0186225D02*
X0116967Y0186225D01*
X0115969Y0187223D02*
X0102996Y0187223D01*
X0097012Y0191500D02*
X0109000Y0191500D01*
X0109000Y0201500D01*
X0116500Y0201500D02*
X0116500Y0196500D01*
X0119000Y0194000D01*
X0121500Y0194000D01*
X0144551Y0170949D01*
X0158665Y0170949D01*
X0158665Y0174098D02*
X0146402Y0174098D01*
X0124000Y0196500D01*
X0124000Y0201500D01*
X0131500Y0201500D02*
X0131500Y0194000D01*
X0148252Y0177248D01*
X0158665Y0177248D01*
X0164518Y0177238D02*
X0181250Y0177238D01*
X0181250Y0178237D02*
X0164518Y0178237D01*
X0164518Y0178482D02*
X0167313Y0178482D01*
X0167327Y0178488D01*
X0167340Y0178482D01*
X0170463Y0178482D01*
X0170476Y0178488D01*
X0170490Y0178482D01*
X0173612Y0178482D01*
X0173626Y0178488D01*
X0173640Y0178482D01*
X0176762Y0178482D01*
X0176776Y0178488D01*
X0176789Y0178482D01*
X0179911Y0178482D01*
X0180977Y0178923D01*
X0181250Y0179196D01*
X0181250Y0176058D01*
X0180092Y0174900D01*
X0170824Y0174900D01*
X0169574Y0174382D01*
X0168618Y0173426D01*
X0164518Y0169326D01*
X0164518Y0169360D01*
X0164512Y0169374D01*
X0164518Y0169388D01*
X0164518Y0172510D01*
X0164512Y0172524D01*
X0164518Y0172537D01*
X0164518Y0175660D01*
X0164512Y0175673D01*
X0164518Y0175687D01*
X0164518Y0178482D01*
X0164518Y0176239D02*
X0181250Y0176239D01*
X0180433Y0175241D02*
X0164518Y0175241D01*
X0164518Y0174242D02*
X0169434Y0174242D01*
X0168436Y0173244D02*
X0164518Y0173244D01*
X0164518Y0172245D02*
X0167437Y0172245D01*
X0166439Y0171247D02*
X0164518Y0171247D01*
X0164518Y0170248D02*
X0165440Y0170248D01*
X0164650Y0164650D02*
X0158665Y0164650D01*
X0158665Y0167799D02*
X0140201Y0167799D01*
X0116500Y0191500D01*
X0109000Y0191500D01*
X0119963Y0183229D02*
X0075412Y0183229D01*
X0077075Y0182231D02*
X0120961Y0182231D01*
X0121960Y0181232D02*
X0077808Y0181232D01*
X0078061Y0180234D02*
X0122958Y0180234D01*
X0123957Y0179235D02*
X0078061Y0179235D01*
X0078061Y0178237D02*
X0124955Y0178237D01*
X0125954Y0177238D02*
X0078061Y0177238D01*
X0078061Y0176239D02*
X0126952Y0176239D01*
X0127951Y0175241D02*
X0078061Y0175241D01*
X0078061Y0174242D02*
X0128949Y0174242D01*
X0129948Y0173244D02*
X0078061Y0173244D01*
X0076201Y0170248D02*
X0081341Y0170248D01*
X0081339Y0169250D02*
X0075412Y0169250D01*
X0075412Y0168251D02*
X0081339Y0168251D01*
X0081339Y0167253D02*
X0075412Y0167253D01*
X0072012Y0166500D02*
X0072012Y0156500D01*
X0072012Y0132524D01*
X0071500Y0132012D02*
X0086500Y0132012D01*
X0080057Y0128311D02*
X0077943Y0128311D01*
X0077540Y0127312D02*
X0080460Y0127312D01*
X0081531Y0126314D02*
X0076469Y0126314D01*
X0075964Y0125338D02*
X0075622Y0125536D01*
X0075241Y0125638D01*
X0072000Y0125638D01*
X0072000Y0121488D01*
X0076543Y0121488D01*
X0076543Y0124335D01*
X0076441Y0124717D01*
X0076244Y0125059D01*
X0075964Y0125338D01*
X0075987Y0125315D02*
X0082013Y0125315D01*
X0082036Y0125338D02*
X0081756Y0125059D01*
X0081559Y0124717D01*
X0081457Y0124335D01*
X0081457Y0121488D01*
X0086000Y0121488D01*
X0086000Y0120488D01*
X0087000Y0120488D01*
X0087000Y0116339D01*
X0090241Y0116339D01*
X0090622Y0116441D01*
X0090964Y0116638D01*
X0091244Y0116918D01*
X0091441Y0117260D01*
X0091543Y0117641D01*
X0091543Y0120488D01*
X0087000Y0120488D01*
X0087000Y0121488D01*
X0091543Y0121488D01*
X0091543Y0124335D01*
X0091441Y0124717D01*
X0091244Y0125059D01*
X0090964Y0125338D01*
X0090622Y0125536D01*
X0090241Y0125638D01*
X0087000Y0125638D01*
X0087000Y0121488D01*
X0086000Y0121488D01*
X0086000Y0125638D01*
X0082759Y0125638D01*
X0082378Y0125536D01*
X0082036Y0125338D01*
X0081457Y0124317D02*
X0076543Y0124317D01*
X0076543Y0123318D02*
X0081457Y0123318D01*
X0081457Y0122320D02*
X0076543Y0122320D01*
X0076543Y0120488D02*
X0072000Y0120488D01*
X0072000Y0116339D01*
X0075241Y0116339D01*
X0075622Y0116441D01*
X0075964Y0116638D01*
X0076244Y0116918D01*
X0076441Y0117260D01*
X0076543Y0117641D01*
X0076543Y0120488D01*
X0076543Y0120323D02*
X0081457Y0120323D01*
X0081457Y0120488D02*
X0081457Y0117641D01*
X0081559Y0117260D01*
X0081756Y0116918D01*
X0082036Y0116638D01*
X0082378Y0116441D01*
X0082759Y0116339D01*
X0086000Y0116339D01*
X0086000Y0120488D01*
X0081457Y0120488D01*
X0081457Y0119324D02*
X0076543Y0119324D01*
X0076543Y0118326D02*
X0081457Y0118326D01*
X0081541Y0117327D02*
X0076459Y0117327D01*
X0072000Y0117327D02*
X0071000Y0117327D01*
X0071000Y0116339D02*
X0071000Y0120488D01*
X0072000Y0120488D01*
X0072000Y0121488D01*
X0071000Y0121488D01*
X0071000Y0120488D01*
X0066457Y0120488D01*
X0066457Y0117641D01*
X0066559Y0117260D01*
X0066756Y0116918D01*
X0067036Y0116638D01*
X0067378Y0116441D01*
X0067759Y0116339D01*
X0071000Y0116339D01*
X0071000Y0118326D02*
X0072000Y0118326D01*
X0072000Y0119324D02*
X0071000Y0119324D01*
X0071000Y0120323D02*
X0072000Y0120323D01*
X0072000Y0121321D02*
X0086000Y0121321D01*
X0086000Y0120323D02*
X0087000Y0120323D01*
X0087000Y0121321D02*
X0131631Y0121321D01*
X0131631Y0121764D02*
X0131631Y0112736D01*
X0132073Y0111670D01*
X0132889Y0110854D01*
X0133955Y0110413D01*
X0139045Y0110413D01*
X0140111Y0110854D01*
X0140927Y0111670D01*
X0141368Y0112736D01*
X0141368Y0121764D01*
X0140927Y0122830D01*
X0140111Y0123645D01*
X0139045Y0124087D01*
X0133955Y0124087D01*
X0132889Y0123645D01*
X0132073Y0122830D01*
X0131631Y0121764D01*
X0131862Y0122320D02*
X0091543Y0122320D01*
X0091543Y0123318D02*
X0132562Y0123318D01*
X0131631Y0120323D02*
X0091543Y0120323D01*
X0091543Y0119324D02*
X0131631Y0119324D01*
X0131631Y0118326D02*
X0091543Y0118326D01*
X0091459Y0117327D02*
X0131631Y0117327D01*
X0131631Y0116329D02*
X0060654Y0116329D01*
X0060653Y0116327D02*
X0060851Y0116669D01*
X0060953Y0117051D01*
X0060953Y0120587D01*
X0057000Y0120587D01*
X0057000Y0115748D01*
X0059650Y0115748D01*
X0060032Y0115850D01*
X0060374Y0116048D01*
X0060653Y0116327D01*
X0060953Y0117327D02*
X0066541Y0117327D01*
X0066457Y0118326D02*
X0060953Y0118326D01*
X0060953Y0119324D02*
X0066457Y0119324D01*
X0066457Y0120323D02*
X0060953Y0120323D01*
X0060953Y0122320D02*
X0066457Y0122320D01*
X0066457Y0121488D02*
X0071000Y0121488D01*
X0071000Y0125638D01*
X0067759Y0125638D01*
X0067378Y0125536D01*
X0067036Y0125338D01*
X0066756Y0125059D01*
X0066559Y0124717D01*
X0066457Y0124335D01*
X0066457Y0121488D01*
X0066457Y0123318D02*
X0060953Y0123318D01*
X0060953Y0124317D02*
X0066457Y0124317D01*
X0067013Y0125315D02*
X0060901Y0125315D01*
X0061793Y0126314D02*
X0066531Y0126314D01*
X0065460Y0127312D02*
X0062276Y0127312D01*
X0062353Y0128311D02*
X0065057Y0128311D01*
X0071000Y0125315D02*
X0072000Y0125315D01*
X0072000Y0124317D02*
X0071000Y0124317D01*
X0071000Y0123318D02*
X0072000Y0123318D01*
X0072000Y0122320D02*
X0071000Y0122320D01*
X0071000Y0121321D02*
X0057000Y0121321D01*
X0057000Y0120323D02*
X0056000Y0120323D01*
X0056000Y0121321D02*
X0042000Y0121321D01*
X0042000Y0120587D02*
X0045953Y0120587D01*
X0045953Y0117051D01*
X0045851Y0116669D01*
X0045653Y0116327D01*
X0045374Y0116048D01*
X0045032Y0115850D01*
X0044650Y0115748D01*
X0042000Y0115748D01*
X0042000Y0120587D01*
X0042000Y0120323D02*
X0041000Y0120323D01*
X0041000Y0121321D02*
X0004000Y0121321D01*
X0004000Y0120323D02*
X0037047Y0120323D01*
X0037047Y0119324D02*
X0004000Y0119324D01*
X0004000Y0118326D02*
X0037047Y0118326D01*
X0037047Y0117327D02*
X0004000Y0117327D01*
X0004000Y0116329D02*
X0037346Y0116329D01*
X0041000Y0116329D02*
X0042000Y0116329D01*
X0042000Y0117327D02*
X0041000Y0117327D01*
X0041000Y0118326D02*
X0042000Y0118326D01*
X0042000Y0119324D02*
X0041000Y0119324D01*
X0045953Y0119324D02*
X0052047Y0119324D01*
X0052047Y0118326D02*
X0045953Y0118326D01*
X0045953Y0117327D02*
X0052047Y0117327D01*
X0052346Y0116329D02*
X0045654Y0116329D01*
X0045953Y0120323D02*
X0052047Y0120323D01*
X0052047Y0122320D02*
X0045953Y0122320D01*
X0045953Y0123318D02*
X0052047Y0123318D01*
X0052047Y0124317D02*
X0045953Y0124317D01*
X0045901Y0125315D02*
X0052099Y0125315D01*
X0051207Y0126314D02*
X0046793Y0126314D01*
X0047276Y0127312D02*
X0050724Y0127312D01*
X0050647Y0128311D02*
X0047353Y0128311D01*
X0047353Y0136299D02*
X0050647Y0136299D01*
X0051049Y0137298D02*
X0046951Y0137298D01*
X0045889Y0138296D02*
X0052111Y0138296D01*
X0060889Y0138296D02*
X0068612Y0138296D01*
X0065992Y0137298D02*
X0061951Y0137298D01*
X0062353Y0136299D02*
X0065289Y0136299D01*
X0075412Y0143289D02*
X0081339Y0143289D01*
X0081339Y0144287D02*
X0075412Y0144287D01*
X0092008Y0137298D02*
X0161868Y0137298D01*
X0161868Y0136299D02*
X0092711Y0136299D01*
X0092943Y0135301D02*
X0161868Y0135301D01*
X0159494Y0134302D02*
X0092943Y0134302D01*
X0092943Y0133303D02*
X0158495Y0133303D01*
X0157497Y0132305D02*
X0092943Y0132305D01*
X0092943Y0131306D02*
X0156498Y0131306D01*
X0155500Y0130308D02*
X0092943Y0130308D01*
X0092943Y0129309D02*
X0154501Y0129309D01*
X0153503Y0128311D02*
X0092943Y0128311D01*
X0092540Y0127312D02*
X0153087Y0127312D01*
X0152982Y0126314D02*
X0091469Y0126314D01*
X0090987Y0125315D02*
X0152982Y0125315D01*
X0152982Y0124317D02*
X0091543Y0124317D01*
X0087000Y0124317D02*
X0086000Y0124317D01*
X0086000Y0125315D02*
X0087000Y0125315D01*
X0087000Y0123318D02*
X0086000Y0123318D01*
X0086000Y0122320D02*
X0087000Y0122320D01*
X0087000Y0119324D02*
X0086000Y0119324D01*
X0086000Y0118326D02*
X0087000Y0118326D01*
X0087000Y0117327D02*
X0086000Y0117327D01*
X0086000Y0106661D02*
X0082759Y0106661D01*
X0082378Y0106559D01*
X0082036Y0106362D01*
X0081756Y0106082D01*
X0081559Y0105740D01*
X0081457Y0105359D01*
X0081457Y0102512D01*
X0086000Y0102512D01*
X0086000Y0106661D01*
X0086000Y0106344D02*
X0087000Y0106344D01*
X0087000Y0106661D02*
X0087000Y0102512D01*
X0086000Y0102512D01*
X0086000Y0101512D01*
X0081457Y0101512D01*
X0081457Y0098665D01*
X0081559Y0098283D01*
X0081756Y0097941D01*
X0082036Y0097662D01*
X0082378Y0097464D01*
X0082759Y0097362D01*
X0086000Y0097362D01*
X0086000Y0101512D01*
X0087000Y0101512D01*
X0087000Y0102512D01*
X0091543Y0102512D01*
X0091543Y0105359D01*
X0091441Y0105740D01*
X0091244Y0106082D01*
X0090964Y0106362D01*
X0090622Y0106559D01*
X0090241Y0106661D01*
X0087000Y0106661D01*
X0087000Y0105345D02*
X0086000Y0105345D01*
X0086000Y0104347D02*
X0087000Y0104347D01*
X0087000Y0103348D02*
X0086000Y0103348D01*
X0086000Y0102350D02*
X0072000Y0102350D01*
X0072000Y0102512D02*
X0076543Y0102512D01*
X0076543Y0105359D01*
X0076441Y0105740D01*
X0076244Y0106082D01*
X0075964Y0106362D01*
X0075622Y0106559D01*
X0075241Y0106661D01*
X0072000Y0106661D01*
X0072000Y0102512D01*
X0071000Y0102512D01*
X0071000Y0106661D01*
X0067759Y0106661D01*
X0067378Y0106559D01*
X0067036Y0106362D01*
X0066756Y0106082D01*
X0066559Y0105740D01*
X0066457Y0105359D01*
X0066457Y0102512D01*
X0071000Y0102512D01*
X0071000Y0101512D01*
X0066457Y0101512D01*
X0066457Y0098665D01*
X0066559Y0098283D01*
X0066756Y0097941D01*
X0067036Y0097662D01*
X0067378Y0097464D01*
X0067759Y0097362D01*
X0071000Y0097362D01*
X0071000Y0101512D01*
X0072000Y0101512D01*
X0072000Y0102512D01*
X0072000Y0103348D02*
X0071000Y0103348D01*
X0071000Y0102350D02*
X0057000Y0102350D01*
X0057000Y0102512D02*
X0061543Y0102512D01*
X0061543Y0105359D01*
X0061441Y0105740D01*
X0061244Y0106082D01*
X0060964Y0106362D01*
X0060622Y0106559D01*
X0060241Y0106661D01*
X0057000Y0106661D01*
X0057000Y0102512D01*
X0056000Y0102512D01*
X0056000Y0106661D01*
X0052759Y0106661D01*
X0052378Y0106559D01*
X0052036Y0106362D01*
X0051756Y0106082D01*
X0051559Y0105740D01*
X0051457Y0105359D01*
X0051457Y0102512D01*
X0056000Y0102512D01*
X0056000Y0101512D01*
X0051457Y0101512D01*
X0051457Y0098665D01*
X0051559Y0098283D01*
X0051756Y0097941D01*
X0052036Y0097662D01*
X0052378Y0097464D01*
X0052759Y0097362D01*
X0056000Y0097362D01*
X0056000Y0101512D01*
X0057000Y0101512D01*
X0057000Y0102512D01*
X0057000Y0103348D02*
X0056000Y0103348D01*
X0056000Y0102350D02*
X0042000Y0102350D01*
X0042000Y0102512D02*
X0046543Y0102512D01*
X0046543Y0105359D01*
X0046441Y0105740D01*
X0046244Y0106082D01*
X0045964Y0106362D01*
X0045622Y0106559D01*
X0045241Y0106661D01*
X0042000Y0106661D01*
X0042000Y0102512D01*
X0041000Y0102512D01*
X0041000Y0106661D01*
X0037759Y0106661D01*
X0037378Y0106559D01*
X0037036Y0106362D01*
X0036756Y0106082D01*
X0036559Y0105740D01*
X0036457Y0105359D01*
X0036457Y0102512D01*
X0041000Y0102512D01*
X0041000Y0101512D01*
X0036457Y0101512D01*
X0036457Y0098665D01*
X0036559Y0098283D01*
X0036756Y0097941D01*
X0037036Y0097662D01*
X0037378Y0097464D01*
X0037759Y0097362D01*
X0041000Y0097362D01*
X0041000Y0101512D01*
X0042000Y0101512D01*
X0042000Y0102512D01*
X0042000Y0103348D02*
X0041000Y0103348D01*
X0041000Y0102350D02*
X0033803Y0102350D01*
X0033946Y0101351D02*
X0036457Y0101351D01*
X0036457Y0100353D02*
X0034090Y0100353D01*
X0034233Y0099354D02*
X0036457Y0099354D01*
X0036540Y0098356D02*
X0034377Y0098356D01*
X0034479Y0097357D02*
X0167100Y0097357D01*
X0167100Y0096359D02*
X0121924Y0096359D01*
X0121686Y0096596D02*
X0120620Y0097038D01*
X0112380Y0097038D01*
X0111314Y0096596D01*
X0110498Y0095781D01*
X0110057Y0094715D01*
X0110057Y0087262D01*
X0110498Y0086196D01*
X0111314Y0085380D01*
X0112380Y0084939D01*
X0113100Y0084939D01*
X0113100Y0083324D01*
X0113483Y0082400D01*
X0112908Y0082400D01*
X0110926Y0084382D01*
X0109676Y0084900D01*
X0105408Y0084900D01*
X0105370Y0084939D01*
X0105620Y0084939D01*
X0106686Y0085380D01*
X0107502Y0086196D01*
X0107943Y0087262D01*
X0107943Y0094715D01*
X0107502Y0095781D01*
X0106686Y0096596D01*
X0105620Y0097038D01*
X0097380Y0097038D01*
X0096314Y0096596D01*
X0095498Y0095781D01*
X0095057Y0094715D01*
X0095057Y0087262D01*
X0095498Y0086196D01*
X0096314Y0085380D01*
X0097380Y0084939D01*
X0098100Y0084939D01*
X0098100Y0083324D01*
X0098483Y0082400D01*
X0092908Y0082400D01*
X0090370Y0084939D01*
X0090620Y0084939D01*
X0091686Y0085380D01*
X0092502Y0086196D01*
X0092943Y0087262D01*
X0092943Y0094715D01*
X0092502Y0095781D01*
X0091686Y0096596D01*
X0090620Y0097038D01*
X0082380Y0097038D01*
X0081314Y0096596D01*
X0080498Y0095781D01*
X0080057Y0094715D01*
X0080057Y0087262D01*
X0080498Y0086196D01*
X0081314Y0085380D01*
X0082380Y0084939D01*
X0083100Y0084939D01*
X0083100Y0083324D01*
X0083618Y0082074D01*
X0085792Y0079900D01*
X0080408Y0079900D01*
X0075370Y0084939D01*
X0075620Y0084939D01*
X0076686Y0085380D01*
X0077502Y0086196D01*
X0077943Y0087262D01*
X0077943Y0094715D01*
X0077502Y0095781D01*
X0076686Y0096596D01*
X0075620Y0097038D01*
X0067380Y0097038D01*
X0066314Y0096596D01*
X0065498Y0095781D01*
X0065057Y0094715D01*
X0065057Y0087262D01*
X0065498Y0086196D01*
X0066314Y0085380D01*
X0067380Y0084939D01*
X0068100Y0084939D01*
X0068100Y0083324D01*
X0068618Y0082074D01*
X0075813Y0074879D01*
X0075246Y0074789D01*
X0074573Y0074570D01*
X0073941Y0074249D01*
X0073368Y0073832D01*
X0072868Y0073332D01*
X0072451Y0072759D01*
X0072130Y0072127D01*
X0071911Y0071454D01*
X0071823Y0070900D01*
X0078800Y0070900D01*
X0078800Y0069900D01*
X0079800Y0069900D01*
X0079800Y0070900D01*
X0093200Y0070900D01*
X0093200Y0069900D01*
X0094200Y0069900D01*
X0094200Y0070900D01*
X0101177Y0070900D01*
X0101089Y0071454D01*
X0100870Y0072127D01*
X0100549Y0072759D01*
X0100301Y0073100D01*
X0102592Y0073100D01*
X0103100Y0072592D01*
X0103100Y0056000D01*
X0101644Y0056000D01*
X0100042Y0057602D01*
X0097874Y0058500D01*
X0089526Y0058500D01*
X0087358Y0057602D01*
X0086500Y0056744D01*
X0085642Y0057602D01*
X0083474Y0058500D01*
X0075126Y0058500D01*
X0072958Y0057602D01*
X0071356Y0056000D01*
X0069900Y0056000D01*
X0069900Y0074676D01*
X0069382Y0075926D01*
X0068426Y0076882D01*
X0060370Y0084939D01*
X0060620Y0084939D01*
X0061686Y0085380D01*
X0062502Y0086196D01*
X0062943Y0087262D01*
X0062943Y0094715D01*
X0062502Y0095781D01*
X0061686Y0096596D01*
X0060620Y0097038D01*
X0052380Y0097038D01*
X0051314Y0096596D01*
X0050498Y0095781D01*
X0050057Y0094715D01*
X0050057Y0087262D01*
X0050498Y0086196D01*
X0051314Y0085380D01*
X0052380Y0084939D01*
X0053100Y0084939D01*
X0053100Y0083324D01*
X0053618Y0082074D01*
X0063100Y0072592D01*
X0063100Y0056000D01*
X0061644Y0056000D01*
X0060042Y0057602D01*
X0057874Y0058500D01*
X0049526Y0058500D01*
X0047358Y0057602D01*
X0046500Y0056744D01*
X0045642Y0057602D01*
X0043474Y0058500D01*
X0035126Y0058500D01*
X0032958Y0057602D01*
X0031356Y0056000D01*
X0029900Y0056000D01*
X0029900Y0067592D01*
X0031876Y0069567D01*
X0031911Y0069346D01*
X0032130Y0068673D01*
X0032451Y0068041D01*
X0032868Y0067468D01*
X0033368Y0066968D01*
X0033941Y0066551D01*
X0034573Y0066230D01*
X0035246Y0066011D01*
X0035946Y0065900D01*
X0038800Y0065900D01*
X0038800Y0069900D01*
X0039800Y0069900D01*
X0039800Y0070900D01*
X0038800Y0070900D01*
X0038800Y0074900D01*
X0037208Y0074900D01*
X0044382Y0082074D01*
X0044900Y0083324D01*
X0044900Y0084939D01*
X0045620Y0084939D01*
X0046686Y0085380D01*
X0047502Y0086196D01*
X0047943Y0087262D01*
X0047943Y0094715D01*
X0047502Y0095781D01*
X0046686Y0096596D01*
X0045620Y0097038D01*
X0037380Y0097038D01*
X0036314Y0096596D01*
X0035498Y0095781D01*
X0035057Y0094715D01*
X0035057Y0087262D01*
X0035498Y0086196D01*
X0036314Y0085380D01*
X0037380Y0084939D01*
X0037630Y0084939D01*
X0023618Y0070926D01*
X0023100Y0069676D01*
X0023100Y0056000D01*
X0021644Y0056000D01*
X0020042Y0057602D01*
X0017874Y0058500D01*
X0009526Y0058500D01*
X0007358Y0057602D01*
X0005698Y0055942D01*
X0004800Y0053774D01*
X0004800Y0051426D01*
X0005698Y0049258D01*
X0007358Y0047598D01*
X0009526Y0046700D01*
X0017874Y0046700D01*
X0020042Y0047598D01*
X0021644Y0049200D01*
X0031356Y0049200D01*
X0031624Y0048932D01*
X0024574Y0041882D01*
X0023618Y0040926D01*
X0023100Y0039676D01*
X0023100Y0021000D01*
X0021644Y0021000D01*
X0020042Y0022602D01*
X0017874Y0023500D01*
X0009526Y0023500D01*
X0007358Y0022602D01*
X0005698Y0020942D01*
X0004800Y0018774D01*
X0004800Y0016426D01*
X0005698Y0014258D01*
X0007358Y0012598D01*
X0009526Y0011700D01*
X0017874Y0011700D01*
X0020042Y0012598D01*
X0021644Y0014200D01*
X0031356Y0014200D01*
X0032958Y0012598D01*
X0035126Y0011700D01*
X0043474Y0011700D01*
X0045642Y0012598D01*
X0046500Y0013456D01*
X0047358Y0012598D01*
X0049526Y0011700D01*
X0057874Y0011700D01*
X0060042Y0012598D01*
X0061644Y0014200D01*
X0071356Y0014200D01*
X0072958Y0012598D01*
X0075126Y0011700D01*
X0083474Y0011700D01*
X0085642Y0012598D01*
X0086500Y0013456D01*
X0087358Y0012598D01*
X0089526Y0011700D01*
X0097874Y0011700D01*
X0100042Y0012598D01*
X0101644Y0014200D01*
X0111356Y0014200D01*
X0112958Y0012598D01*
X0115126Y0011700D01*
X0123474Y0011700D01*
X0125642Y0012598D01*
X0127302Y0014258D01*
X0128200Y0016426D01*
X0128200Y0018774D01*
X0127302Y0020942D01*
X0125642Y0022602D01*
X0123474Y0023500D01*
X0115126Y0023500D01*
X0112958Y0022602D01*
X0111356Y0021000D01*
X0109900Y0021000D01*
X0109900Y0037592D01*
X0110408Y0038100D01*
X0112699Y0038100D01*
X0112451Y0037759D01*
X0112130Y0037127D01*
X0111911Y0036454D01*
X0111823Y0035900D01*
X0118800Y0035900D01*
X0118800Y0034900D01*
X0119800Y0034900D01*
X0119800Y0035900D01*
X0126777Y0035900D01*
X0126689Y0036454D01*
X0126470Y0037127D01*
X0126149Y0037759D01*
X0125901Y0038100D01*
X0132176Y0038100D01*
X0133426Y0038618D01*
X0134382Y0039574D01*
X0135926Y0041118D01*
X0136882Y0042074D01*
X0137400Y0043324D01*
X0137400Y0079676D01*
X0136882Y0080926D01*
X0135926Y0081882D01*
X0133426Y0084382D01*
X0132176Y0084900D01*
X0120408Y0084900D01*
X0120370Y0084939D01*
X0120620Y0084939D01*
X0121686Y0085380D01*
X0122502Y0086196D01*
X0122943Y0087262D01*
X0122943Y0094715D01*
X0122502Y0095781D01*
X0121686Y0096596D01*
X0120964Y0097662D02*
X0121244Y0097941D01*
X0121441Y0098283D01*
X0121543Y0098665D01*
X0121543Y0101512D01*
X0117000Y0101512D01*
X0117000Y0102512D01*
X0116000Y0102512D01*
X0116000Y0106661D01*
X0112759Y0106661D01*
X0112378Y0106559D01*
X0112036Y0106362D01*
X0111756Y0106082D01*
X0111559Y0105740D01*
X0111457Y0105359D01*
X0111457Y0102512D01*
X0116000Y0102512D01*
X0116000Y0101512D01*
X0111457Y0101512D01*
X0111457Y0098665D01*
X0111559Y0098283D01*
X0111756Y0097941D01*
X0112036Y0097662D01*
X0112378Y0097464D01*
X0112759Y0097362D01*
X0116000Y0097362D01*
X0116000Y0101512D01*
X0117000Y0101512D01*
X0117000Y0097362D01*
X0120241Y0097362D01*
X0120622Y0097464D01*
X0120964Y0097662D01*
X0121460Y0098356D02*
X0167100Y0098356D01*
X0167100Y0099354D02*
X0121543Y0099354D01*
X0121543Y0100353D02*
X0167100Y0100353D01*
X0167100Y0101351D02*
X0121543Y0101351D01*
X0121543Y0102512D02*
X0117000Y0102512D01*
X0117000Y0106661D01*
X0120241Y0106661D01*
X0120622Y0106559D01*
X0120964Y0106362D01*
X0121244Y0106082D01*
X0121441Y0105740D01*
X0121543Y0105359D01*
X0121543Y0102512D01*
X0121543Y0103348D02*
X0167100Y0103348D01*
X0167100Y0102350D02*
X0117000Y0102350D01*
X0117000Y0103348D02*
X0116000Y0103348D01*
X0116000Y0102350D02*
X0102000Y0102350D01*
X0102000Y0102512D02*
X0106543Y0102512D01*
X0106543Y0105359D01*
X0106441Y0105740D01*
X0106244Y0106082D01*
X0105964Y0106362D01*
X0105622Y0106559D01*
X0105241Y0106661D01*
X0102000Y0106661D01*
X0102000Y0102512D01*
X0101000Y0102512D01*
X0101000Y0106661D01*
X0097759Y0106661D01*
X0097378Y0106559D01*
X0097036Y0106362D01*
X0096756Y0106082D01*
X0096559Y0105740D01*
X0096457Y0105359D01*
X0096457Y0102512D01*
X0101000Y0102512D01*
X0101000Y0101512D01*
X0096457Y0101512D01*
X0096457Y0098665D01*
X0096559Y0098283D01*
X0096756Y0097941D01*
X0097036Y0097662D01*
X0097378Y0097464D01*
X0097759Y0097362D01*
X0101000Y0097362D01*
X0101000Y0101512D01*
X0102000Y0101512D01*
X0102000Y0102512D01*
X0102000Y0103348D02*
X0101000Y0103348D01*
X0101000Y0102350D02*
X0087000Y0102350D01*
X0087000Y0101512D02*
X0091543Y0101512D01*
X0091543Y0098665D01*
X0091441Y0098283D01*
X0091244Y0097941D01*
X0090964Y0097662D01*
X0090622Y0097464D01*
X0090241Y0097362D01*
X0087000Y0097362D01*
X0087000Y0101512D01*
X0087000Y0101351D02*
X0086000Y0101351D01*
X0086000Y0100353D02*
X0087000Y0100353D01*
X0087000Y0099354D02*
X0086000Y0099354D01*
X0086000Y0098356D02*
X0087000Y0098356D01*
X0091460Y0098356D02*
X0096540Y0098356D01*
X0096457Y0099354D02*
X0091543Y0099354D01*
X0091543Y0100353D02*
X0096457Y0100353D01*
X0096457Y0101351D02*
X0091543Y0101351D01*
X0091543Y0103348D02*
X0096457Y0103348D01*
X0096457Y0104347D02*
X0091543Y0104347D01*
X0091543Y0105345D02*
X0096457Y0105345D01*
X0097018Y0106344D02*
X0090982Y0106344D01*
X0082018Y0106344D02*
X0075982Y0106344D01*
X0076543Y0105345D02*
X0081457Y0105345D01*
X0081457Y0104347D02*
X0076543Y0104347D01*
X0076543Y0103348D02*
X0081457Y0103348D01*
X0081457Y0101351D02*
X0076543Y0101351D01*
X0076543Y0101512D02*
X0072000Y0101512D01*
X0072000Y0097362D01*
X0075241Y0097362D01*
X0075622Y0097464D01*
X0075964Y0097662D01*
X0076244Y0097941D01*
X0076441Y0098283D01*
X0076543Y0098665D01*
X0076543Y0101512D01*
X0076543Y0100353D02*
X0081457Y0100353D01*
X0081457Y0099354D02*
X0076543Y0099354D01*
X0076460Y0098356D02*
X0081540Y0098356D01*
X0081076Y0096359D02*
X0076924Y0096359D01*
X0077676Y0095360D02*
X0080324Y0095360D01*
X0080057Y0094362D02*
X0077943Y0094362D01*
X0077943Y0093363D02*
X0080057Y0093363D01*
X0080057Y0092365D02*
X0077943Y0092365D01*
X0077943Y0091366D02*
X0080057Y0091366D01*
X0080057Y0090368D02*
X0077943Y0090368D01*
X0077943Y0089369D02*
X0080057Y0089369D01*
X0080057Y0088370D02*
X0077943Y0088370D01*
X0077943Y0087372D02*
X0080057Y0087372D01*
X0080425Y0086373D02*
X0077575Y0086373D01*
X0076674Y0085375D02*
X0081326Y0085375D01*
X0083100Y0084376D02*
X0075932Y0084376D01*
X0076930Y0083378D02*
X0083100Y0083378D01*
X0083491Y0082379D02*
X0077929Y0082379D01*
X0078927Y0081381D02*
X0084311Y0081381D01*
X0085309Y0080382D02*
X0079926Y0080382D01*
X0079000Y0076500D02*
X0104000Y0076500D01*
X0106500Y0074000D01*
X0106500Y0052600D01*
X0119300Y0052600D01*
X0123474Y0058500D02*
X0115126Y0058500D01*
X0112958Y0057602D01*
X0111356Y0056000D01*
X0109900Y0056000D01*
X0109900Y0073100D01*
X0112699Y0073100D01*
X0112451Y0072759D01*
X0112130Y0072127D01*
X0111911Y0071454D01*
X0111823Y0070900D01*
X0118800Y0070900D01*
X0118800Y0069900D01*
X0119800Y0069900D01*
X0119800Y0065900D01*
X0122654Y0065900D01*
X0123354Y0066011D01*
X0124027Y0066230D01*
X0124659Y0066551D01*
X0125232Y0066968D01*
X0125600Y0067336D01*
X0125600Y0057619D01*
X0123474Y0058500D01*
X0123678Y0058415D02*
X0125600Y0058415D01*
X0125600Y0059414D02*
X0109900Y0059414D01*
X0109900Y0060412D02*
X0125600Y0060412D01*
X0125600Y0061411D02*
X0109900Y0061411D01*
X0109900Y0062409D02*
X0125600Y0062409D01*
X0125600Y0063408D02*
X0109900Y0063408D01*
X0109900Y0064406D02*
X0125600Y0064406D01*
X0125600Y0065405D02*
X0109900Y0065405D01*
X0109900Y0066403D02*
X0114232Y0066403D01*
X0113941Y0066551D02*
X0114573Y0066230D01*
X0115246Y0066011D01*
X0115946Y0065900D01*
X0118800Y0065900D01*
X0118800Y0069900D01*
X0111823Y0069900D01*
X0111911Y0069346D01*
X0112130Y0068673D01*
X0112451Y0068041D01*
X0112868Y0067468D01*
X0113368Y0066968D01*
X0113941Y0066551D01*
X0112934Y0067402D02*
X0109900Y0067402D01*
X0109900Y0068400D02*
X0112268Y0068400D01*
X0111902Y0069399D02*
X0109900Y0069399D01*
X0109900Y0070397D02*
X0118800Y0070397D01*
X0118800Y0069399D02*
X0119800Y0069399D01*
X0119800Y0068400D02*
X0118800Y0068400D01*
X0118800Y0067402D02*
X0119800Y0067402D01*
X0119800Y0066403D02*
X0118800Y0066403D01*
X0124368Y0066403D02*
X0125600Y0066403D01*
X0129000Y0074000D02*
X0129000Y0049000D01*
X0126500Y0046500D01*
X0034000Y0046500D01*
X0026500Y0039000D01*
X0026500Y0017600D01*
X0039300Y0017600D01*
X0043474Y0023500D02*
X0035126Y0023500D01*
X0032958Y0022602D01*
X0031356Y0021000D01*
X0029900Y0021000D01*
X0029900Y0037592D01*
X0035408Y0043100D01*
X0065792Y0043100D01*
X0064574Y0041882D01*
X0063618Y0040926D01*
X0063100Y0039676D01*
X0063100Y0021000D01*
X0061644Y0021000D01*
X0060042Y0022602D01*
X0057874Y0023500D01*
X0049526Y0023500D01*
X0047358Y0022602D01*
X0046500Y0021744D01*
X0045642Y0022602D01*
X0043474Y0023500D01*
X0043553Y0023467D02*
X0049447Y0023467D01*
X0047225Y0022469D02*
X0045775Y0022469D01*
X0053700Y0017600D02*
X0066500Y0017600D01*
X0066500Y0039000D01*
X0071500Y0044000D01*
X0129000Y0044000D01*
X0131500Y0046500D01*
X0131500Y0076500D01*
X0129000Y0079000D01*
X0111500Y0079000D01*
X0109000Y0081500D01*
X0104000Y0081500D01*
X0101500Y0084000D01*
X0101500Y0090988D01*
X0107943Y0091366D02*
X0110057Y0091366D01*
X0110057Y0090368D02*
X0107943Y0090368D01*
X0107943Y0089369D02*
X0110057Y0089369D01*
X0110057Y0088370D02*
X0107943Y0088370D01*
X0107943Y0087372D02*
X0110057Y0087372D01*
X0110425Y0086373D02*
X0107575Y0086373D01*
X0106674Y0085375D02*
X0111326Y0085375D01*
X0110932Y0084376D02*
X0113100Y0084376D01*
X0113100Y0083378D02*
X0111930Y0083378D01*
X0116500Y0084000D02*
X0119000Y0081500D01*
X0131500Y0081500D01*
X0134000Y0079000D01*
X0134000Y0044000D01*
X0131500Y0041500D01*
X0109000Y0041500D01*
X0106500Y0039000D01*
X0106500Y0017600D01*
X0119300Y0017600D01*
X0115047Y0023467D02*
X0109900Y0023467D01*
X0109900Y0022469D02*
X0112825Y0022469D01*
X0111826Y0021470D02*
X0109900Y0021470D01*
X0109900Y0024466D02*
X0129219Y0024466D01*
X0129317Y0024229D02*
X0130133Y0023414D01*
X0131199Y0022972D01*
X0134734Y0022972D01*
X0134591Y0022626D01*
X0134591Y0020457D01*
X0135421Y0018453D01*
X0136955Y0016919D01*
X0138959Y0016089D01*
X0141128Y0016089D01*
X0143132Y0016919D01*
X0144666Y0018453D01*
X0145496Y0020457D01*
X0145496Y0022626D01*
X0144666Y0024630D01*
X0143132Y0026164D01*
X0141128Y0026994D01*
X0139400Y0026994D01*
X0139400Y0034323D01*
X0138958Y0035389D01*
X0138143Y0036205D01*
X0137077Y0036646D01*
X0131199Y0036646D01*
X0130133Y0036205D01*
X0129317Y0035389D01*
X0128876Y0034323D01*
X0128876Y0025295D01*
X0129317Y0024229D01*
X0130079Y0023467D02*
X0123553Y0023467D01*
X0125775Y0022469D02*
X0134591Y0022469D01*
X0134591Y0021470D02*
X0126774Y0021470D01*
X0127497Y0020472D02*
X0134591Y0020472D01*
X0134998Y0019473D02*
X0127910Y0019473D01*
X0128200Y0018475D02*
X0135412Y0018475D01*
X0136397Y0017476D02*
X0128200Y0017476D01*
X0128200Y0016478D02*
X0138019Y0016478D01*
X0142067Y0016478D02*
X0233295Y0016478D01*
X0234234Y0016089D02*
X0236404Y0016089D01*
X0238408Y0016919D01*
X0239942Y0018453D01*
X0240772Y0020457D01*
X0240772Y0022626D01*
X0239942Y0024630D01*
X0238408Y0026164D01*
X0236404Y0026994D01*
X0234234Y0026994D01*
X0232230Y0026164D01*
X0230696Y0024630D01*
X0229866Y0022626D01*
X0229866Y0020457D01*
X0230696Y0018453D01*
X0232230Y0016919D01*
X0234234Y0016089D01*
X0231673Y0017476D02*
X0143690Y0017476D01*
X0144675Y0018475D02*
X0230687Y0018475D01*
X0230274Y0019473D02*
X0145089Y0019473D01*
X0145496Y0020472D02*
X0229866Y0020472D01*
X0229866Y0021470D02*
X0145496Y0021470D01*
X0145496Y0022469D02*
X0229866Y0022469D01*
X0230215Y0023467D02*
X0145148Y0023467D01*
X0144734Y0024466D02*
X0230628Y0024466D01*
X0231530Y0025464D02*
X0143832Y0025464D01*
X0142411Y0026463D02*
X0232952Y0026463D01*
X0237686Y0026463D02*
X0266729Y0026463D01*
X0265730Y0027461D02*
X0139400Y0027461D01*
X0139400Y0028460D02*
X0240047Y0028460D01*
X0240369Y0028138D02*
X0241435Y0027696D01*
X0247313Y0027696D01*
X0248379Y0028138D01*
X0249195Y0028954D01*
X0249636Y0030020D01*
X0249636Y0039047D01*
X0249195Y0040113D01*
X0248379Y0040929D01*
X0247313Y0041370D01*
X0241435Y0041370D01*
X0240369Y0040929D01*
X0239553Y0040113D01*
X0239112Y0039047D01*
X0239112Y0030020D01*
X0239553Y0028954D01*
X0240369Y0028138D01*
X0239344Y0029458D02*
X0139400Y0029458D01*
X0139400Y0030457D02*
X0239112Y0030457D01*
X0239112Y0031455D02*
X0139400Y0031455D01*
X0139400Y0032454D02*
X0239112Y0032454D01*
X0239112Y0033452D02*
X0139400Y0033452D01*
X0139347Y0034451D02*
X0239112Y0034451D01*
X0239112Y0035449D02*
X0138898Y0035449D01*
X0137555Y0036448D02*
X0239112Y0036448D01*
X0239112Y0037446D02*
X0126308Y0037446D01*
X0126690Y0036448D02*
X0130720Y0036448D01*
X0129378Y0035449D02*
X0119800Y0035449D01*
X0119800Y0034900D02*
X0126777Y0034900D01*
X0126689Y0034346D01*
X0126470Y0033673D01*
X0126149Y0033041D01*
X0125732Y0032468D01*
X0125232Y0031968D01*
X0124659Y0031551D01*
X0124027Y0031230D01*
X0123354Y0031011D01*
X0122654Y0030900D01*
X0119800Y0030900D01*
X0119800Y0034900D01*
X0119800Y0034451D02*
X0118800Y0034451D01*
X0118800Y0034900D02*
X0118800Y0030900D01*
X0115946Y0030900D01*
X0115246Y0031011D01*
X0114573Y0031230D01*
X0113941Y0031551D01*
X0113368Y0031968D01*
X0112868Y0032468D01*
X0112451Y0033041D01*
X0112130Y0033673D01*
X0111911Y0034346D01*
X0111823Y0034900D01*
X0118800Y0034900D01*
X0118800Y0035449D02*
X0109900Y0035449D01*
X0109900Y0034451D02*
X0111894Y0034451D01*
X0112242Y0033452D02*
X0109900Y0033452D01*
X0109900Y0032454D02*
X0112882Y0032454D01*
X0114130Y0031455D02*
X0109900Y0031455D01*
X0109900Y0030457D02*
X0128876Y0030457D01*
X0128876Y0031455D02*
X0124470Y0031455D01*
X0125718Y0032454D02*
X0128876Y0032454D01*
X0128876Y0033452D02*
X0126358Y0033452D01*
X0126706Y0034451D02*
X0128929Y0034451D01*
X0128876Y0029458D02*
X0109900Y0029458D01*
X0109900Y0028460D02*
X0128876Y0028460D01*
X0128876Y0027461D02*
X0109900Y0027461D01*
X0109900Y0026463D02*
X0128876Y0026463D01*
X0128876Y0025464D02*
X0109900Y0025464D01*
X0103100Y0025464D02*
X0069900Y0025464D01*
X0069900Y0024466D02*
X0103100Y0024466D01*
X0103100Y0023467D02*
X0097953Y0023467D01*
X0097874Y0023500D02*
X0089526Y0023500D01*
X0087358Y0022602D01*
X0086500Y0021744D01*
X0085642Y0022602D01*
X0083474Y0023500D01*
X0075126Y0023500D01*
X0072958Y0022602D01*
X0071356Y0021000D01*
X0069900Y0021000D01*
X0069900Y0037592D01*
X0072908Y0040600D01*
X0103483Y0040600D01*
X0103100Y0039676D01*
X0103100Y0021000D01*
X0101644Y0021000D01*
X0100042Y0022602D01*
X0097874Y0023500D01*
X0100175Y0022469D02*
X0103100Y0022469D01*
X0103100Y0021470D02*
X0101174Y0021470D01*
X0103100Y0026463D02*
X0069900Y0026463D01*
X0069900Y0027461D02*
X0103100Y0027461D01*
X0103100Y0028460D02*
X0069900Y0028460D01*
X0069900Y0029458D02*
X0103100Y0029458D01*
X0103100Y0030457D02*
X0069900Y0030457D01*
X0069900Y0031455D02*
X0074130Y0031455D01*
X0073941Y0031551D02*
X0074573Y0031230D01*
X0075246Y0031011D01*
X0075946Y0030900D01*
X0078800Y0030900D01*
X0078800Y0034900D01*
X0079800Y0034900D01*
X0079800Y0035900D01*
X0078800Y0035900D01*
X0078800Y0039900D01*
X0075946Y0039900D01*
X0075246Y0039789D01*
X0074573Y0039570D01*
X0073941Y0039249D01*
X0073368Y0038832D01*
X0072868Y0038332D01*
X0072451Y0037759D01*
X0072130Y0037127D01*
X0071911Y0036454D01*
X0071823Y0035900D01*
X0078800Y0035900D01*
X0078800Y0034900D01*
X0071823Y0034900D01*
X0071911Y0034346D01*
X0072130Y0033673D01*
X0072451Y0033041D01*
X0072868Y0032468D01*
X0073368Y0031968D01*
X0073941Y0031551D01*
X0072882Y0032454D02*
X0069900Y0032454D01*
X0069900Y0033452D02*
X0072242Y0033452D01*
X0071894Y0034451D02*
X0069900Y0034451D01*
X0069900Y0035449D02*
X0078800Y0035449D01*
X0078800Y0034451D02*
X0079800Y0034451D01*
X0079800Y0034900D02*
X0079800Y0030900D01*
X0082654Y0030900D01*
X0083354Y0031011D01*
X0084027Y0031230D01*
X0084659Y0031551D01*
X0085232Y0031968D01*
X0085732Y0032468D01*
X0086149Y0033041D01*
X0086470Y0033673D01*
X0086500Y0033764D01*
X0086530Y0033673D01*
X0086851Y0033041D01*
X0087268Y0032468D01*
X0087768Y0031968D01*
X0088341Y0031551D01*
X0088973Y0031230D01*
X0089646Y0031011D01*
X0090346Y0030900D01*
X0093200Y0030900D01*
X0093200Y0034900D01*
X0094200Y0034900D01*
X0094200Y0035900D01*
X0093200Y0035900D01*
X0093200Y0039900D01*
X0090346Y0039900D01*
X0089646Y0039789D01*
X0088973Y0039570D01*
X0088341Y0039249D01*
X0087768Y0038832D01*
X0087268Y0038332D01*
X0086851Y0037759D01*
X0086530Y0037127D01*
X0086500Y0037036D01*
X0086470Y0037127D01*
X0086149Y0037759D01*
X0085732Y0038332D01*
X0085232Y0038832D01*
X0084659Y0039249D01*
X0084027Y0039570D01*
X0083354Y0039789D01*
X0082654Y0039900D01*
X0079800Y0039900D01*
X0079800Y0035900D01*
X0093200Y0035900D01*
X0093200Y0034900D01*
X0086223Y0034900D01*
X0079800Y0034900D01*
X0079800Y0035449D02*
X0093200Y0035449D01*
X0093200Y0034451D02*
X0094200Y0034451D01*
X0094200Y0034900D02*
X0094200Y0030900D01*
X0097054Y0030900D01*
X0097754Y0031011D01*
X0098427Y0031230D01*
X0099059Y0031551D01*
X0099632Y0031968D01*
X0100132Y0032468D01*
X0100549Y0033041D01*
X0100870Y0033673D01*
X0101089Y0034346D01*
X0101177Y0034900D01*
X0094200Y0034900D01*
X0094200Y0035449D02*
X0103100Y0035449D01*
X0103100Y0034451D02*
X0101106Y0034451D01*
X0100758Y0033452D02*
X0103100Y0033452D01*
X0103100Y0032454D02*
X0100118Y0032454D01*
X0098870Y0031455D02*
X0103100Y0031455D01*
X0101177Y0035900D02*
X0094200Y0035900D01*
X0094200Y0039900D01*
X0097054Y0039900D01*
X0097754Y0039789D01*
X0098427Y0039570D01*
X0099059Y0039249D01*
X0099632Y0038832D01*
X0100132Y0038332D01*
X0100549Y0037759D01*
X0100870Y0037127D01*
X0101089Y0036454D01*
X0101177Y0035900D01*
X0101090Y0036448D02*
X0103100Y0036448D01*
X0103100Y0037446D02*
X0100708Y0037446D01*
X0100019Y0038445D02*
X0103100Y0038445D01*
X0103100Y0039443D02*
X0098676Y0039443D01*
X0094200Y0039443D02*
X0093200Y0039443D01*
X0093200Y0038445D02*
X0094200Y0038445D01*
X0094200Y0037446D02*
X0093200Y0037446D01*
X0093200Y0036448D02*
X0094200Y0036448D01*
X0094200Y0033452D02*
X0093200Y0033452D01*
X0093200Y0032454D02*
X0094200Y0032454D01*
X0094200Y0031455D02*
X0093200Y0031455D01*
X0088530Y0031455D02*
X0084470Y0031455D01*
X0085718Y0032454D02*
X0087282Y0032454D01*
X0086642Y0033452D02*
X0086358Y0033452D01*
X0086308Y0037446D02*
X0086692Y0037446D01*
X0087381Y0038445D02*
X0085619Y0038445D01*
X0084276Y0039443D02*
X0088724Y0039443D01*
X0079800Y0039443D02*
X0078800Y0039443D01*
X0078800Y0038445D02*
X0079800Y0038445D01*
X0079800Y0037446D02*
X0078800Y0037446D01*
X0078800Y0036448D02*
X0079800Y0036448D01*
X0079800Y0033452D02*
X0078800Y0033452D01*
X0078800Y0032454D02*
X0079800Y0032454D01*
X0079800Y0031455D02*
X0078800Y0031455D01*
X0071910Y0036448D02*
X0069900Y0036448D01*
X0069900Y0037446D02*
X0072292Y0037446D01*
X0072981Y0038445D02*
X0070753Y0038445D01*
X0071752Y0039443D02*
X0074324Y0039443D01*
X0072750Y0040442D02*
X0103417Y0040442D01*
X0109900Y0037446D02*
X0112292Y0037446D01*
X0111910Y0036448D02*
X0109900Y0036448D01*
X0118800Y0033452D02*
X0119800Y0033452D01*
X0119800Y0032454D02*
X0118800Y0032454D01*
X0118800Y0031455D02*
X0119800Y0031455D01*
X0133009Y0038445D02*
X0239112Y0038445D01*
X0239276Y0039443D02*
X0134252Y0039443D01*
X0135250Y0040442D02*
X0239882Y0040442D01*
X0248866Y0040442D02*
X0258100Y0040442D01*
X0258100Y0041440D02*
X0136249Y0041440D01*
X0137034Y0042439D02*
X0258100Y0042439D01*
X0258100Y0043437D02*
X0137400Y0043437D01*
X0137400Y0044436D02*
X0189030Y0044436D01*
X0191500Y0048500D02*
X0179000Y0048500D01*
X0170500Y0057000D01*
X0170500Y0120500D01*
X0173500Y0123500D01*
X0178500Y0123500D01*
X0187799Y0132799D01*
X0187799Y0138665D01*
X0190949Y0138665D02*
X0190949Y0131949D01*
X0180500Y0121500D01*
X0180500Y0097500D01*
X0191500Y0086500D01*
X0195812Y0088370D02*
X0197188Y0088370D01*
X0196800Y0087372D02*
X0196200Y0087372D01*
X0196200Y0086373D02*
X0196800Y0086373D01*
X0196879Y0085375D02*
X0196121Y0085375D01*
X0195708Y0084376D02*
X0197292Y0084376D01*
X0197975Y0083378D02*
X0195025Y0083378D01*
X0193834Y0082379D02*
X0199166Y0082379D01*
X0203834Y0082379D02*
X0214166Y0082379D01*
X0212975Y0083378D02*
X0205025Y0083378D01*
X0205708Y0084376D02*
X0212292Y0084376D01*
X0211879Y0085375D02*
X0206121Y0085375D01*
X0206200Y0086373D02*
X0211800Y0086373D01*
X0211722Y0087372D02*
X0207180Y0087372D01*
X0208169Y0088370D02*
X0211722Y0088370D01*
X0211722Y0089369D02*
X0208582Y0089369D01*
X0208680Y0090368D02*
X0211722Y0090368D01*
X0211722Y0091366D02*
X0208680Y0091366D01*
X0208680Y0092365D02*
X0211722Y0092365D01*
X0210500Y0097500D02*
X0210500Y0121500D01*
X0207500Y0124500D01*
X0196500Y0124500D01*
X0194098Y0126902D01*
X0194098Y0138665D01*
X0197248Y0138665D02*
X0197248Y0132752D01*
X0198500Y0131500D01*
X0202840Y0133303D02*
X0209300Y0133303D01*
X0209300Y0134302D02*
X0202345Y0134302D01*
X0201346Y0135301D02*
X0209451Y0135301D01*
X0209865Y0136299D02*
X0201132Y0136299D01*
X0201132Y0137298D02*
X0210600Y0137298D01*
X0210600Y0138296D02*
X0201132Y0138296D01*
X0201132Y0139295D02*
X0210600Y0139295D01*
X0210600Y0140293D02*
X0201132Y0140293D01*
X0201132Y0141292D02*
X0210600Y0141292D01*
X0210600Y0142290D02*
X0208884Y0142290D01*
X0212248Y0145752D02*
X0204335Y0145752D01*
X0204335Y0148902D02*
X0216598Y0148902D01*
X0261500Y0104000D01*
X0261500Y0092012D01*
X0255057Y0092365D02*
X0218522Y0092365D01*
X0218522Y0093363D02*
X0255057Y0093363D01*
X0255057Y0094362D02*
X0218522Y0094362D01*
X0218522Y0095360D02*
X0255057Y0095360D01*
X0255314Y0096359D02*
X0218522Y0096359D01*
X0218522Y0097357D02*
X0256051Y0097357D01*
X0258100Y0098356D02*
X0218522Y0098356D01*
X0218522Y0099354D02*
X0258100Y0099354D01*
X0258100Y0100353D02*
X0218522Y0100353D01*
X0218522Y0101351D02*
X0258100Y0101351D01*
X0258100Y0102350D02*
X0218522Y0102350D01*
X0218522Y0103348D02*
X0257344Y0103348D01*
X0256345Y0104347D02*
X0218522Y0104347D01*
X0218522Y0105345D02*
X0255346Y0105345D01*
X0254348Y0106344D02*
X0218522Y0106344D01*
X0218522Y0107342D02*
X0253349Y0107342D01*
X0252351Y0108341D02*
X0218522Y0108341D01*
X0218522Y0109339D02*
X0251352Y0109339D01*
X0250354Y0110338D02*
X0218522Y0110338D01*
X0219215Y0111336D02*
X0220872Y0111336D01*
X0220538Y0111670D02*
X0221353Y0110854D01*
X0222419Y0110413D01*
X0227510Y0110413D01*
X0228576Y0110854D01*
X0229392Y0111670D01*
X0229833Y0112736D01*
X0229833Y0121764D01*
X0229392Y0122830D01*
X0228576Y0123645D01*
X0227510Y0124087D01*
X0222419Y0124087D01*
X0221353Y0123645D01*
X0220538Y0122830D01*
X0220096Y0121764D01*
X0220096Y0112736D01*
X0220538Y0111670D01*
X0220262Y0112335D02*
X0219824Y0112335D01*
X0219991Y0113333D02*
X0220096Y0113333D01*
X0220096Y0114332D02*
X0219991Y0114332D01*
X0219991Y0115330D02*
X0220096Y0115330D01*
X0220096Y0116329D02*
X0219991Y0116329D01*
X0219991Y0117327D02*
X0220096Y0117327D01*
X0220096Y0118326D02*
X0219991Y0118326D01*
X0219991Y0119324D02*
X0220096Y0119324D01*
X0220096Y0120323D02*
X0219991Y0120323D01*
X0219991Y0121321D02*
X0220096Y0121321D01*
X0220326Y0122320D02*
X0219760Y0122320D01*
X0219060Y0123318D02*
X0221026Y0123318D01*
X0228903Y0123318D02*
X0237373Y0123318D01*
X0238372Y0122320D02*
X0229603Y0122320D01*
X0229833Y0121321D02*
X0239370Y0121321D01*
X0240369Y0120323D02*
X0229833Y0120323D01*
X0229833Y0119324D02*
X0241367Y0119324D01*
X0242366Y0118326D02*
X0229833Y0118326D01*
X0229833Y0117327D02*
X0243364Y0117327D01*
X0244363Y0116329D02*
X0229833Y0116329D01*
X0229833Y0115330D02*
X0245361Y0115330D01*
X0246360Y0114332D02*
X0229833Y0114332D01*
X0229833Y0113333D02*
X0247358Y0113333D01*
X0248357Y0112335D02*
X0229667Y0112335D01*
X0229058Y0111336D02*
X0249355Y0111336D01*
X0236375Y0124317D02*
X0212491Y0124317D01*
X0212426Y0124382D02*
X0212426Y0124382D01*
X0211493Y0125315D02*
X0235376Y0125315D01*
X0234378Y0126314D02*
X0210494Y0126314D01*
X0209496Y0127312D02*
X0233379Y0127312D01*
X0232381Y0128311D02*
X0201958Y0128311D01*
X0202680Y0129309D02*
X0213042Y0129309D01*
X0214958Y0129309D02*
X0231382Y0129309D01*
X0230384Y0130308D02*
X0216955Y0130308D01*
X0217953Y0131306D02*
X0229385Y0131306D01*
X0228387Y0132305D02*
X0218385Y0132305D01*
X0218700Y0133303D02*
X0227388Y0133303D01*
X0226390Y0134302D02*
X0218700Y0134302D01*
X0218549Y0135301D02*
X0225391Y0135301D01*
X0224393Y0136299D02*
X0218135Y0136299D01*
X0217400Y0137298D02*
X0223394Y0137298D01*
X0222396Y0138296D02*
X0217400Y0138296D01*
X0217400Y0139295D02*
X0221397Y0139295D01*
X0220399Y0140293D02*
X0217400Y0140293D01*
X0217400Y0141292D02*
X0219400Y0141292D01*
X0218402Y0142290D02*
X0217400Y0142290D01*
X0217400Y0143289D02*
X0217403Y0143289D01*
X0214000Y0144000D02*
X0214000Y0134000D01*
X0211045Y0130308D02*
X0203093Y0130308D01*
X0203200Y0131306D02*
X0210047Y0131306D01*
X0209615Y0132305D02*
X0203200Y0132305D01*
X0197500Y0138413D02*
X0197248Y0138665D01*
X0204335Y0148902D02*
X0204433Y0149000D01*
X0204335Y0152051D02*
X0218449Y0152051D01*
X0274000Y0096500D01*
X0274000Y0092012D01*
X0274000Y0101500D02*
X0220299Y0155201D01*
X0204335Y0155201D01*
X0204335Y0162235D02*
X0204335Y0163915D01*
X0204335Y0163915D01*
X0204335Y0162235D01*
X0204335Y0162235D01*
X0204335Y0162260D02*
X0204335Y0162260D01*
X0204335Y0163259D02*
X0204335Y0163259D01*
X0204335Y0170949D02*
X0212051Y0170949D01*
X0214000Y0169000D01*
X0214000Y0174000D02*
X0213902Y0174098D01*
X0204335Y0174098D01*
X0204335Y0177248D02*
X0212248Y0177248D01*
X0214000Y0179000D01*
X0229900Y0187908D02*
X0231610Y0186198D01*
X0232498Y0188342D01*
X0234158Y0190002D01*
X0236326Y0190900D01*
X0238674Y0190900D01*
X0240842Y0190002D01*
X0242502Y0188342D01*
X0243260Y0186512D01*
X0243330Y0186727D01*
X0243651Y0187359D01*
X0244068Y0187932D01*
X0244568Y0188432D01*
X0245141Y0188849D01*
X0245773Y0189170D01*
X0246446Y0189389D01*
X0247000Y0189477D01*
X0247000Y0182500D01*
X0248000Y0182500D01*
X0248000Y0189477D01*
X0248554Y0189389D01*
X0249227Y0189170D01*
X0249859Y0188849D01*
X0250432Y0188432D01*
X0250932Y0187932D01*
X0251349Y0187359D01*
X0251670Y0186727D01*
X0251740Y0186512D01*
X0252498Y0188342D01*
X0254158Y0190002D01*
X0256326Y0190900D01*
X0258674Y0190900D01*
X0260842Y0190002D01*
X0262500Y0188344D01*
X0264158Y0190002D01*
X0266326Y0190900D01*
X0268674Y0190900D01*
X0270842Y0190002D01*
X0272500Y0188344D01*
X0274158Y0190002D01*
X0276326Y0190900D01*
X0278674Y0190900D01*
X0280842Y0190002D01*
X0282502Y0188342D01*
X0283400Y0186174D01*
X0283400Y0177826D01*
X0282502Y0175658D01*
X0280842Y0173998D01*
X0278674Y0173100D01*
X0276326Y0173100D01*
X0274158Y0173998D01*
X0272500Y0175656D01*
X0270900Y0174056D01*
X0270900Y0171908D01*
X0274382Y0168426D01*
X0274900Y0167176D01*
X0274900Y0138061D01*
X0275620Y0138061D01*
X0276686Y0137620D01*
X0277502Y0136804D01*
X0277943Y0135738D01*
X0277943Y0128285D01*
X0277502Y0127219D01*
X0276782Y0126500D01*
X0277502Y0125781D01*
X0277943Y0124715D01*
X0277943Y0117262D01*
X0277502Y0116196D01*
X0276686Y0115380D01*
X0275620Y0114939D01*
X0274900Y0114939D01*
X0274900Y0112908D01*
X0277908Y0109900D01*
X0287176Y0109900D01*
X0288426Y0109382D01*
X0289382Y0108426D01*
X0296104Y0101704D01*
X0296209Y0102430D01*
X0296209Y0102430D01*
X0298278Y0106961D01*
X0298278Y0106961D01*
X0301540Y0110726D01*
X0301540Y0110726D01*
X0301540Y0110726D01*
X0305730Y0113419D01*
X0305730Y0113419D01*
X0310509Y0114822D01*
X0315491Y0114822D01*
X0320270Y0113419D01*
X0320270Y0113419D01*
X0324460Y0110726D01*
X0324460Y0110726D01*
X0325772Y0109212D01*
X0325772Y0207788D01*
X0324460Y0206274D01*
X0324460Y0206274D01*
X0324460Y0206274D01*
X0320270Y0203581D01*
X0320270Y0203581D01*
X0315491Y0202178D01*
X0310509Y0202178D01*
X0305730Y0203581D01*
X0305730Y0203581D01*
X0301540Y0206274D01*
X0301540Y0206274D01*
X0298278Y0210039D01*
X0296209Y0214570D01*
X0295500Y0219500D01*
X0296209Y0224430D01*
X0298278Y0228961D01*
X0298278Y0228961D01*
X0300290Y0231283D01*
X0201525Y0231283D01*
X0219894Y0212914D01*
X0220412Y0211664D01*
X0220412Y0207943D01*
X0220738Y0207943D01*
X0221804Y0207502D01*
X0222620Y0206686D01*
X0223061Y0205620D01*
X0223061Y0204900D01*
X0224676Y0204900D01*
X0225926Y0204382D01*
X0228426Y0201882D01*
X0229382Y0200926D01*
X0229900Y0199676D01*
X0229900Y0187908D01*
X0229900Y0188222D02*
X0232448Y0188222D01*
X0232035Y0187223D02*
X0230585Y0187223D01*
X0231584Y0186225D02*
X0231621Y0186225D01*
X0229900Y0189220D02*
X0233376Y0189220D01*
X0234681Y0190219D02*
X0229900Y0190219D01*
X0229900Y0191217D02*
X0299000Y0191217D01*
X0299000Y0190219D02*
X0280319Y0190219D01*
X0281624Y0189220D02*
X0299000Y0189220D01*
X0299000Y0188222D02*
X0282552Y0188222D01*
X0282965Y0187223D02*
X0299000Y0187223D01*
X0299000Y0186225D02*
X0283379Y0186225D01*
X0283400Y0185226D02*
X0299000Y0185226D01*
X0299000Y0184228D02*
X0283400Y0184228D01*
X0283400Y0183229D02*
X0299000Y0183229D01*
X0299000Y0182231D02*
X0283400Y0182231D01*
X0283400Y0181232D02*
X0299000Y0181232D01*
X0299000Y0180234D02*
X0283400Y0180234D01*
X0283400Y0179235D02*
X0299000Y0179235D01*
X0299000Y0178237D02*
X0283400Y0178237D01*
X0283156Y0177238D02*
X0299000Y0177238D01*
X0299000Y0176239D02*
X0282743Y0176239D01*
X0282085Y0175241D02*
X0299000Y0175241D01*
X0299000Y0174242D02*
X0281086Y0174242D01*
X0279021Y0173244D02*
X0299000Y0173244D01*
X0299000Y0172245D02*
X0270900Y0172245D01*
X0270900Y0173244D02*
X0275979Y0173244D01*
X0273914Y0174242D02*
X0271086Y0174242D01*
X0272085Y0175241D02*
X0272915Y0175241D01*
X0271561Y0171247D02*
X0299000Y0171247D01*
X0299000Y0170248D02*
X0272560Y0170248D01*
X0273558Y0169250D02*
X0299000Y0169250D01*
X0299000Y0168251D02*
X0274455Y0168251D01*
X0274868Y0167253D02*
X0299000Y0167253D01*
X0299000Y0166254D02*
X0274900Y0166254D01*
X0274900Y0165256D02*
X0299000Y0165256D01*
X0299000Y0164257D02*
X0274900Y0164257D01*
X0274900Y0163259D02*
X0299000Y0163259D01*
X0299000Y0162260D02*
X0274900Y0162260D01*
X0274900Y0161262D02*
X0299000Y0161262D01*
X0299000Y0160263D02*
X0274900Y0160263D01*
X0274900Y0159265D02*
X0299000Y0159265D01*
X0299000Y0158266D02*
X0274900Y0158266D01*
X0274900Y0157268D02*
X0299000Y0157268D01*
X0299000Y0156269D02*
X0274900Y0156269D01*
X0274900Y0155271D02*
X0299000Y0155271D01*
X0299000Y0154272D02*
X0274900Y0154272D01*
X0274900Y0153274D02*
X0299000Y0153274D01*
X0299000Y0152275D02*
X0274900Y0152275D01*
X0274900Y0151277D02*
X0299000Y0151277D01*
X0299000Y0150278D02*
X0274900Y0150278D01*
X0274900Y0149280D02*
X0299000Y0149280D01*
X0299000Y0148281D02*
X0274900Y0148281D01*
X0274900Y0147283D02*
X0299000Y0147283D01*
X0299000Y0146284D02*
X0274900Y0146284D01*
X0274900Y0145286D02*
X0299000Y0145286D01*
X0299000Y0144287D02*
X0274900Y0144287D01*
X0274900Y0143289D02*
X0299000Y0143289D01*
X0299000Y0142290D02*
X0274900Y0142290D01*
X0274900Y0141292D02*
X0299000Y0141292D01*
X0299000Y0140293D02*
X0274900Y0140293D01*
X0274900Y0139295D02*
X0299000Y0139295D01*
X0299000Y0138296D02*
X0274900Y0138296D01*
X0277008Y0137298D02*
X0299000Y0137298D01*
X0299000Y0136299D02*
X0277711Y0136299D01*
X0277943Y0135301D02*
X0299000Y0135301D01*
X0299000Y0134302D02*
X0277943Y0134302D01*
X0277943Y0133303D02*
X0299000Y0133303D01*
X0299000Y0132305D02*
X0277943Y0132305D01*
X0277943Y0131306D02*
X0299000Y0131306D01*
X0299000Y0130308D02*
X0277943Y0130308D01*
X0277943Y0129309D02*
X0299000Y0129309D01*
X0299000Y0128311D02*
X0277943Y0128311D01*
X0277540Y0127312D02*
X0299000Y0127312D01*
X0299000Y0126314D02*
X0276968Y0126314D01*
X0277694Y0125315D02*
X0299000Y0125315D01*
X0299000Y0124317D02*
X0277943Y0124317D01*
X0277943Y0123318D02*
X0299000Y0123318D01*
X0299000Y0122320D02*
X0277943Y0122320D01*
X0277943Y0121321D02*
X0299000Y0121321D01*
X0299000Y0120323D02*
X0277943Y0120323D01*
X0277943Y0119324D02*
X0299000Y0119324D01*
X0299000Y0118326D02*
X0277943Y0118326D01*
X0277943Y0117327D02*
X0299258Y0117327D01*
X0299000Y0117586D02*
X0299586Y0117000D01*
X0300414Y0117000D01*
X0319414Y0117000D01*
X0320000Y0117586D01*
X0320000Y0199414D01*
X0319414Y0200000D01*
X0299586Y0200000D01*
X0299000Y0199414D01*
X0299000Y0117586D01*
X0302490Y0111336D02*
X0276472Y0111336D01*
X0277471Y0110338D02*
X0301204Y0110338D01*
X0300339Y0109339D02*
X0288469Y0109339D01*
X0289468Y0108341D02*
X0299473Y0108341D01*
X0298608Y0107342D02*
X0290466Y0107342D01*
X0291465Y0106344D02*
X0297996Y0106344D01*
X0297540Y0105345D02*
X0292463Y0105345D01*
X0293462Y0104347D02*
X0297084Y0104347D01*
X0296628Y0103348D02*
X0294460Y0103348D01*
X0295459Y0102350D02*
X0296197Y0102350D01*
X0294000Y0099000D02*
X0286500Y0106500D01*
X0276500Y0106500D01*
X0271500Y0111500D01*
X0271500Y0120988D01*
X0267012Y0120988D01*
X0254000Y0134000D01*
X0237500Y0150500D01*
X0237500Y0158000D01*
X0240900Y0158266D02*
X0254100Y0158266D01*
X0254100Y0158093D02*
X0253838Y0157984D01*
X0252516Y0156662D01*
X0251800Y0154935D01*
X0251800Y0153065D01*
X0252516Y0151338D01*
X0253838Y0150016D01*
X0255565Y0149300D01*
X0257435Y0149300D01*
X0259162Y0150016D01*
X0260484Y0151338D01*
X0261200Y0153065D01*
X0261200Y0154935D01*
X0260900Y0155659D01*
X0260900Y0174056D01*
X0262500Y0175656D01*
X0264100Y0174056D01*
X0264100Y0169824D01*
X0264618Y0168574D01*
X0268100Y0165092D01*
X0268100Y0138061D01*
X0267380Y0138061D01*
X0266314Y0137620D01*
X0265498Y0136804D01*
X0265057Y0135738D01*
X0265057Y0128285D01*
X0265434Y0127374D01*
X0258700Y0134108D01*
X0258700Y0134935D01*
X0257984Y0136662D01*
X0256662Y0137984D01*
X0254935Y0138700D01*
X0254108Y0138700D01*
X0240900Y0151908D01*
X0240900Y0174056D01*
X0242502Y0175658D01*
X0243260Y0177488D01*
X0243330Y0177273D01*
X0243651Y0176641D01*
X0244068Y0176068D01*
X0244568Y0175568D01*
X0245141Y0175151D01*
X0245773Y0174830D01*
X0246446Y0174611D01*
X0247000Y0174523D01*
X0247000Y0181500D01*
X0248000Y0181500D01*
X0248000Y0174523D01*
X0248554Y0174611D01*
X0249227Y0174830D01*
X0249859Y0175151D01*
X0250432Y0175568D01*
X0250932Y0176068D01*
X0251349Y0176641D01*
X0251670Y0177273D01*
X0251740Y0177488D01*
X0252498Y0175658D01*
X0254100Y0174056D01*
X0254100Y0158093D01*
X0254100Y0159265D02*
X0240900Y0159265D01*
X0240900Y0160263D02*
X0254100Y0160263D01*
X0254100Y0161262D02*
X0240900Y0161262D01*
X0240900Y0162260D02*
X0254100Y0162260D01*
X0254100Y0163259D02*
X0240900Y0163259D01*
X0240900Y0164257D02*
X0254100Y0164257D01*
X0254100Y0165256D02*
X0240900Y0165256D01*
X0240900Y0166254D02*
X0254100Y0166254D01*
X0254100Y0167253D02*
X0240900Y0167253D01*
X0240900Y0168251D02*
X0254100Y0168251D01*
X0254100Y0169250D02*
X0240900Y0169250D01*
X0240900Y0170248D02*
X0254100Y0170248D01*
X0254100Y0171247D02*
X0240900Y0171247D01*
X0240900Y0172245D02*
X0254100Y0172245D01*
X0254100Y0173244D02*
X0240900Y0173244D01*
X0241086Y0174242D02*
X0253914Y0174242D01*
X0252915Y0175241D02*
X0249982Y0175241D01*
X0251057Y0176239D02*
X0252257Y0176239D01*
X0251844Y0177238D02*
X0251653Y0177238D01*
X0248000Y0177238D02*
X0247000Y0177238D01*
X0247000Y0178237D02*
X0248000Y0178237D01*
X0248000Y0179235D02*
X0247000Y0179235D01*
X0247000Y0180234D02*
X0248000Y0180234D01*
X0248000Y0181232D02*
X0247000Y0181232D01*
X0247000Y0183229D02*
X0248000Y0183229D01*
X0248000Y0184228D02*
X0247000Y0184228D01*
X0247000Y0185226D02*
X0248000Y0185226D01*
X0248000Y0186225D02*
X0247000Y0186225D01*
X0247000Y0187223D02*
X0248000Y0187223D01*
X0248000Y0188222D02*
X0247000Y0188222D01*
X0247000Y0189220D02*
X0248000Y0189220D01*
X0249074Y0189220D02*
X0253376Y0189220D01*
X0252448Y0188222D02*
X0250642Y0188222D01*
X0251418Y0187223D02*
X0252035Y0187223D01*
X0254681Y0190219D02*
X0240319Y0190219D01*
X0241624Y0189220D02*
X0245926Y0189220D01*
X0244358Y0188222D02*
X0242552Y0188222D01*
X0242965Y0187223D02*
X0243582Y0187223D01*
X0229900Y0192216D02*
X0299000Y0192216D01*
X0299000Y0193214D02*
X0229900Y0193214D01*
X0229900Y0194213D02*
X0299000Y0194213D01*
X0299000Y0195211D02*
X0229900Y0195211D01*
X0229900Y0196210D02*
X0299000Y0196210D01*
X0299000Y0197208D02*
X0229900Y0197208D01*
X0229900Y0198207D02*
X0299000Y0198207D01*
X0299000Y0199205D02*
X0229900Y0199205D01*
X0229682Y0200204D02*
X0325772Y0200204D01*
X0325772Y0201202D02*
X0229106Y0201202D01*
X0228108Y0202201D02*
X0310432Y0202201D01*
X0307032Y0203199D02*
X0227109Y0203199D01*
X0226111Y0204198D02*
X0304771Y0204198D01*
X0303217Y0205196D02*
X0223061Y0205196D01*
X0222823Y0206195D02*
X0301664Y0206195D01*
X0300744Y0207193D02*
X0222113Y0207193D01*
X0220412Y0208192D02*
X0299878Y0208192D01*
X0299013Y0209190D02*
X0220412Y0209190D01*
X0220412Y0210189D02*
X0298210Y0210189D01*
X0297754Y0211187D02*
X0220412Y0211187D01*
X0220196Y0212186D02*
X0297298Y0212186D01*
X0296841Y0213184D02*
X0219624Y0213184D01*
X0218625Y0214183D02*
X0296385Y0214183D01*
X0296121Y0215181D02*
X0217627Y0215181D01*
X0216628Y0216180D02*
X0295977Y0216180D01*
X0295834Y0217178D02*
X0215630Y0217178D01*
X0214631Y0218177D02*
X0295690Y0218177D01*
X0295547Y0219175D02*
X0213633Y0219175D01*
X0212634Y0220174D02*
X0295597Y0220174D01*
X0295740Y0221172D02*
X0211636Y0221172D01*
X0210637Y0222171D02*
X0295884Y0222171D01*
X0296028Y0223170D02*
X0209639Y0223170D01*
X0208640Y0224168D02*
X0296171Y0224168D01*
X0296545Y0225167D02*
X0207642Y0225167D01*
X0206643Y0226165D02*
X0297001Y0226165D01*
X0297457Y0227164D02*
X0205645Y0227164D01*
X0204646Y0228162D02*
X0297913Y0228162D01*
X0298451Y0229161D02*
X0203648Y0229161D01*
X0202649Y0230159D02*
X0299316Y0230159D01*
X0300181Y0231158D02*
X0201651Y0231158D01*
X0197592Y0225600D02*
X0213612Y0209580D01*
X0213612Y0207943D01*
X0213285Y0207943D01*
X0212219Y0207502D01*
X0211500Y0206782D01*
X0210781Y0207502D01*
X0209715Y0207943D01*
X0202262Y0207943D01*
X0201196Y0207502D01*
X0200751Y0207057D01*
X0198426Y0209382D01*
X0197176Y0209900D01*
X0195824Y0209900D01*
X0182908Y0209900D01*
X0182400Y0210408D01*
X0182400Y0211556D01*
X0184002Y0213158D01*
X0184760Y0214988D01*
X0184830Y0214773D01*
X0185151Y0214141D01*
X0185568Y0213568D01*
X0186068Y0213068D01*
X0186641Y0212651D01*
X0187273Y0212330D01*
X0187946Y0212111D01*
X0188500Y0212023D01*
X0188500Y0219000D01*
X0189500Y0219000D01*
X0189500Y0220000D01*
X0193500Y0220000D01*
X0193500Y0222854D01*
X0193389Y0223554D01*
X0193170Y0224227D01*
X0192849Y0224859D01*
X0192432Y0225432D01*
X0192264Y0225600D01*
X0197592Y0225600D01*
X0198025Y0225167D02*
X0192625Y0225167D01*
X0193190Y0224168D02*
X0199024Y0224168D01*
X0200022Y0223170D02*
X0193450Y0223170D01*
X0193500Y0222171D02*
X0201021Y0222171D01*
X0202019Y0221172D02*
X0193500Y0221172D01*
X0193500Y0220174D02*
X0203018Y0220174D01*
X0204016Y0219175D02*
X0189500Y0219175D01*
X0189500Y0219000D02*
X0193500Y0219000D01*
X0193500Y0216146D01*
X0193389Y0215446D01*
X0193170Y0214773D01*
X0192849Y0214141D01*
X0192432Y0213568D01*
X0191932Y0213068D01*
X0191359Y0212651D01*
X0190727Y0212330D01*
X0190054Y0212111D01*
X0189500Y0212023D01*
X0189500Y0219000D01*
X0189500Y0218177D02*
X0188500Y0218177D01*
X0188500Y0217178D02*
X0189500Y0217178D01*
X0189500Y0216180D02*
X0188500Y0216180D01*
X0188500Y0215181D02*
X0189500Y0215181D01*
X0189500Y0214183D02*
X0188500Y0214183D01*
X0188500Y0213184D02*
X0189500Y0213184D01*
X0189500Y0212186D02*
X0188500Y0212186D01*
X0187715Y0212186D02*
X0183030Y0212186D01*
X0182400Y0211187D02*
X0212004Y0211187D01*
X0213003Y0210189D02*
X0182619Y0210189D01*
X0179000Y0209000D02*
X0181500Y0206500D01*
X0196500Y0206500D01*
X0201500Y0201500D01*
X0205988Y0201500D01*
X0200887Y0207193D02*
X0200615Y0207193D01*
X0199616Y0208192D02*
X0213612Y0208192D01*
X0213612Y0209190D02*
X0198618Y0209190D01*
X0192870Y0214183D02*
X0209009Y0214183D01*
X0210007Y0213184D02*
X0192048Y0213184D01*
X0190285Y0212186D02*
X0211006Y0212186D01*
X0208010Y0215181D02*
X0193303Y0215181D01*
X0193500Y0216180D02*
X0207012Y0216180D01*
X0206013Y0217178D02*
X0193500Y0217178D01*
X0193500Y0218177D02*
X0205015Y0218177D01*
X0211089Y0207193D02*
X0211911Y0207193D01*
X0185952Y0213184D02*
X0184013Y0213184D01*
X0184426Y0214183D02*
X0185130Y0214183D01*
X0179000Y0209000D02*
X0179000Y0219500D01*
X0169000Y0194000D02*
X0151500Y0194000D01*
X0146500Y0189000D01*
X0151500Y0186500D02*
X0156500Y0191500D01*
X0166500Y0191500D01*
X0168902Y0189098D01*
X0168902Y0184335D01*
X0172051Y0184335D02*
X0172051Y0190949D01*
X0169000Y0194000D01*
X0175201Y0190299D02*
X0176500Y0191500D01*
X0175201Y0190299D02*
X0175201Y0184335D01*
X0178350Y0184335D02*
X0178350Y0188350D01*
X0181500Y0191500D01*
X0165752Y0187248D02*
X0165752Y0184335D01*
X0165752Y0187248D02*
X0164000Y0189000D01*
X0159000Y0189000D01*
X0156500Y0184000D01*
X0171500Y0171500D02*
X0181500Y0171500D01*
X0178100Y0167253D02*
X0172061Y0167253D01*
X0171063Y0166254D02*
X0178100Y0166254D01*
X0178100Y0165256D02*
X0170064Y0165256D01*
X0164650Y0164650D02*
X0171500Y0171500D01*
X0152813Y0164257D02*
X0143306Y0164257D01*
X0141521Y0163259D02*
X0152813Y0163259D01*
X0161500Y0131500D02*
X0171500Y0131500D01*
X0167500Y0127500D02*
X0165909Y0125909D01*
X0165909Y0117250D01*
X0161207Y0112335D02*
X0161084Y0112335D01*
X0160475Y0111336D02*
X0161816Y0111336D01*
X0167100Y0110338D02*
X0028796Y0110338D01*
X0028460Y0110726D02*
X0028460Y0110726D01*
X0027510Y0111336D02*
X0132407Y0111336D01*
X0131798Y0112335D02*
X0025956Y0112335D01*
X0024402Y0113333D02*
X0131631Y0113333D01*
X0131631Y0114332D02*
X0021160Y0114332D01*
X0024270Y0113419D02*
X0024270Y0113419D01*
X0029661Y0109339D02*
X0167100Y0109339D01*
X0167100Y0108341D02*
X0030527Y0108341D01*
X0031392Y0107342D02*
X0167100Y0107342D01*
X0167100Y0106344D02*
X0120982Y0106344D01*
X0121543Y0105345D02*
X0167100Y0105345D01*
X0167100Y0104347D02*
X0121543Y0104347D01*
X0117000Y0104347D02*
X0116000Y0104347D01*
X0116000Y0105345D02*
X0117000Y0105345D01*
X0117000Y0106344D02*
X0116000Y0106344D01*
X0112018Y0106344D02*
X0105982Y0106344D01*
X0106543Y0105345D02*
X0111457Y0105345D01*
X0111457Y0104347D02*
X0106543Y0104347D01*
X0106543Y0103348D02*
X0111457Y0103348D01*
X0111457Y0101351D02*
X0106543Y0101351D01*
X0106543Y0101512D02*
X0102000Y0101512D01*
X0102000Y0097362D01*
X0105241Y0097362D01*
X0105622Y0097464D01*
X0105964Y0097662D01*
X0106244Y0097941D01*
X0106441Y0098283D01*
X0106543Y0098665D01*
X0106543Y0101512D01*
X0106543Y0100353D02*
X0111457Y0100353D01*
X0111457Y0099354D02*
X0106543Y0099354D01*
X0106460Y0098356D02*
X0111540Y0098356D01*
X0111076Y0096359D02*
X0106924Y0096359D01*
X0107676Y0095360D02*
X0110324Y0095360D01*
X0110057Y0094362D02*
X0107943Y0094362D01*
X0107943Y0093363D02*
X0110057Y0093363D01*
X0110057Y0092365D02*
X0107943Y0092365D01*
X0102000Y0098356D02*
X0101000Y0098356D01*
X0101000Y0099354D02*
X0102000Y0099354D01*
X0102000Y0100353D02*
X0101000Y0100353D01*
X0101000Y0101351D02*
X0102000Y0101351D01*
X0102000Y0104347D02*
X0101000Y0104347D01*
X0101000Y0105345D02*
X0102000Y0105345D01*
X0102000Y0106344D02*
X0101000Y0106344D01*
X0096076Y0096359D02*
X0091924Y0096359D01*
X0092676Y0095360D02*
X0095324Y0095360D01*
X0095057Y0094362D02*
X0092943Y0094362D01*
X0092943Y0093363D02*
X0095057Y0093363D01*
X0095057Y0092365D02*
X0092943Y0092365D01*
X0092943Y0091366D02*
X0095057Y0091366D01*
X0095057Y0090368D02*
X0092943Y0090368D01*
X0092943Y0089369D02*
X0095057Y0089369D01*
X0095057Y0088370D02*
X0092943Y0088370D01*
X0092943Y0087372D02*
X0095057Y0087372D01*
X0095425Y0086373D02*
X0092575Y0086373D01*
X0091674Y0085375D02*
X0096326Y0085375D01*
X0098100Y0084376D02*
X0090932Y0084376D01*
X0091930Y0083378D02*
X0098100Y0083378D01*
X0091500Y0079000D02*
X0106500Y0079000D01*
X0109000Y0076500D01*
X0126500Y0076500D01*
X0129000Y0074000D01*
X0137400Y0074391D02*
X0167100Y0074391D01*
X0167100Y0073393D02*
X0137400Y0073393D01*
X0137400Y0072394D02*
X0167100Y0072394D01*
X0167100Y0071396D02*
X0137400Y0071396D01*
X0137400Y0070397D02*
X0167100Y0070397D01*
X0167100Y0069399D02*
X0137400Y0069399D01*
X0137400Y0068400D02*
X0167100Y0068400D01*
X0167100Y0067402D02*
X0137400Y0067402D01*
X0137400Y0066403D02*
X0167100Y0066403D01*
X0167100Y0065405D02*
X0137400Y0065405D01*
X0137400Y0064406D02*
X0167100Y0064406D01*
X0167100Y0063408D02*
X0137400Y0063408D01*
X0137400Y0062409D02*
X0167100Y0062409D01*
X0167100Y0061411D02*
X0137400Y0061411D01*
X0137400Y0060412D02*
X0167100Y0060412D01*
X0167100Y0059414D02*
X0137400Y0059414D01*
X0137400Y0058415D02*
X0167100Y0058415D01*
X0167100Y0057417D02*
X0137400Y0057417D01*
X0137400Y0056418D02*
X0167100Y0056418D01*
X0167474Y0055420D02*
X0137400Y0055420D01*
X0137400Y0054421D02*
X0168271Y0054421D01*
X0169269Y0053423D02*
X0137400Y0053423D01*
X0137400Y0052424D02*
X0170268Y0052424D01*
X0171266Y0051426D02*
X0137400Y0051426D01*
X0137400Y0050427D02*
X0172265Y0050427D01*
X0173263Y0049429D02*
X0137400Y0049429D01*
X0137400Y0048430D02*
X0174262Y0048430D01*
X0175260Y0047432D02*
X0137400Y0047432D01*
X0137400Y0046433D02*
X0176259Y0046433D01*
X0177516Y0045434D02*
X0137400Y0045434D01*
X0114922Y0058415D02*
X0109900Y0058415D01*
X0109900Y0057417D02*
X0112773Y0057417D01*
X0111774Y0056418D02*
X0109900Y0056418D01*
X0106500Y0052600D02*
X0093700Y0052600D01*
X0089322Y0058415D02*
X0083678Y0058415D01*
X0085827Y0057417D02*
X0087173Y0057417D01*
X0089646Y0066011D02*
X0090346Y0065900D01*
X0093200Y0065900D01*
X0093200Y0069900D01*
X0086223Y0069900D01*
X0079800Y0069900D01*
X0079800Y0065900D01*
X0082654Y0065900D01*
X0083354Y0066011D01*
X0084027Y0066230D01*
X0084659Y0066551D01*
X0085232Y0066968D01*
X0085732Y0067468D01*
X0086149Y0068041D01*
X0086470Y0068673D01*
X0086500Y0068764D01*
X0086530Y0068673D01*
X0086851Y0068041D01*
X0087268Y0067468D01*
X0087768Y0066968D01*
X0088341Y0066551D01*
X0088973Y0066230D01*
X0089646Y0066011D01*
X0088632Y0066403D02*
X0084368Y0066403D01*
X0085666Y0067402D02*
X0087334Y0067402D01*
X0086668Y0068400D02*
X0086332Y0068400D01*
X0079800Y0068400D02*
X0078800Y0068400D01*
X0078800Y0067402D02*
X0079800Y0067402D01*
X0079800Y0066403D02*
X0078800Y0066403D01*
X0078800Y0065900D02*
X0075946Y0065900D01*
X0075246Y0066011D01*
X0074573Y0066230D01*
X0073941Y0066551D01*
X0073368Y0066968D01*
X0072868Y0067468D01*
X0072451Y0068041D01*
X0072130Y0068673D01*
X0071911Y0069346D01*
X0071823Y0069900D01*
X0078800Y0069900D01*
X0078800Y0065900D01*
X0074232Y0066403D02*
X0069900Y0066403D01*
X0069900Y0065405D02*
X0103100Y0065405D01*
X0103100Y0066403D02*
X0098768Y0066403D01*
X0099059Y0066551D02*
X0099632Y0066968D01*
X0100132Y0067468D01*
X0100549Y0068041D01*
X0100870Y0068673D01*
X0101089Y0069346D01*
X0101177Y0069900D01*
X0094200Y0069900D01*
X0094200Y0065900D01*
X0097054Y0065900D01*
X0097754Y0066011D01*
X0098427Y0066230D01*
X0099059Y0066551D01*
X0100066Y0067402D02*
X0103100Y0067402D01*
X0103100Y0068400D02*
X0100732Y0068400D01*
X0101098Y0069399D02*
X0103100Y0069399D01*
X0103100Y0070397D02*
X0094200Y0070397D01*
X0094200Y0069399D02*
X0093200Y0069399D01*
X0093200Y0070397D02*
X0079800Y0070397D01*
X0079800Y0069399D02*
X0078800Y0069399D01*
X0078800Y0070397D02*
X0069900Y0070397D01*
X0069900Y0069399D02*
X0071902Y0069399D01*
X0072268Y0068400D02*
X0069900Y0068400D01*
X0069900Y0067402D02*
X0072934Y0067402D01*
X0069900Y0064406D02*
X0103100Y0064406D01*
X0103100Y0063408D02*
X0069900Y0063408D01*
X0069900Y0062409D02*
X0103100Y0062409D01*
X0103100Y0061411D02*
X0069900Y0061411D01*
X0069900Y0060412D02*
X0103100Y0060412D01*
X0103100Y0059414D02*
X0069900Y0059414D01*
X0069900Y0058415D02*
X0074922Y0058415D01*
X0072773Y0057417D02*
X0069900Y0057417D01*
X0069900Y0056418D02*
X0071774Y0056418D01*
X0066500Y0052600D02*
X0066500Y0074000D01*
X0056500Y0084000D01*
X0056500Y0090988D01*
X0050057Y0091366D02*
X0047943Y0091366D01*
X0047943Y0090368D02*
X0050057Y0090368D01*
X0050057Y0089369D02*
X0047943Y0089369D01*
X0047943Y0088370D02*
X0050057Y0088370D01*
X0050057Y0087372D02*
X0047943Y0087372D01*
X0047575Y0086373D02*
X0050425Y0086373D01*
X0051326Y0085375D02*
X0046674Y0085375D01*
X0044900Y0084376D02*
X0053100Y0084376D01*
X0053100Y0083378D02*
X0044900Y0083378D01*
X0044509Y0082379D02*
X0053491Y0082379D01*
X0054311Y0081381D02*
X0043689Y0081381D01*
X0042691Y0080382D02*
X0055309Y0080382D01*
X0056308Y0079384D02*
X0041692Y0079384D01*
X0040694Y0078385D02*
X0057306Y0078385D01*
X0058305Y0077387D02*
X0039695Y0077387D01*
X0038697Y0076388D02*
X0059303Y0076388D01*
X0060302Y0075390D02*
X0037698Y0075390D01*
X0038800Y0074391D02*
X0039800Y0074391D01*
X0039800Y0074900D02*
X0039800Y0070900D01*
X0053200Y0070900D01*
X0053200Y0074900D01*
X0050346Y0074900D01*
X0049646Y0074789D01*
X0048973Y0074570D01*
X0048341Y0074249D01*
X0047768Y0073832D01*
X0047268Y0073332D01*
X0046851Y0072759D01*
X0046530Y0072127D01*
X0046500Y0072036D01*
X0046470Y0072127D01*
X0046149Y0072759D01*
X0045732Y0073332D01*
X0045232Y0073832D01*
X0044659Y0074249D01*
X0044027Y0074570D01*
X0043354Y0074789D01*
X0042654Y0074900D01*
X0039800Y0074900D01*
X0039800Y0073393D02*
X0038800Y0073393D01*
X0038800Y0072394D02*
X0039800Y0072394D01*
X0039800Y0071396D02*
X0038800Y0071396D01*
X0039800Y0070397D02*
X0053200Y0070397D01*
X0053200Y0069900D02*
X0046223Y0069900D01*
X0039800Y0069900D01*
X0039800Y0065900D01*
X0042654Y0065900D01*
X0043354Y0066011D01*
X0044027Y0066230D01*
X0044659Y0066551D01*
X0045232Y0066968D01*
X0045732Y0067468D01*
X0046149Y0068041D01*
X0046470Y0068673D01*
X0046500Y0068764D01*
X0046530Y0068673D01*
X0046851Y0068041D01*
X0047268Y0067468D01*
X0047768Y0066968D01*
X0048341Y0066551D01*
X0048973Y0066230D01*
X0049646Y0066011D01*
X0050346Y0065900D01*
X0053200Y0065900D01*
X0053200Y0069900D01*
X0054200Y0069900D01*
X0054200Y0070900D01*
X0053200Y0070900D01*
X0053200Y0069900D01*
X0053200Y0069399D02*
X0054200Y0069399D01*
X0054200Y0069900D02*
X0054200Y0065900D01*
X0057054Y0065900D01*
X0057754Y0066011D01*
X0058427Y0066230D01*
X0059059Y0066551D01*
X0059632Y0066968D01*
X0060132Y0067468D01*
X0060549Y0068041D01*
X0060870Y0068673D01*
X0061089Y0069346D01*
X0061177Y0069900D01*
X0054200Y0069900D01*
X0054200Y0070397D02*
X0063100Y0070397D01*
X0063100Y0069399D02*
X0061098Y0069399D01*
X0060732Y0068400D02*
X0063100Y0068400D01*
X0063100Y0067402D02*
X0060066Y0067402D01*
X0058768Y0066403D02*
X0063100Y0066403D01*
X0063100Y0065405D02*
X0029900Y0065405D01*
X0029900Y0066403D02*
X0034232Y0066403D01*
X0032934Y0067402D02*
X0029900Y0067402D01*
X0030709Y0068400D02*
X0032268Y0068400D01*
X0031902Y0069399D02*
X0031707Y0069399D01*
X0026500Y0069000D02*
X0041500Y0084000D01*
X0041500Y0090988D01*
X0035057Y0091366D02*
X0033241Y0091366D01*
X0032785Y0090368D02*
X0035057Y0090368D01*
X0035057Y0089369D02*
X0032329Y0089369D01*
X0031873Y0088370D02*
X0035057Y0088370D01*
X0035057Y0087372D02*
X0031144Y0087372D01*
X0031722Y0088039D02*
X0031722Y0088039D01*
X0030279Y0086373D02*
X0035425Y0086373D01*
X0036326Y0085375D02*
X0029414Y0085375D01*
X0028548Y0084376D02*
X0037068Y0084376D01*
X0036070Y0083378D02*
X0027065Y0083378D01*
X0025511Y0082379D02*
X0035071Y0082379D01*
X0034073Y0081381D02*
X0023587Y0081381D01*
X0024270Y0081581D02*
X0024270Y0081581D01*
X0020186Y0080382D02*
X0033074Y0080382D01*
X0032076Y0079384D02*
X0004000Y0079384D01*
X0004000Y0080382D02*
X0013814Y0080382D01*
X0010413Y0081381D02*
X0004000Y0081381D01*
X0004000Y0082379D02*
X0008489Y0082379D01*
X0006935Y0083378D02*
X0004000Y0083378D01*
X0004000Y0084376D02*
X0005452Y0084376D01*
X0005540Y0084274D02*
X0005540Y0084274D01*
X0004586Y0085375D02*
X0004000Y0085375D01*
X0004000Y0078385D02*
X0031077Y0078385D01*
X0030079Y0077387D02*
X0004000Y0077387D01*
X0004000Y0076388D02*
X0029080Y0076388D01*
X0028082Y0075390D02*
X0004000Y0075390D01*
X0004000Y0074391D02*
X0008621Y0074391D01*
X0008341Y0074249D02*
X0007768Y0073832D01*
X0007268Y0073332D01*
X0006851Y0072759D01*
X0006530Y0072127D01*
X0006311Y0071454D01*
X0006223Y0070900D01*
X0013200Y0070900D01*
X0013200Y0074900D01*
X0010346Y0074900D01*
X0009646Y0074789D01*
X0008973Y0074570D01*
X0008341Y0074249D01*
X0007329Y0073393D02*
X0004000Y0073393D01*
X0004000Y0072394D02*
X0006666Y0072394D01*
X0006302Y0071396D02*
X0004000Y0071396D01*
X0004000Y0070397D02*
X0013200Y0070397D01*
X0013200Y0069900D02*
X0006223Y0069900D01*
X0006311Y0069346D01*
X0006530Y0068673D01*
X0006851Y0068041D01*
X0007268Y0067468D01*
X0007768Y0066968D01*
X0008341Y0066551D01*
X0008973Y0066230D01*
X0009646Y0066011D01*
X0010346Y0065900D01*
X0013200Y0065900D01*
X0013200Y0069900D01*
X0014200Y0069900D01*
X0014200Y0070900D01*
X0013200Y0070900D01*
X0013200Y0069900D01*
X0013200Y0069399D02*
X0014200Y0069399D01*
X0014200Y0069900D02*
X0014200Y0065900D01*
X0017054Y0065900D01*
X0017754Y0066011D01*
X0018427Y0066230D01*
X0019059Y0066551D01*
X0019632Y0066968D01*
X0020132Y0067468D01*
X0020549Y0068041D01*
X0020870Y0068673D01*
X0021089Y0069346D01*
X0021177Y0069900D01*
X0014200Y0069900D01*
X0014200Y0070397D02*
X0023399Y0070397D01*
X0023100Y0069399D02*
X0021098Y0069399D01*
X0020732Y0068400D02*
X0023100Y0068400D01*
X0023100Y0067402D02*
X0020066Y0067402D01*
X0018768Y0066403D02*
X0023100Y0066403D01*
X0023100Y0065405D02*
X0004000Y0065405D01*
X0004000Y0066403D02*
X0008632Y0066403D01*
X0007334Y0067402D02*
X0004000Y0067402D01*
X0004000Y0068400D02*
X0006668Y0068400D01*
X0006302Y0069399D02*
X0004000Y0069399D01*
X0004000Y0064406D02*
X0023100Y0064406D01*
X0023100Y0063408D02*
X0004000Y0063408D01*
X0004000Y0062409D02*
X0023100Y0062409D01*
X0023100Y0061411D02*
X0004000Y0061411D01*
X0004000Y0060412D02*
X0023100Y0060412D01*
X0023100Y0059414D02*
X0004000Y0059414D01*
X0004000Y0058415D02*
X0009322Y0058415D01*
X0007173Y0057417D02*
X0004000Y0057417D01*
X0004000Y0056418D02*
X0006174Y0056418D01*
X0005482Y0055420D02*
X0004000Y0055420D01*
X0004000Y0054421D02*
X0005068Y0054421D01*
X0004800Y0053423D02*
X0004000Y0053423D01*
X0004000Y0052424D02*
X0004800Y0052424D01*
X0004800Y0051426D02*
X0004000Y0051426D01*
X0004000Y0050427D02*
X0005214Y0050427D01*
X0005628Y0049429D02*
X0004000Y0049429D01*
X0004000Y0048430D02*
X0006526Y0048430D01*
X0007760Y0047432D02*
X0004000Y0047432D01*
X0004000Y0046433D02*
X0029125Y0046433D01*
X0030123Y0047432D02*
X0019640Y0047432D01*
X0020874Y0048430D02*
X0031122Y0048430D01*
X0028126Y0045434D02*
X0004000Y0045434D01*
X0004000Y0044436D02*
X0027128Y0044436D01*
X0026129Y0043437D02*
X0004000Y0043437D01*
X0004000Y0042439D02*
X0025131Y0042439D01*
X0024132Y0041440D02*
X0004000Y0041440D01*
X0004000Y0040442D02*
X0023417Y0040442D01*
X0023100Y0039443D02*
X0018676Y0039443D01*
X0018427Y0039570D02*
X0017754Y0039789D01*
X0017054Y0039900D01*
X0014200Y0039900D01*
X0014200Y0035900D01*
X0013200Y0035900D01*
X0013200Y0039900D01*
X0010346Y0039900D01*
X0009646Y0039789D01*
X0008973Y0039570D01*
X0008341Y0039249D01*
X0007768Y0038832D01*
X0007268Y0038332D01*
X0006851Y0037759D01*
X0006530Y0037127D01*
X0006311Y0036454D01*
X0006223Y0035900D01*
X0013200Y0035900D01*
X0013200Y0034900D01*
X0014200Y0034900D01*
X0014200Y0035900D01*
X0021177Y0035900D01*
X0021089Y0036454D01*
X0020870Y0037127D01*
X0020549Y0037759D01*
X0020132Y0038332D01*
X0019632Y0038832D01*
X0019059Y0039249D01*
X0018427Y0039570D01*
X0020019Y0038445D02*
X0023100Y0038445D01*
X0023100Y0037446D02*
X0020708Y0037446D01*
X0021090Y0036448D02*
X0023100Y0036448D01*
X0023100Y0035449D02*
X0014200Y0035449D01*
X0014200Y0034900D02*
X0021177Y0034900D01*
X0021089Y0034346D01*
X0020870Y0033673D01*
X0020549Y0033041D01*
X0020132Y0032468D01*
X0019632Y0031968D01*
X0019059Y0031551D01*
X0018427Y0031230D01*
X0017754Y0031011D01*
X0017054Y0030900D01*
X0014200Y0030900D01*
X0014200Y0034900D01*
X0014200Y0034451D02*
X0013200Y0034451D01*
X0013200Y0034900D02*
X0013200Y0030900D01*
X0010346Y0030900D01*
X0009646Y0031011D01*
X0008973Y0031230D01*
X0008341Y0031551D01*
X0007768Y0031968D01*
X0007268Y0032468D01*
X0006851Y0033041D01*
X0006530Y0033673D01*
X0006311Y0034346D01*
X0006223Y0034900D01*
X0013200Y0034900D01*
X0013200Y0035449D02*
X0004000Y0035449D01*
X0004000Y0034451D02*
X0006294Y0034451D01*
X0006642Y0033452D02*
X0004000Y0033452D01*
X0004000Y0032454D02*
X0007282Y0032454D01*
X0008530Y0031455D02*
X0004000Y0031455D01*
X0004000Y0030457D02*
X0023100Y0030457D01*
X0023100Y0031455D02*
X0018870Y0031455D01*
X0020118Y0032454D02*
X0023100Y0032454D01*
X0023100Y0033452D02*
X0020758Y0033452D01*
X0021106Y0034451D02*
X0023100Y0034451D01*
X0023100Y0029458D02*
X0004000Y0029458D01*
X0004000Y0028460D02*
X0023100Y0028460D01*
X0023100Y0027461D02*
X0004000Y0027461D01*
X0004000Y0026463D02*
X0023100Y0026463D01*
X0023100Y0025464D02*
X0004000Y0025464D01*
X0004000Y0024466D02*
X0023100Y0024466D01*
X0023100Y0023467D02*
X0017953Y0023467D01*
X0020175Y0022469D02*
X0023100Y0022469D01*
X0023100Y0021470D02*
X0021174Y0021470D01*
X0026500Y0017600D02*
X0013700Y0017600D01*
X0009447Y0023467D02*
X0004000Y0023467D01*
X0004000Y0022469D02*
X0007225Y0022469D01*
X0006226Y0021470D02*
X0004000Y0021470D01*
X0004000Y0020472D02*
X0005503Y0020472D01*
X0005090Y0019473D02*
X0004000Y0019473D01*
X0004000Y0018475D02*
X0004800Y0018475D01*
X0004800Y0017476D02*
X0004000Y0017476D01*
X0004000Y0016478D02*
X0004800Y0016478D01*
X0005192Y0015479D02*
X0004000Y0015479D01*
X0004000Y0014481D02*
X0005606Y0014481D01*
X0006474Y0013482D02*
X0004000Y0013482D01*
X0004000Y0012484D02*
X0007635Y0012484D01*
X0004000Y0011485D02*
X0325772Y0011485D01*
X0325772Y0010487D02*
X0004000Y0010487D01*
X0004000Y0009488D02*
X0325772Y0009488D01*
X0325772Y0008490D02*
X0004000Y0008490D01*
X0004000Y0007491D02*
X0325772Y0007491D01*
X0325772Y0006493D02*
X0004000Y0006493D01*
X0004000Y0005494D02*
X0325772Y0005494D01*
X0325772Y0004496D02*
X0004000Y0004496D01*
X0019765Y0012484D02*
X0033235Y0012484D01*
X0032074Y0013482D02*
X0020926Y0013482D01*
X0029900Y0021470D02*
X0031826Y0021470D01*
X0032825Y0022469D02*
X0029900Y0022469D01*
X0029900Y0023467D02*
X0035047Y0023467D01*
X0029900Y0024466D02*
X0063100Y0024466D01*
X0063100Y0025464D02*
X0029900Y0025464D01*
X0029900Y0026463D02*
X0063100Y0026463D01*
X0063100Y0027461D02*
X0029900Y0027461D01*
X0029900Y0028460D02*
X0063100Y0028460D01*
X0063100Y0029458D02*
X0029900Y0029458D01*
X0029900Y0030457D02*
X0063100Y0030457D01*
X0063100Y0031455D02*
X0058870Y0031455D01*
X0059059Y0031551D02*
X0059632Y0031968D01*
X0060132Y0032468D01*
X0060549Y0033041D01*
X0060870Y0033673D01*
X0061089Y0034346D01*
X0061177Y0034900D01*
X0054200Y0034900D01*
X0054200Y0035900D01*
X0053200Y0035900D01*
X0053200Y0039900D01*
X0050346Y0039900D01*
X0049646Y0039789D01*
X0048973Y0039570D01*
X0048341Y0039249D01*
X0047768Y0038832D01*
X0047268Y0038332D01*
X0046851Y0037759D01*
X0046530Y0037127D01*
X0046500Y0037036D01*
X0046470Y0037127D01*
X0046149Y0037759D01*
X0045732Y0038332D01*
X0045232Y0038832D01*
X0044659Y0039249D01*
X0044027Y0039570D01*
X0043354Y0039789D01*
X0042654Y0039900D01*
X0039800Y0039900D01*
X0039800Y0035900D01*
X0038800Y0035900D01*
X0038800Y0039900D01*
X0035946Y0039900D01*
X0035246Y0039789D01*
X0034573Y0039570D01*
X0033941Y0039249D01*
X0033368Y0038832D01*
X0032868Y0038332D01*
X0032451Y0037759D01*
X0032130Y0037127D01*
X0031911Y0036454D01*
X0031823Y0035900D01*
X0038800Y0035900D01*
X0038800Y0034900D01*
X0039800Y0034900D01*
X0039800Y0035900D01*
X0053200Y0035900D01*
X0053200Y0034900D01*
X0054200Y0034900D01*
X0054200Y0030900D01*
X0057054Y0030900D01*
X0057754Y0031011D01*
X0058427Y0031230D01*
X0059059Y0031551D01*
X0060118Y0032454D02*
X0063100Y0032454D01*
X0063100Y0033452D02*
X0060758Y0033452D01*
X0061106Y0034451D02*
X0063100Y0034451D01*
X0063100Y0035449D02*
X0054200Y0035449D01*
X0054200Y0035900D02*
X0061177Y0035900D01*
X0061089Y0036454D01*
X0060870Y0037127D01*
X0060549Y0037759D01*
X0060132Y0038332D01*
X0059632Y0038832D01*
X0059059Y0039249D01*
X0058427Y0039570D01*
X0057754Y0039789D01*
X0057054Y0039900D01*
X0054200Y0039900D01*
X0054200Y0035900D01*
X0054200Y0036448D02*
X0053200Y0036448D01*
X0053200Y0037446D02*
X0054200Y0037446D01*
X0054200Y0038445D02*
X0053200Y0038445D01*
X0053200Y0039443D02*
X0054200Y0039443D01*
X0058676Y0039443D02*
X0063100Y0039443D01*
X0063100Y0038445D02*
X0060019Y0038445D01*
X0060708Y0037446D02*
X0063100Y0037446D01*
X0063100Y0036448D02*
X0061090Y0036448D01*
X0063417Y0040442D02*
X0032750Y0040442D01*
X0031752Y0039443D02*
X0034324Y0039443D01*
X0032981Y0038445D02*
X0030753Y0038445D01*
X0029900Y0037446D02*
X0032292Y0037446D01*
X0031910Y0036448D02*
X0029900Y0036448D01*
X0029900Y0035449D02*
X0038800Y0035449D01*
X0038800Y0034900D02*
X0031823Y0034900D01*
X0031911Y0034346D01*
X0032130Y0033673D01*
X0032451Y0033041D01*
X0032868Y0032468D01*
X0033368Y0031968D01*
X0033941Y0031551D01*
X0034573Y0031230D01*
X0035246Y0031011D01*
X0035946Y0030900D01*
X0038800Y0030900D01*
X0038800Y0034900D01*
X0038800Y0034451D02*
X0039800Y0034451D01*
X0039800Y0034900D02*
X0039800Y0030900D01*
X0042654Y0030900D01*
X0043354Y0031011D01*
X0044027Y0031230D01*
X0044659Y0031551D01*
X0045232Y0031968D01*
X0045732Y0032468D01*
X0046149Y0033041D01*
X0046470Y0033673D01*
X0046500Y0033764D01*
X0046530Y0033673D01*
X0046851Y0033041D01*
X0047268Y0032468D01*
X0047768Y0031968D01*
X0048341Y0031551D01*
X0048973Y0031230D01*
X0049646Y0031011D01*
X0050346Y0030900D01*
X0053200Y0030900D01*
X0053200Y0034900D01*
X0046777Y0034900D01*
X0039800Y0034900D01*
X0039800Y0035449D02*
X0053200Y0035449D01*
X0053200Y0034451D02*
X0054200Y0034451D01*
X0054200Y0033452D02*
X0053200Y0033452D01*
X0053200Y0032454D02*
X0054200Y0032454D01*
X0054200Y0031455D02*
X0053200Y0031455D01*
X0048530Y0031455D02*
X0044470Y0031455D01*
X0045718Y0032454D02*
X0047282Y0032454D01*
X0046642Y0033452D02*
X0046358Y0033452D01*
X0046308Y0037446D02*
X0046692Y0037446D01*
X0047381Y0038445D02*
X0045619Y0038445D01*
X0044276Y0039443D02*
X0048724Y0039443D01*
X0039800Y0039443D02*
X0038800Y0039443D01*
X0038800Y0038445D02*
X0039800Y0038445D01*
X0039800Y0037446D02*
X0038800Y0037446D01*
X0038800Y0036448D02*
X0039800Y0036448D01*
X0039800Y0033452D02*
X0038800Y0033452D01*
X0038800Y0032454D02*
X0039800Y0032454D01*
X0039800Y0031455D02*
X0038800Y0031455D01*
X0034130Y0031455D02*
X0029900Y0031455D01*
X0029900Y0032454D02*
X0032882Y0032454D01*
X0032242Y0033452D02*
X0029900Y0033452D01*
X0029900Y0034451D02*
X0031894Y0034451D01*
X0033749Y0041440D02*
X0064132Y0041440D01*
X0065131Y0042439D02*
X0034747Y0042439D01*
X0039300Y0052600D02*
X0026500Y0052600D01*
X0026500Y0069000D01*
X0024087Y0071396D02*
X0021098Y0071396D01*
X0021089Y0071454D02*
X0020870Y0072127D01*
X0020549Y0072759D01*
X0020132Y0073332D01*
X0019632Y0073832D01*
X0019059Y0074249D01*
X0018427Y0074570D01*
X0017754Y0074789D01*
X0017054Y0074900D01*
X0014200Y0074900D01*
X0014200Y0070900D01*
X0021177Y0070900D01*
X0021089Y0071454D01*
X0020734Y0072394D02*
X0025086Y0072394D01*
X0026085Y0073393D02*
X0020071Y0073393D01*
X0018779Y0074391D02*
X0027083Y0074391D01*
X0038800Y0069399D02*
X0039800Y0069399D01*
X0039800Y0068400D02*
X0038800Y0068400D01*
X0038800Y0067402D02*
X0039800Y0067402D01*
X0039800Y0066403D02*
X0038800Y0066403D01*
X0044368Y0066403D02*
X0048632Y0066403D01*
X0047334Y0067402D02*
X0045666Y0067402D01*
X0046332Y0068400D02*
X0046668Y0068400D01*
X0053200Y0068400D02*
X0054200Y0068400D01*
X0054200Y0067402D02*
X0053200Y0067402D01*
X0053200Y0066403D02*
X0054200Y0066403D01*
X0054200Y0070900D02*
X0061177Y0070900D01*
X0061089Y0071454D01*
X0060870Y0072127D01*
X0060549Y0072759D01*
X0060132Y0073332D01*
X0059632Y0073832D01*
X0059059Y0074249D01*
X0058427Y0074570D01*
X0057754Y0074789D01*
X0057054Y0074900D01*
X0054200Y0074900D01*
X0054200Y0070900D01*
X0054200Y0071396D02*
X0053200Y0071396D01*
X0053200Y0072394D02*
X0054200Y0072394D01*
X0054200Y0073393D02*
X0053200Y0073393D01*
X0053200Y0074391D02*
X0054200Y0074391D01*
X0058779Y0074391D02*
X0061300Y0074391D01*
X0062299Y0073393D02*
X0060071Y0073393D01*
X0060734Y0072394D02*
X0063100Y0072394D01*
X0063100Y0071396D02*
X0061098Y0071396D01*
X0069900Y0071396D02*
X0071902Y0071396D01*
X0072266Y0072394D02*
X0069900Y0072394D01*
X0069900Y0073393D02*
X0072929Y0073393D01*
X0074221Y0074391D02*
X0069900Y0074391D01*
X0069604Y0075390D02*
X0075302Y0075390D01*
X0074303Y0076388D02*
X0068920Y0076388D01*
X0067921Y0077387D02*
X0073305Y0077387D01*
X0072306Y0078385D02*
X0066923Y0078385D01*
X0065924Y0079384D02*
X0071308Y0079384D01*
X0070309Y0080382D02*
X0064926Y0080382D01*
X0063927Y0081381D02*
X0069311Y0081381D01*
X0068491Y0082379D02*
X0062929Y0082379D01*
X0061930Y0083378D02*
X0068100Y0083378D01*
X0068100Y0084376D02*
X0060932Y0084376D01*
X0061674Y0085375D02*
X0066326Y0085375D01*
X0065425Y0086373D02*
X0062575Y0086373D01*
X0062943Y0087372D02*
X0065057Y0087372D01*
X0065057Y0088370D02*
X0062943Y0088370D01*
X0062943Y0089369D02*
X0065057Y0089369D01*
X0065057Y0090368D02*
X0062943Y0090368D01*
X0062943Y0091366D02*
X0065057Y0091366D01*
X0065057Y0092365D02*
X0062943Y0092365D01*
X0062943Y0093363D02*
X0065057Y0093363D01*
X0065057Y0094362D02*
X0062943Y0094362D01*
X0062676Y0095360D02*
X0065324Y0095360D01*
X0066076Y0096359D02*
X0061924Y0096359D01*
X0060964Y0097662D02*
X0061244Y0097941D01*
X0061441Y0098283D01*
X0061543Y0098665D01*
X0061543Y0101512D01*
X0057000Y0101512D01*
X0057000Y0097362D01*
X0060241Y0097362D01*
X0060622Y0097464D01*
X0060964Y0097662D01*
X0061460Y0098356D02*
X0066540Y0098356D01*
X0066457Y0099354D02*
X0061543Y0099354D01*
X0061543Y0100353D02*
X0066457Y0100353D01*
X0066457Y0101351D02*
X0061543Y0101351D01*
X0061543Y0103348D02*
X0066457Y0103348D01*
X0066457Y0104347D02*
X0061543Y0104347D01*
X0061543Y0105345D02*
X0066457Y0105345D01*
X0067018Y0106344D02*
X0060982Y0106344D01*
X0057000Y0106344D02*
X0056000Y0106344D01*
X0056000Y0105345D02*
X0057000Y0105345D01*
X0057000Y0104347D02*
X0056000Y0104347D01*
X0052018Y0106344D02*
X0045982Y0106344D01*
X0046543Y0105345D02*
X0051457Y0105345D01*
X0051457Y0104347D02*
X0046543Y0104347D01*
X0046543Y0103348D02*
X0051457Y0103348D01*
X0051457Y0101351D02*
X0046543Y0101351D01*
X0046543Y0101512D02*
X0042000Y0101512D01*
X0042000Y0097362D01*
X0045241Y0097362D01*
X0045622Y0097464D01*
X0045964Y0097662D01*
X0046244Y0097941D01*
X0046441Y0098283D01*
X0046543Y0098665D01*
X0046543Y0101512D01*
X0046543Y0100353D02*
X0051457Y0100353D01*
X0051457Y0099354D02*
X0046543Y0099354D01*
X0046460Y0098356D02*
X0051540Y0098356D01*
X0051076Y0096359D02*
X0046924Y0096359D01*
X0047676Y0095360D02*
X0050324Y0095360D01*
X0050057Y0094362D02*
X0047943Y0094362D01*
X0047943Y0093363D02*
X0050057Y0093363D01*
X0050057Y0092365D02*
X0047943Y0092365D01*
X0042000Y0098356D02*
X0041000Y0098356D01*
X0041000Y0099354D02*
X0042000Y0099354D01*
X0042000Y0100353D02*
X0041000Y0100353D01*
X0041000Y0101351D02*
X0042000Y0101351D01*
X0042000Y0104347D02*
X0041000Y0104347D01*
X0041000Y0105345D02*
X0042000Y0105345D01*
X0042000Y0106344D02*
X0041000Y0106344D01*
X0037018Y0106344D02*
X0032004Y0106344D01*
X0031722Y0106961D02*
X0031722Y0106961D01*
X0032460Y0105345D02*
X0036457Y0105345D01*
X0036457Y0104347D02*
X0032916Y0104347D01*
X0033372Y0103348D02*
X0036457Y0103348D01*
X0036076Y0096359D02*
X0034336Y0096359D01*
X0034192Y0095360D02*
X0035324Y0095360D01*
X0035057Y0094362D02*
X0034049Y0094362D01*
X0033905Y0093363D02*
X0035057Y0093363D01*
X0035057Y0092365D02*
X0033697Y0092365D01*
X0033791Y0092570D02*
X0033791Y0092570D01*
X0056000Y0098356D02*
X0057000Y0098356D01*
X0057000Y0099354D02*
X0056000Y0099354D01*
X0056000Y0100353D02*
X0057000Y0100353D01*
X0057000Y0101351D02*
X0056000Y0101351D01*
X0071000Y0101351D02*
X0072000Y0101351D01*
X0072000Y0100353D02*
X0071000Y0100353D01*
X0071000Y0099354D02*
X0072000Y0099354D01*
X0072000Y0098356D02*
X0071000Y0098356D01*
X0071000Y0104347D02*
X0072000Y0104347D01*
X0072000Y0105345D02*
X0071000Y0105345D01*
X0071000Y0106344D02*
X0072000Y0106344D01*
X0057000Y0116329D02*
X0056000Y0116329D01*
X0056000Y0117327D02*
X0057000Y0117327D01*
X0057000Y0118326D02*
X0056000Y0118326D01*
X0056000Y0119324D02*
X0057000Y0119324D01*
X0037047Y0122320D02*
X0004000Y0122320D01*
X0004000Y0123318D02*
X0037047Y0123318D01*
X0037047Y0124317D02*
X0004000Y0124317D01*
X0004000Y0125315D02*
X0037099Y0125315D01*
X0036207Y0126314D02*
X0004000Y0126314D01*
X0004000Y0127312D02*
X0035724Y0127312D01*
X0035647Y0128311D02*
X0004000Y0128311D01*
X0004000Y0129309D02*
X0035647Y0129309D01*
X0035647Y0130308D02*
X0004000Y0130308D01*
X0004000Y0131306D02*
X0035647Y0131306D01*
X0012840Y0114332D02*
X0004000Y0114332D01*
X0004000Y0115330D02*
X0131631Y0115330D01*
X0141368Y0115330D02*
X0144820Y0115330D01*
X0144820Y0114332D02*
X0141368Y0114332D01*
X0141368Y0113333D02*
X0144820Y0113333D01*
X0144987Y0112335D02*
X0141202Y0112335D01*
X0140593Y0111336D02*
X0145596Y0111336D01*
X0144820Y0116329D02*
X0141368Y0116329D01*
X0141368Y0117327D02*
X0144820Y0117327D01*
X0144820Y0118326D02*
X0141368Y0118326D01*
X0141368Y0119324D02*
X0144820Y0119324D01*
X0144820Y0120323D02*
X0141368Y0120323D01*
X0141368Y0121321D02*
X0144820Y0121321D01*
X0145051Y0122320D02*
X0141138Y0122320D01*
X0140438Y0123318D02*
X0145751Y0123318D01*
X0156382Y0126382D02*
X0156382Y0117250D01*
X0156382Y0126382D02*
X0161500Y0131500D01*
X0167500Y0127500D02*
X0176500Y0127500D01*
X0187895Y0124087D02*
X0190698Y0126890D01*
X0190698Y0126225D01*
X0191216Y0124976D01*
X0193505Y0122687D01*
X0192575Y0122687D01*
X0192575Y0117734D01*
X0191606Y0117734D01*
X0191606Y0122687D01*
X0190081Y0122687D01*
X0190021Y0122830D01*
X0189206Y0123645D01*
X0188140Y0124087D01*
X0187895Y0124087D01*
X0188125Y0124317D02*
X0191875Y0124317D01*
X0191075Y0125315D02*
X0189124Y0125315D01*
X0190122Y0126314D02*
X0190698Y0126314D01*
X0189533Y0123318D02*
X0192873Y0123318D01*
X0192575Y0122320D02*
X0191606Y0122320D01*
X0191606Y0121321D02*
X0192575Y0121321D01*
X0192575Y0120323D02*
X0191606Y0120323D01*
X0191606Y0119324D02*
X0192575Y0119324D01*
X0192575Y0118326D02*
X0191606Y0118326D01*
X0191606Y0116329D02*
X0192575Y0116329D01*
X0192575Y0115330D02*
X0191606Y0115330D01*
X0191606Y0114332D02*
X0192575Y0114332D01*
X0192575Y0113333D02*
X0191606Y0113333D01*
X0191606Y0112335D02*
X0192575Y0112335D01*
X0194494Y0111336D02*
X0189687Y0111336D01*
X0188994Y0110338D02*
X0201880Y0110338D01*
X0201880Y0109339D02*
X0188994Y0109339D01*
X0189468Y0108341D02*
X0201880Y0108341D01*
X0201880Y0107342D02*
X0190466Y0107342D01*
X0191465Y0106344D02*
X0201880Y0106344D01*
X0201880Y0105345D02*
X0194302Y0105345D01*
X0195300Y0104347D02*
X0201880Y0104347D01*
X0201880Y0103348D02*
X0195822Y0103348D01*
X0196200Y0102350D02*
X0201880Y0102350D01*
X0201880Y0101351D02*
X0196200Y0101351D01*
X0196112Y0100353D02*
X0201880Y0100353D01*
X0201880Y0099354D02*
X0195698Y0099354D01*
X0195002Y0098356D02*
X0201880Y0098356D01*
X0201880Y0097357D02*
X0193780Y0097357D01*
X0191500Y0101500D02*
X0185594Y0107406D01*
X0185594Y0117250D01*
X0175752Y0117250D02*
X0175752Y0092248D01*
X0181500Y0086500D01*
X0186200Y0086373D02*
X0186800Y0086373D01*
X0186879Y0085375D02*
X0186121Y0085375D01*
X0185708Y0084376D02*
X0187292Y0084376D01*
X0187975Y0083378D02*
X0185025Y0083378D01*
X0183834Y0082379D02*
X0189166Y0082379D01*
X0195278Y0089369D02*
X0197722Y0089369D01*
X0198721Y0090368D02*
X0194279Y0090368D01*
X0191442Y0091366D02*
X0201558Y0091366D01*
X0201880Y0092365D02*
X0190444Y0092365D01*
X0189445Y0093363D02*
X0201880Y0093363D01*
X0201880Y0094362D02*
X0188447Y0094362D01*
X0187448Y0095360D02*
X0201880Y0095360D01*
X0201880Y0096359D02*
X0186450Y0096359D01*
X0185451Y0097357D02*
X0189220Y0097357D01*
X0187998Y0098356D02*
X0184453Y0098356D01*
X0183900Y0099354D02*
X0187302Y0099354D01*
X0186888Y0100353D02*
X0183900Y0100353D01*
X0183900Y0101351D02*
X0186800Y0101351D01*
X0185842Y0102350D02*
X0183900Y0102350D01*
X0183900Y0103348D02*
X0184844Y0103348D01*
X0167100Y0095360D02*
X0122676Y0095360D01*
X0122943Y0094362D02*
X0167100Y0094362D01*
X0167100Y0093363D02*
X0122943Y0093363D01*
X0122943Y0092365D02*
X0167100Y0092365D01*
X0167100Y0091366D02*
X0122943Y0091366D01*
X0122943Y0090368D02*
X0167100Y0090368D01*
X0167100Y0089369D02*
X0122943Y0089369D01*
X0122943Y0088370D02*
X0167100Y0088370D01*
X0167100Y0087372D02*
X0122943Y0087372D01*
X0122575Y0086373D02*
X0167100Y0086373D01*
X0167100Y0085375D02*
X0121674Y0085375D01*
X0116500Y0084000D02*
X0116500Y0090988D01*
X0116000Y0098356D02*
X0117000Y0098356D01*
X0117000Y0099354D02*
X0116000Y0099354D01*
X0116000Y0100353D02*
X0117000Y0100353D01*
X0117000Y0101351D02*
X0116000Y0101351D01*
X0133432Y0084376D02*
X0167100Y0084376D01*
X0167100Y0083378D02*
X0134430Y0083378D01*
X0135429Y0082379D02*
X0167100Y0082379D01*
X0167100Y0081381D02*
X0136427Y0081381D01*
X0137108Y0080382D02*
X0167100Y0080382D01*
X0167100Y0079384D02*
X0137400Y0079384D01*
X0137400Y0078385D02*
X0167100Y0078385D01*
X0167100Y0077387D02*
X0137400Y0077387D01*
X0137400Y0076388D02*
X0167100Y0076388D01*
X0167100Y0075390D02*
X0137400Y0075390D01*
X0112266Y0072394D02*
X0109900Y0072394D01*
X0109900Y0071396D02*
X0111902Y0071396D01*
X0103100Y0071396D02*
X0101098Y0071396D01*
X0100734Y0072394D02*
X0103100Y0072394D01*
X0094200Y0068400D02*
X0093200Y0068400D01*
X0093200Y0067402D02*
X0094200Y0067402D01*
X0094200Y0066403D02*
X0093200Y0066403D01*
X0098078Y0058415D02*
X0103100Y0058415D01*
X0103100Y0057417D02*
X0100227Y0057417D01*
X0101226Y0056418D02*
X0103100Y0056418D01*
X0079300Y0052600D02*
X0066500Y0052600D01*
X0053700Y0052600D01*
X0049322Y0058415D02*
X0043678Y0058415D01*
X0045827Y0057417D02*
X0047173Y0057417D01*
X0058078Y0058415D02*
X0063100Y0058415D01*
X0063100Y0057417D02*
X0060227Y0057417D01*
X0061226Y0056418D02*
X0063100Y0056418D01*
X0063100Y0059414D02*
X0029900Y0059414D01*
X0029900Y0060412D02*
X0063100Y0060412D01*
X0063100Y0061411D02*
X0029900Y0061411D01*
X0029900Y0062409D02*
X0063100Y0062409D01*
X0063100Y0063408D02*
X0029900Y0063408D01*
X0029900Y0064406D02*
X0063100Y0064406D01*
X0048621Y0074391D02*
X0044379Y0074391D01*
X0045671Y0073393D02*
X0047329Y0073393D01*
X0046666Y0072394D02*
X0046334Y0072394D01*
X0034922Y0058415D02*
X0029900Y0058415D01*
X0029900Y0057417D02*
X0032773Y0057417D01*
X0031774Y0056418D02*
X0029900Y0056418D01*
X0026500Y0052600D02*
X0013700Y0052600D01*
X0018078Y0058415D02*
X0023100Y0058415D01*
X0023100Y0057417D02*
X0020227Y0057417D01*
X0021226Y0056418D02*
X0023100Y0056418D01*
X0014200Y0066403D02*
X0013200Y0066403D01*
X0013200Y0067402D02*
X0014200Y0067402D01*
X0014200Y0068400D02*
X0013200Y0068400D01*
X0013200Y0071396D02*
X0014200Y0071396D01*
X0014200Y0072394D02*
X0013200Y0072394D01*
X0013200Y0073393D02*
X0014200Y0073393D01*
X0014200Y0074391D02*
X0013200Y0074391D01*
X0013200Y0039443D02*
X0014200Y0039443D01*
X0014200Y0038445D02*
X0013200Y0038445D01*
X0013200Y0037446D02*
X0014200Y0037446D01*
X0014200Y0036448D02*
X0013200Y0036448D01*
X0013200Y0033452D02*
X0014200Y0033452D01*
X0014200Y0032454D02*
X0013200Y0032454D01*
X0013200Y0031455D02*
X0014200Y0031455D01*
X0006692Y0037446D02*
X0004000Y0037446D01*
X0004000Y0036448D02*
X0006310Y0036448D01*
X0007381Y0038445D02*
X0004000Y0038445D01*
X0004000Y0039443D02*
X0008724Y0039443D01*
X0045365Y0012484D02*
X0047635Y0012484D01*
X0059765Y0012484D02*
X0073235Y0012484D01*
X0072074Y0013482D02*
X0060926Y0013482D01*
X0066500Y0017600D02*
X0079300Y0017600D01*
X0075047Y0023467D02*
X0069900Y0023467D01*
X0069900Y0022469D02*
X0072825Y0022469D01*
X0071826Y0021470D02*
X0069900Y0021470D01*
X0063100Y0021470D02*
X0061174Y0021470D01*
X0060175Y0022469D02*
X0063100Y0022469D01*
X0063100Y0023467D02*
X0057953Y0023467D01*
X0083553Y0023467D02*
X0089447Y0023467D01*
X0087225Y0022469D02*
X0085775Y0022469D01*
X0093700Y0017600D02*
X0106500Y0017600D01*
X0100926Y0013482D02*
X0112074Y0013482D01*
X0113235Y0012484D02*
X0099765Y0012484D01*
X0087635Y0012484D02*
X0085365Y0012484D01*
X0125365Y0012484D02*
X0325772Y0012484D01*
X0325772Y0013482D02*
X0126526Y0013482D01*
X0127394Y0014481D02*
X0288524Y0014481D01*
X0287526Y0015479D02*
X0127808Y0015479D01*
X0178886Y0053423D02*
X0258100Y0053423D01*
X0258100Y0054421D02*
X0177887Y0054421D01*
X0176889Y0055420D02*
X0258100Y0055420D01*
X0258100Y0056418D02*
X0175890Y0056418D01*
X0174892Y0057417D02*
X0258100Y0057417D01*
X0258100Y0058415D02*
X0173900Y0058415D01*
X0173900Y0059414D02*
X0258100Y0059414D01*
X0258100Y0060412D02*
X0173900Y0060412D01*
X0173900Y0061411D02*
X0258100Y0061411D01*
X0258100Y0062409D02*
X0173900Y0062409D01*
X0173900Y0063408D02*
X0258100Y0063408D01*
X0258100Y0064406D02*
X0173900Y0064406D01*
X0173900Y0065405D02*
X0258100Y0065405D01*
X0258100Y0066403D02*
X0173900Y0066403D01*
X0173900Y0067402D02*
X0258100Y0067402D01*
X0258100Y0068400D02*
X0173900Y0068400D01*
X0173900Y0069399D02*
X0258100Y0069399D01*
X0258100Y0070397D02*
X0173900Y0070397D01*
X0173900Y0071396D02*
X0258100Y0071396D01*
X0258100Y0072394D02*
X0173900Y0072394D01*
X0173900Y0073393D02*
X0258100Y0073393D01*
X0258100Y0074391D02*
X0173900Y0074391D01*
X0173900Y0075390D02*
X0256304Y0075390D01*
X0255418Y0076388D02*
X0173900Y0076388D01*
X0173900Y0077387D02*
X0255057Y0077387D01*
X0255057Y0078385D02*
X0173900Y0078385D01*
X0173900Y0079384D02*
X0255057Y0079384D01*
X0255057Y0080382D02*
X0173900Y0080382D01*
X0173900Y0081381D02*
X0255057Y0081381D01*
X0255057Y0082379D02*
X0218834Y0082379D01*
X0220025Y0083378D02*
X0255057Y0083378D01*
X0255057Y0084376D02*
X0220708Y0084376D01*
X0221121Y0085375D02*
X0255330Y0085375D01*
X0256091Y0086373D02*
X0221200Y0086373D01*
X0221200Y0087372D02*
X0255435Y0087372D01*
X0255057Y0088370D02*
X0220812Y0088370D01*
X0220278Y0089369D02*
X0255057Y0089369D01*
X0255057Y0090368D02*
X0219279Y0090368D01*
X0218522Y0091366D02*
X0255057Y0091366D01*
X0261500Y0080988D02*
X0261500Y0036500D01*
X0269000Y0029000D01*
X0291500Y0029000D01*
X0287540Y0025464D02*
X0239107Y0025464D01*
X0240010Y0024466D02*
X0288539Y0024466D01*
X0288472Y0023467D02*
X0240423Y0023467D01*
X0240772Y0022469D02*
X0287473Y0022469D01*
X0286475Y0021470D02*
X0240772Y0021470D01*
X0240772Y0020472D02*
X0286200Y0020472D01*
X0286200Y0019473D02*
X0240364Y0019473D01*
X0239951Y0018475D02*
X0286200Y0018475D01*
X0286200Y0017476D02*
X0238965Y0017476D01*
X0237343Y0016478D02*
X0286527Y0016478D01*
X0291500Y0019000D02*
X0311500Y0039000D01*
X0311500Y0044000D01*
X0319000Y0051500D01*
X0319000Y0059000D01*
X0314000Y0064000D01*
X0301500Y0064000D01*
X0294000Y0071500D01*
X0294000Y0099000D01*
X0286500Y0096500D02*
X0286500Y0092012D01*
X0286500Y0096500D02*
X0281500Y0101500D01*
X0274000Y0101500D01*
X0275474Y0112335D02*
X0304044Y0112335D01*
X0305598Y0113333D02*
X0274900Y0113333D01*
X0274900Y0114332D02*
X0308840Y0114332D01*
X0317160Y0114332D02*
X0325772Y0114332D01*
X0325772Y0115330D02*
X0276566Y0115330D01*
X0277557Y0116329D02*
X0325772Y0116329D01*
X0325772Y0117327D02*
X0319742Y0117327D01*
X0320000Y0118326D02*
X0325772Y0118326D01*
X0325772Y0119324D02*
X0320000Y0119324D01*
X0320000Y0120323D02*
X0325772Y0120323D01*
X0325772Y0121321D02*
X0320000Y0121321D01*
X0320000Y0122320D02*
X0325772Y0122320D01*
X0325772Y0123318D02*
X0320000Y0123318D01*
X0320000Y0124317D02*
X0325772Y0124317D01*
X0325772Y0125315D02*
X0320000Y0125315D01*
X0320000Y0126314D02*
X0325772Y0126314D01*
X0325772Y0127312D02*
X0320000Y0127312D01*
X0320000Y0128311D02*
X0325772Y0128311D01*
X0325772Y0129309D02*
X0320000Y0129309D01*
X0320000Y0130308D02*
X0325772Y0130308D01*
X0325772Y0131306D02*
X0320000Y0131306D01*
X0320000Y0132305D02*
X0325772Y0132305D01*
X0325772Y0133303D02*
X0320000Y0133303D01*
X0320000Y0134302D02*
X0325772Y0134302D01*
X0325772Y0135301D02*
X0320000Y0135301D01*
X0320000Y0136299D02*
X0325772Y0136299D01*
X0325772Y0137298D02*
X0320000Y0137298D01*
X0320000Y0138296D02*
X0325772Y0138296D01*
X0325772Y0139295D02*
X0320000Y0139295D01*
X0320000Y0140293D02*
X0325772Y0140293D01*
X0325772Y0141292D02*
X0320000Y0141292D01*
X0320000Y0142290D02*
X0325772Y0142290D01*
X0325772Y0143289D02*
X0320000Y0143289D01*
X0320000Y0144287D02*
X0325772Y0144287D01*
X0325772Y0145286D02*
X0320000Y0145286D01*
X0320000Y0146284D02*
X0325772Y0146284D01*
X0325772Y0147283D02*
X0320000Y0147283D01*
X0320000Y0148281D02*
X0325772Y0148281D01*
X0325772Y0149280D02*
X0320000Y0149280D01*
X0320000Y0150278D02*
X0325772Y0150278D01*
X0325772Y0151277D02*
X0320000Y0151277D01*
X0320000Y0152275D02*
X0325772Y0152275D01*
X0325772Y0153274D02*
X0320000Y0153274D01*
X0320000Y0154272D02*
X0325772Y0154272D01*
X0325772Y0155271D02*
X0320000Y0155271D01*
X0320000Y0156269D02*
X0325772Y0156269D01*
X0325772Y0157268D02*
X0320000Y0157268D01*
X0320000Y0158266D02*
X0325772Y0158266D01*
X0325772Y0159265D02*
X0320000Y0159265D01*
X0320000Y0160263D02*
X0325772Y0160263D01*
X0325772Y0161262D02*
X0320000Y0161262D01*
X0320000Y0162260D02*
X0325772Y0162260D01*
X0325772Y0163259D02*
X0320000Y0163259D01*
X0320000Y0164257D02*
X0325772Y0164257D01*
X0325772Y0165256D02*
X0320000Y0165256D01*
X0320000Y0166254D02*
X0325772Y0166254D01*
X0325772Y0167253D02*
X0320000Y0167253D01*
X0320000Y0168251D02*
X0325772Y0168251D01*
X0325772Y0169250D02*
X0320000Y0169250D01*
X0320000Y0170248D02*
X0325772Y0170248D01*
X0325772Y0171247D02*
X0320000Y0171247D01*
X0320000Y0172245D02*
X0325772Y0172245D01*
X0325772Y0173244D02*
X0320000Y0173244D01*
X0320000Y0174242D02*
X0325772Y0174242D01*
X0325772Y0175241D02*
X0320000Y0175241D01*
X0320000Y0176239D02*
X0325772Y0176239D01*
X0325772Y0177238D02*
X0320000Y0177238D01*
X0320000Y0178237D02*
X0325772Y0178237D01*
X0325772Y0179235D02*
X0320000Y0179235D01*
X0320000Y0180234D02*
X0325772Y0180234D01*
X0325772Y0181232D02*
X0320000Y0181232D01*
X0320000Y0182231D02*
X0325772Y0182231D01*
X0325772Y0183229D02*
X0320000Y0183229D01*
X0320000Y0184228D02*
X0325772Y0184228D01*
X0325772Y0185226D02*
X0320000Y0185226D01*
X0320000Y0186225D02*
X0325772Y0186225D01*
X0325772Y0187223D02*
X0320000Y0187223D01*
X0320000Y0188222D02*
X0325772Y0188222D01*
X0325772Y0189220D02*
X0320000Y0189220D01*
X0320000Y0190219D02*
X0325772Y0190219D01*
X0325772Y0191217D02*
X0320000Y0191217D01*
X0320000Y0192216D02*
X0325772Y0192216D01*
X0325772Y0193214D02*
X0320000Y0193214D01*
X0320000Y0194213D02*
X0325772Y0194213D01*
X0325772Y0195211D02*
X0320000Y0195211D01*
X0320000Y0196210D02*
X0325772Y0196210D01*
X0325772Y0197208D02*
X0320000Y0197208D01*
X0320000Y0198207D02*
X0325772Y0198207D01*
X0325772Y0199205D02*
X0320000Y0199205D01*
X0318968Y0203199D02*
X0325772Y0203199D01*
X0325772Y0202201D02*
X0315568Y0202201D01*
X0321229Y0204198D02*
X0325772Y0204198D01*
X0325772Y0205196D02*
X0322783Y0205196D01*
X0324336Y0206195D02*
X0325772Y0206195D01*
X0325772Y0207193D02*
X0325256Y0207193D01*
X0274681Y0190219D02*
X0270319Y0190219D01*
X0271624Y0189220D02*
X0273376Y0189220D01*
X0264681Y0190219D02*
X0260319Y0190219D01*
X0261624Y0189220D02*
X0263376Y0189220D01*
X0267500Y0182000D02*
X0267500Y0170500D01*
X0271500Y0166500D01*
X0271500Y0132012D01*
X0265057Y0132305D02*
X0260503Y0132305D01*
X0259505Y0133303D02*
X0265057Y0133303D01*
X0265057Y0134302D02*
X0258700Y0134302D01*
X0258549Y0135301D02*
X0265057Y0135301D01*
X0265289Y0136299D02*
X0258135Y0136299D01*
X0257349Y0137298D02*
X0265992Y0137298D01*
X0268100Y0138296D02*
X0255910Y0138296D01*
X0253514Y0139295D02*
X0268100Y0139295D01*
X0268100Y0140293D02*
X0252515Y0140293D01*
X0251517Y0141292D02*
X0268100Y0141292D01*
X0268100Y0142290D02*
X0250518Y0142290D01*
X0249520Y0143289D02*
X0268100Y0143289D01*
X0268100Y0144287D02*
X0248521Y0144287D01*
X0247523Y0145286D02*
X0268100Y0145286D01*
X0268100Y0146284D02*
X0246524Y0146284D01*
X0245526Y0147283D02*
X0268100Y0147283D01*
X0268100Y0148281D02*
X0244527Y0148281D01*
X0243529Y0149280D02*
X0268100Y0149280D01*
X0268100Y0150278D02*
X0259425Y0150278D01*
X0260423Y0151277D02*
X0268100Y0151277D01*
X0268100Y0152275D02*
X0260873Y0152275D01*
X0261200Y0153274D02*
X0268100Y0153274D01*
X0268100Y0154272D02*
X0261200Y0154272D01*
X0261061Y0155271D02*
X0268100Y0155271D01*
X0268100Y0156269D02*
X0260900Y0156269D01*
X0260900Y0157268D02*
X0268100Y0157268D01*
X0268100Y0158266D02*
X0260900Y0158266D01*
X0260900Y0159265D02*
X0268100Y0159265D01*
X0268100Y0160263D02*
X0260900Y0160263D01*
X0260900Y0161262D02*
X0268100Y0161262D01*
X0268100Y0162260D02*
X0260900Y0162260D01*
X0260900Y0163259D02*
X0268100Y0163259D01*
X0268100Y0164257D02*
X0260900Y0164257D01*
X0260900Y0165256D02*
X0267936Y0165256D01*
X0266937Y0166254D02*
X0260900Y0166254D01*
X0260900Y0167253D02*
X0265939Y0167253D01*
X0264940Y0168251D02*
X0260900Y0168251D01*
X0260900Y0169250D02*
X0264338Y0169250D01*
X0264100Y0170248D02*
X0260900Y0170248D01*
X0260900Y0171247D02*
X0264100Y0171247D01*
X0264100Y0172245D02*
X0260900Y0172245D01*
X0260900Y0173244D02*
X0264100Y0173244D01*
X0263914Y0174242D02*
X0261086Y0174242D01*
X0262085Y0175241D02*
X0262915Y0175241D01*
X0257500Y0182000D02*
X0257500Y0155000D01*
X0256500Y0154000D01*
X0253121Y0157268D02*
X0240900Y0157268D01*
X0240900Y0156269D02*
X0252353Y0156269D01*
X0251939Y0155271D02*
X0240900Y0155271D01*
X0240900Y0154272D02*
X0251800Y0154272D01*
X0251800Y0153274D02*
X0240900Y0153274D01*
X0240900Y0152275D02*
X0252127Y0152275D01*
X0252576Y0151277D02*
X0241532Y0151277D01*
X0242530Y0150278D02*
X0253575Y0150278D01*
X0261502Y0131306D02*
X0265057Y0131306D01*
X0265057Y0130308D02*
X0262500Y0130308D01*
X0263499Y0129309D02*
X0265057Y0129309D01*
X0265057Y0128311D02*
X0264497Y0128311D01*
X0215122Y0117250D02*
X0215122Y0087878D01*
X0216500Y0086500D01*
X0205280Y0090280D02*
X0201500Y0086500D01*
X0205280Y0090280D02*
X0205280Y0117250D01*
X0214000Y0144000D02*
X0212248Y0145752D01*
X0242085Y0175241D02*
X0245018Y0175241D01*
X0243943Y0176239D02*
X0242743Y0176239D01*
X0243156Y0177238D02*
X0243347Y0177238D01*
X0247000Y0176239D02*
X0248000Y0176239D01*
X0248000Y0175241D02*
X0247000Y0175241D01*
X0320402Y0113333D02*
X0325772Y0113333D01*
X0325772Y0112335D02*
X0321956Y0112335D01*
X0323510Y0111336D02*
X0325772Y0111336D01*
X0325772Y0110338D02*
X0324796Y0110338D01*
X0325661Y0109339D02*
X0325772Y0109339D01*
X0297671Y0089369D02*
X0297400Y0089369D01*
X0297400Y0088370D02*
X0298127Y0088370D01*
X0297400Y0087372D02*
X0298856Y0087372D01*
X0299721Y0086373D02*
X0297400Y0086373D01*
X0297400Y0085375D02*
X0300586Y0085375D01*
X0301452Y0084376D02*
X0297400Y0084376D01*
X0297400Y0083378D02*
X0302935Y0083378D01*
X0301540Y0084274D02*
X0301540Y0084274D01*
X0304489Y0082379D02*
X0297400Y0082379D01*
X0297400Y0081381D02*
X0306413Y0081381D01*
X0309814Y0080382D02*
X0297400Y0080382D01*
X0297400Y0079384D02*
X0325772Y0079384D01*
X0325772Y0080382D02*
X0316186Y0080382D01*
X0319587Y0081381D02*
X0325772Y0081381D01*
X0325772Y0082379D02*
X0321511Y0082379D01*
X0320270Y0081581D02*
X0320270Y0081581D01*
X0323065Y0083378D02*
X0325772Y0083378D01*
X0325772Y0084376D02*
X0324548Y0084376D01*
X0325414Y0085375D02*
X0325772Y0085375D01*
X0325772Y0078385D02*
X0297400Y0078385D01*
X0297400Y0077387D02*
X0325772Y0077387D01*
X0325772Y0076388D02*
X0297400Y0076388D01*
X0297400Y0075390D02*
X0325772Y0075390D01*
X0325772Y0074391D02*
X0297400Y0074391D01*
X0297400Y0073393D02*
X0325772Y0073393D01*
X0325772Y0072394D02*
X0297914Y0072394D01*
X0298913Y0071396D02*
X0325772Y0071396D01*
X0325772Y0070397D02*
X0299911Y0070397D01*
X0300910Y0069399D02*
X0325772Y0069399D01*
X0325772Y0068400D02*
X0301908Y0068400D01*
X0302907Y0067402D02*
X0325772Y0067402D01*
X0325772Y0066403D02*
X0316405Y0066403D01*
X0317404Y0065405D02*
X0325772Y0065405D01*
X0325772Y0064406D02*
X0318402Y0064406D01*
X0319401Y0063408D02*
X0325772Y0063408D01*
X0325772Y0062409D02*
X0320399Y0062409D01*
X0321398Y0061411D02*
X0325772Y0061411D01*
X0325772Y0060412D02*
X0322095Y0060412D01*
X0322400Y0059414D02*
X0325772Y0059414D01*
X0325772Y0058415D02*
X0322400Y0058415D01*
X0322400Y0057417D02*
X0325772Y0057417D01*
X0325772Y0056418D02*
X0322400Y0056418D01*
X0322400Y0055420D02*
X0325772Y0055420D01*
X0325772Y0054421D02*
X0322400Y0054421D01*
X0322400Y0053423D02*
X0325772Y0053423D01*
X0325772Y0052424D02*
X0322400Y0052424D01*
X0322400Y0051426D02*
X0325772Y0051426D01*
X0325772Y0050427D02*
X0322236Y0050427D01*
X0321737Y0049429D02*
X0325772Y0049429D01*
X0325772Y0048430D02*
X0320738Y0048430D01*
X0319740Y0047432D02*
X0325772Y0047432D01*
X0325772Y0046433D02*
X0318741Y0046433D01*
X0317743Y0045434D02*
X0325772Y0045434D01*
X0325772Y0044436D02*
X0316800Y0044436D01*
X0316800Y0043437D02*
X0325772Y0043437D01*
X0325772Y0042439D02*
X0316800Y0042439D01*
X0316436Y0041440D02*
X0325772Y0041440D01*
X0325772Y0040442D02*
X0315437Y0040442D01*
X0314900Y0039443D02*
X0325772Y0039443D01*
X0325772Y0038445D02*
X0314900Y0038445D01*
X0314537Y0037446D02*
X0325772Y0037446D01*
X0325772Y0036448D02*
X0313756Y0036448D01*
X0312758Y0035449D02*
X0325772Y0035449D01*
X0325772Y0034451D02*
X0311759Y0034451D01*
X0310761Y0033452D02*
X0325772Y0033452D01*
X0325772Y0032454D02*
X0309762Y0032454D01*
X0308764Y0031455D02*
X0325772Y0031455D01*
X0325772Y0030457D02*
X0307765Y0030457D01*
X0306767Y0029458D02*
X0325772Y0029458D01*
X0325772Y0028460D02*
X0305768Y0028460D01*
X0304770Y0027461D02*
X0325772Y0027461D01*
X0325772Y0026463D02*
X0303771Y0026463D01*
X0302773Y0025464D02*
X0325772Y0025464D01*
X0325772Y0024466D02*
X0301774Y0024466D01*
X0300776Y0023467D02*
X0325772Y0023467D01*
X0325772Y0022469D02*
X0299777Y0022469D01*
X0298779Y0021470D02*
X0325772Y0021470D01*
X0325772Y0020472D02*
X0297780Y0020472D01*
X0296800Y0019473D02*
X0325772Y0019473D01*
X0325772Y0018475D02*
X0296800Y0018475D01*
X0296800Y0017476D02*
X0325772Y0017476D01*
X0325772Y0016478D02*
X0296473Y0016478D01*
X0295474Y0015479D02*
X0325772Y0015479D01*
X0325772Y0014481D02*
X0294476Y0014481D01*
X0264732Y0028460D02*
X0248701Y0028460D01*
X0249404Y0029458D02*
X0263733Y0029458D01*
X0262735Y0030457D02*
X0249636Y0030457D01*
X0249636Y0031455D02*
X0261736Y0031455D01*
X0260738Y0032454D02*
X0249636Y0032454D01*
X0249636Y0033452D02*
X0259739Y0033452D01*
X0258741Y0034451D02*
X0249636Y0034451D01*
X0249636Y0035449D02*
X0258255Y0035449D01*
X0258100Y0036448D02*
X0249636Y0036448D01*
X0249636Y0037446D02*
X0258100Y0037446D01*
X0258100Y0038445D02*
X0249636Y0038445D01*
X0249472Y0039443D02*
X0258100Y0039443D01*
X0258100Y0044436D02*
X0193970Y0044436D01*
X0195081Y0045434D02*
X0258100Y0045434D01*
X0258100Y0046433D02*
X0195731Y0046433D01*
X0196145Y0047432D02*
X0258100Y0047432D01*
X0258100Y0048430D02*
X0196200Y0048430D01*
X0196200Y0049429D02*
X0258100Y0049429D01*
X0258100Y0050427D02*
X0195789Y0050427D01*
X0195221Y0051426D02*
X0258100Y0051426D01*
X0258100Y0052424D02*
X0194223Y0052424D01*
X0188777Y0052424D02*
X0179884Y0052424D01*
X0179166Y0082379D02*
X0173900Y0082379D01*
X0173900Y0083378D02*
X0177975Y0083378D01*
X0177292Y0084376D02*
X0173900Y0084376D01*
X0173900Y0085375D02*
X0176879Y0085375D01*
X0176800Y0086373D02*
X0173900Y0086373D01*
X0173900Y0087372D02*
X0175820Y0087372D01*
X0174821Y0088370D02*
X0173900Y0088370D01*
X0091500Y0079000D02*
X0086500Y0084000D01*
X0086500Y0090988D01*
X0071500Y0090988D02*
X0071500Y0084000D01*
X0079000Y0076500D01*
X0009730Y0113419D02*
X0009730Y0113419D01*
X0009598Y0113333D02*
X0004000Y0113333D01*
X0004000Y0112335D02*
X0008044Y0112335D01*
X0006490Y0111336D02*
X0004000Y0111336D01*
X0004000Y0110338D02*
X0005204Y0110338D01*
X0004339Y0109339D02*
X0004000Y0109339D01*
X0027428Y0151277D02*
X0055417Y0151277D01*
X0054982Y0152275D02*
X0029150Y0152275D01*
X0025516Y0156500D02*
X0060988Y0156500D01*
X0031927Y0179235D02*
X0028660Y0179235D01*
X0029297Y0178237D02*
X0030928Y0178237D01*
X0029930Y0177238D02*
X0029608Y0177238D01*
X0027346Y0180234D02*
X0032925Y0180234D01*
X0014509Y0202178D02*
X0014509Y0202178D01*
X0014432Y0202201D02*
X0004000Y0202201D01*
X0004000Y0203199D02*
X0011032Y0203199D01*
X0008771Y0204198D02*
X0004000Y0204198D01*
X0004000Y0205196D02*
X0007217Y0205196D01*
X0005664Y0206195D02*
X0004000Y0206195D01*
X0004000Y0207193D02*
X0004744Y0207193D01*
X0032999Y0226165D02*
X0036389Y0226165D01*
X0035375Y0225167D02*
X0033455Y0225167D01*
X0033829Y0224168D02*
X0034810Y0224168D01*
X0034550Y0223170D02*
X0033972Y0223170D01*
X0034116Y0222171D02*
X0034500Y0222171D01*
X0034500Y0221172D02*
X0034260Y0221172D01*
X0034403Y0220174D02*
X0034500Y0220174D01*
X0038500Y0220174D02*
X0039500Y0220174D01*
X0039500Y0221172D02*
X0038500Y0221172D01*
X0038500Y0222171D02*
X0039500Y0222171D01*
X0039500Y0223170D02*
X0038500Y0223170D01*
X0038500Y0224168D02*
X0039500Y0224168D01*
X0039500Y0225167D02*
X0038500Y0225167D01*
X0038500Y0226165D02*
X0039500Y0226165D01*
X0041611Y0226165D02*
X0044321Y0226165D01*
X0043718Y0225167D02*
X0042625Y0225167D01*
X0043190Y0224168D02*
X0043305Y0224168D01*
X0045320Y0227164D02*
X0032543Y0227164D01*
X0032087Y0228162D02*
X0046008Y0228162D01*
X0046852Y0229161D02*
X0031549Y0229161D01*
X0030684Y0230159D02*
X0047851Y0230159D01*
X0048849Y0231158D02*
X0029819Y0231158D01*
X0090124Y0185226D02*
X0092876Y0185226D01*
X0274000Y0080988D02*
X0274000Y0056500D01*
X0271500Y0054000D01*
X0271500Y0044000D02*
X0311500Y0044000D01*
X0311500Y0054000D02*
X0291500Y0054000D01*
X0286500Y0059000D01*
X0286500Y0080988D01*
D26*
X0244000Y0034000D02*
X0239000Y0034000D01*
X0236500Y0031500D01*
X0136500Y0031500D01*
X0141500Y0036500D01*
X0141500Y0081500D01*
X0131500Y0091500D01*
X0131500Y0106500D01*
X0126500Y0111500D01*
X0116500Y0111500D01*
X0116500Y0102012D01*
X0116500Y0111500D02*
X0101500Y0111500D01*
X0101500Y0102012D01*
X0101500Y0111500D02*
X0086500Y0111500D01*
X0086500Y0120988D01*
X0086500Y0111500D02*
X0071500Y0111500D01*
X0071500Y0120988D01*
X0071500Y0111500D02*
X0071500Y0102012D01*
X0071500Y0111500D02*
X0056500Y0111500D01*
X0056500Y0102012D01*
X0056500Y0111500D02*
X0041500Y0111500D01*
X0041500Y0121087D01*
X0041500Y0111500D02*
X0034000Y0111500D01*
X0014000Y0131500D01*
X0014000Y0166500D01*
X0024000Y0176500D01*
X0025516Y0176500D01*
X0085988Y0166500D02*
X0085988Y0156500D01*
X0106500Y0156500D01*
X0085988Y0156500D02*
X0085988Y0146500D01*
X0056500Y0121087D02*
X0056500Y0111500D01*
X0041500Y0111500D02*
X0041500Y0102012D01*
X0086500Y0102012D02*
X0086500Y0111500D01*
X0244000Y0034000D02*
X0244000Y0014000D01*
D27*
X0244000Y0014000D03*
X0191500Y0048500D03*
X0191500Y0086500D03*
X0181500Y0086500D03*
X0191500Y0101500D03*
X0201500Y0086500D03*
X0210500Y0097500D03*
X0216500Y0086500D03*
X0176500Y0127500D03*
X0171500Y0131500D03*
X0171500Y0146500D03*
X0176500Y0149000D03*
X0174000Y0159000D03*
X0174000Y0166500D03*
X0179000Y0176500D03*
X0191500Y0171500D03*
X0214000Y0169000D03*
X0214000Y0174000D03*
X0214000Y0179000D03*
X0181500Y0191500D03*
X0176500Y0191500D03*
X0156500Y0184000D03*
X0151500Y0186500D03*
X0146500Y0189000D03*
X0140201Y0167799D03*
X0106500Y0156500D03*
X0191500Y0146500D03*
X0198500Y0131500D03*
X0214000Y0134000D03*
X0254000Y0134000D03*
X0256500Y0154000D03*
D28*
X0204335Y0161500D02*
X0204335Y0164650D01*
X0198350Y0164650D01*
X0191500Y0171500D01*
X0181500Y0179000D02*
X0179000Y0176500D01*
X0181500Y0179000D02*
X0181500Y0184335D01*
X0174000Y0166500D02*
X0169000Y0161500D01*
X0158665Y0161500D01*
X0184650Y0144650D02*
X0186500Y0146500D01*
X0191500Y0146500D01*
X0184650Y0144650D02*
X0184650Y0138665D01*
M02*
